{"asset":{"version":"2.0","generator":"babylon.js glTF exporter for 3dsmax 2018 v20210615.1"},"extensionsUsed":["KHR_texture_transform"],"extensionsRequired":["KHR_texture_transform"],"scene":0,"scenes":[{"nodes":[0]}],"nodes":[{"children":[1,2,3,4,5,6,7,8,9,10,11,12,13,14,15,16,17,18],"translation":[0.0,0.0,2.670288E-07],"name":"Group001"},{"mesh":0,"translation":[-0.406950533,0.187141612,0.355486363],"rotation":[0.499999881,-0.5000001,0.5000002,0.499999821],"scale":[0.099999994,0.099999994,0.099999994],"name":"modrenk2"},{"mesh":1,"translation":[0.23390606,0.151656523,-0.03132206],"rotation":[-0.07898491,-0.0789849162,0.7026816,0.702681541],"scale":[0.196244568,0.196244612,0.1962446],"name":"modvideo1"},{"mesh":2,"translation":[0.4192008,0.15029788,-0.312503219],"rotation":[-0.432667881,-0.5592842,0.432667673,0.559283853],"scale":[0.120986506,0.120986506,0.1209865],"name":"modlogo1"},{"mesh":3,"translation":[-0.421868354,0.17699,0.3558193],"rotation":[-2.10734243E-07,-2.10734257E-07,0.7071068,0.7071067],"scale":[0.07572738,0.06550801,0.07572738],"name":"modgorsel6"},{"mesh":4,"translation":[-0.4046943,0.177063331,0.354392767],"rotation":[-0.7071067,-0.7071068,3.410831E-07,3.410831E-07],"scale":[0.07501486,0.07501486,0.07501486],"name":"modgorsel7"},{"mesh":5,"translation":[0.278612316,0.146122932,0.5007289],"rotation":[0.5000002,0.5,0.499999881,0.5],"scale":[0.115404256,0.115404256,0.115404256],"name":"modgorsel1"},{"mesh":6,"translation":[0.413096547,0.215846747,0.277081877],"rotation":[-2.10734257E-07,-2.10734271E-07,0.7071068,0.7071067],"scale":[0.0509511679,0.0509511679,0.0509511679],"name":"modgorsel2"},{"mesh":7,"translation":[0.413096458,0.215846747,0.408560634],"rotation":[-2.10734257E-07,-2.10734271E-07,0.7071068,0.7071067],"scale":[0.0509511679,0.0509511679,0.0509511679],"name":"modgorsel3"},{"mesh":8,"translation":[0.413096547,0.09703014,0.277081877],"rotation":[-2.10734257E-07,-2.10734271E-07,0.7071068,0.7071067],"scale":[0.0509511679,0.0509511679,0.0509511679],"name":"modgorsel4"},{"mesh":9,"translation":[0.413096458,0.09703014,0.408560634],"rotation":[-2.10734257E-07,-2.10734271E-07,0.7071068,0.7071067],"scale":[0.0509511679,0.0509511679,0.0509511679],"name":"modgorsel5"},{"mesh":10,"translation":[0.5703845,0.39682433,-0.261858433],"rotation":[-2.10734243E-07,-2.10734257E-07,0.7071068,0.7071067],"scale":[0.0839541554,0.0839541554,0.0839541554],"name":"modlogo2"},{"mesh":11,"translation":[-0.224709243,0.196589231,0.480737448],"rotation":[0.7071068,-1.68587377E-07,1.685874E-07,0.7071067],"name":"modrenk1"},{"mesh":12,"translation":[-0.224709243,0.196589231,0.480737448],"rotation":[0.7071068,-1.68587377E-07,1.685874E-07,0.7071067],"name":"modkaro1"},{"mesh":13,"translation":[0.588471651,0.3942854,-0.261826038],"rotation":[-0.7071067,-0.7071068,3.410831E-07,3.410831E-07],"scale":[0.083954,0.083954,0.083954],"name":"modlogo3"},{"mesh":14,"translation":[0.273148537,0.151299536,0.195515215],"rotation":[-2.63846811E-08,-0.707106948,-0.7071066,2.567894E-07],"scale":[0.147999644,0.147999644,0.147999644],"name":"moddikyazi1"},{"mesh":15,"translation":[0.594903231,0.177544266,0.32832244],"rotation":[-0.7071069,-0.70710665,1.51422256E-07,1.51422284E-07],"scale":[0.13698855,0.13698855,0.13698855],"name":"modgorsel8"},{"mesh":16,"translation":[0.594903231,0.177544266,0.00553020462],"rotation":[-0.7071069,-0.70710665,1.51422256E-07,1.51422284E-07],"scale":[0.13698855,0.13698855,0.13698855],"name":"modgorsel9"},{"mesh":17,"translation":[0.4763907,0.146245942,0.5024128],"rotation":[-2.63846918E-08,-0.707106948,-0.7071066,2.56789377E-07],"scale":[0.159662619,0.159662619,0.159662619],"name":"moddikyazi2"}],"meshes":[{"primitives":[{"attributes":{"POSITION":1,"NORMAL":2,"TEXCOORD_0":3},"indices":0,"material":0}],"name":"modrenk2"},{"primitives":[{"attributes":{"POSITION":5,"NORMAL":6,"TEXCOORD_0":7},"indices":4,"material":1}],"name":"modvideo1"},{"primitives":[{"attributes":{"POSITION":9,"NORMAL":10,"TEXCOORD_0":11},"indices":8,"material":2}],"name":"modlogo1"},{"primitives":[{"attributes":{"POSITION":13,"NORMAL":14,"TEXCOORD_0":15},"indices":12,"material":3}],"name":"modgorsel6"},{"primitives":[{"attributes":{"POSITION":17,"NORMAL":18,"TEXCOORD_0":19},"indices":16,"material":4}],"name":"modgorsel7"},{"primitives":[{"attributes":{"POSITION":21,"NORMAL":22,"TEXCOORD_0":23},"indices":20,"material":5}],"name":"modgorsel1"},{"primitives":[{"attributes":{"POSITION":25,"NORMAL":26,"TEXCOORD_0":27},"indices":24,"material":6}],"name":"modgorsel2"},{"primitives":[{"attributes":{"POSITION":29,"NORMAL":30,"TEXCOORD_0":31},"indices":28,"material":7}],"name":"modgorsel3"},{"primitives":[{"attributes":{"POSITION":33,"NORMAL":34,"TEXCOORD_0":35},"indices":32,"material":8}],"name":"modgorsel4"},{"primitives":[{"attributes":{"POSITION":37,"NORMAL":38,"TEXCOORD_0":39},"indices":36,"material":9}],"name":"modgorsel5"},{"primitives":[{"attributes":{"POSITION":41,"NORMAL":42,"TEXCOORD_0":43},"indices":40,"material":10}],"name":"modlogo2"},{"primitives":[{"attributes":{"POSITION":45,"NORMAL":46,"TEXCOORD_0":47},"indices":44,"material":11}],"name":"modrenk1"},{"primitives":[{"attributes":{"POSITION":49,"NORMAL":50,"TEXCOORD_0":51},"indices":48,"material":12}],"name":"modkaro1"},{"primitives":[{"attributes":{"POSITION":53,"NORMAL":54,"TEXCOORD_0":55},"indices":52,"material":13}],"name":"modlogo3"},{"primitives":[{"attributes":{"POSITION":57,"NORMAL":58,"TEXCOORD_0":59},"indices":56,"material":14}],"name":"moddikyazi1"},{"primitives":[{"attributes":{"POSITION":61,"NORMAL":62,"TEXCOORD_0":63},"indices":60,"material":15}],"name":"modgorsel8"},{"primitives":[{"attributes":{"POSITION":65,"NORMAL":66,"TEXCOORD_0":67},"indices":64,"material":16}],"name":"modgorsel9"},{"primitives":[{"attributes":{"POSITION":69,"NORMAL":70,"TEXCOORD_0":71},"indices":68,"material":14}],"name":"moddikyazi2"}],"accessors":[{"bufferView":0,"componentType":5123,"count":54,"type":"SCALAR","name":"accessorIndices"},{"bufferView":1,"componentType":5126,"count":36,"max":[1.43783927,-5.93269634,1.82141793],"min":[-8.56216,-9.937175,-3.29550123],"type":"VEC3","name":"accessorPositions"},{"bufferView":1,"byteOffset":432,"componentType":5126,"count":36,"type":"VEC3","name":"accessorNormals"},{"bufferView":2,"componentType":5126,"count":36,"type":"VEC2","name":"accessorUVs"},{"bufferView":0,"byteOffset":108,"componentType":5123,"count":6,"type":"SCALAR","name":"accessorIndices"},{"bufferView":1,"byteOffset":864,"componentType":5126,"count":4,"max":[0.539999962,0.0,0.96],"min":[-0.539999962,0.0,-0.96],"type":"VEC3","name":"accessorPositions"},{"bufferView":1,"byteOffset":912,"componentType":5126,"count":4,"type":"VEC3","name":"accessorNormals"},{"bufferView":2,"byteOffset":288,"componentType":5126,"count":4,"type":"VEC2","name":"accessorUVs"},{"bufferView":0,"byteOffset":120,"componentType":5123,"count":6,"type":"SCALAR","name":"accessorIndices"},{"bufferView":1,"byteOffset":960,"componentType":5126,"count":4,"max":[1.0,0.0,1.0],"min":[-1.0,0.0,-1.0],"type":"VEC3","name":"accessorPositions"},{"bufferView":1,"byteOffset":1008,"componentType":5126,"count":4,"type":"VEC3","name":"accessorNormals"},{"bufferView":2,"byteOffset":320,"componentType":5126,"count":4,"type":"VEC2","name":"accessorUVs"},{"bufferView":0,"byteOffset":132,"componentType":5123,"count":6,"type":"SCALAR","name":"accessorIndices"},{"bufferView":1,"byteOffset":1056,"componentType":5126,"count":4,"max":[1.05,2.2271788E-08,1.04424036],"min":[-1.05,-2.22717791E-08,-1.04424036],"type":"VEC3","name":"accessorPositions"},{"bufferView":1,"byteOffset":1104,"componentType":5126,"count":4,"type":"VEC3","name":"accessorNormals"},{"bufferView":2,"byteOffset":352,"componentType":5126,"count":4,"type":"VEC2","name":"accessorUVs"},{"bufferView":0,"byteOffset":144,"componentType":5123,"count":6,"type":"SCALAR","name":"accessorIndices"},{"bufferView":1,"byteOffset":1152,"componentType":5126,"count":4,"max":[1.05000007,2.25830917E-07,1.035143],"min":[-1.05000007,-2.466867E-07,-1.07317567],"type":"VEC3","name":"accessorPositions"},{"bufferView":1,"byteOffset":1200,"componentType":5126,"count":4,"type":"VEC3","name":"accessorNormals"},{"bufferView":2,"byteOffset":384,"componentType":5126,"count":4,"type":"VEC2","name":"accessorUVs"},{"bufferView":0,"byteOffset":156,"componentType":5123,"count":6,"type":"SCALAR","name":"accessorIndices"},{"bufferView":1,"byteOffset":1248,"componentType":5126,"count":4,"max":[1.0484885,9.72010952E-08,1.04848814],"min":[-1.0484885,-9.72011236E-08,-1.04848826],"type":"VEC3","name":"accessorPositions"},{"bufferView":1,"byteOffset":1296,"componentType":5126,"count":4,"type":"VEC3","name":"accessorNormals"},{"bufferView":2,"byteOffset":416,"componentType":5126,"count":4,"type":"VEC2","name":"accessorUVs"},{"bufferView":0,"byteOffset":168,"componentType":5123,"count":6,"type":"SCALAR","name":"accessorIndices"},{"bufferView":1,"byteOffset":1344,"componentType":5126,"count":4,"max":[1.0,0.0,1.0],"min":[-1.0,0.0,-1.0],"type":"VEC3","name":"accessorPositions"},{"bufferView":1,"byteOffset":1392,"componentType":5126,"count":4,"type":"VEC3","name":"accessorNormals"},{"bufferView":2,"byteOffset":448,"componentType":5126,"count":4,"type":"VEC2","name":"accessorUVs"},{"bufferView":0,"byteOffset":180,"componentType":5123,"count":6,"type":"SCALAR","name":"accessorIndices"},{"bufferView":1,"byteOffset":1440,"componentType":5126,"count":4,"max":[1.0,0.0,1.0],"min":[-1.0,0.0,-1.0],"type":"VEC3","name":"accessorPositions"},{"bufferView":1,"byteOffset":1488,"componentType":5126,"count":4,"type":"VEC3","name":"accessorNormals"},{"bufferView":2,"byteOffset":480,"componentType":5126,"count":4,"type":"VEC2","name":"accessorUVs"},{"bufferView":0,"byteOffset":192,"componentType":5123,"count":6,"type":"SCALAR","name":"accessorIndices"},{"bufferView":1,"byteOffset":1536,"componentType":5126,"count":4,"max":[1.0,0.0,1.0],"min":[-1.0,0.0,-1.0],"type":"VEC3","name":"accessorPositions"},{"bufferView":1,"byteOffset":1584,"componentType":5126,"count":4,"type":"VEC3","name":"accessorNormals"},{"bufferView":2,"byteOffset":512,"componentType":5126,"count":4,"type":"VEC2","name":"accessorUVs"},{"bufferView":0,"byteOffset":204,"componentType":5123,"count":6,"type":"SCALAR","name":"accessorIndices"},{"bufferView":1,"byteOffset":1632,"componentType":5126,"count":4,"max":[1.0,0.0,1.0],"min":[-1.0,0.0,-1.0],"type":"VEC3","name":"accessorPositions"},{"bufferView":1,"byteOffset":1680,"componentType":5126,"count":4,"type":"VEC3","name":"accessorNormals"},{"bufferView":2,"byteOffset":544,"componentType":5126,"count":4,"type":"VEC2","name":"accessorUVs"},{"bufferView":0,"byteOffset":216,"componentType":5123,"count":6,"type":"SCALAR","name":"accessorIndices"},{"bufferView":1,"byteOffset":1728,"componentType":5126,"count":4,"max":[1.0,0.0,1.0],"min":[-1.0,0.0,-1.0],"type":"VEC3","name":"accessorPositions"},{"bufferView":1,"byteOffset":1776,"componentType":5126,"count":4,"type":"VEC3","name":"accessorNormals"},{"bufferView":2,"byteOffset":576,"componentType":5126,"count":4,"type":"VEC2","name":"accessorUVs"},{"bufferView":0,"byteOffset":228,"componentType":5123,"count":1158,"type":"SCALAR","name":"accessorIndices"},{"bufferView":1,"byteOffset":1824,"componentType":5126,"count":692,"max":[0.7964762,0.0187231433,0.191589355],"min":[-0.188506216,-0.8282321,-0.106047988],"type":"VEC3","name":"accessorPositions"},{"bufferView":1,"byteOffset":10128,"componentType":5126,"count":692,"type":"VEC3","name":"accessorNormals"},{"bufferView":2,"byteOffset":608,"componentType":5126,"count":692,"type":"VEC2","name":"accessorUVs"},{"bufferView":0,"byteOffset":2544,"componentType":5123,"count":30,"type":"SCALAR","name":"accessorIndices"},{"bufferView":1,"byteOffset":18432,"componentType":5126,"count":20,"max":[0.811493635,0.0189981069,0.196589351],"min":[-0.188506231,-0.9810018,0.191589221],"type":"VEC3","name":"accessorPositions"},{"bufferView":1,"byteOffset":18672,"componentType":5126,"count":20,"type":"VEC3","name":"accessorNormals"},{"bufferView":2,"byteOffset":6144,"componentType":5126,"count":20,"type":"VEC2","name":"accessorUVs"},{"bufferView":0,"byteOffset":2604,"componentType":5123,"count":6,"type":"SCALAR","name":"accessorIndices"},{"bufferView":1,"byteOffset":18912,"componentType":5126,"count":4,"max":[1.0,0.0,1.0],"min":[-1.0,0.0,-1.0],"type":"VEC3","name":"accessorPositions"},{"bufferView":1,"byteOffset":18960,"componentType":5126,"count":4,"type":"VEC3","name":"accessorNormals"},{"bufferView":2,"byteOffset":6304,"componentType":5126,"count":4,"type":"VEC2","name":"accessorUVs"},{"bufferView":0,"byteOffset":2616,"componentType":5123,"count":6,"type":"SCALAR","name":"accessorIndices"},{"bufferView":1,"byteOffset":19008,"componentType":5126,"count":4,"max":[0.25,0.0,0.75],"min":[-0.25,0.0,-0.75],"type":"VEC3","name":"accessorPositions"},{"bufferView":1,"byteOffset":19056,"componentType":5126,"count":4,"type":"VEC3","name":"accessorNormals"},{"bufferView":2,"byteOffset":6336,"componentType":5126,"count":4,"type":"VEC2","name":"accessorUVs"},{"bufferView":0,"byteOffset":2628,"componentType":5123,"count":6,"type":"SCALAR","name":"accessorIndices"},{"bufferView":1,"byteOffset":19104,"componentType":5126,"count":4,"max":[1.0484885,9.72010952E-08,1.04848814],"min":[-1.0484885,-9.72011236E-08,-1.04848826],"type":"VEC3","name":"accessorPositions"},{"bufferView":1,"byteOffset":19152,"componentType":5126,"count":4,"type":"VEC3","name":"accessorNormals"},{"bufferView":2,"byteOffset":6368,"componentType":5126,"count":4,"type":"VEC2","name":"accessorUVs"},{"bufferView":0,"byteOffset":2640,"componentType":5123,"count":6,"type":"SCALAR","name":"accessorIndices"},{"bufferView":1,"byteOffset":19200,"componentType":5126,"count":4,"max":[1.0484885,9.72010952E-08,1.04848814],"min":[-1.0484885,-9.72011236E-08,-1.04848826],"type":"VEC3","name":"accessorPositions"},{"bufferView":1,"byteOffset":19248,"componentType":5126,"count":4,"type":"VEC3","name":"accessorNormals"},{"bufferView":2,"byteOffset":6400,"componentType":5126,"count":4,"type":"VEC2","name":"accessorUVs"},{"bufferView":0,"byteOffset":2652,"componentType":5123,"count":6,"type":"SCALAR","name":"accessorIndices"},{"bufferView":1,"byteOffset":19296,"componentType":5126,"count":4,"max":[0.25,0.0,0.75],"min":[-0.25,0.0,-0.75],"type":"VEC3","name":"accessorPositions"},{"bufferView":1,"byteOffset":19344,"componentType":5126,"count":4,"type":"VEC3","name":"accessorNormals"},{"bufferView":2,"byteOffset":6432,"componentType":5126,"count":4,"type":"VEC2","name":"accessorUVs"}],"bufferViews":[{"buffer":0,"byteLength":2664,"name":"bufferViewScalar"},{"buffer":0,"byteOffset":2664,"byteLength":19392,"byteStride":12,"name":"bufferViewFloatVec3"},{"buffer":0,"byteOffset":22056,"byteLength":6464,"byteStride":8,"name":"bufferViewFloatVec2"}],"buffers":[{"uri":"stant33.bin","byteLength":28520}],"materials":[{"pbrMetallicRoughness":{"baseColorFactor":[0.6156863,0.6156863,0.6156863,1.0],"metallicFactor":0.0,"metallicRoughnessTexture":{"index":1,"extensions":{"KHR_texture_transform":{"texCoord":0}}}},"normalTexture":{"index":0,"scale":0.3,"extensions":{"KHR_texture_transform":{"texCoord":0}}},"doubleSided":true,"name":"matrenk2","extras":{"babylonSeparateCullingPass":false}},{"pbrMetallicRoughness":{"baseColorTexture":{"index":2,"extensions":{"KHR_texture_transform":{"texCoord":0}}},"metallicFactor":0.0,"roughnessFactor":0.5},"doubleSided":true,"name":"matvideo1","extras":{"babylonSeparateCullingPass":false}},{"pbrMetallicRoughness":{"baseColorTexture":{"index":3,"extensions":{"KHR_texture_transform":{"texCoord":0}}},"metallicFactor":0.0,"roughnessFactor":0.5},"doubleSided":true,"name":"matlogo1","extras":{"babylonSeparateCullingPass":false}},{"pbrMetallicRoughness":{"baseColorTexture":{"index":4,"extensions":{"KHR_texture_transform":{"texCoord":0}}},"metallicFactor":0.0,"roughnessFactor":0.5},"doubleSided":true,"name":"matgorsel6","extras":{"babylonSeparateCullingPass":false}},{"pbrMetallicRoughness":{"baseColorTexture":{"index":5,"extensions":{"KHR_texture_transform":{"texCoord":0}}},"metallicFactor":0.0,"roughnessFactor":0.5},"doubleSided":true,"name":"matgorsel7","extras":{"babylonSeparateCullingPass":false}},{"pbrMetallicRoughness":{"baseColorTexture":{"index":6,"extensions":{"KHR_texture_transform":{"texCoord":0}}},"metallicFactor":0.0,"roughnessFactor":0.5},"doubleSided":true,"name":"matgorsel1","extras":{"babylonSeparateCullingPass":false}},{"pbrMetallicRoughness":{"baseColorTexture":{"index":7,"extensions":{"KHR_texture_transform":{"texCoord":0}}},"metallicFactor":0.0,"roughnessFactor":0.5},"doubleSided":true,"name":"matgorsel2","extras":{"babylonSeparateCullingPass":false}},{"pbrMetallicRoughness":{"baseColorTexture":{"index":8,"extensions":{"KHR_texture_transform":{"texCoord":0}}},"metallicFactor":0.0,"roughnessFactor":0.5},"doubleSided":true,"name":"matgorsel3","extras":{"babylonSeparateCullingPass":false}},{"pbrMetallicRoughness":{"baseColorTexture":{"index":9,"extensions":{"KHR_texture_transform":{"texCoord":0}}},"metallicFactor":0.0,"roughnessFactor":0.5},"doubleSided":true,"name":"matgorsel4","extras":{"babylonSeparateCullingPass":false}},{"pbrMetallicRoughness":{"baseColorTexture":{"index":10,"extensions":{"KHR_texture_transform":{"texCoord":0}}},"metallicFactor":0.0,"roughnessFactor":0.5},"doubleSided":true,"name":"matgorsel5","extras":{"babylonSeparateCullingPass":false}},{"pbrMetallicRoughness":{"baseColorTexture":{"index":11,"extensions":{"KHR_texture_transform":{"texCoord":0}}},"metallicFactor":0.0,"roughnessFactor":0.5},"doubleSided":true,"name":"matlogo2","extras":{"babylonSeparateCullingPass":false}},{"pbrMetallicRoughness":{"baseColorFactor":[0.1260004,0.0271943323,0.0271943323,1.0],"metallicFactor":0.0,"metallicRoughnessTexture":{"index":1,"extensions":{"KHR_texture_transform":{"texCoord":0}}}},"normalTexture":{"index":0,"scale":0.3,"extensions":{"KHR_texture_transform":{"texCoord":0}}},"doubleSided":true,"name":"matrenk1","extras":{"babylonSeparateCullingPass":false}},{"pbrMetallicRoughness":{"baseColorTexture":{"index":15,"extensions":{"KHR_texture_transform":{"texCoord":0}}},"metallicFactor":0.0,"metallicRoughnessTexture":{"index":16,"extensions":{"KHR_texture_transform":{"texCoord":0}}}},"normalTexture":{"index":14,"scale":0.3,"extensions":{"KHR_texture_transform":{"texCoord":0}}},"doubleSided":true,"name":"matkaro1","extras":{"babylonSeparateCullingPass":false}},{"pbrMetallicRoughness":{"baseColorTexture":{"index":17,"extensions":{"KHR_texture_transform":{"texCoord":0}}},"metallicFactor":0.0,"roughnessFactor":0.5},"doubleSided":true,"name":"matlogo3","extras":{"babylonSeparateCullingPass":false}},{"pbrMetallicRoughness":{"baseColorTexture":{"index":18,"extensions":{"KHR_texture_transform":{"texCoord":0}}},"metallicFactor":0.0,"roughnessFactor":0.5},"doubleSided":true,"name":"matdikyazi1","extras":{"babylonSeparateCullingPass":false}},{"pbrMetallicRoughness":{"baseColorTexture":{"index":19,"extensions":{"KHR_texture_transform":{"texCoord":0}}},"metallicFactor":0.0,"roughnessFactor":0.5},"doubleSided":true,"name":"matgorsel8","extras":{"babylonSeparateCullingPass":false}},{"pbrMetallicRoughness":{"baseColorTexture":{"index":20,"extensions":{"KHR_texture_transform":{"texCoord":0}}},"metallicFactor":0.0,"roughnessFactor":0.5},"doubleSided":true,"name":"matgorsel9","extras":{"babylonSeparateCullingPass":false}}],"textures":[{"sampler":0,"source":0,"name":"matrenknormal.png"},{"sampler":0,"source":1,"name":"matrenkroughness0.png"},{"sampler":0,"source":2,"name":"matvideo1.png"},{"sampler":0,"source":3,"name":"matlogo1.png"},{"sampler":0,"source":4,"name":"matgorsel6.png"},{"sampler":0,"source":5,"name":"matgorsel7.png"},{"sampler":0,"source":6,"name":"matgorsel1.png"},{"sampler":0,"source":7,"name":"matgorsel2.png"},{"sampler":0,"source":8,"name":"matgorsel3.png"},{"sampler":0,"source":9,"name":"matgorsel4.png"},{"sampler":0,"source":10,"name":"matgorsel5.png"},{"sampler":0,"source":11,"name":"matlogo2.png"},{"sampler":0,"source":0,"name":"matrenknormal.png"},{"sampler":0,"source":1,"name":"matrenkroughness0.png"},{"sampler":0,"source":12,"name":"matkaronormal.png"},{"sampler":0,"source":13,"name":"matkaro1.png"},{"sampler":0,"source":14,"name":"matkaroroughness0.png"},{"sampler":0,"source":15,"name":"matlogo3.png"},{"sampler":0,"source":16,"name":"matdikyazi1.png"},{"sampler":0,"source":17,"name":"matgorsel8.png"},{"sampler":0,"source":18,"name":"matgorsel9.png"}],"images":[{"uri":"./matrenknormal.png"},{"uri":"./matrenkroughness0.png"},{"uri":"./matvideo1.png"},{"uri":"./matlogo1.png"},{"uri":"./matgorsel6.png"},{"uri":"./matgorsel7.png"},{"uri":"./matgorsel1.png"},{"uri":"./matgorsel2.png"},{"uri":"./matgorsel3.png"},{"uri":"./matgorsel4.png"},{"uri":"./matgorsel5.png"},{"uri":"./matlogo2.png"},{"uri":"./matkaronormal.png"},{"uri":"./matkaro1.png"},{"uri":"./matkaroroughness0.png"},{"uri":"./matlogo3.png"},{"uri":"./matdikyazi1.png"},{"uri":"./matgorsel8.png"},{"uri":"./matgorsel9.png"}],"samplers":[{"magFilter":9729,"minFilter":9987}]}