{"asset":{"version":"2.0","generator":"babylon.js glTF exporter for 3dsmax 2018 v20210615.1"},"extensionsUsed":["KHR_texture_transform"],"extensionsRequired":["KHR_texture_transform"],"scene":0,"scenes":[{"nodes":[0]}],"nodes":[{"children":[1,2,3,4,5,6,7,8,9,10,11,12,13,14,15,16,17,18,19,20,21,22],"scale":[0.099999994,0.099999994,0.099999994],"name":"Group001"},{"mesh":0,"translation":[-0.005685272,3.25,1.5040251],"name":"modrenk1"},{"mesh":1,"translation":[-3.4603014,3.05,4.804025],"name":"modahsap2"},{"mesh":2,"translation":[-0.005685272,0.0,0.00402496336],"name":"modzemin"},{"mesh":3,"translation":[2.96232057,1.86608648,-1.96260309],"rotation":[0.7071068,0.0,0.0,0.7071067],"scale":[1.319275,1.319275,1.319275],"name":"modvideo1"},{"mesh":4,"translation":[-3.47406888,3.68130374,4.92163229],"rotation":[0.7071068,0.0,0.0,0.7071067],"scale":[1.83205,1.83205,1.83205],"name":"modyazi1"},{"mesh":5,"translation":[5.00568533,1.58080339,-3.55415177],"rotation":[-0.5,-0.5,0.5,-0.5],"scale":[0.8587562,0.8587562,0.8587562],"name":"moddikgorsel1"},{"mesh":6,"translation":[-2.600922,1.12289691,4.99840641],"rotation":[0.7071068,0.0,0.0,0.7071067],"scale":[0.9365708,0.9365708,0.9365708],"name":"modgorsel1"},{"mesh":7,"translation":[-4.45686531,2.51303315,5.01576662],"rotation":[0.7071068,0.0,0.0,0.7071067],"scale":[0.5008565,0.5008565,0.5008565],"name":"modlogo1"},{"mesh":8,"translation":[4.275663,3.24920225,4.12199068],"rotation":[-0.5,-0.5,0.5,-0.5],"scale":[0.750355542,0.750355542,0.750355542],"name":"modyazi2"},{"mesh":9,"translation":[2.91124,0.5993227,-0.723053753],"rotation":[0.7071068,0.0,0.0,0.7071067],"scale":[0.33586508,0.3662169,0.33586508],"name":"modlogo2"},{"mesh":10,"translation":[5.00450325,3.426303,-3.55580783],"rotation":[-0.5,-0.5,0.5,-0.5],"scale":[1.17346883,1.17346883,1.17346883],"name":"modyazi3"},{"mesh":11,"translation":[3.05249834,1.79797876,-5.01576662],"rotation":[-5.3385083E-08,-0.7071068,0.7071068,-5.33850759E-08],"scale":[1.33230233,0.8658007,1.33230233],"name":"modlogo3"},{"mesh":12,"translation":[-3.259262,2.607143,-2.18951559],"rotation":[1.15202347E-07,-0.7071068,0.7071068,1.1520234E-07],"scale":[1.616248,1.616248,1.616248],"name":"modyazi4"},{"mesh":13,"translation":[-4.729832,2.607143,-0.402259231],"rotation":[-0.5,0.5,-0.5,-0.5],"scale":[1.16269636,1.16269636,1.16269636],"name":"modyazi5"},{"mesh":14,"translation":[-4.743043,2.60446215,-1.72284758],"rotation":[-0.5,0.5,-0.5,-0.5],"scale":[0.425847918,0.425847918,0.425847918],"name":"modlogo4"},{"mesh":15,"translation":[0.9824753,2.54532,-4.177077],"rotation":[-0.5,0.5,-0.5,-0.5],"scale":[0.5903573,0.5903573,0.5903573],"name":"modgorsel2"},{"mesh":16,"translation":[0.9824753,2.54532,-2.76457143],"rotation":[-0.5,0.5,-0.5,-0.5],"scale":[0.5903573,0.5903573,0.5903573],"name":"modgorsel3"},{"mesh":17,"translation":[0.9824753,1.0631752,-4.177077],"rotation":[-0.5,0.5,-0.5,-0.5],"scale":[0.5903573,0.5903573,0.5903573],"name":"modgorsel4"},{"mesh":18,"translation":[0.9824753,1.0631752,-2.76457143],"rotation":[-0.5,0.5,-0.5,-0.5],"scale":[0.5903573,0.5903573,0.5903573],"name":"modgorsel5"},{"mesh":19,"translation":[3.78178358,0.597208738,-1.02819252],"rotation":[-0.5,-0.5,0.5,-0.5],"scale":[0.240184352,0.26620692,0.240184352],"name":"moddikgorsel2"},{"mesh":20,"translation":[1.96934032,0.597208738,-1.02819252],"rotation":[-0.5,0.5,-0.5,-0.5],"scale":[0.224063382,0.26620692,0.224063382],"name":"moddikgorsel3"},{"mesh":21,"translation":[-2.35611844,1.21401048,4.909442],"rotation":[-5.3385083E-08,-0.7071068,0.7071068,-5.3385083E-08],"scale":[0.7452596,0.7452596,0.7452596],"name":"moddikgorsel4"}],"meshes":[{"primitives":[{"attributes":{"POSITION":1,"NORMAL":2,"TEXCOORD_0":3},"indices":0,"material":0}],"name":"modrenk1"},{"primitives":[{"attributes":{"POSITION":5,"NORMAL":6,"TEXCOORD_0":7},"indices":4,"material":1}],"name":"modahsap2"},{"primitives":[{"attributes":{"POSITION":9,"NORMAL":10,"TEXCOORD_0":11},"indices":8,"material":2}],"name":"modzemin"},{"primitives":[{"attributes":{"POSITION":13,"NORMAL":14,"TEXCOORD_0":15},"indices":12,"material":3}],"name":"modvideo1"},{"primitives":[{"attributes":{"POSITION":17,"NORMAL":18,"TEXCOORD_0":19},"indices":16,"material":4}],"name":"modyazi1"},{"primitives":[{"attributes":{"POSITION":21,"NORMAL":22,"TEXCOORD_0":23},"indices":20,"material":5}],"name":"moddikgorsel1"},{"primitives":[{"attributes":{"POSITION":25,"NORMAL":26,"TEXCOORD_0":27},"indices":24,"material":6}],"name":"modgorsel1"},{"primitives":[{"attributes":{"POSITION":29,"NORMAL":30,"TEXCOORD_0":31},"indices":28,"material":7}],"name":"modlogo1"},{"primitives":[{"attributes":{"POSITION":33,"NORMAL":34,"TEXCOORD_0":35},"indices":32,"material":8}],"name":"modyazi2"},{"primitives":[{"attributes":{"POSITION":37,"NORMAL":38,"TEXCOORD_0":39},"indices":36,"material":9}],"name":"modlogo2"},{"primitives":[{"attributes":{"POSITION":41,"NORMAL":42,"TEXCOORD_0":43},"indices":40,"material":10}],"name":"modyazi3"},{"primitives":[{"attributes":{"POSITION":45,"NORMAL":46,"TEXCOORD_0":47},"indices":44,"material":11}],"name":"modlogo3"},{"primitives":[{"attributes":{"POSITION":49,"NORMAL":50,"TEXCOORD_0":51},"indices":48,"material":12}],"name":"modyazi4"},{"primitives":[{"attributes":{"POSITION":53,"NORMAL":54,"TEXCOORD_0":55},"indices":52,"material":13}],"name":"modyazi5"},{"primitives":[{"attributes":{"POSITION":57,"NORMAL":58,"TEXCOORD_0":59},"indices":56,"material":14}],"name":"modlogo4"},{"primitives":[{"attributes":{"POSITION":61,"NORMAL":62,"TEXCOORD_0":63},"indices":60,"material":15}],"name":"modgorsel2"},{"primitives":[{"attributes":{"POSITION":65,"NORMAL":66,"TEXCOORD_0":67},"indices":64,"material":16}],"name":"modgorsel3"},{"primitives":[{"attributes":{"POSITION":69,"NORMAL":70,"TEXCOORD_0":71},"indices":68,"material":17}],"name":"modgorsel4"},{"primitives":[{"attributes":{"POSITION":73,"NORMAL":74,"TEXCOORD_0":75},"indices":72,"material":18}],"name":"modgorsel5"},{"primitives":[{"attributes":{"POSITION":77,"NORMAL":78,"TEXCOORD_0":79},"indices":76,"material":19}],"name":"moddikgorsel2"},{"primitives":[{"attributes":{"POSITION":81,"NORMAL":82,"TEXCOORD_0":83},"indices":80,"material":20}],"name":"moddikgorsel3"},{"primitives":[{"attributes":{"POSITION":85,"NORMAL":86,"TEXCOORD_0":87},"indices":84,"material":21}],"name":"moddikgorsel4"}],"accessors":[{"bufferView":0,"componentType":5123,"count":540,"type":"SCALAR","name":"accessorIndices"},{"bufferView":1,"componentType":5126,"count":540,"max":[4.276306,0.199999988,3.50000024],"min":[-5.0,-3.19999981,-3.685089],"type":"VEC3","name":"accessorPositions"},{"bufferView":1,"byteOffset":6480,"componentType":5126,"count":540,"type":"VEC3","name":"accessorNormals"},{"bufferView":2,"componentType":5126,"count":540,"type":"VEC2","name":"accessorUVs"},{"bufferView":0,"byteOffset":1080,"componentType":5123,"count":654,"type":"SCALAR","name":"accessorIndices"},{"bufferView":1,"byteOffset":12960,"componentType":5126,"count":654,"max":[8.454617,1.23563015,0.199999943],"min":[-1.54538357,-3.0,-9.8],"type":"VEC3","name":"accessorPositions"},{"bufferView":1,"byteOffset":20808,"componentType":5126,"count":654,"type":"VEC3","name":"accessorNormals"},{"bufferView":2,"byteOffset":4320,"componentType":5126,"count":654,"type":"VEC2","name":"accessorUVs"},{"bufferView":0,"byteOffset":2388,"componentType":5123,"count":30,"type":"SCALAR","name":"accessorIndices"},{"bufferView":1,"byteOffset":28656,"componentType":5126,"count":30,"max":[5.0,0.049999997,5.0],"min":[-5.0,0.0,-5.0],"type":"VEC3","name":"accessorPositions"},{"bufferView":1,"byteOffset":29016,"componentType":5126,"count":30,"type":"VEC3","name":"accessorNormals"},{"bufferView":2,"byteOffset":9552,"componentType":5126,"count":30,"type":"VEC2","name":"accessorUVs"},{"bufferView":0,"byteOffset":2448,"componentType":5123,"count":6,"type":"SCALAR","name":"accessorIndices"},{"bufferView":1,"byteOffset":29376,"componentType":5126,"count":6,"max":[0.96,0.0,0.539999962],"min":[-0.96,0.0,-0.539999962],"type":"VEC3","name":"accessorPositions"},{"bufferView":1,"byteOffset":29448,"componentType":5126,"count":6,"type":"VEC3","name":"accessorNormals"},{"bufferView":2,"byteOffset":9792,"componentType":5126,"count":6,"type":"VEC2","name":"accessorUVs"},{"bufferView":0,"byteOffset":2460,"componentType":5123,"count":6,"type":"SCALAR","name":"accessorIndices"},{"bufferView":1,"byteOffset":29520,"componentType":5126,"count":6,"max":[0.75,0.0,0.25],"min":[-0.75,0.0,-0.25],"type":"VEC3","name":"accessorPositions"},{"bufferView":1,"byteOffset":29592,"componentType":5126,"count":6,"type":"VEC3","name":"accessorNormals"},{"bufferView":2,"byteOffset":9840,"componentType":5126,"count":6,"type":"VEC2","name":"accessorUVs"},{"bufferView":0,"byteOffset":2472,"componentType":5123,"count":6,"type":"SCALAR","name":"accessorIndices"},{"bufferView":1,"byteOffset":29664,"componentType":5126,"count":6,"max":[1.05,0.0,1.485],"min":[-1.05,0.0,-1.485],"type":"VEC3","name":"accessorPositions"},{"bufferView":1,"byteOffset":29736,"componentType":5126,"count":6,"type":"VEC3","name":"accessorNormals"},{"bufferView":2,"byteOffset":9888,"componentType":5126,"count":6,"type":"VEC2","name":"accessorUVs"},{"bufferView":0,"byteOffset":2484,"componentType":5123,"count":6,"type":"SCALAR","name":"accessorIndices"},{"bufferView":1,"byteOffset":29808,"componentType":5126,"count":6,"max":[1.0,0.0,1.0],"min":[-1.0,0.0,-1.0],"type":"VEC3","name":"accessorPositions"},{"bufferView":1,"byteOffset":29880,"componentType":5126,"count":6,"type":"VEC3","name":"accessorNormals"},{"bufferView":2,"byteOffset":9936,"componentType":5126,"count":6,"type":"VEC2","name":"accessorUVs"},{"bufferView":0,"byteOffset":2496,"componentType":5123,"count":6,"type":"SCALAR","name":"accessorIndices"},{"bufferView":1,"byteOffset":29952,"componentType":5126,"count":6,"max":[1.0,0.0,1.0],"min":[-1.0,0.0,-1.0],"type":"VEC3","name":"accessorPositions"},{"bufferView":1,"byteOffset":30024,"componentType":5126,"count":6,"type":"VEC3","name":"accessorNormals"},{"bufferView":2,"byteOffset":9984,"componentType":5126,"count":6,"type":"VEC2","name":"accessorUVs"},{"bufferView":0,"byteOffset":2508,"componentType":5123,"count":6,"type":"SCALAR","name":"accessorIndices"},{"bufferView":1,"byteOffset":30096,"componentType":5126,"count":6,"max":[0.75,0.0,0.25],"min":[-0.75,0.0,-0.25],"type":"VEC3","name":"accessorPositions"},{"bufferView":1,"byteOffset":30168,"componentType":5126,"count":6,"type":"VEC3","name":"accessorNormals"},{"bufferView":2,"byteOffset":10032,"componentType":5126,"count":6,"type":"VEC2","name":"accessorUVs"},{"bufferView":0,"byteOffset":2520,"componentType":5123,"count":6,"type":"SCALAR","name":"accessorIndices"},{"bufferView":1,"byteOffset":30240,"componentType":5126,"count":6,"max":[1.0,0.0,1.0],"min":[-1.0,0.0,-1.0],"type":"VEC3","name":"accessorPositions"},{"bufferView":1,"byteOffset":30312,"componentType":5126,"count":6,"type":"VEC3","name":"accessorNormals"},{"bufferView":2,"byteOffset":10080,"componentType":5126,"count":6,"type":"VEC2","name":"accessorUVs"},{"bufferView":0,"byteOffset":2532,"componentType":5123,"count":6,"type":"SCALAR","name":"accessorIndices"},{"bufferView":1,"byteOffset":30384,"componentType":5126,"count":6,"max":[0.75,0.0,0.25],"min":[-0.75,0.0,-0.25],"type":"VEC3","name":"accessorPositions"},{"bufferView":1,"byteOffset":30456,"componentType":5126,"count":6,"type":"VEC3","name":"accessorNormals"},{"bufferView":2,"byteOffset":10128,"componentType":5126,"count":6,"type":"VEC2","name":"accessorUVs"},{"bufferView":0,"byteOffset":2544,"componentType":5123,"count":6,"type":"SCALAR","name":"accessorIndices"},{"bufferView":1,"byteOffset":30528,"componentType":5126,"count":6,"max":[1.0,0.0,1.0],"min":[-1.0,0.0,-1.0],"type":"VEC3","name":"accessorPositions"},{"bufferView":1,"byteOffset":30600,"componentType":5126,"count":6,"type":"VEC3","name":"accessorNormals"},{"bufferView":2,"byteOffset":10176,"componentType":5126,"count":6,"type":"VEC2","name":"accessorUVs"},{"bufferView":0,"byteOffset":2556,"componentType":5123,"count":6,"type":"SCALAR","name":"accessorIndices"},{"bufferView":1,"byteOffset":30672,"componentType":5126,"count":6,"max":[0.75,0.0,0.25],"min":[-0.75,0.0,-0.25],"type":"VEC3","name":"accessorPositions"},{"bufferView":1,"byteOffset":30744,"componentType":5126,"count":6,"type":"VEC3","name":"accessorNormals"},{"bufferView":2,"byteOffset":10224,"componentType":5126,"count":6,"type":"VEC2","name":"accessorUVs"},{"bufferView":0,"byteOffset":2568,"componentType":5123,"count":6,"type":"SCALAR","name":"accessorIndices"},{"bufferView":1,"byteOffset":30816,"componentType":5126,"count":6,"max":[0.75,0.0,0.25],"min":[-0.75,0.0,-0.25],"type":"VEC3","name":"accessorPositions"},{"bufferView":1,"byteOffset":30888,"componentType":5126,"count":6,"type":"VEC3","name":"accessorNormals"},{"bufferView":2,"byteOffset":10272,"componentType":5126,"count":6,"type":"VEC2","name":"accessorUVs"},{"bufferView":0,"byteOffset":2580,"componentType":5123,"count":6,"type":"SCALAR","name":"accessorIndices"},{"bufferView":1,"byteOffset":30960,"componentType":5126,"count":6,"max":[1.0,0.0,1.0],"min":[-1.0,0.0,-1.0],"type":"VEC3","name":"accessorPositions"},{"bufferView":1,"byteOffset":31032,"componentType":5126,"count":6,"type":"VEC3","name":"accessorNormals"},{"bufferView":2,"byteOffset":10320,"componentType":5126,"count":6,"type":"VEC2","name":"accessorUVs"},{"bufferView":0,"byteOffset":2592,"componentType":5123,"count":6,"type":"SCALAR","name":"accessorIndices"},{"bufferView":1,"byteOffset":31104,"componentType":5126,"count":6,"max":[1.0,0.0,1.0],"min":[-1.0,0.0,-1.0],"type":"VEC3","name":"accessorPositions"},{"bufferView":1,"byteOffset":31176,"componentType":5126,"count":6,"type":"VEC3","name":"accessorNormals"},{"bufferView":2,"byteOffset":10368,"componentType":5126,"count":6,"type":"VEC2","name":"accessorUVs"},{"bufferView":0,"byteOffset":2604,"componentType":5123,"count":6,"type":"SCALAR","name":"accessorIndices"},{"bufferView":1,"byteOffset":31248,"componentType":5126,"count":6,"max":[1.0,0.0,1.0],"min":[-1.0,0.0,-1.0],"type":"VEC3","name":"accessorPositions"},{"bufferView":1,"byteOffset":31320,"componentType":5126,"count":6,"type":"VEC3","name":"accessorNormals"},{"bufferView":2,"byteOffset":10416,"componentType":5126,"count":6,"type":"VEC2","name":"accessorUVs"},{"bufferView":0,"byteOffset":2616,"componentType":5123,"count":6,"type":"SCALAR","name":"accessorIndices"},{"bufferView":1,"byteOffset":31392,"componentType":5126,"count":6,"max":[1.0,0.0,1.0],"min":[-1.0,0.0,-1.0],"type":"VEC3","name":"accessorPositions"},{"bufferView":1,"byteOffset":31464,"componentType":5126,"count":6,"type":"VEC3","name":"accessorNormals"},{"bufferView":2,"byteOffset":10464,"componentType":5126,"count":6,"type":"VEC2","name":"accessorUVs"},{"bufferView":0,"byteOffset":2628,"componentType":5123,"count":6,"type":"SCALAR","name":"accessorIndices"},{"bufferView":1,"byteOffset":31536,"componentType":5126,"count":6,"max":[1.0,0.0,1.0],"min":[-1.0,0.0,-1.0],"type":"VEC3","name":"accessorPositions"},{"bufferView":1,"byteOffset":31608,"componentType":5126,"count":6,"type":"VEC3","name":"accessorNormals"},{"bufferView":2,"byteOffset":10512,"componentType":5126,"count":6,"type":"VEC2","name":"accessorUVs"},{"bufferView":0,"byteOffset":2640,"componentType":5123,"count":6,"type":"SCALAR","name":"accessorIndices"},{"bufferView":1,"byteOffset":31680,"componentType":5126,"count":6,"max":[1.05,0.0,1.485],"min":[-1.05,0.0,-1.485],"type":"VEC3","name":"accessorPositions"},{"bufferView":1,"byteOffset":31752,"componentType":5126,"count":6,"type":"VEC3","name":"accessorNormals"},{"bufferView":2,"byteOffset":10560,"componentType":5126,"count":6,"type":"VEC2","name":"accessorUVs"},{"bufferView":0,"byteOffset":2652,"componentType":5123,"count":6,"type":"SCALAR","name":"accessorIndices"},{"bufferView":1,"byteOffset":31824,"componentType":5126,"count":6,"max":[1.05,0.0,1.485],"min":[-1.05,0.0,-1.485],"type":"VEC3","name":"accessorPositions"},{"bufferView":1,"byteOffset":31896,"componentType":5126,"count":6,"type":"VEC3","name":"accessorNormals"},{"bufferView":2,"byteOffset":10608,"componentType":5126,"count":6,"type":"VEC2","name":"accessorUVs"},{"bufferView":0,"byteOffset":2664,"componentType":5123,"count":6,"type":"SCALAR","name":"accessorIndices"},{"bufferView":1,"byteOffset":31968,"componentType":5126,"count":6,"max":[1.05,0.0,1.485],"min":[-1.05,0.0,-1.485],"type":"VEC3","name":"accessorPositions"},{"bufferView":1,"byteOffset":32040,"componentType":5126,"count":6,"type":"VEC3","name":"accessorNormals"},{"bufferView":2,"byteOffset":10656,"componentType":5126,"count":6,"type":"VEC2","name":"accessorUVs"}],"bufferViews":[{"buffer":0,"byteLength":2676,"name":"bufferViewScalar"},{"buffer":0,"byteOffset":2676,"byteLength":32112,"byteStride":12,"name":"bufferViewFloatVec3"},{"buffer":0,"byteOffset":34788,"byteLength":10704,"byteStride":8,"name":"bufferViewFloatVec2"}],"buffers":[{"uri":"stant58.bin","byteLength":45492}],"materials":[{"pbrMetallicRoughness":{"baseColorFactor":[0.8980393,0.8980393,0.8980393,1.0],"metallicFactor":0.0,"metallicRoughnessTexture":{"index":1,"extensions":{"KHR_texture_transform":{"texCoord":0}}}},"normalTexture":{"index":0,"scale":0.3,"extensions":{"KHR_texture_transform":{"texCoord":0}}},"name":"matrenk1","extras":{"babylonSeparateCullingPass":false}},{"pbrMetallicRoughness":{"baseColorTexture":{"index":3,"extensions":{"KHR_texture_transform":{"texCoord":0}}},"metallicFactor":0.0,"metallicRoughnessTexture":{"index":4,"extensions":{"KHR_texture_transform":{"texCoord":0}}}},"normalTexture":{"index":2,"scale":0.3,"extensions":{"KHR_texture_transform":{"texCoord":0}}},"name":"matahsap2","extras":{"babylonSeparateCullingPass":false}},{"pbrMetallicRoughness":{"baseColorFactor":[0.708296657,0.791075,0.8561151,1.0],"metallicFactor":0.0,"metallicRoughnessTexture":{"index":1,"extensions":{"KHR_texture_transform":{"texCoord":0}}}},"normalTexture":{"index":0,"scale":0.3,"extensions":{"KHR_texture_transform":{"texCoord":0}}},"name":"matzemin","extras":{"babylonSeparateCullingPass":false}},{"pbrMetallicRoughness":{"baseColorTexture":{"index":7,"extensions":{"KHR_texture_transform":{"texCoord":0}}},"metallicFactor":0.0,"roughnessFactor":0.5},"name":"matvideo1","extras":{"babylonSeparateCullingPass":false}},{"pbrMetallicRoughness":{"baseColorTexture":{"index":8,"extensions":{"KHR_texture_transform":{"texCoord":0}}},"metallicFactor":0.0,"roughnessFactor":0.5},"name":"matyazi1","extras":{"babylonSeparateCullingPass":false}},{"pbrMetallicRoughness":{"baseColorTexture":{"index":9,"extensions":{"KHR_texture_transform":{"texCoord":0}}},"metallicFactor":0.0,"roughnessFactor":0.5},"name":"matdikgorsel1","extras":{"babylonSeparateCullingPass":false}},{"pbrMetallicRoughness":{"baseColorTexture":{"index":10,"extensions":{"KHR_texture_transform":{"texCoord":0}}},"metallicFactor":0.0,"roughnessFactor":0.5},"name":"matgorsel1","extras":{"babylonSeparateCullingPass":false}},{"pbrMetallicRoughness":{"baseColorTexture":{"index":11,"extensions":{"KHR_texture_transform":{"texCoord":0}}},"metallicFactor":0.0,"roughnessFactor":0.5},"name":"matlogo1","extras":{"babylonSeparateCullingPass":false}},{"pbrMetallicRoughness":{"baseColorTexture":{"index":12,"extensions":{"KHR_texture_transform":{"texCoord":0}}},"metallicFactor":0.0,"roughnessFactor":0.5},"name":"matyazi2","extras":{"babylonSeparateCullingPass":false}},{"pbrMetallicRoughness":{"baseColorTexture":{"index":13,"extensions":{"KHR_texture_transform":{"texCoord":0}}},"metallicFactor":0.0,"roughnessFactor":0.5},"name":"matlogo2","extras":{"babylonSeparateCullingPass":false}},{"pbrMetallicRoughness":{"baseColorTexture":{"index":14,"extensions":{"KHR_texture_transform":{"texCoord":0}}},"metallicFactor":0.0,"roughnessFactor":0.5},"name":"matyazi3","extras":{"babylonSeparateCullingPass":false}},{"pbrMetallicRoughness":{"baseColorTexture":{"index":15,"extensions":{"KHR_texture_transform":{"texCoord":0}}},"metallicFactor":0.0,"roughnessFactor":0.5},"name":"matlogo3","extras":{"babylonSeparateCullingPass":false}},{"pbrMetallicRoughness":{"baseColorTexture":{"index":16,"extensions":{"KHR_texture_transform":{"texCoord":0}}},"metallicFactor":0.0,"roughnessFactor":0.5},"name":"matyazi4","extras":{"babylonSeparateCullingPass":false}},{"pbrMetallicRoughness":{"baseColorTexture":{"index":17,"extensions":{"KHR_texture_transform":{"texCoord":0}}},"metallicFactor":0.0,"roughnessFactor":0.5},"name":"matyazi5","extras":{"babylonSeparateCullingPass":false}},{"pbrMetallicRoughness":{"baseColorTexture":{"index":18,"extensions":{"KHR_texture_transform":{"texCoord":0}}},"metallicFactor":0.0,"roughnessFactor":0.5},"name":"matlogo4","extras":{"babylonSeparateCullingPass":false}},{"pbrMetallicRoughness":{"baseColorTexture":{"index":19,"extensions":{"KHR_texture_transform":{"texCoord":0}}},"metallicFactor":0.0,"roughnessFactor":0.5},"name":"matgorsel2","extras":{"babylonSeparateCullingPass":false}},{"pbrMetallicRoughness":{"baseColorTexture":{"index":20,"extensions":{"KHR_texture_transform":{"texCoord":0}}},"metallicFactor":0.0,"roughnessFactor":0.5},"name":"matgorsel3","extras":{"babylonSeparateCullingPass":false}},{"pbrMetallicRoughness":{"baseColorTexture":{"index":21,"extensions":{"KHR_texture_transform":{"texCoord":0}}},"metallicFactor":0.0,"roughnessFactor":0.5},"name":"matgorsel4","extras":{"babylonSeparateCullingPass":false}},{"pbrMetallicRoughness":{"baseColorTexture":{"index":22,"extensions":{"KHR_texture_transform":{"texCoord":0}}},"metallicFactor":0.0,"roughnessFactor":0.5},"name":"matgorsel5","extras":{"babylonSeparateCullingPass":false}},{"pbrMetallicRoughness":{"baseColorTexture":{"index":23,"extensions":{"KHR_texture_transform":{"texCoord":0}}},"metallicFactor":0.0,"roughnessFactor":0.5},"name":"matdikgorsel2","extras":{"babylonSeparateCullingPass":false}},{"pbrMetallicRoughness":{"baseColorTexture":{"index":24,"extensions":{"KHR_texture_transform":{"texCoord":0}}},"metallicFactor":0.0,"roughnessFactor":0.5},"name":"matdikgorsel3","extras":{"babylonSeparateCullingPass":false}},{"pbrMetallicRoughness":{"baseColorTexture":{"index":25,"extensions":{"KHR_texture_transform":{"texCoord":0}}},"metallicFactor":0.0,"roughnessFactor":0.5},"name":"matdikgorsel4","extras":{"babylonSeparateCullingPass":false}}],"textures":[{"sampler":0,"source":0,"name":"matrenknormal.png"},{"sampler":0,"source":1,"name":"matrenkroughness0.png"},{"sampler":0,"source":2,"name":"matahsap2normal.png"},{"sampler":0,"source":3,"name":"matahsap2.png"},{"sampler":0,"source":4,"name":"matahsap2roughness0.png"},{"sampler":0,"source":0,"name":"matrenknormal.png"},{"sampler":0,"source":1,"name":"matrenkroughness0.png"},{"sampler":0,"source":5,"name":"matvideo1.png"},{"sampler":0,"source":6,"name":"matyazi1.png"},{"sampler":0,"source":7,"name":"matdikgorsel1.png"},{"sampler":0,"source":8,"name":"matgorsel1.png"},{"sampler":0,"source":9,"name":"matlogo1.png"},{"sampler":0,"source":10,"name":"matyazi2.png"},{"sampler":0,"source":11,"name":"matlogo2.png"},{"sampler":0,"source":12,"name":"matyazi3.png"},{"sampler":0,"source":13,"name":"matlogo3.png"},{"sampler":0,"source":14,"name":"matyazi4.png"},{"sampler":0,"source":15,"name":"matyazi5.png"},{"sampler":0,"source":16,"name":"matlogo4.png"},{"sampler":0,"source":17,"name":"matgorsel2.png"},{"sampler":0,"source":18,"name":"matgorsel3.png"},{"sampler":0,"source":19,"name":"matgorsel4.png"},{"sampler":0,"source":20,"name":"matgorsel5.png"},{"sampler":0,"source":21,"name":"matdikgorsel2.png"},{"sampler":0,"source":22,"name":"matdikgorsel3.png"},{"sampler":0,"source":23,"name":"matdikgorsel4.png"}],"images":[{"uri":"./matrenknormal.png"},{"uri":"./matrenkroughness0.png"},{"uri":"./matahsap2normal.png"},{"uri":"./matahsap2.png"},{"uri":"./matahsap2roughness0.png"},{"uri":"./matvideo1.png"},{"uri":"./matyazi1.png"},{"uri":"./matdikgorsel1.png"},{"uri":"./matgorsel1.png"},{"uri":"./matlogo1.png"},{"uri":"./matyazi2.png"},{"uri":"./matlogo2.png"},{"uri":"./matyazi3.png"},{"uri":"./matlogo3.png"},{"uri":"./matyazi4.png"},{"uri":"./matyazi5.png"},{"uri":"./matlogo4.png"},{"uri":"./matgorsel2.png"},{"uri":"./matgorsel3.png"},{"uri":"./matgorsel4.png"},{"uri":"./matgorsel5.png"},{"uri":"./matdikgorsel2.png"},{"uri":"./matdikgorsel3.png"},{"uri":"./matdikgorsel4.png"}],"samplers":[{"magFilter":9729,"minFilter":9987}]}