{"asset":{"version":"2.0","generator":"babylon.js glTF exporter for 3dsmax 2018 v20210615.1"},"extensionsUsed":["KHR_texture_transform"],"extensionsRequired":["KHR_texture_transform"],"scene":0,"scenes":[{"nodes":[0]}],"nodes":[{"children":[1,2,3,4,5,6,7,8,9,10,11,12,13,14,15,16,17,18,19,20,21,22],"translation":[-1.90734859E-08,0.0,0.0],"name":"Group001"},{"mesh":0,"translation":[0.317045122,0.09226748,0.294526637],"rotation":[-0.7071068,0.0,0.0,0.7071067],"scale":[0.099999994,0.099999994,0.099999994],"name":"modengel"},{"mesh":1,"translation":[-0.0008425367,0.0,0.00175602676],"scale":[0.099999994,0.099999994,0.099999994],"name":"modahsap"},{"mesh":2,"translation":[-0.452826828,0.281756878,0.0401275642],"rotation":[0.5,-0.5,0.50000006,0.49999994],"scale":[0.099999994,0.099999994,0.099999994],"name":"modrenk1"},{"mesh":3,"translation":[-0.398457319,0.0914357,0.37817505],"scale":[0.099999994,0.099999994,0.099999994],"name":"modrenk2"},{"mesh":4,"translation":[0.202760324,0.165540919,-0.423495471],"rotation":[0.7071068,0.0,0.0,0.7071067],"scale":[0.147622064,0.147622064,0.147622064],"name":"modvideo1"},{"mesh":5,"translation":[-0.163188756,0.263867348,0.3490869],"rotation":[0.5,-0.5,-0.5,0.5],"scale":[0.233514979,0.233514979,0.233514979],"name":"moddikyazi1"},{"mesh":6,"translation":[0.5008426,0.200111225,-0.3451898],"rotation":[-0.5,-0.5,0.5,-0.5],"scale":[0.06633677,0.099999994,0.06633677],"name":"moddikgorsel1"},{"mesh":7,"translation":[0.210261092,0.3390033,0.349542528],"rotation":[0.7071068,0.0,0.0,0.7071067],"scale":[0.099999994,0.099999994,0.099999994],"name":"modlogo1"},{"mesh":8,"translation":[-0.398181438,0.263867348,0.3490869],"rotation":[0.5,-0.5,-0.5,0.5],"scale":[0.233514979,0.233514979,0.233514979],"name":"moddikyazi2"},{"mesh":9,"translation":[0.306416929,0.324132085,0.193470612],"rotation":[-0.5,-0.5,0.5,-0.5],"scale":[0.118947916,0.112577491,0.118947916],"name":"modlogo2"},{"mesh":10,"translation":[0.296512455,0.324132085,0.193470612],"rotation":[-0.5,0.5,-0.5,-0.5],"scale":[0.118947916,0.112577491,0.118947916],"name":"modlogo3"},{"mesh":11,"translation":[0.482268363,0.0563871749,-0.101877436],"rotation":[-0.50000006,-0.5000001,0.499999851,-0.5],"scale":[0.157381639,0.157381639,0.157381639],"name":"modyazi1"},{"mesh":12,"translation":[0.0525775328,0.213068545,-0.4999304],"rotation":[2.83789774E-07,-0.7071068,0.7071068,2.83789745E-07],"scale":[0.112928405,0.112577491,0.112928405],"name":"modgenisgorsel"},{"mesh":13,"translation":[-0.46048522,0.387590945,-0.317060232],"rotation":[0.4999999,-0.4999999,0.49999997,0.500000238],"scale":[0.20747903,0.1604814,0.207479],"name":"modyazi2"},{"mesh":14,"translation":[-0.0724304,0.204741359,-0.3451898],"rotation":[-0.5,0.5,-0.5,-0.5],"scale":[0.06633677,0.099999994,0.06633677],"name":"moddikgorsel2"},{"mesh":15,"translation":[-0.4350952,0.191838071,-0.485698849],"rotation":[0.7071068,6.18172251E-08,-6.181724E-08,0.7071067],"scale":[0.0384534225,0.0579669662,0.0384534225],"name":"moddikgorsel3"},{"mesh":16,"translation":[-0.327992231,0.191838071,-0.485698849],"rotation":[0.7071068,6.18172251E-08,-6.181724E-08,0.7071067],"scale":[0.0384534225,0.0579669662,0.0384534225],"name":"moddikgorsel4"},{"mesh":17,"translation":[-0.2208894,0.191838071,-0.485698849],"rotation":[0.7071068,6.18172251E-08,-6.181724E-08,0.7071067],"scale":[0.0384534225,0.0579669662,0.0384534225],"name":"moddikgorsel5"},{"mesh":18,"translation":[-0.113786675,0.192266226,-0.485698849],"rotation":[0.7071068,6.18172251E-08,-6.181724E-08,0.7071067],"scale":[0.0384534225,0.0579669662,0.0384534225],"name":"moddikgorsel6"},{"mesh":19,"translation":[-0.398391724,0.192266226,0.3172061],"rotation":[2.78789656E-07,-0.7071068,0.7071068,3.13814553E-07],"scale":[0.05553314,0.0579669662,0.05553314],"name":"moddikgorsel7"},{"mesh":20,"translation":[-0.162200451,0.192266226,0.3172061],"rotation":[2.78789656E-07,-0.7071068,0.7071068,3.13814553E-07],"scale":[0.05553314,0.0579669662,0.05553314],"name":"moddikgorsel8"},{"mesh":21,"translation":[0.180283368,0.192266226,0.3172061],"rotation":[2.78789656E-07,-0.7071068,0.7071068,3.13814553E-07],"scale":[0.05553314,0.0579669662,0.05553314],"name":"moddikgorsel9"}],"meshes":[{"primitives":[{"attributes":{"POSITION":1,"NORMAL":2,"TEXCOORD_0":3},"indices":0,"material":0}],"name":"modengel"},{"primitives":[{"attributes":{"POSITION":5,"NORMAL":6,"TEXCOORD_0":7},"indices":4,"material":1}],"name":"modahsap"},{"primitives":[{"attributes":{"POSITION":9,"NORMAL":10,"TEXCOORD_0":11},"indices":8,"material":2}],"name":"modrenk1"},{"primitives":[{"attributes":{"POSITION":13,"NORMAL":14,"TEXCOORD_0":15},"indices":12,"material":3}],"name":"modrenk2"},{"primitives":[{"attributes":{"POSITION":17,"NORMAL":18,"TEXCOORD_0":19},"indices":16,"material":4}],"name":"modvideo1"},{"primitives":[{"attributes":{"POSITION":21,"NORMAL":22,"TEXCOORD_0":23},"indices":20,"material":5}],"name":"moddikyazi1"},{"primitives":[{"attributes":{"POSITION":25,"NORMAL":26,"TEXCOORD_0":27},"indices":24,"material":6}],"name":"moddikgorsel1"},{"primitives":[{"attributes":{"POSITION":29,"NORMAL":30,"TEXCOORD_0":31},"indices":28,"material":7}],"name":"modlogo1"},{"primitives":[{"attributes":{"POSITION":33,"NORMAL":34,"TEXCOORD_0":35},"indices":32,"material":8}],"name":"moddikyazi2"},{"primitives":[{"attributes":{"POSITION":37,"NORMAL":38,"TEXCOORD_0":39},"indices":36,"material":9}],"name":"modlogo2"},{"primitives":[{"attributes":{"POSITION":41,"NORMAL":42,"TEXCOORD_0":43},"indices":40,"material":10}],"name":"modlogo3"},{"primitives":[{"attributes":{"POSITION":45,"NORMAL":46,"TEXCOORD_0":47},"indices":44,"material":11}],"name":"modyazi1"},{"primitives":[{"attributes":{"POSITION":49,"NORMAL":50,"TEXCOORD_0":51},"indices":48,"material":12}],"name":"modgenisgorsel"},{"primitives":[{"attributes":{"POSITION":53,"NORMAL":54,"TEXCOORD_0":55},"indices":52,"material":13}],"name":"modyazi2"},{"primitives":[{"attributes":{"POSITION":57,"NORMAL":58,"TEXCOORD_0":59},"indices":56,"material":14}],"name":"moddikgorsel2"},{"primitives":[{"attributes":{"POSITION":61,"NORMAL":62,"TEXCOORD_0":63},"indices":60,"material":15}],"name":"moddikgorsel3"},{"primitives":[{"attributes":{"POSITION":65,"NORMAL":66,"TEXCOORD_0":67},"indices":64,"material":16}],"name":"moddikgorsel4"},{"primitives":[{"attributes":{"POSITION":69,"NORMAL":70,"TEXCOORD_0":71},"indices":68,"material":17}],"name":"moddikgorsel5"},{"primitives":[{"attributes":{"POSITION":73,"NORMAL":74,"TEXCOORD_0":75},"indices":72,"material":18}],"name":"moddikgorsel6"},{"primitives":[{"attributes":{"POSITION":77,"NORMAL":78,"TEXCOORD_0":79},"indices":76,"material":19}],"name":"moddikgorsel7"},{"primitives":[{"attributes":{"POSITION":81,"NORMAL":82,"TEXCOORD_0":83},"indices":80,"material":20}],"name":"moddikgorsel8"},{"primitives":[{"attributes":{"POSITION":85,"NORMAL":86,"TEXCOORD_0":87},"indices":84,"material":21}],"name":"moddikgorsel9"}],"accessors":[{"bufferView":0,"componentType":5123,"count":72,"type":"SCALAR","name":"accessorIndices"},{"bufferView":1,"componentType":5126,"count":48,"max":[0.9027984,0.007259903,1.0619849],"min":[-7.903186,-1.23537219,-0.8807559],"type":"VEC3","name":"accessorPositions"},{"bufferView":1,"byteOffset":576,"componentType":5126,"count":48,"type":"VEC3","name":"accessorNormals"},{"bufferView":2,"componentType":5126,"count":48,"type":"VEC2","name":"accessorUVs"},{"bufferView":0,"byteOffset":144,"componentType":5123,"count":30,"type":"SCALAR","name":"accessorIndices"},{"bufferView":1,"byteOffset":1152,"componentType":5126,"count":30,"max":[5.0,0.049999997,5.0],"min":[-5.0,0.0,-5.0],"type":"VEC3","name":"accessorPositions"},{"bufferView":1,"byteOffset":1512,"componentType":5126,"count":30,"type":"VEC3","name":"accessorNormals"},{"bufferView":2,"byteOffset":384,"componentType":5126,"count":30,"type":"VEC2","name":"accessorUVs"},{"bufferView":0,"byteOffset":204,"componentType":5123,"count":366,"type":"SCALAR","name":"accessorIndices"},{"bufferView":1,"byteOffset":1872,"componentType":5126,"count":366,"max":[3.68047714,0.162609056,2.76756978],"min":[-5.41883659,-9.419842,-1.832431],"type":"VEC3","name":"accessorPositions"},{"bufferView":1,"byteOffset":6264,"componentType":5126,"count":366,"type":"VEC3","name":"accessorNormals"},{"bufferView":2,"byteOffset":624,"componentType":5126,"count":366,"type":"VEC2","name":"accessorUVs"},{"bufferView":0,"byteOffset":936,"componentType":5123,"count":750,"type":"SCALAR","name":"accessorIndices"},{"bufferView":1,"byteOffset":10656,"componentType":5126,"count":750,"max":[8.976148,3.58564258,0.370712727],"min":[-1.02385283,-0.8643577,-8.764192],"type":"VEC3","name":"accessorPositions"},{"bufferView":1,"byteOffset":19656,"componentType":5126,"count":750,"type":"VEC3","name":"accessorNormals"},{"bufferView":2,"byteOffset":3552,"componentType":5126,"count":750,"type":"VEC2","name":"accessorUVs"},{"bufferView":0,"byteOffset":2436,"componentType":5123,"count":6,"type":"SCALAR","name":"accessorIndices"},{"bufferView":1,"byteOffset":28656,"componentType":5126,"count":6,"max":[0.96,0.0,0.539999962],"min":[-0.96,0.0,-0.539999962],"type":"VEC3","name":"accessorPositions"},{"bufferView":1,"byteOffset":28728,"componentType":5126,"count":6,"type":"VEC3","name":"accessorNormals"},{"bufferView":2,"byteOffset":9552,"componentType":5126,"count":6,"type":"VEC2","name":"accessorUVs"},{"bufferView":0,"byteOffset":2448,"componentType":5123,"count":6,"type":"SCALAR","name":"accessorIndices"},{"bufferView":1,"byteOffset":28800,"componentType":5126,"count":6,"max":[0.75,0.0,0.25],"min":[-0.75,0.0,-0.25],"type":"VEC3","name":"accessorPositions"},{"bufferView":1,"byteOffset":28872,"componentType":5126,"count":6,"type":"VEC3","name":"accessorNormals"},{"bufferView":2,"byteOffset":9600,"componentType":5126,"count":6,"type":"VEC2","name":"accessorUVs"},{"bufferView":0,"byteOffset":2460,"componentType":5123,"count":6,"type":"SCALAR","name":"accessorIndices"},{"bufferView":1,"byteOffset":28944,"componentType":5126,"count":6,"max":[1.05,0.0,1.485],"min":[-1.05,0.0,-1.485],"type":"VEC3","name":"accessorPositions"},{"bufferView":1,"byteOffset":29016,"componentType":5126,"count":6,"type":"VEC3","name":"accessorNormals"},{"bufferView":2,"byteOffset":9648,"componentType":5126,"count":6,"type":"VEC2","name":"accessorUVs"},{"bufferView":0,"byteOffset":2472,"componentType":5123,"count":6,"type":"SCALAR","name":"accessorIndices"},{"bufferView":1,"byteOffset":29088,"componentType":5126,"count":6,"max":[1.0,0.0,1.0],"min":[-1.0,0.0,-1.0],"type":"VEC3","name":"accessorPositions"},{"bufferView":1,"byteOffset":29160,"componentType":5126,"count":6,"type":"VEC3","name":"accessorNormals"},{"bufferView":2,"byteOffset":9696,"componentType":5126,"count":6,"type":"VEC2","name":"accessorUVs"},{"bufferView":0,"byteOffset":2484,"componentType":5123,"count":6,"type":"SCALAR","name":"accessorIndices"},{"bufferView":1,"byteOffset":29232,"componentType":5126,"count":6,"max":[0.75,0.0,0.25],"min":[-0.75,0.0,-0.25],"type":"VEC3","name":"accessorPositions"},{"bufferView":1,"byteOffset":29304,"componentType":5126,"count":6,"type":"VEC3","name":"accessorNormals"},{"bufferView":2,"byteOffset":9744,"componentType":5126,"count":6,"type":"VEC2","name":"accessorUVs"},{"bufferView":0,"byteOffset":2496,"componentType":5123,"count":6,"type":"SCALAR","name":"accessorIndices"},{"bufferView":1,"byteOffset":29376,"componentType":5126,"count":6,"max":[1.0,0.0,1.0],"min":[-1.0,0.0,-1.0],"type":"VEC3","name":"accessorPositions"},{"bufferView":1,"byteOffset":29448,"componentType":5126,"count":6,"type":"VEC3","name":"accessorNormals"},{"bufferView":2,"byteOffset":9792,"componentType":5126,"count":6,"type":"VEC2","name":"accessorUVs"},{"bufferView":0,"byteOffset":2508,"componentType":5123,"count":6,"type":"SCALAR","name":"accessorIndices"},{"bufferView":1,"byteOffset":29520,"componentType":5126,"count":6,"max":[1.0,0.0,1.0],"min":[-1.0,0.0,-1.0],"type":"VEC3","name":"accessorPositions"},{"bufferView":1,"byteOffset":29592,"componentType":5126,"count":6,"type":"VEC3","name":"accessorNormals"},{"bufferView":2,"byteOffset":9840,"componentType":5126,"count":6,"type":"VEC2","name":"accessorUVs"},{"bufferView":0,"byteOffset":2520,"componentType":5123,"count":6,"type":"SCALAR","name":"accessorIndices"},{"bufferView":1,"byteOffset":29664,"componentType":5126,"count":6,"max":[0.75,0.0,0.25],"min":[-0.75,0.0,-0.25],"type":"VEC3","name":"accessorPositions"},{"bufferView":1,"byteOffset":29736,"componentType":5126,"count":6,"type":"VEC3","name":"accessorNormals"},{"bufferView":2,"byteOffset":9888,"componentType":5126,"count":6,"type":"VEC2","name":"accessorUVs"},{"bufferView":0,"byteOffset":2532,"componentType":5123,"count":6,"type":"SCALAR","name":"accessorIndices"},{"bufferView":1,"byteOffset":29808,"componentType":5126,"count":6,"max":[4.652625,3.86676646E-07,1.749241],"min":[-3.75441527,-3.01428429E-07,-1.67444134],"type":"VEC3","name":"accessorPositions"},{"bufferView":1,"byteOffset":29880,"componentType":5126,"count":6,"type":"VEC3","name":"accessorNormals"},{"bufferView":2,"byteOffset":9936,"componentType":5126,"count":6,"type":"VEC2","name":"accessorUVs"},{"bufferView":0,"byteOffset":2544,"componentType":5123,"count":6,"type":"SCALAR","name":"accessorIndices"},{"bufferView":1,"byteOffset":29952,"componentType":5126,"count":6,"max":[0.75,0.0,0.25],"min":[-0.75,0.0,-0.25],"type":"VEC3","name":"accessorPositions"},{"bufferView":1,"byteOffset":30024,"componentType":5126,"count":6,"type":"VEC3","name":"accessorNormals"},{"bufferView":2,"byteOffset":9984,"componentType":5126,"count":6,"type":"VEC2","name":"accessorUVs"},{"bufferView":0,"byteOffset":2556,"componentType":5123,"count":6,"type":"SCALAR","name":"accessorIndices"},{"bufferView":1,"byteOffset":30096,"componentType":5126,"count":6,"max":[1.05,0.0,1.485],"min":[-1.05,0.0,-1.485],"type":"VEC3","name":"accessorPositions"},{"bufferView":1,"byteOffset":30168,"componentType":5126,"count":6,"type":"VEC3","name":"accessorNormals"},{"bufferView":2,"byteOffset":10032,"componentType":5126,"count":6,"type":"VEC2","name":"accessorUVs"},{"bufferView":0,"byteOffset":2568,"componentType":5123,"count":6,"type":"SCALAR","name":"accessorIndices"},{"bufferView":1,"byteOffset":30240,"componentType":5126,"count":6,"max":[1.05,0.0,1.485],"min":[-1.05,0.0,-1.485],"type":"VEC3","name":"accessorPositions"},{"bufferView":1,"byteOffset":30312,"componentType":5126,"count":6,"type":"VEC3","name":"accessorNormals"},{"bufferView":2,"byteOffset":10080,"componentType":5126,"count":6,"type":"VEC2","name":"accessorUVs"},{"bufferView":0,"byteOffset":2580,"componentType":5123,"count":6,"type":"SCALAR","name":"accessorIndices"},{"bufferView":1,"byteOffset":30384,"componentType":5126,"count":6,"max":[1.05,0.0,1.485],"min":[-1.05,0.0,-1.485],"type":"VEC3","name":"accessorPositions"},{"bufferView":1,"byteOffset":30456,"componentType":5126,"count":6,"type":"VEC3","name":"accessorNormals"},{"bufferView":2,"byteOffset":10128,"componentType":5126,"count":6,"type":"VEC2","name":"accessorUVs"},{"bufferView":0,"byteOffset":2592,"componentType":5123,"count":6,"type":"SCALAR","name":"accessorIndices"},{"bufferView":1,"byteOffset":30528,"componentType":5126,"count":6,"max":[1.05,0.0,1.485],"min":[-1.05,0.0,-1.485],"type":"VEC3","name":"accessorPositions"},{"bufferView":1,"byteOffset":30600,"componentType":5126,"count":6,"type":"VEC3","name":"accessorNormals"},{"bufferView":2,"byteOffset":10176,"componentType":5126,"count":6,"type":"VEC2","name":"accessorUVs"},{"bufferView":0,"byteOffset":2604,"componentType":5123,"count":6,"type":"SCALAR","name":"accessorIndices"},{"bufferView":1,"byteOffset":30672,"componentType":5126,"count":6,"max":[1.05,0.0,1.485],"min":[-1.05,0.0,-1.485],"type":"VEC3","name":"accessorPositions"},{"bufferView":1,"byteOffset":30744,"componentType":5126,"count":6,"type":"VEC3","name":"accessorNormals"},{"bufferView":2,"byteOffset":10224,"componentType":5126,"count":6,"type":"VEC2","name":"accessorUVs"},{"bufferView":0,"byteOffset":2616,"componentType":5123,"count":6,"type":"SCALAR","name":"accessorIndices"},{"bufferView":1,"byteOffset":30816,"componentType":5126,"count":6,"max":[1.05,0.0,1.485],"min":[-1.05,0.0,-1.485],"type":"VEC3","name":"accessorPositions"},{"bufferView":1,"byteOffset":30888,"componentType":5126,"count":6,"type":"VEC3","name":"accessorNormals"},{"bufferView":2,"byteOffset":10272,"componentType":5126,"count":6,"type":"VEC2","name":"accessorUVs"},{"bufferView":0,"byteOffset":2628,"componentType":5123,"count":6,"type":"SCALAR","name":"accessorIndices"},{"bufferView":1,"byteOffset":30960,"componentType":5126,"count":6,"max":[1.05,0.0,1.485],"min":[-1.05,0.0,-1.485],"type":"VEC3","name":"accessorPositions"},{"bufferView":1,"byteOffset":31032,"componentType":5126,"count":6,"type":"VEC3","name":"accessorNormals"},{"bufferView":2,"byteOffset":10320,"componentType":5126,"count":6,"type":"VEC2","name":"accessorUVs"},{"bufferView":0,"byteOffset":2640,"componentType":5123,"count":6,"type":"SCALAR","name":"accessorIndices"},{"bufferView":1,"byteOffset":31104,"componentType":5126,"count":6,"max":[1.05,0.0,1.485],"min":[-1.05,0.0,-1.485],"type":"VEC3","name":"accessorPositions"},{"bufferView":1,"byteOffset":31176,"componentType":5126,"count":6,"type":"VEC3","name":"accessorNormals"},{"bufferView":2,"byteOffset":10368,"componentType":5126,"count":6,"type":"VEC2","name":"accessorUVs"}],"bufferViews":[{"buffer":0,"byteLength":2652,"name":"bufferViewScalar"},{"buffer":0,"byteOffset":2652,"byteLength":31248,"byteStride":12,"name":"bufferViewFloatVec3"},{"buffer":0,"byteOffset":33900,"byteLength":10416,"byteStride":8,"name":"bufferViewFloatVec2"}],"buffers":[{"uri":"stant76.bin","byteLength":44316}],"materials":[{"pbrMetallicRoughness":{"baseColorFactor":[0.0,0.0,0.0,0.0],"metallicFactor":0.0,"roughnessFactor":0.5},"alphaMode":"BLEND","doubleSided":true,"name":"matengel","extras":{"babylonSeparateCullingPass":false}},{"pbrMetallicRoughness":{"baseColorTexture":{"index":0,"extensions":{"KHR_texture_transform":{"texCoord":0}}},"metallicFactor":0.0,"metallicRoughnessTexture":{"index":1,"extensions":{"KHR_texture_transform":{"texCoord":0}}}},"name":"matahsap","extras":{"babylonSeparateCullingPass":false}},{"pbrMetallicRoughness":{"baseColorFactor":[0.56078434,0.498039246,0.5686275,1.0],"metallicFactor":0.0,"metallicRoughnessTexture":{"index":3,"extensions":{"KHR_texture_transform":{"texCoord":0}}}},"normalTexture":{"index":2,"scale":0.3,"extensions":{"KHR_texture_transform":{"texCoord":0}}},"name":"matrenk1","extras":{"babylonSeparateCullingPass":false}},{"pbrMetallicRoughness":{"baseColorFactor":[0.06163243,0.0403705835,0.09352518,1.0],"metallicFactor":0.0,"metallicRoughnessTexture":{"index":3,"extensions":{"KHR_texture_transform":{"texCoord":0}}}},"normalTexture":{"index":2,"scale":0.3,"extensions":{"KHR_texture_transform":{"texCoord":0}}},"name":"matrenk2","extras":{"babylonSeparateCullingPass":false}},{"pbrMetallicRoughness":{"baseColorTexture":{"index":6,"extensions":{"KHR_texture_transform":{"texCoord":0}}},"metallicFactor":0.0,"roughnessFactor":0.5},"name":"matvideo1","extras":{"babylonSeparateCullingPass":false}},{"pbrMetallicRoughness":{"baseColorTexture":{"index":7,"extensions":{"KHR_texture_transform":{"texCoord":0}}},"metallicFactor":0.0,"roughnessFactor":0.5},"name":"matdikyazi1","extras":{"babylonSeparateCullingPass":false}},{"pbrMetallicRoughness":{"baseColorTexture":{"index":8,"extensions":{"KHR_texture_transform":{"texCoord":0}}},"metallicFactor":0.0,"roughnessFactor":0.5},"name":"matdikgorsel1","extras":{"babylonSeparateCullingPass":false}},{"pbrMetallicRoughness":{"baseColorTexture":{"index":9,"extensions":{"KHR_texture_transform":{"texCoord":0}}},"metallicFactor":0.0,"roughnessFactor":0.5},"name":"matlogo1","extras":{"babylonSeparateCullingPass":false}},{"pbrMetallicRoughness":{"baseColorTexture":{"index":10,"extensions":{"KHR_texture_transform":{"texCoord":0}}},"metallicFactor":0.0,"roughnessFactor":0.5},"name":"matdikyazi2","extras":{"babylonSeparateCullingPass":false}},{"pbrMetallicRoughness":{"baseColorTexture":{"index":11,"extensions":{"KHR_texture_transform":{"texCoord":0}}},"metallicFactor":0.0,"roughnessFactor":0.5},"name":"matlogo2","extras":{"babylonSeparateCullingPass":false}},{"pbrMetallicRoughness":{"baseColorTexture":{"index":12,"extensions":{"KHR_texture_transform":{"texCoord":0}}},"metallicFactor":0.0,"roughnessFactor":0.5},"name":"matlogo3","extras":{"babylonSeparateCullingPass":false}},{"pbrMetallicRoughness":{"baseColorTexture":{"index":13,"extensions":{"KHR_texture_transform":{"texCoord":0}}},"metallicFactor":0.0,"roughnessFactor":0.5},"name":"matyazi1","extras":{"babylonSeparateCullingPass":false}},{"pbrMetallicRoughness":{"baseColorTexture":{"index":14,"extensions":{"KHR_texture_transform":{"texCoord":0}}},"metallicFactor":0.0,"roughnessFactor":0.5},"name":"matgenisgorsel","extras":{"babylonSeparateCullingPass":false}},{"pbrMetallicRoughness":{"baseColorTexture":{"index":15,"extensions":{"KHR_texture_transform":{"texCoord":0}}},"metallicFactor":0.0,"roughnessFactor":0.5},"name":"matyazi2","extras":{"babylonSeparateCullingPass":false}},{"pbrMetallicRoughness":{"baseColorTexture":{"index":16,"extensions":{"KHR_texture_transform":{"texCoord":0}}},"metallicFactor":0.0,"roughnessFactor":0.5},"name":"matdikgorsel2","extras":{"babylonSeparateCullingPass":false}},{"pbrMetallicRoughness":{"baseColorTexture":{"index":17,"extensions":{"KHR_texture_transform":{"texCoord":0}}},"metallicFactor":0.0,"roughnessFactor":0.5},"name":"matdikgorsel3","extras":{"babylonSeparateCullingPass":false}},{"pbrMetallicRoughness":{"baseColorTexture":{"index":18,"extensions":{"KHR_texture_transform":{"texCoord":0}}},"metallicFactor":0.0,"roughnessFactor":0.5},"name":"matdikgorsel4","extras":{"babylonSeparateCullingPass":false}},{"pbrMetallicRoughness":{"baseColorTexture":{"index":19,"extensions":{"KHR_texture_transform":{"texCoord":0}}},"metallicFactor":0.0,"roughnessFactor":0.5},"name":"matdikgorsel5","extras":{"babylonSeparateCullingPass":false}},{"pbrMetallicRoughness":{"baseColorTexture":{"index":20,"extensions":{"KHR_texture_transform":{"texCoord":0}}},"metallicFactor":0.0,"roughnessFactor":0.5},"name":"matdikgorsel6","extras":{"babylonSeparateCullingPass":false}},{"pbrMetallicRoughness":{"baseColorTexture":{"index":21,"extensions":{"KHR_texture_transform":{"texCoord":0}}},"metallicFactor":0.0,"roughnessFactor":0.5},"name":"matdikgorsel7","extras":{"babylonSeparateCullingPass":false}},{"pbrMetallicRoughness":{"baseColorTexture":{"index":22,"extensions":{"KHR_texture_transform":{"texCoord":0}}},"metallicFactor":0.0,"roughnessFactor":0.5},"name":"matdikgorsel8","extras":{"babylonSeparateCullingPass":false}},{"pbrMetallicRoughness":{"baseColorTexture":{"index":23,"extensions":{"KHR_texture_transform":{"texCoord":0}}},"metallicFactor":0.0,"roughnessFactor":0.5},"name":"matdikgorsel9","extras":{"babylonSeparateCullingPass":false}}],"textures":[{"sampler":0,"source":0,"name":"matahsap.png"},{"sampler":0,"source":1,"name":"matahsaproughness0.png"},{"sampler":0,"source":2,"name":"matrenknormal.png"},{"sampler":0,"source":3,"name":"matrenkroughness0.png"},{"sampler":0,"source":2,"name":"matrenknormal.png"},{"sampler":0,"source":3,"name":"matrenkroughness0.png"},{"sampler":0,"source":4,"name":"matvideo1.png"},{"sampler":0,"source":5,"name":"matdikyazi1.png"},{"sampler":0,"source":6,"name":"matdikgorsel1.png"},{"sampler":0,"source":7,"name":"matlogo1.png"},{"sampler":0,"source":8,"name":"matdikyazi2.png"},{"sampler":0,"source":9,"name":"matlogo2.png"},{"sampler":0,"source":10,"name":"matlogo3.png"},{"sampler":0,"source":11,"name":"matyazi1.png"},{"sampler":0,"source":12,"name":"matgenisgorsel.png"},{"sampler":0,"source":13,"name":"matyazi2.png"},{"sampler":0,"source":14,"name":"matdikgorsel2.png"},{"sampler":0,"source":15,"name":"matdikgorsel3.png"},{"sampler":0,"source":16,"name":"matdikgorsel4.png"},{"sampler":0,"source":17,"name":"matdikgorsel5.png"},{"sampler":0,"source":18,"name":"matdikgorsel6.png"},{"sampler":0,"source":19,"name":"matdikgorsel7.png"},{"sampler":0,"source":20,"name":"matdikgorsel8.png"},{"sampler":0,"source":21,"name":"matdikgorsel9.png"}],"images":[{"uri":"./matahsap.png"},{"uri":"./matahsaproughness0.png"},{"uri":"./matrenknormal.png"},{"uri":"./matrenkroughness0.png"},{"uri":"./matvideo1.png"},{"uri":"./matdikyazi1.png"},{"uri":"./matdikgorsel1.png"},{"uri":"./matlogo1.png"},{"uri":"./matdikyazi2.png"},{"uri":"./matlogo2.png"},{"uri":"./matlogo3.png"},{"uri":"./matyazi1.png"},{"uri":"./matgenisgorsel.png"},{"uri":"./matyazi2.png"},{"uri":"./matdikgorsel2.png"},{"uri":"./matdikgorsel3.png"},{"uri":"./matdikgorsel4.png"},{"uri":"./matdikgorsel5.png"},{"uri":"./matdikgorsel6.png"},{"uri":"./matdikgorsel7.png"},{"uri":"./matdikgorsel8.png"},{"uri":"./matdikgorsel9.png"}],"samplers":[{"magFilter":9729,"minFilter":9987}]}