{"asset":{"version":"2.0","generator":"babylon.js glTF exporter for 3dsmax 2018 v20210615.1"},"extensionsUsed":["KHR_texture_transform"],"extensionsRequired":["KHR_texture_transform"],"scene":0,"scenes":[{"nodes":[0]}],"nodes":[{"children":[1,2,3,4,5,6,7,8,9,10,11,12,13,14,15,16,17,18,19],"translation":[2.09808348E-07,0.0,0.0],"name":"Group001"},{"mesh":0,"translation":[0.0302573387,1.52587887E-07,0.000708373147],"rotation":[0.0,-0.70710665,0.0,0.7071069],"scale":[0.09999999,0.09999999,0.09999999],"name":"modzemin"},{"mesh":1,"translation":[-0.121911675,0.226983622,-0.460905433],"rotation":[0.7071068,2.30404652E-07,-2.304047E-07,0.7071067],"scale":[0.131714627,0.131714627,0.131714627],"name":"modlogo3"},{"mesh":2,"translation":[0.501207054,0.105000049,-0.399291366],"rotation":[-0.4999998,-0.500000238,0.500000834,-0.499999255],"scale":[0.09999999,0.09999999,0.09999999],"name":"modgenisgorsel"},{"mesh":3,"translation":[0.144463435,0.237667218,-0.2890198],"rotation":[-0.5000002,0.499999821,-0.5,-0.5],"scale":[0.131714627,0.131714627,0.131714627],"name":"modvideo1"},{"mesh":4,"translation":[0.310814,0.223634779,-0.436601549],"rotation":[5.3385083E-08,-0.7071067,0.7071068,5.33850759E-08],"scale":[0.137732491,0.137732491,0.137732491],"name":"modlogo2"},{"mesh":5,"translation":[-0.46341604,0.05916504,0.137457579],"rotation":[-0.5000002,0.499999821,-0.5,-0.5],"scale":[0.04870541,0.04870541,0.04870541],"name":"modlogo1"},{"mesh":6,"translation":[0.4763932,0.230921447,-0.0311035514],"rotation":[-0.5000002,0.499999821,-0.5,-0.5],"scale":[0.04751044,0.04751044,0.04751044],"name":"moddikgorsel1"},{"mesh":7,"translation":[0.4763932,0.230921447,0.08034965],"rotation":[-0.5000002,0.499999821,-0.5,-0.5],"scale":[0.04751044,0.04751044,0.04751044],"name":"moddikgorsel2"},{"mesh":8,"translation":[0.4763932,0.230921447,0.247956827],"rotation":[-0.5000002,0.499999821,-0.5,-0.5],"scale":[0.0613003522,0.0613003522,0.0613003522],"name":"moddikgorsel3"},{"mesh":9,"translation":[0.4763932,0.230921447,0.425957322],"rotation":[-0.5000002,0.499999821,-0.5,-0.5],"scale":[0.0613003522,0.0613003522,0.0613003522],"name":"moddikgorsel4"},{"mesh":10,"translation":[0.311034024,0.230921447,-0.08632934],"rotation":[0.7071068,2.30404638E-07,-2.3040468E-07,0.7071067],"scale":[0.04751044,0.04751044,0.04751044],"name":"moddikgorsel5"},{"mesh":11,"translation":[0.420588136,0.230921447,-0.08632942],"rotation":[0.7071068,2.30404638E-07,-2.3040468E-07,0.7071067],"scale":[0.04751044,0.04751044,0.04751044],"name":"moddikgorsel6"},{"mesh":12,"translation":[0.2023417,0.230921447,-0.08632934],"rotation":[0.7071068,2.30404638E-07,-2.3040468E-07,0.7071067],"scale":[0.04751044,0.04751044,0.04751044],"name":"moddikgorsel7"},{"mesh":13,"translation":[0.501001954,0.234442413,0.424975276],"rotation":[-0.7071069,-0.70710665,-2.57603233E-07,-1.00644968E-07],"scale":[0.2534618,0.253461748,0.253461748],"name":"moddikyazi1"},{"mesh":14,"translation":[0.501001954,0.234442413,0.246550873],"rotation":[-0.7071069,-0.70710665,-2.57603233E-07,-1.00644968E-07],"scale":[0.2534618,0.253461748,0.253461748],"name":"moddikyazi2"},{"mesh":15,"translation":[-0.468512475,0.06014393,0.3096452],"rotation":[0.50000006,-0.5000001,0.49999994,0.49999994],"scale":[0.138767153,0.138767153,0.138767153],"name":"modyazi1"},{"mesh":16,"translation":[-0.230579466,0.293343246,-0.499790549],"rotation":[-0.50000006,-0.50000006,0.499999881,0.50000006],"scale":[0.134362623,0.134362608,0.134362608],"name":"moddikyazi3"},{"mesh":17,"translation":[0.135919735,0.00500015263,0.4263736],"rotation":[0.0,-0.70710665,0.0,0.7071069],"scale":[0.09999999,0.09999999,0.09999999],"name":"modrenk2"},{"mesh":18,"translation":[-0.424101472,0.00500015263,0.230559051],"rotation":[0.0,-0.70710665,0.0,0.7071069],"scale":[0.09999999,0.09999999,0.09999999],"name":"modrenk1"}],"meshes":[{"primitives":[{"attributes":{"POSITION":1,"NORMAL":2,"TEXCOORD_0":3},"indices":0,"material":0}],"name":"modzemin"},{"primitives":[{"attributes":{"POSITION":5,"NORMAL":6,"TEXCOORD_0":7},"indices":4,"material":1}],"name":"modlogo3"},{"primitives":[{"attributes":{"POSITION":9,"NORMAL":10,"TEXCOORD_0":11},"indices":8,"material":2}],"name":"modgenisgorsel"},{"primitives":[{"attributes":{"POSITION":13,"NORMAL":14,"TEXCOORD_0":15},"indices":12,"material":3}],"name":"modvideo1"},{"primitives":[{"attributes":{"POSITION":17,"NORMAL":18,"TEXCOORD_0":19},"indices":16,"material":4}],"name":"modlogo2"},{"primitives":[{"attributes":{"POSITION":21,"NORMAL":22,"TEXCOORD_0":23},"indices":20,"material":5}],"name":"modlogo1"},{"primitives":[{"attributes":{"POSITION":25,"NORMAL":26,"TEXCOORD_0":27},"indices":24,"material":6}],"name":"moddikgorsel1"},{"primitives":[{"attributes":{"POSITION":29,"NORMAL":30,"TEXCOORD_0":31},"indices":28,"material":7}],"name":"moddikgorsel2"},{"primitives":[{"attributes":{"POSITION":33,"NORMAL":34,"TEXCOORD_0":35},"indices":32,"material":8}],"name":"moddikgorsel3"},{"primitives":[{"attributes":{"POSITION":37,"NORMAL":38,"TEXCOORD_0":39},"indices":36,"material":9}],"name":"moddikgorsel4"},{"primitives":[{"attributes":{"POSITION":41,"NORMAL":42,"TEXCOORD_0":43},"indices":40,"material":10}],"name":"moddikgorsel5"},{"primitives":[{"attributes":{"POSITION":45,"NORMAL":46,"TEXCOORD_0":47},"indices":44,"material":11}],"name":"moddikgorsel6"},{"primitives":[{"attributes":{"POSITION":49,"NORMAL":50,"TEXCOORD_0":51},"indices":48,"material":12}],"name":"moddikgorsel7"},{"primitives":[{"attributes":{"POSITION":53,"NORMAL":54,"TEXCOORD_0":55},"indices":52,"material":13}],"name":"moddikyazi1"},{"primitives":[{"attributes":{"POSITION":57,"NORMAL":58,"TEXCOORD_0":59},"indices":56,"material":14}],"name":"moddikyazi2"},{"primitives":[{"attributes":{"POSITION":61,"NORMAL":62,"TEXCOORD_0":63},"indices":60,"material":15}],"name":"modyazi1"},{"primitives":[{"attributes":{"POSITION":65,"NORMAL":66,"TEXCOORD_0":67},"indices":64,"material":16}],"name":"moddikyazi3"},{"primitives":[{"attributes":{"POSITION":69,"NORMAL":70,"TEXCOORD_0":71},"indices":68,"material":17}],"name":"modrenk2"},{"primitives":[{"attributes":{"POSITION":73,"NORMAL":74,"TEXCOORD_0":75},"indices":72,"material":18}],"name":"modrenk1"}],"accessors":[{"bufferView":0,"componentType":5123,"count":96,"type":"SCALAR","name":"accessorIndices"},{"bufferView":1,"componentType":5126,"count":64,"max":[5.00000048,0.050000228,5.314656],"min":[-5.0,-7.62939436E-08,-4.685352],"type":"VEC3","name":"accessorPositions"},{"bufferView":1,"byteOffset":768,"componentType":5126,"count":64,"type":"VEC3","name":"accessorNormals"},{"bufferView":2,"componentType":5126,"count":64,"type":"VEC2","name":"accessorUVs"},{"bufferView":0,"byteOffset":192,"componentType":5123,"count":6,"type":"SCALAR","name":"accessorIndices"},{"bufferView":1,"byteOffset":1536,"componentType":5126,"count":4,"max":[1.0,0.0,1.0],"min":[-1.0,0.0,-1.0],"type":"VEC3","name":"accessorPositions"},{"bufferView":1,"byteOffset":1584,"componentType":5126,"count":4,"type":"VEC3","name":"accessorNormals"},{"bufferView":2,"byteOffset":512,"componentType":5126,"count":4,"type":"VEC2","name":"accessorUVs"},{"bufferView":0,"byteOffset":204,"componentType":5123,"count":6,"type":"SCALAR","name":"accessorIndices"},{"bufferView":1,"byteOffset":1632,"componentType":5126,"count":4,"max":[1.0,0.0,1.0],"min":[-5.374066,-4.886151E-07,-3.430078],"type":"VEC3","name":"accessorPositions"},{"bufferView":1,"byteOffset":1680,"componentType":5126,"count":4,"type":"VEC3","name":"accessorNormals"},{"bufferView":2,"byteOffset":544,"componentType":5126,"count":4,"type":"VEC2","name":"accessorUVs"},{"bufferView":0,"byteOffset":216,"componentType":5123,"count":6,"type":"SCALAR","name":"accessorIndices"},{"bufferView":1,"byteOffset":1728,"componentType":5126,"count":4,"max":[0.96,0.0,0.539999962],"min":[-0.96,0.0,-0.539999962],"type":"VEC3","name":"accessorPositions"},{"bufferView":1,"byteOffset":1776,"componentType":5126,"count":4,"type":"VEC3","name":"accessorNormals"},{"bufferView":2,"byteOffset":576,"componentType":5126,"count":4,"type":"VEC2","name":"accessorUVs"},{"bufferView":0,"byteOffset":228,"componentType":5123,"count":6,"type":"SCALAR","name":"accessorIndices"},{"bufferView":1,"byteOffset":1824,"componentType":5126,"count":4,"max":[1.0,0.0,1.0],"min":[-1.0,0.0,-1.0],"type":"VEC3","name":"accessorPositions"},{"bufferView":1,"byteOffset":1872,"componentType":5126,"count":4,"type":"VEC3","name":"accessorNormals"},{"bufferView":2,"byteOffset":608,"componentType":5126,"count":4,"type":"VEC2","name":"accessorUVs"},{"bufferView":0,"byteOffset":240,"componentType":5123,"count":6,"type":"SCALAR","name":"accessorIndices"},{"bufferView":1,"byteOffset":1920,"componentType":5126,"count":4,"max":[1.0,0.0,1.0],"min":[-1.0,0.0,-1.0],"type":"VEC3","name":"accessorPositions"},{"bufferView":1,"byteOffset":1968,"componentType":5126,"count":4,"type":"VEC3","name":"accessorNormals"},{"bufferView":2,"byteOffset":640,"componentType":5126,"count":4,"type":"VEC2","name":"accessorUVs"},{"bufferView":0,"byteOffset":252,"componentType":5123,"count":6,"type":"SCALAR","name":"accessorIndices"},{"bufferView":1,"byteOffset":2016,"componentType":5126,"count":4,"max":[1.05,0.0,1.485],"min":[-1.05,0.0,-1.485],"type":"VEC3","name":"accessorPositions"},{"bufferView":1,"byteOffset":2064,"componentType":5126,"count":4,"type":"VEC3","name":"accessorNormals"},{"bufferView":2,"byteOffset":672,"componentType":5126,"count":4,"type":"VEC2","name":"accessorUVs"},{"bufferView":0,"byteOffset":264,"componentType":5123,"count":6,"type":"SCALAR","name":"accessorIndices"},{"bufferView":1,"byteOffset":2112,"componentType":5126,"count":4,"max":[1.05,0.0,1.485],"min":[-1.05,0.0,-1.485],"type":"VEC3","name":"accessorPositions"},{"bufferView":1,"byteOffset":2160,"componentType":5126,"count":4,"type":"VEC3","name":"accessorNormals"},{"bufferView":2,"byteOffset":704,"componentType":5126,"count":4,"type":"VEC2","name":"accessorUVs"},{"bufferView":0,"byteOffset":276,"componentType":5123,"count":6,"type":"SCALAR","name":"accessorIndices"},{"bufferView":1,"byteOffset":2208,"componentType":5126,"count":4,"max":[1.05,0.0,1.485],"min":[-1.05,0.0,-1.485],"type":"VEC3","name":"accessorPositions"},{"bufferView":1,"byteOffset":2256,"componentType":5126,"count":4,"type":"VEC3","name":"accessorNormals"},{"bufferView":2,"byteOffset":736,"componentType":5126,"count":4,"type":"VEC2","name":"accessorUVs"},{"bufferView":0,"byteOffset":288,"componentType":5123,"count":6,"type":"SCALAR","name":"accessorIndices"},{"bufferView":1,"byteOffset":2304,"componentType":5126,"count":4,"max":[1.05,0.0,1.485],"min":[-1.05,0.0,-1.485],"type":"VEC3","name":"accessorPositions"},{"bufferView":1,"byteOffset":2352,"componentType":5126,"count":4,"type":"VEC3","name":"accessorNormals"},{"bufferView":2,"byteOffset":768,"componentType":5126,"count":4,"type":"VEC2","name":"accessorUVs"},{"bufferView":0,"byteOffset":300,"componentType":5123,"count":6,"type":"SCALAR","name":"accessorIndices"},{"bufferView":1,"byteOffset":2400,"componentType":5126,"count":4,"max":[1.05,0.0,1.485],"min":[-1.05,0.0,-1.485],"type":"VEC3","name":"accessorPositions"},{"bufferView":1,"byteOffset":2448,"componentType":5126,"count":4,"type":"VEC3","name":"accessorNormals"},{"bufferView":2,"byteOffset":800,"componentType":5126,"count":4,"type":"VEC2","name":"accessorUVs"},{"bufferView":0,"byteOffset":312,"componentType":5123,"count":6,"type":"SCALAR","name":"accessorIndices"},{"bufferView":1,"byteOffset":2496,"componentType":5126,"count":4,"max":[1.05,0.0,1.485],"min":[-1.05,0.0,-1.485],"type":"VEC3","name":"accessorPositions"},{"bufferView":1,"byteOffset":2544,"componentType":5126,"count":4,"type":"VEC3","name":"accessorNormals"},{"bufferView":2,"byteOffset":832,"componentType":5126,"count":4,"type":"VEC2","name":"accessorUVs"},{"bufferView":0,"byteOffset":324,"componentType":5123,"count":6,"type":"SCALAR","name":"accessorIndices"},{"bufferView":1,"byteOffset":2592,"componentType":5126,"count":4,"max":[1.05,0.0,1.485],"min":[-1.05,0.0,-1.485],"type":"VEC3","name":"accessorPositions"},{"bufferView":1,"byteOffset":2640,"componentType":5126,"count":4,"type":"VEC3","name":"accessorNormals"},{"bufferView":2,"byteOffset":864,"componentType":5126,"count":4,"type":"VEC2","name":"accessorUVs"},{"bufferView":0,"byteOffset":336,"componentType":5123,"count":6,"type":"SCALAR","name":"accessorIndices"},{"bufferView":1,"byteOffset":2688,"componentType":5126,"count":4,"max":[0.75,0.0,0.25],"min":[-0.75,0.0,-0.25],"type":"VEC3","name":"accessorPositions"},{"bufferView":1,"byteOffset":2736,"componentType":5126,"count":4,"type":"VEC3","name":"accessorNormals"},{"bufferView":2,"byteOffset":896,"componentType":5126,"count":4,"type":"VEC2","name":"accessorUVs"},{"bufferView":0,"byteOffset":348,"componentType":5123,"count":6,"type":"SCALAR","name":"accessorIndices"},{"bufferView":1,"byteOffset":2784,"componentType":5126,"count":4,"max":[0.75,0.0,0.25],"min":[-0.75,0.0,-0.25],"type":"VEC3","name":"accessorPositions"},{"bufferView":1,"byteOffset":2832,"componentType":5126,"count":4,"type":"VEC3","name":"accessorNormals"},{"bufferView":2,"byteOffset":928,"componentType":5126,"count":4,"type":"VEC2","name":"accessorUVs"},{"bufferView":0,"byteOffset":360,"componentType":5123,"count":6,"type":"SCALAR","name":"accessorIndices"},{"bufferView":1,"byteOffset":2880,"componentType":5126,"count":4,"max":[0.75,0.0,0.25],"min":[-0.75,0.0,-0.25],"type":"VEC3","name":"accessorPositions"},{"bufferView":1,"byteOffset":2928,"componentType":5126,"count":4,"type":"VEC3","name":"accessorNormals"},{"bufferView":2,"byteOffset":960,"componentType":5126,"count":4,"type":"VEC2","name":"accessorUVs"},{"bufferView":0,"byteOffset":372,"componentType":5123,"count":6,"type":"SCALAR","name":"accessorIndices"},{"bufferView":1,"byteOffset":2976,"componentType":5126,"count":4,"max":[0.75,0.0,0.25],"min":[-0.75,0.0,-0.25],"type":"VEC3","name":"accessorPositions"},{"bufferView":1,"byteOffset":3024,"componentType":5126,"count":4,"type":"VEC3","name":"accessorNormals"},{"bufferView":2,"byteOffset":992,"componentType":5126,"count":4,"type":"VEC2","name":"accessorUVs"},{"bufferView":0,"byteOffset":384,"componentType":5123,"count":390,"type":"SCALAR","name":"accessorIndices"},{"bufferView":1,"byteOffset":3072,"componentType":5126,"count":232,"max":[0.74334687,4.45,6.03881836],"min":[-9.25673,-0.05000015,-3.62872767],"type":"VEC3","name":"accessorPositions"},{"bufferView":1,"byteOffset":5856,"componentType":5126,"count":232,"type":"VEC3","name":"accessorNormals"},{"bufferView":2,"byteOffset":1024,"componentType":5126,"count":232,"type":"VEC2","name":"accessorUVs"},{"bufferView":0,"byteOffset":1164,"componentType":5123,"count":264,"type":"SCALAR","name":"accessorIndices"},{"bufferView":1,"byteOffset":8640,"componentType":5126,"count":150,"max":[2.70296025,4.45000029,0.466650367],"min":[-7.298506,-3.05175774E-07,-9.225749],"type":"VEC3","name":"accessorPositions"},{"bufferView":1,"byteOffset":10440,"componentType":5126,"count":150,"type":"VEC3","name":"accessorNormals"},{"bufferView":2,"byteOffset":2880,"componentType":5126,"count":150,"type":"VEC2","name":"accessorUVs"}],"bufferViews":[{"buffer":0,"byteLength":1692,"name":"bufferViewScalar"},{"buffer":0,"byteOffset":1692,"byteLength":12240,"byteStride":12,"name":"bufferViewFloatVec3"},{"buffer":0,"byteOffset":13932,"byteLength":4080,"byteStride":8,"name":"bufferViewFloatVec2"}],"buffers":[{"uri":"stant2.bin","byteLength":18012}],"materials":[{"pbrMetallicRoughness":{"baseColorFactor":[0.8705883,0.80392164,0.5019608,1.0],"metallicFactor":0.0,"metallicRoughnessTexture":{"index":1,"extensions":{"KHR_texture_transform":{"texCoord":0}}}},"normalTexture":{"index":0,"scale":0.3,"extensions":{"KHR_texture_transform":{"texCoord":0}}},"doubleSided":true,"name":"matzemin","extras":{"babylonSeparateCullingPass":false}},{"pbrMetallicRoughness":{"baseColorTexture":{"index":2,"extensions":{"KHR_texture_transform":{"texCoord":0}}},"metallicFactor":0.0,"roughnessFactor":0.5},"name":"matlogo3","extras":{"babylonSeparateCullingPass":false}},{"pbrMetallicRoughness":{"baseColorTexture":{"index":3,"extensions":{"KHR_texture_transform":{"texCoord":0}}},"metallicFactor":0.0,"roughnessFactor":0.5},"name":"matgenisgorsel","extras":{"babylonSeparateCullingPass":false}},{"pbrMetallicRoughness":{"baseColorTexture":{"index":4,"extensions":{"KHR_texture_transform":{"texCoord":0}}},"metallicFactor":0.0,"roughnessFactor":0.5},"doubleSided":true,"name":"matvideo1","extras":{"babylonSeparateCullingPass":false}},{"pbrMetallicRoughness":{"baseColorTexture":{"index":5,"extensions":{"KHR_texture_transform":{"texCoord":0}}},"metallicFactor":0.0,"roughnessFactor":0.5},"doubleSided":true,"name":"matlogo2","extras":{"babylonSeparateCullingPass":false}},{"pbrMetallicRoughness":{"baseColorTexture":{"index":6,"extensions":{"KHR_texture_transform":{"texCoord":0}}},"metallicFactor":0.0,"roughnessFactor":0.5},"doubleSided":true,"name":"matlogo1","extras":{"babylonSeparateCullingPass":false}},{"pbrMetallicRoughness":{"baseColorTexture":{"index":7,"extensions":{"KHR_texture_transform":{"texCoord":0}}},"metallicFactor":0.0,"roughnessFactor":0.5},"doubleSided":true,"name":"matdikgorsel1","extras":{"babylonSeparateCullingPass":false}},{"pbrMetallicRoughness":{"baseColorTexture":{"index":8,"extensions":{"KHR_texture_transform":{"texCoord":0}}},"metallicFactor":0.0,"roughnessFactor":0.5},"doubleSided":true,"name":"matdikgorsel2","extras":{"babylonSeparateCullingPass":false}},{"pbrMetallicRoughness":{"baseColorTexture":{"index":9,"extensions":{"KHR_texture_transform":{"texCoord":0}}},"metallicFactor":0.0,"roughnessFactor":0.5},"doubleSided":true,"name":"matdikgorsel3","extras":{"babylonSeparateCullingPass":false}},{"pbrMetallicRoughness":{"baseColorTexture":{"index":10,"extensions":{"KHR_texture_transform":{"texCoord":0}}},"metallicFactor":0.0,"roughnessFactor":0.5},"doubleSided":true,"name":"matdikgorsel4","extras":{"babylonSeparateCullingPass":false}},{"pbrMetallicRoughness":{"baseColorTexture":{"index":11,"extensions":{"KHR_texture_transform":{"texCoord":0}}},"metallicFactor":0.0,"roughnessFactor":0.5},"doubleSided":true,"name":"matdikgorsel5","extras":{"babylonSeparateCullingPass":false}},{"pbrMetallicRoughness":{"baseColorTexture":{"index":12,"extensions":{"KHR_texture_transform":{"texCoord":0}}},"metallicFactor":0.0,"roughnessFactor":0.5},"doubleSided":true,"name":"matdikgorsel6","extras":{"babylonSeparateCullingPass":false}},{"pbrMetallicRoughness":{"baseColorTexture":{"index":13,"extensions":{"KHR_texture_transform":{"texCoord":0}}},"metallicFactor":0.0,"roughnessFactor":0.5},"doubleSided":true,"name":"matdikgorsel7","extras":{"babylonSeparateCullingPass":false}},{"pbrMetallicRoughness":{"baseColorTexture":{"index":14,"extensions":{"KHR_texture_transform":{"texCoord":0}}},"metallicFactor":0.0,"roughnessFactor":0.5},"doubleSided":true,"name":"matdikyazi1","extras":{"babylonSeparateCullingPass":false}},{"pbrMetallicRoughness":{"baseColorTexture":{"index":15,"extensions":{"KHR_texture_transform":{"texCoord":0}}},"metallicFactor":0.0,"roughnessFactor":0.5},"doubleSided":true,"name":"matdikyazi2","extras":{"babylonSeparateCullingPass":false}},{"pbrMetallicRoughness":{"baseColorTexture":{"index":16,"extensions":{"KHR_texture_transform":{"texCoord":0}}},"metallicFactor":0.0,"roughnessFactor":0.5},"doubleSided":true,"name":"matyazi1","extras":{"babylonSeparateCullingPass":false}},{"pbrMetallicRoughness":{"baseColorTexture":{"index":17,"extensions":{"KHR_texture_transform":{"texCoord":0}}},"metallicFactor":0.0,"roughnessFactor":0.5},"doubleSided":true,"name":"matdikyazi3","extras":{"babylonSeparateCullingPass":false}},{"pbrMetallicRoughness":{"baseColorFactor":[0.33093527,0.249987081,0.128564775,1.0],"metallicFactor":0.0,"metallicRoughnessTexture":{"index":1,"extensions":{"KHR_texture_transform":{"texCoord":0}}}},"normalTexture":{"index":0,"scale":0.3,"extensions":{"KHR_texture_transform":{"texCoord":0}}},"doubleSided":true,"name":"matrenk2","extras":{"babylonSeparateCullingPass":false}},{"pbrMetallicRoughness":{"baseColorFactor":[0.011764707,0.03137255,0.0392156877,1.0],"metallicFactor":0.0,"metallicRoughnessTexture":{"index":1,"extensions":{"KHR_texture_transform":{"texCoord":0}}}},"normalTexture":{"index":0,"scale":0.3,"extensions":{"KHR_texture_transform":{"texCoord":0}}},"doubleSided":true,"name":"matrenk1","extras":{"babylonSeparateCullingPass":false}}],"textures":[{"sampler":0,"source":0,"name":"matrenknormal.png"},{"sampler":0,"source":1,"name":"matrenkroughness0.png"},{"sampler":0,"source":2,"name":"matlogo3.png"},{"sampler":0,"source":3,"name":"matgenisgorsel.png"},{"sampler":0,"source":4,"name":"matvideo1.png"},{"sampler":0,"source":5,"name":"matlogo2.png"},{"sampler":0,"source":6,"name":"matlogo1.png"},{"sampler":0,"source":7,"name":"matdikgorsel1.png"},{"sampler":0,"source":8,"name":"matdikgorsel2.png"},{"sampler":0,"source":9,"name":"matdikgorsel3.png"},{"sampler":0,"source":10,"name":"matdikgorsel4.png"},{"sampler":0,"source":11,"name":"matdikgorsel5.png"},{"sampler":0,"source":12,"name":"matdikgorsel6.png"},{"sampler":0,"source":13,"name":"matdikgorsel7.png"},{"sampler":0,"source":14,"name":"matdikyazi1.png"},{"sampler":0,"source":15,"name":"matdikyazi2.png"},{"sampler":0,"source":16,"name":"matyazi1.png"},{"sampler":0,"source":17,"name":"matdikyazi3.png"},{"sampler":0,"source":0,"name":"matrenknormal.png"},{"sampler":0,"source":1,"name":"matrenkroughness0.png"},{"sampler":0,"source":0,"name":"matrenknormal.png"},{"sampler":0,"source":1,"name":"matrenkroughness0.png"}],"images":[{"uri":"./matrenknormal.png"},{"uri":"./matrenkroughness0.png"},{"uri":"./matlogo3.png"},{"uri":"./matgenisgorsel.png"},{"uri":"./matvideo1.png"},{"uri":"./matlogo2.png"},{"uri":"./matlogo1.png"},{"uri":"./matdikgorsel1.png"},{"uri":"./matdikgorsel2.png"},{"uri":"./matdikgorsel3.png"},{"uri":"./matdikgorsel4.png"},{"uri":"./matdikgorsel5.png"},{"uri":"./matdikgorsel6.png"},{"uri":"./matdikgorsel7.png"},{"uri":"./matdikyazi1.png"},{"uri":"./matdikyazi2.png"},{"uri":"./matyazi1.png"},{"uri":"./matdikyazi3.png"}],"samplers":[{"magFilter":9729,"minFilter":9987}]}