{"asset":{"version":"2.0","generator":"babylon.js glTF exporter for 3dsmax 2018 v20210615.1"},"extensionsUsed":["KHR_texture_transform"],"extensionsRequired":["KHR_texture_transform"],"scene":0,"scenes":[{"nodes":[0,19]}],"nodes":[{"children":[1,2,3,4,5,6,7,8,9,10,11,12,13,14,15,16,17,18],"name":"Group001"},{"mesh":0,"translation":[-0.3217656,0.31017974,0.49692747],"rotation":[1.99496043E-07,0.7071067,0.7071068,-1.99496E-07],"scale":[0.142402,0.142402,0.142402],"name":"modlogo3"},{"mesh":1,"translation":[0.49892813,0.2925851,-0.133233026],"rotation":[-0.50000006,-0.49999997,0.500000238,-0.499999851],"scale":[0.099999994,0.099999994,0.099999994],"name":"modgenisgorsel"},{"mesh":2,"translation":[-0.3471759,0.281564623,0.472510368],"rotation":[-0.5,0.5,-0.4999999,0.5000001],"scale":[0.10312739,0.10312739,0.10312739],"name":"moddikgorsel6"},{"mesh":3,"translation":[-0.4791571,0.18301633,-0.4145999],"rotation":[-2.98122038E-09,2.98122016E-09,0.7071068,0.7071068],"scale":[0.206211388,0.206211358,0.206211358],"name":"moddikyazi1"},{"mesh":4,"translation":[-0.322879642,0.308802754,-0.4859831],"rotation":[-0.7071068,0.0,0.0,0.7071067],"scale":[0.142401621,0.142401621,0.142401621],"name":"modlogo2"},{"mesh":5,"translation":[-0.4788574,0.306547523,0.391800523],"rotation":[-0.5,0.5,0.50000006,0.49999994],"scale":[0.08211326,0.08211326,0.08211326],"name":"modlogo1"},{"mesh":6,"translation":[-0.4569877,0.0922381356,0.152325734],"rotation":[-0.5506884,-0.443556458,-0.5506883,0.443556458],"scale":[0.109691389,0.109691381,0.109691381],"name":"modyazi1"},{"mesh":7,"translation":[-0.0826746747,0.145766586,-0.127476111],"rotation":[-0.500000238,0.4999997,0.4999998,0.500000238],"scale":[0.06712446,0.06712446,0.06712446],"name":"modvideo1"},{"mesh":8,"translation":[0.476754457,0.160594761,0.3987448],"rotation":[-0.7071068,0.7071067,2.506821E-07,-2.12933145E-07],"scale":[0.06288616,0.06288617,0.06288617],"name":"moddikgorsel5"},{"mesh":9,"translation":[0.476590425,0.160594761,0.228111267],"rotation":[-0.7071068,0.7071067,2.506821E-07,-2.12933145E-07],"scale":[0.06288616,0.06288617,0.06288617],"name":"moddikgorsel4"},{"mesh":10,"translation":[0.476590574,0.160594761,0.05747772],"rotation":[-0.7071068,0.7071067,2.506821E-07,-2.12933145E-07],"scale":[0.06288616,0.06288617,0.06288617],"name":"moddikgorsel3"},{"mesh":11,"translation":[0.476590574,0.160594761,-0.113155819],"rotation":[-0.7071068,0.7071067,2.506821E-07,-2.12933145E-07],"scale":[0.06288616,0.06288617,0.06288617],"name":"moddikgorsel2"},{"mesh":12,"translation":[0.476590574,0.160594761,-0.283789366],"rotation":[-0.7071068,0.7071067,2.506821E-07,-2.12933145E-07],"scale":[0.06288616,0.06288617,0.06288617],"name":"moddikgorsel1"},{"mesh":13,"translation":[-0.0356570445,0.454993576,0.48932308],"rotation":[0.7071067,3.09086161E-08,0.7071068,3.090862E-08],"scale":[0.099999994,0.099999994,0.099999994],"name":"modrenk1"},{"mesh":14,"translation":[1.66893E-08,2.479553E-07,0.003390106],"rotation":[0.0,0.7071068,0.0,0.7071067],"scale":[0.099999994,0.099999994,0.099999994],"name":"modkaro2"},{"mesh":15,"translation":[-0.2128487,0.005,-0.207686782],"name":"modengel"},{"mesh":16,"translation":[-0.3471759,0.281564623,-0.4706055],"rotation":[-0.5000001,0.49999994,0.5,-0.5],"scale":[0.10312739,0.10312739,0.10312739],"name":"moddikgorsel7"},{"mesh":17,"translation":[-0.07248545,0.0954543,-0.107621469],"rotation":[0.5,-0.5,0.50000006,0.49999994],"name":"modrenk2"},{"translation":[18.26454,0.0,-0.240493611],"name":"Particle View 001"}],"meshes":[{"primitives":[{"attributes":{"POSITION":1,"NORMAL":2,"TEXCOORD_0":3},"indices":0,"material":0}],"name":"modlogo3"},{"primitives":[{"attributes":{"POSITION":5,"NORMAL":6,"TEXCOORD_0":7},"indices":4,"material":1}],"name":"modgenisgorsel"},{"primitives":[{"attributes":{"POSITION":9,"NORMAL":10,"TEXCOORD_0":11},"indices":8,"material":2}],"name":"moddikgorsel6"},{"primitives":[{"attributes":{"POSITION":13,"NORMAL":14,"TEXCOORD_0":15},"indices":12,"material":3}],"name":"moddikyazi1"},{"primitives":[{"attributes":{"POSITION":17,"NORMAL":18,"TEXCOORD_0":19},"indices":16,"material":4}],"name":"modlogo2"},{"primitives":[{"attributes":{"POSITION":21,"NORMAL":22,"TEXCOORD_0":23},"indices":20,"material":5}],"name":"modlogo1"},{"primitives":[{"attributes":{"POSITION":25,"NORMAL":26,"TEXCOORD_0":27},"indices":24,"material":6}],"name":"modyazi1"},{"primitives":[{"attributes":{"POSITION":29,"NORMAL":30,"TEXCOORD_0":31},"indices":28,"material":7}],"name":"modvideo1"},{"primitives":[{"attributes":{"POSITION":33,"NORMAL":34,"TEXCOORD_0":35},"indices":32,"material":8}],"name":"moddikgorsel5"},{"primitives":[{"attributes":{"POSITION":37,"NORMAL":38,"TEXCOORD_0":39},"indices":36,"material":9}],"name":"moddikgorsel4"},{"primitives":[{"attributes":{"POSITION":41,"NORMAL":42,"TEXCOORD_0":43},"indices":40,"material":10}],"name":"moddikgorsel3"},{"primitives":[{"attributes":{"POSITION":45,"NORMAL":46,"TEXCOORD_0":47},"indices":44,"material":11}],"name":"moddikgorsel2"},{"primitives":[{"attributes":{"POSITION":49,"NORMAL":50,"TEXCOORD_0":51},"indices":48,"material":12}],"name":"moddikgorsel1"},{"primitives":[{"attributes":{"POSITION":53,"NORMAL":54,"TEXCOORD_0":55},"indices":52,"material":13}],"name":"modrenk1"},{"primitives":[{"attributes":{"POSITION":57,"NORMAL":58,"TEXCOORD_0":59},"indices":56,"material":14}],"name":"modkaro2"},{"primitives":[{"attributes":{"POSITION":61,"NORMAL":62,"TEXCOORD_0":63},"indices":60,"material":15}],"name":"modengel"},{"primitives":[{"attributes":{"POSITION":65,"NORMAL":66,"TEXCOORD_0":67},"indices":64,"material":16}],"name":"moddikgorsel7"},{"primitives":[{"attributes":{"POSITION":69,"NORMAL":70,"TEXCOORD_0":71},"indices":68,"material":17}],"name":"modrenk2"}],"accessors":[{"bufferView":0,"componentType":5123,"count":6,"type":"SCALAR","name":"accessorIndices"},{"bufferView":1,"componentType":5126,"count":4,"max":[0.96,0.0,0.96],"min":[-0.96,0.0,-0.96],"type":"VEC3","name":"accessorPositions"},{"bufferView":1,"byteOffset":48,"componentType":5126,"count":4,"type":"VEC3","name":"accessorNormals"},{"bufferView":2,"componentType":5126,"count":4,"type":"VEC2","name":"accessorUVs"},{"bufferView":0,"byteOffset":12,"componentType":5123,"count":6,"type":"SCALAR","name":"accessorIndices"},{"bufferView":1,"byteOffset":96,"componentType":5126,"count":4,"max":[2.894837,3.172283E-07,2.88629031],"min":[-6.286083,-3.67246855E-08,-1.164571],"type":"VEC3","name":"accessorPositions"},{"bufferView":1,"byteOffset":144,"componentType":5126,"count":4,"type":"VEC3","name":"accessorNormals"},{"bufferView":2,"byteOffset":32,"componentType":5126,"count":4,"type":"VEC2","name":"accessorUVs"},{"bufferView":0,"byteOffset":24,"componentType":5123,"count":6,"type":"SCALAR","name":"accessorIndices"},{"bufferView":1,"byteOffset":192,"componentType":5126,"count":4,"max":[1.485,0.0,1.05],"min":[-1.485,0.0,-1.05],"type":"VEC3","name":"accessorPositions"},{"bufferView":1,"byteOffset":240,"componentType":5126,"count":4,"type":"VEC3","name":"accessorNormals"},{"bufferView":2,"byteOffset":64,"componentType":5126,"count":4,"type":"VEC2","name":"accessorUVs"},{"bufferView":0,"byteOffset":36,"componentType":5123,"count":6,"type":"SCALAR","name":"accessorIndices"},{"bufferView":1,"byteOffset":288,"componentType":5126,"count":4,"max":[0.75,0.0,0.25],"min":[-0.75,0.0,-0.25],"type":"VEC3","name":"accessorPositions"},{"bufferView":1,"byteOffset":336,"componentType":5126,"count":4,"type":"VEC3","name":"accessorNormals"},{"bufferView":2,"byteOffset":96,"componentType":5126,"count":4,"type":"VEC2","name":"accessorUVs"},{"bufferView":0,"byteOffset":48,"componentType":5123,"count":6,"type":"SCALAR","name":"accessorIndices"},{"bufferView":1,"byteOffset":384,"componentType":5126,"count":4,"max":[0.96,0.0,0.96],"min":[-0.96,0.0,-0.96],"type":"VEC3","name":"accessorPositions"},{"bufferView":1,"byteOffset":432,"componentType":5126,"count":4,"type":"VEC3","name":"accessorNormals"},{"bufferView":2,"byteOffset":128,"componentType":5126,"count":4,"type":"VEC2","name":"accessorUVs"},{"bufferView":0,"byteOffset":60,"componentType":5123,"count":6,"type":"SCALAR","name":"accessorIndices"},{"bufferView":1,"byteOffset":480,"componentType":5126,"count":4,"max":[0.96,0.0,0.96],"min":[-0.96,0.0,-0.96],"type":"VEC3","name":"accessorPositions"},{"bufferView":1,"byteOffset":528,"componentType":5126,"count":4,"type":"VEC3","name":"accessorNormals"},{"bufferView":2,"byteOffset":160,"componentType":5126,"count":4,"type":"VEC2","name":"accessorUVs"},{"bufferView":0,"byteOffset":72,"componentType":5123,"count":6,"type":"SCALAR","name":"accessorIndices"},{"bufferView":1,"byteOffset":576,"componentType":5126,"count":4,"max":[0.75,0.0,0.25],"min":[-0.75,0.0,-0.25],"type":"VEC3","name":"accessorPositions"},{"bufferView":1,"byteOffset":624,"componentType":5126,"count":4,"type":"VEC3","name":"accessorNormals"},{"bufferView":2,"byteOffset":192,"componentType":5126,"count":4,"type":"VEC2","name":"accessorUVs"},{"bufferView":0,"byteOffset":84,"componentType":5123,"count":6,"type":"SCALAR","name":"accessorIndices"},{"bufferView":1,"byteOffset":672,"componentType":5126,"count":4,"max":[0.96,0.0,0.539999962],"min":[-0.96,0.0,-0.539999962],"type":"VEC3","name":"accessorPositions"},{"bufferView":1,"byteOffset":720,"componentType":5126,"count":4,"type":"VEC3","name":"accessorNormals"},{"bufferView":2,"byteOffset":224,"componentType":5126,"count":4,"type":"VEC2","name":"accessorUVs"},{"bufferView":0,"byteOffset":96,"componentType":5123,"count":6,"type":"SCALAR","name":"accessorIndices"},{"bufferView":1,"byteOffset":768,"componentType":5126,"count":4,"max":[1.485,0.0,1.05],"min":[-1.485,0.0,-1.05],"type":"VEC3","name":"accessorPositions"},{"bufferView":1,"byteOffset":816,"componentType":5126,"count":4,"type":"VEC3","name":"accessorNormals"},{"bufferView":2,"byteOffset":256,"componentType":5126,"count":4,"type":"VEC2","name":"accessorUVs"},{"bufferView":0,"byteOffset":108,"componentType":5123,"count":6,"type":"SCALAR","name":"accessorIndices"},{"bufferView":1,"byteOffset":864,"componentType":5126,"count":4,"max":[1.485,0.0,1.05],"min":[-1.485,0.0,-1.05],"type":"VEC3","name":"accessorPositions"},{"bufferView":1,"byteOffset":912,"componentType":5126,"count":4,"type":"VEC3","name":"accessorNormals"},{"bufferView":2,"byteOffset":288,"componentType":5126,"count":4,"type":"VEC2","name":"accessorUVs"},{"bufferView":0,"byteOffset":120,"componentType":5123,"count":6,"type":"SCALAR","name":"accessorIndices"},{"bufferView":1,"byteOffset":960,"componentType":5126,"count":4,"max":[1.485,0.0,1.05],"min":[-1.485,0.0,-1.05],"type":"VEC3","name":"accessorPositions"},{"bufferView":1,"byteOffset":1008,"componentType":5126,"count":4,"type":"VEC3","name":"accessorNormals"},{"bufferView":2,"byteOffset":320,"componentType":5126,"count":4,"type":"VEC2","name":"accessorUVs"},{"bufferView":0,"byteOffset":132,"componentType":5123,"count":6,"type":"SCALAR","name":"accessorIndices"},{"bufferView":1,"byteOffset":1056,"componentType":5126,"count":4,"max":[1.485,0.0,1.05],"min":[-1.485,0.0,-1.05],"type":"VEC3","name":"accessorPositions"},{"bufferView":1,"byteOffset":1104,"componentType":5126,"count":4,"type":"VEC3","name":"accessorNormals"},{"bufferView":2,"byteOffset":352,"componentType":5126,"count":4,"type":"VEC2","name":"accessorUVs"},{"bufferView":0,"byteOffset":144,"componentType":5123,"count":6,"type":"SCALAR","name":"accessorIndices"},{"bufferView":1,"byteOffset":1152,"componentType":5126,"count":4,"max":[1.485,0.0,1.05],"min":[-1.485,0.0,-1.05],"type":"VEC3","name":"accessorPositions"},{"bufferView":1,"byteOffset":1200,"componentType":5126,"count":4,"type":"VEC3","name":"accessorNormals"},{"bufferView":2,"byteOffset":384,"componentType":5126,"count":4,"type":"VEC2","name":"accessorUVs"},{"bufferView":0,"byteOffset":156,"componentType":5123,"count":987,"type":"SCALAR","name":"accessorIndices"},{"bufferView":1,"byteOffset":1248,"componentType":5126,"count":418,"max":[0.05000054,4.533506,5.330719],"min":[-9.710454,-3.73346467E-07,-4.42058563],"type":"VEC3","name":"accessorPositions"},{"bufferView":1,"byteOffset":6264,"componentType":5126,"count":418,"type":"VEC3","name":"accessorNormals"},{"bufferView":2,"byteOffset":416,"componentType":5126,"count":418,"type":"VEC2","name":"accessorUVs"},{"bufferView":0,"byteOffset":2132,"componentType":5123,"count":30,"type":"SCALAR","name":"accessorIndices"},{"bufferView":1,"byteOffset":11280,"componentType":5126,"count":20,"max":[5.0,0.049999997,5.0],"min":[-5.0,0.0,-5.0],"type":"VEC3","name":"accessorPositions"},{"bufferView":1,"byteOffset":11520,"componentType":5126,"count":20,"type":"VEC3","name":"accessorNormals"},{"bufferView":2,"byteOffset":3760,"componentType":5126,"count":20,"type":"VEC2","name":"accessorUVs"},{"bufferView":0,"byteOffset":2192,"componentType":5123,"count":126,"type":"SCALAR","name":"accessorIndices"},{"bufferView":1,"byteOffset":11760,"componentType":5126,"count":84,"max":[0.710659146,0.399999976,0.7110768],"min":[-0.266278923,-0.005,-0.286894917],"type":"VEC3","name":"accessorPositions"},{"bufferView":1,"byteOffset":12768,"componentType":5126,"count":84,"type":"VEC3","name":"accessorNormals"},{"bufferView":2,"byteOffset":3920,"componentType":5126,"count":84,"type":"VEC2","name":"accessorUVs"},{"bufferView":0,"byteOffset":2444,"componentType":5123,"count":6,"type":"SCALAR","name":"accessorIndices"},{"bufferView":1,"byteOffset":13776,"componentType":5126,"count":4,"max":[1.485,0.0,1.05],"min":[-1.485,0.0,-1.05],"type":"VEC3","name":"accessorPositions"},{"bufferView":1,"byteOffset":13824,"componentType":5126,"count":4,"type":"VEC3","name":"accessorNormals"},{"bufferView":2,"byteOffset":4592,"componentType":5126,"count":4,"type":"VEC2","name":"accessorUVs"},{"bufferView":0,"byteOffset":2456,"componentType":5123,"count":642,"type":"SCALAR","name":"accessorIndices"},{"bufferView":1,"byteOffset":13872,"componentType":5126,"count":304,"max":[0.604278266,0.406642139,0.0906048641],"min":[-0.386346281,-0.5702943,-0.3520207],"type":"VEC3","name":"accessorPositions"},{"bufferView":1,"byteOffset":17520,"componentType":5126,"count":304,"type":"VEC3","name":"accessorNormals"},{"bufferView":2,"byteOffset":4624,"componentType":5126,"count":304,"type":"VEC2","name":"accessorUVs"}],"bufferViews":[{"buffer":0,"byteLength":3740,"name":"bufferViewScalar"},{"buffer":0,"byteOffset":3740,"byteLength":21168,"byteStride":12,"name":"bufferViewFloatVec3"},{"buffer":0,"byteOffset":24908,"byteLength":7056,"byteStride":8,"name":"bufferViewFloatVec2"}],"buffers":[{"uri":"stant28.bin","byteLength":31964}],"materials":[{"pbrMetallicRoughness":{"baseColorTexture":{"index":0,"extensions":{"KHR_texture_transform":{"texCoord":0}}},"metallicFactor":0.0,"roughnessFactor":0.5},"doubleSided":true,"name":"matlogo3","extras":{"babylonSeparateCullingPass":false}},{"pbrMetallicRoughness":{"baseColorTexture":{"index":1,"extensions":{"KHR_texture_transform":{"texCoord":0}}},"metallicFactor":0.0,"roughnessFactor":0.5},"name":"matgenisgorsel","extras":{"babylonSeparateCullingPass":false}},{"pbrMetallicRoughness":{"baseColorTexture":{"index":2,"extensions":{"KHR_texture_transform":{"texCoord":0}}},"metallicFactor":0.0,"roughnessFactor":0.5},"doubleSided":true,"name":"matdikgorsel6","extras":{"babylonSeparateCullingPass":false}},{"pbrMetallicRoughness":{"baseColorTexture":{"index":3,"extensions":{"KHR_texture_transform":{"texCoord":0}}},"metallicFactor":0.0,"roughnessFactor":0.5},"doubleSided":true,"name":"matdikyazi1","extras":{"babylonSeparateCullingPass":false}},{"pbrMetallicRoughness":{"baseColorTexture":{"index":4,"extensions":{"KHR_texture_transform":{"texCoord":0}}},"metallicFactor":0.0,"roughnessFactor":0.5},"doubleSided":true,"name":"matlogo2","extras":{"babylonSeparateCullingPass":false}},{"pbrMetallicRoughness":{"baseColorTexture":{"index":5,"extensions":{"KHR_texture_transform":{"texCoord":0}}},"metallicFactor":0.0,"roughnessFactor":0.5},"doubleSided":true,"name":"matlogo1","extras":{"babylonSeparateCullingPass":false}},{"pbrMetallicRoughness":{"baseColorTexture":{"index":6,"extensions":{"KHR_texture_transform":{"texCoord":0}}},"metallicFactor":0.0,"roughnessFactor":0.5},"doubleSided":true,"name":"matyazi1","extras":{"babylonSeparateCullingPass":false}},{"pbrMetallicRoughness":{"baseColorTexture":{"index":7,"extensions":{"KHR_texture_transform":{"texCoord":0}}},"metallicFactor":0.0,"roughnessFactor":0.5},"doubleSided":true,"name":"matvideo1","extras":{"babylonSeparateCullingPass":false}},{"pbrMetallicRoughness":{"baseColorTexture":{"index":8,"extensions":{"KHR_texture_transform":{"texCoord":0}}},"metallicFactor":0.0,"roughnessFactor":0.5},"doubleSided":true,"name":"matdikgorsel5","extras":{"babylonSeparateCullingPass":false}},{"pbrMetallicRoughness":{"baseColorTexture":{"index":9,"extensions":{"KHR_texture_transform":{"texCoord":0}}},"metallicFactor":0.0,"roughnessFactor":0.5},"doubleSided":true,"name":"matdikgorsel4","extras":{"babylonSeparateCullingPass":false}},{"pbrMetallicRoughness":{"baseColorTexture":{"index":10,"extensions":{"KHR_texture_transform":{"texCoord":0}}},"metallicFactor":0.0,"roughnessFactor":0.5},"doubleSided":true,"name":"matdikgorsel3","extras":{"babylonSeparateCullingPass":false}},{"pbrMetallicRoughness":{"baseColorTexture":{"index":11,"extensions":{"KHR_texture_transform":{"texCoord":0}}},"metallicFactor":0.0,"roughnessFactor":0.5},"doubleSided":true,"name":"matdikgorsel2","extras":{"babylonSeparateCullingPass":false}},{"pbrMetallicRoughness":{"baseColorTexture":{"index":12,"extensions":{"KHR_texture_transform":{"texCoord":0}}},"metallicFactor":0.0,"roughnessFactor":0.5},"doubleSided":true,"name":"matdikgorsel1","extras":{"babylonSeparateCullingPass":false}},{"pbrMetallicRoughness":{"baseColorFactor":[0.0863309354,0.06303351,0.0453392677,1.0],"metallicFactor":0.0,"metallicRoughnessTexture":{"index":14,"extensions":{"KHR_texture_transform":{"texCoord":0}}}},"normalTexture":{"index":13,"scale":0.3,"extensions":{"KHR_texture_transform":{"texCoord":0}}},"doubleSided":true,"name":"matrenk1","extras":{"babylonSeparateCullingPass":false}},{"pbrMetallicRoughness":{"baseColorFactor":[0.036,0.036,0.036,1.0],"metallicFactor":0.0,"metallicRoughnessTexture":{"index":16,"extensions":{"KHR_texture_transform":{"texCoord":0}}}},"normalTexture":{"index":15,"scale":0.3,"extensions":{"KHR_texture_transform":{"texCoord":0}}},"doubleSided":true,"name":"matkaro2","extras":{"babylonSeparateCullingPass":false}},{"pbrMetallicRoughness":{"baseColorFactor":[0.0,0.0,0.0,0.0],"metallicFactor":0.0,"roughnessFactor":0.5},"alphaMode":"BLEND","doubleSided":true,"name":"matengel","extras":{"babylonSeparateCullingPass":false}},{"pbrMetallicRoughness":{"baseColorTexture":{"index":17,"extensions":{"KHR_texture_transform":{"texCoord":0}}},"metallicFactor":0.0,"roughnessFactor":0.5},"doubleSided":true,"name":"matdikgorsel7","extras":{"babylonSeparateCullingPass":false}},{"pbrMetallicRoughness":{"baseColorFactor":[0.74820143,0.651350737,0.5275089,1.0],"metallicFactor":0.0,"metallicRoughnessTexture":{"index":14,"extensions":{"KHR_texture_transform":{"texCoord":0}}}},"normalTexture":{"index":13,"scale":0.3,"extensions":{"KHR_texture_transform":{"texCoord":0}}},"doubleSided":true,"name":"matrenk2","extras":{"babylonSeparateCullingPass":false}}],"textures":[{"sampler":0,"source":0,"name":"matlogo3.png"},{"sampler":0,"source":1,"name":"matgenisgorsel.png"},{"sampler":0,"source":2,"name":"matdikgorsel6.png"},{"sampler":0,"source":3,"name":"matdikyazi1.png"},{"sampler":0,"source":4,"name":"matlogo2.png"},{"sampler":0,"source":5,"name":"matlogo1.png"},{"sampler":0,"source":6,"name":"matyazi1.png"},{"sampler":0,"source":7,"name":"matvideo1.png"},{"sampler":0,"source":8,"name":"matdikgorsel5.png"},{"sampler":0,"source":9,"name":"matdikgorsel4.png"},{"sampler":0,"source":10,"name":"matdikgorsel3.png"},{"sampler":0,"source":11,"name":"matdikgorsel2.png"},{"sampler":0,"source":12,"name":"matdikgorsel1.png"},{"sampler":0,"source":13,"name":"matrenknormal.png"},{"sampler":0,"source":14,"name":"matrenkroughness0.png"},{"sampler":0,"source":15,"name":"matkaronormal.png"},{"sampler":0,"source":16,"name":"matkaroroughness0.png"},{"sampler":0,"source":17,"name":"matdikgorsel7.png"},{"sampler":0,"source":13,"name":"matrenknormal.png"},{"sampler":0,"source":14,"name":"matrenkroughness0.png"}],"images":[{"uri":"./matlogo3.png"},{"uri":"./matgenisgorsel.png"},{"uri":"./matdikgorsel6.png"},{"uri":"./matdikyazi1.png"},{"uri":"./matlogo2.png"},{"uri":"./matlogo1.png"},{"uri":"./matyazi1.png"},{"uri":"./matvideo1.png"},{"uri":"./matdikgorsel5.png"},{"uri":"./matdikgorsel4.png"},{"uri":"./matdikgorsel3.png"},{"uri":"./matdikgorsel2.png"},{"uri":"./matdikgorsel1.png"},{"uri":"./matrenknormal.png"},{"uri":"./matrenkroughness0.png"},{"uri":"./matkaronormal.png"},{"uri":"./matkaroroughness0.png"},{"uri":"./matdikgorsel7.png"}],"samplers":[{"magFilter":9729,"minFilter":9987}]}