{"asset":{"version":"2.0","generator":"babylon.js glTF exporter for 3dsmax 2018 v20210615.1"},"extensionsUsed":["KHR_texture_transform"],"extensionsRequired":["KHR_texture_transform"],"scene":0,"scenes":[{"nodes":[0]}],"nodes":[{"children":[1,2,3,4,5,6,7,8,9,10,11,12,13,14,15,16,17,18,19,20,21],"translation":[0.0,0.0,-5.73070338E-08],"rotation":[0.0,-1.0,0.0,4.371139E-08],"name":"Group001"},{"mesh":0,"translation":[0.005589862,-7.82012933E-07,-0.008134579],"scale":[0.099999994,0.099999994,0.099999994],"name":"modzemin"},{"mesh":1,"translation":[-0.3809387,0.1997398,-0.38618803],"rotation":[-0.260307759,-0.6574494,0.6574496,-0.260307729],"scale":[0.1,0.1,0.099999994],"name":"modlogo1"},{"mesh":2,"translation":[-0.2564636,0.236203879,0.0194703676],"rotation":[-0.5,-0.5,0.5,-0.5],"scale":[0.0460413359,0.0460413359,0.0460413359],"name":"moddikgorsel1"},{"mesh":3,"translation":[-0.2564636,0.236203879,-0.09058771],"rotation":[-0.5,-0.5,0.5,-0.5],"scale":[0.0460413359,0.0460413359,0.0460413359],"name":"moddikgorsel2"},{"mesh":4,"translation":[-0.2564636,0.236203879,-0.20064576],"rotation":[-0.5,-0.5,0.5,-0.5],"scale":[0.0460413359,0.0460413359,0.0460413359],"name":"moddikgorsel3"},{"mesh":5,"translation":[-0.486105323,0.228966638,0.285033226],"rotation":[-0.7071068,-0.7071068,3.94776E-07,1.728035E-07],"scale":[0.140651047,0.140651047,0.140651047],"name":"modvideo1"},{"mesh":6,"translation":[0.0678574145,0.204608575,-0.410913378],"rotation":[-0.2668252,-0.654773057,0.654913247,-0.266768157],"scale":[0.0707616359,0.07076164,0.07076163],"name":"moddikgorsel4"},{"mesh":7,"translation":[0.491102278,0.2158479,0.378953546],"rotation":[0.5000002,-0.499999821,0.499999851,0.5000002],"scale":[0.07053884,0.07053884,0.07053884],"name":"moddikgorsel6"},{"mesh":8,"translation":[-0.49561584,0.159506381,0.0001356928],"rotation":[0.49958238,-0.500417352,0.5004173,0.4995822],"scale":[0.100000016,0.100000016,0.099999994],"name":"modgenisgorsel"},{"mesh":9,"translation":[0.372008055,0.256914616,0.4926132],"rotation":[0.7071068,0.0,0.0,0.7071067],"scale":[0.07053884,0.07053884,0.07053884],"name":"modlogo2"},{"mesh":10,"translation":[0.3665689,0.118260913,0.4926132],"rotation":[0.7071068,0.0,0.0,0.7071067],"scale":[0.143587291,0.143587291,0.143587291],"name":"modyazi1"},{"mesh":11,"translation":[-0.3770123,0.205770522,0.494226664],"rotation":[0.7071068,0.0,0.0,0.7071067],"scale":[0.0781965852,0.0781965852,0.0781965852],"name":"moddikgorsel5"},{"mesh":12,"translation":[0.5030319,0.240324363,0.372271121],"rotation":[-0.5,-0.5,0.5,-0.5],"scale":[0.07871523,0.07871523,0.07871523],"name":"modlogo3"},{"mesh":13,"translation":[0.0246610828,0.203618318,-0.436137676],"rotation":[0.6549133,-0.2667682,0.266825229,0.654773057],"scale":[0.03614298,0.0361429825,0.0361429825],"name":"moddikgorsel7"},{"mesh":14,"translation":[0.09363939,0.203618318,-0.3706259],"rotation":[0.6549133,-0.2667682,0.266825229,0.654773057],"scale":[0.03614298,0.0361429825,0.0361429825],"name":"moddikgorsel8"},{"mesh":15,"translation":[0.235434428,0.074159354,0.34319824],"rotation":[0.5,-0.5,0.50000006,0.49999994],"scale":[0.0363546535,0.0363546535,0.0363546535],"name":"modlogo4"},{"mesh":16,"translation":[-0.363424361,0.006276035,-0.03602129],"rotation":[1.42597434E-10,3.079442E-08,-1.40186573E-16,1.0],"scale":[0.099999994,0.125532478,0.099999994],"name":"modrenk2"},{"mesh":17,"translation":[0.148115858,0.399031132,-0.0866385],"rotation":[1.42597434E-10,3.079442E-08,-1.40186573E-16,1.0],"scale":[0.099999994,0.125532478,0.099999994],"name":"modrenk1"},{"mesh":18,"translation":[0.165303573,0.4573742,-0.1031215],"rotation":[0.500300646,0.4996992,-0.4996993,0.5003006],"scale":[0.174149841,0.174149841,0.174149841],"name":"modyazi3"},{"mesh":19,"translation":[-0.5074133,0.4617046,-0.0406140126],"rotation":[0.499699354,-0.5003005,0.5003006,0.499699265],"scale":[0.174149841,0.174149841,0.174149841],"name":"modyazi2"},{"mesh":20,"translation":[-0.24844873,0.210190266,0.284947038],"rotation":[0.5000002,0.499999881,-0.49999997,0.5000001],"name":"modengel"}],"meshes":[{"primitives":[{"attributes":{"POSITION":1,"NORMAL":2,"TEXCOORD_0":3},"indices":0,"material":0}],"name":"modzemin"},{"primitives":[{"attributes":{"POSITION":5,"NORMAL":6,"TEXCOORD_0":7},"indices":4,"material":1}],"name":"modlogo1"},{"primitives":[{"attributes":{"POSITION":9,"NORMAL":10,"TEXCOORD_0":11},"indices":8,"material":2}],"name":"moddikgorsel1"},{"primitives":[{"attributes":{"POSITION":13,"NORMAL":14,"TEXCOORD_0":15},"indices":12,"material":3}],"name":"moddikgorsel2"},{"primitives":[{"attributes":{"POSITION":17,"NORMAL":18,"TEXCOORD_0":19},"indices":16,"material":4}],"name":"moddikgorsel3"},{"primitives":[{"attributes":{"POSITION":21,"NORMAL":22,"TEXCOORD_0":23},"indices":20,"material":5}],"name":"modvideo1"},{"primitives":[{"attributes":{"POSITION":25,"NORMAL":26,"TEXCOORD_0":27},"indices":24,"material":6}],"name":"moddikgorsel4"},{"primitives":[{"attributes":{"POSITION":29,"NORMAL":30,"TEXCOORD_0":31},"indices":28,"material":7}],"name":"moddikgorsel6"},{"primitives":[{"attributes":{"POSITION":33,"NORMAL":34,"TEXCOORD_0":35},"indices":32,"material":8}],"name":"modgenisgorsel"},{"primitives":[{"attributes":{"POSITION":37,"NORMAL":38,"TEXCOORD_0":39},"indices":36,"material":9}],"name":"modlogo2"},{"primitives":[{"attributes":{"POSITION":41,"NORMAL":42,"TEXCOORD_0":43},"indices":40,"material":10}],"name":"modyazi1"},{"primitives":[{"attributes":{"POSITION":45,"NORMAL":46,"TEXCOORD_0":47},"indices":44,"material":11}],"name":"moddikgorsel5"},{"primitives":[{"attributes":{"POSITION":49,"NORMAL":50,"TEXCOORD_0":51},"indices":48,"material":12}],"name":"modlogo3"},{"primitives":[{"attributes":{"POSITION":53,"NORMAL":54,"TEXCOORD_0":55},"indices":52,"material":13}],"name":"moddikgorsel7"},{"primitives":[{"attributes":{"POSITION":57,"NORMAL":58,"TEXCOORD_0":59},"indices":56,"material":14}],"name":"moddikgorsel8"},{"primitives":[{"attributes":{"POSITION":61,"NORMAL":62,"TEXCOORD_0":63},"indices":60,"material":15}],"name":"modlogo4"},{"primitives":[{"attributes":{"POSITION":65,"NORMAL":66,"TEXCOORD_0":67},"indices":64,"material":16}],"name":"modrenk2"},{"primitives":[{"attributes":{"POSITION":69,"NORMAL":70,"TEXCOORD_0":71},"indices":68,"material":17}],"name":"modrenk1"},{"primitives":[{"attributes":{"POSITION":73,"NORMAL":74,"TEXCOORD_0":75},"indices":72,"material":18}],"name":"modyazi3"},{"primitives":[{"attributes":{"POSITION":77,"NORMAL":78,"TEXCOORD_0":79},"indices":76,"material":19}],"name":"modyazi2"},{"primitives":[{"attributes":{"POSITION":81,"NORMAL":82,"TEXCOORD_0":83},"indices":80,"material":20}],"name":"modengel"}],"accessors":[{"bufferView":0,"componentType":5123,"count":39,"type":"SCALAR","name":"accessorIndices"},{"bufferView":1,"componentType":5126,"count":23,"max":[5.0,0.049999997,5.0],"min":[-5.011769,0.0,-4.83212757],"type":"VEC3","name":"accessorPositions"},{"bufferView":1,"byteOffset":276,"componentType":5126,"count":23,"type":"VEC3","name":"accessorNormals"},{"bufferView":2,"componentType":5126,"count":23,"type":"VEC2","name":"accessorUVs"},{"bufferView":0,"byteOffset":80,"componentType":5123,"count":6,"type":"SCALAR","name":"accessorIndices"},{"bufferView":1,"byteOffset":552,"componentType":5126,"count":4,"max":[0.95,0.0,0.95],"min":[-0.95,0.0,-0.95],"type":"VEC3","name":"accessorPositions"},{"bufferView":1,"byteOffset":600,"componentType":5126,"count":4,"type":"VEC3","name":"accessorNormals"},{"bufferView":2,"byteOffset":184,"componentType":5126,"count":4,"type":"VEC2","name":"accessorUVs"},{"bufferView":0,"byteOffset":92,"componentType":5123,"count":6,"type":"SCALAR","name":"accessorIndices"},{"bufferView":1,"byteOffset":648,"componentType":5126,"count":4,"max":[1.05,0.0,1.485],"min":[-1.05,0.0,-1.485],"type":"VEC3","name":"accessorPositions"},{"bufferView":1,"byteOffset":696,"componentType":5126,"count":4,"type":"VEC3","name":"accessorNormals"},{"bufferView":2,"byteOffset":216,"componentType":5126,"count":4,"type":"VEC2","name":"accessorUVs"},{"bufferView":0,"byteOffset":104,"componentType":5123,"count":6,"type":"SCALAR","name":"accessorIndices"},{"bufferView":1,"byteOffset":744,"componentType":5126,"count":4,"max":[1.05,0.0,1.485],"min":[-1.05,0.0,-1.485],"type":"VEC3","name":"accessorPositions"},{"bufferView":1,"byteOffset":792,"componentType":5126,"count":4,"type":"VEC3","name":"accessorNormals"},{"bufferView":2,"byteOffset":248,"componentType":5126,"count":4,"type":"VEC2","name":"accessorUVs"},{"bufferView":0,"byteOffset":116,"componentType":5123,"count":6,"type":"SCALAR","name":"accessorIndices"},{"bufferView":1,"byteOffset":840,"componentType":5126,"count":4,"max":[1.05,0.0,1.485],"min":[-1.05,0.0,-1.485],"type":"VEC3","name":"accessorPositions"},{"bufferView":1,"byteOffset":888,"componentType":5126,"count":4,"type":"VEC3","name":"accessorNormals"},{"bufferView":2,"byteOffset":280,"componentType":5126,"count":4,"type":"VEC2","name":"accessorUVs"},{"bufferView":0,"byteOffset":128,"componentType":5123,"count":6,"type":"SCALAR","name":"accessorIndices"},{"bufferView":1,"byteOffset":936,"componentType":5126,"count":4,"max":[0.539999962,0.0,0.96],"min":[-0.539999962,0.0,-0.96],"type":"VEC3","name":"accessorPositions"},{"bufferView":1,"byteOffset":984,"componentType":5126,"count":4,"type":"VEC3","name":"accessorNormals"},{"bufferView":2,"byteOffset":312,"componentType":5126,"count":4,"type":"VEC2","name":"accessorUVs"},{"bufferView":0,"byteOffset":140,"componentType":5123,"count":6,"type":"SCALAR","name":"accessorIndices"},{"bufferView":1,"byteOffset":1032,"componentType":5126,"count":4,"max":[1.05,0.0243033115,1.485],"min":[-1.074875,0.0,-1.48500526],"type":"VEC3","name":"accessorPositions"},{"bufferView":1,"byteOffset":1080,"componentType":5126,"count":4,"type":"VEC3","name":"accessorNormals"},{"bufferView":2,"byteOffset":344,"componentType":5126,"count":4,"type":"VEC2","name":"accessorUVs"},{"bufferView":0,"byteOffset":152,"componentType":5123,"count":6,"type":"SCALAR","name":"accessorIndices"},{"bufferView":1,"byteOffset":1128,"componentType":5126,"count":4,"max":[1.05,0.0,1.485],"min":[-1.05,0.0,-1.485],"type":"VEC3","name":"accessorPositions"},{"bufferView":1,"byteOffset":1176,"componentType":5126,"count":4,"type":"VEC3","name":"accessorNormals"},{"bufferView":2,"byteOffset":376,"componentType":5126,"count":4,"type":"VEC2","name":"accessorUVs"},{"bufferView":0,"byteOffset":164,"componentType":5123,"count":6,"type":"SCALAR","name":"accessorIndices"},{"bufferView":1,"byteOffset":1224,"componentType":5126,"count":4,"max":[4.899598,0.0,1.53210127],"min":[-4.899598,-1.31614271E-07,-2.429187],"type":"VEC3","name":"accessorPositions"},{"bufferView":1,"byteOffset":1272,"componentType":5126,"count":4,"type":"VEC3","name":"accessorNormals"},{"bufferView":2,"byteOffset":408,"componentType":5126,"count":4,"type":"VEC2","name":"accessorUVs"},{"bufferView":0,"byteOffset":176,"componentType":5123,"count":6,"type":"SCALAR","name":"accessorIndices"},{"bufferView":1,"byteOffset":1320,"componentType":5126,"count":4,"max":[1.05,0.0,1.05],"min":[-1.05,0.0,-1.05],"type":"VEC3","name":"accessorPositions"},{"bufferView":1,"byteOffset":1368,"componentType":5126,"count":4,"type":"VEC3","name":"accessorNormals"},{"bufferView":2,"byteOffset":440,"componentType":5126,"count":4,"type":"VEC2","name":"accessorUVs"},{"bufferView":0,"byteOffset":188,"componentType":5123,"count":6,"type":"SCALAR","name":"accessorIndices"},{"bufferView":1,"byteOffset":1416,"componentType":5126,"count":4,"max":[0.75,0.0,0.25],"min":[-0.75,0.0,-0.25],"type":"VEC3","name":"accessorPositions"},{"bufferView":1,"byteOffset":1464,"componentType":5126,"count":4,"type":"VEC3","name":"accessorNormals"},{"bufferView":2,"byteOffset":472,"componentType":5126,"count":4,"type":"VEC2","name":"accessorUVs"},{"bufferView":0,"byteOffset":200,"componentType":5123,"count":6,"type":"SCALAR","name":"accessorIndices"},{"bufferView":1,"byteOffset":1512,"componentType":5126,"count":4,"max":[1.05,0.0,1.485],"min":[-1.05,0.0,-1.485],"type":"VEC3","name":"accessorPositions"},{"bufferView":1,"byteOffset":1560,"componentType":5126,"count":4,"type":"VEC3","name":"accessorNormals"},{"bufferView":2,"byteOffset":504,"componentType":5126,"count":4,"type":"VEC2","name":"accessorUVs"},{"bufferView":0,"byteOffset":212,"componentType":5123,"count":6,"type":"SCALAR","name":"accessorIndices"},{"bufferView":1,"byteOffset":1608,"componentType":5126,"count":4,"max":[1.05,0.0,1.05],"min":[-1.05,0.0,-1.05],"type":"VEC3","name":"accessorPositions"},{"bufferView":1,"byteOffset":1656,"componentType":5126,"count":4,"type":"VEC3","name":"accessorNormals"},{"bufferView":2,"byteOffset":536,"componentType":5126,"count":4,"type":"VEC2","name":"accessorUVs"},{"bufferView":0,"byteOffset":224,"componentType":5123,"count":6,"type":"SCALAR","name":"accessorIndices"},{"bufferView":1,"byteOffset":1704,"componentType":5126,"count":4,"max":[1.05,0.0243033115,1.485],"min":[-1.074875,0.0,-1.48500526],"type":"VEC3","name":"accessorPositions"},{"bufferView":1,"byteOffset":1752,"componentType":5126,"count":4,"type":"VEC3","name":"accessorNormals"},{"bufferView":2,"byteOffset":568,"componentType":5126,"count":4,"type":"VEC2","name":"accessorUVs"},{"bufferView":0,"byteOffset":236,"componentType":5123,"count":6,"type":"SCALAR","name":"accessorIndices"},{"bufferView":1,"byteOffset":1800,"componentType":5126,"count":4,"max":[1.05,0.0243033115,1.485],"min":[-1.074875,0.0,-1.48500526],"type":"VEC3","name":"accessorPositions"},{"bufferView":1,"byteOffset":1848,"componentType":5126,"count":4,"type":"VEC3","name":"accessorNormals"},{"bufferView":2,"byteOffset":600,"componentType":5126,"count":4,"type":"VEC2","name":"accessorUVs"},{"bufferView":0,"byteOffset":248,"componentType":5123,"count":6,"type":"SCALAR","name":"accessorIndices"},{"bufferView":1,"byteOffset":1896,"componentType":5126,"count":4,"max":[1.05,0.0,1.05],"min":[-1.05,0.0,-1.05],"type":"VEC3","name":"accessorPositions"},{"bufferView":1,"byteOffset":1944,"componentType":5126,"count":4,"type":"VEC3","name":"accessorNormals"},{"bufferView":2,"byteOffset":632,"componentType":5126,"count":4,"type":"VEC2","name":"accessorUVs"},{"bufferView":0,"byteOffset":260,"componentType":5123,"count":735,"type":"SCALAR","name":"accessorIndices"},{"bufferView":1,"byteOffset":1992,"componentType":5126,"count":334,"max":[8.661606,3.16502285,5.27904654],"min":[-1.30970049,-0.0139866183,-4.520608],"type":"VEC3","name":"accessorPositions"},{"bufferView":1,"byteOffset":6000,"componentType":5126,"count":334,"type":"VEC3","name":"accessorNormals"},{"bufferView":2,"byteOffset":664,"componentType":5126,"count":334,"type":"VEC2","name":"accessorUVs"},{"bufferView":0,"byteOffset":1732,"componentType":5123,"count":2001,"type":"SCALAR","name":"accessorIndices"},{"bufferView":1,"byteOffset":10008,"componentType":5126,"count":859,"max":[3.57474113,0.9131336,5.879859],"min":[-6.537054,-3.178717,-4.147089],"type":"VEC3","name":"accessorPositions"},{"bufferView":1,"byteOffset":20316,"componentType":5126,"count":859,"type":"VEC3","name":"accessorNormals"},{"bufferView":2,"byteOffset":3336,"componentType":5126,"count":859,"type":"VEC2","name":"accessorUVs"},{"bufferView":0,"byteOffset":5736,"componentType":5123,"count":6,"type":"SCALAR","name":"accessorIndices"},{"bufferView":1,"byteOffset":30624,"componentType":5126,"count":4,"max":[0.75,0.0,0.25],"min":[-0.75,0.0,-0.25],"type":"VEC3","name":"accessorPositions"},{"bufferView":1,"byteOffset":30672,"componentType":5126,"count":4,"type":"VEC3","name":"accessorNormals"},{"bufferView":2,"byteOffset":10208,"componentType":5126,"count":4,"type":"VEC2","name":"accessorUVs"},{"bufferView":0,"byteOffset":5748,"componentType":5123,"count":6,"type":"SCALAR","name":"accessorIndices"},{"bufferView":1,"byteOffset":30720,"componentType":5126,"count":4,"max":[0.75,0.0,0.25],"min":[-0.75,0.0,-0.25],"type":"VEC3","name":"accessorPositions"},{"bufferView":1,"byteOffset":30768,"componentType":5126,"count":4,"type":"VEC3","name":"accessorNormals"},{"bufferView":2,"byteOffset":10240,"componentType":5126,"count":4,"type":"VEC2","name":"accessorUVs"},{"bufferView":0,"byteOffset":5760,"componentType":5123,"count":36,"type":"SCALAR","name":"accessorIndices"},{"bufferView":1,"byteOffset":30816,"componentType":5126,"count":24,"max":[0.19912304,0.00100000575,0.205191016],"min":[-0.206790149,-4.43309522E-09,-0.205191016],"type":"VEC3","name":"accessorPositions"},{"bufferView":1,"byteOffset":31104,"componentType":5126,"count":24,"type":"VEC3","name":"accessorNormals"},{"bufferView":2,"byteOffset":10272,"componentType":5126,"count":24,"type":"VEC2","name":"accessorUVs"}],"bufferViews":[{"buffer":0,"byteLength":5832,"name":"bufferViewScalar"},{"buffer":0,"byteOffset":5832,"byteLength":31392,"byteStride":12,"name":"bufferViewFloatVec3"},{"buffer":0,"byteOffset":37224,"byteLength":10464,"byteStride":8,"name":"bufferViewFloatVec2"}],"buffers":[{"uri":"stant40.bin","byteLength":47688}],"materials":[{"pbrMetallicRoughness":{"baseColorFactor":[0.0588235334,0.0588235334,0.0588235334,1.0],"metallicFactor":0.0,"metallicRoughnessTexture":{"index":1,"extensions":{"KHR_texture_transform":{"texCoord":0}}}},"normalTexture":{"index":0,"scale":0.3,"extensions":{"KHR_texture_transform":{"texCoord":0}}},"doubleSided":true,"name":"matzemin2","extras":{"babylonSeparateCullingPass":false}},{"pbrMetallicRoughness":{"baseColorTexture":{"index":2,"extensions":{"KHR_texture_transform":{"texCoord":0}}},"metallicFactor":0.0,"roughnessFactor":0.5},"doubleSided":true,"name":"matlogo1","extras":{"babylonSeparateCullingPass":false}},{"pbrMetallicRoughness":{"baseColorTexture":{"index":3,"extensions":{"KHR_texture_transform":{"texCoord":0}}},"metallicFactor":0.0,"roughnessFactor":0.5},"doubleSided":true,"name":"matdikgorsel1","extras":{"babylonSeparateCullingPass":false}},{"pbrMetallicRoughness":{"baseColorTexture":{"index":4,"extensions":{"KHR_texture_transform":{"texCoord":0}}},"metallicFactor":0.0,"roughnessFactor":0.5},"doubleSided":true,"name":"matdikgorsel2","extras":{"babylonSeparateCullingPass":false}},{"pbrMetallicRoughness":{"baseColorTexture":{"index":5,"extensions":{"KHR_texture_transform":{"texCoord":0}}},"metallicFactor":0.0,"roughnessFactor":0.5},"doubleSided":true,"name":"matdikgorsel3","extras":{"babylonSeparateCullingPass":false}},{"pbrMetallicRoughness":{"baseColorTexture":{"index":6,"extensions":{"KHR_texture_transform":{"texCoord":0}}},"metallicFactor":0.0,"roughnessFactor":0.5},"doubleSided":true,"name":"matvideo1","extras":{"babylonSeparateCullingPass":false}},{"pbrMetallicRoughness":{"baseColorTexture":{"index":7,"extensions":{"KHR_texture_transform":{"texCoord":0}}},"metallicFactor":0.0,"roughnessFactor":0.5},"doubleSided":true,"name":"matdikgorsel4","extras":{"babylonSeparateCullingPass":false}},{"pbrMetallicRoughness":{"baseColorTexture":{"index":8,"extensions":{"KHR_texture_transform":{"texCoord":0}}},"metallicFactor":0.0,"roughnessFactor":0.5},"doubleSided":true,"name":"matdikgorsel6","extras":{"babylonSeparateCullingPass":false}},{"pbrMetallicRoughness":{"baseColorTexture":{"index":9,"extensions":{"KHR_texture_transform":{"texCoord":0}}},"metallicFactor":0.0,"roughnessFactor":0.5},"name":"matgenisgorsel","extras":{"babylonSeparateCullingPass":false}},{"pbrMetallicRoughness":{"baseColorTexture":{"index":10,"extensions":{"KHR_texture_transform":{"texCoord":0}}},"metallicFactor":0.0,"roughnessFactor":0.5},"doubleSided":true,"name":"matlogo2","extras":{"babylonSeparateCullingPass":false}},{"pbrMetallicRoughness":{"baseColorTexture":{"index":11,"extensions":{"KHR_texture_transform":{"texCoord":0}}},"metallicFactor":0.0,"roughnessFactor":0.5},"doubleSided":true,"name":"matyazi1","extras":{"babylonSeparateCullingPass":false}},{"pbrMetallicRoughness":{"baseColorTexture":{"index":12,"extensions":{"KHR_texture_transform":{"texCoord":0}}},"metallicFactor":0.0,"roughnessFactor":0.5},"doubleSided":true,"name":"matdikgorsel5","extras":{"babylonSeparateCullingPass":false}},{"pbrMetallicRoughness":{"baseColorTexture":{"index":13,"extensions":{"KHR_texture_transform":{"texCoord":0}}},"metallicFactor":0.0,"roughnessFactor":0.5},"doubleSided":true,"name":"matlogo3","extras":{"babylonSeparateCullingPass":false}},{"pbrMetallicRoughness":{"baseColorTexture":{"index":14,"extensions":{"KHR_texture_transform":{"texCoord":0}}},"metallicFactor":0.0,"roughnessFactor":0.5},"doubleSided":true,"name":"matdikgorsel7","extras":{"babylonSeparateCullingPass":false}},{"pbrMetallicRoughness":{"baseColorTexture":{"index":15,"extensions":{"KHR_texture_transform":{"texCoord":0}}},"metallicFactor":0.0,"roughnessFactor":0.5},"doubleSided":true,"name":"matdikgorsel8","extras":{"babylonSeparateCullingPass":false}},{"pbrMetallicRoughness":{"baseColorTexture":{"index":16,"extensions":{"KHR_texture_transform":{"texCoord":0}}},"metallicFactor":0.0,"roughnessFactor":0.5},"doubleSided":true,"name":"matlogo4","extras":{"babylonSeparateCullingPass":false}},{"pbrMetallicRoughness":{"baseColorFactor":[0.709803939,0.709803939,0.709803939,1.0],"metallicFactor":0.0,"metallicRoughnessTexture":{"index":1,"extensions":{"KHR_texture_transform":{"texCoord":0}}}},"normalTexture":{"index":0,"scale":0.3,"extensions":{"KHR_texture_transform":{"texCoord":0}}},"doubleSided":true,"name":"matrenk2","extras":{"babylonSeparateCullingPass":false}},{"pbrMetallicRoughness":{"baseColorFactor":[0.266187042,0.0153201148,0.0153201148,1.0],"metallicFactor":0.0,"metallicRoughnessTexture":{"index":1,"extensions":{"KHR_texture_transform":{"texCoord":0}}}},"normalTexture":{"index":0,"scale":0.3,"extensions":{"KHR_texture_transform":{"texCoord":0}}},"doubleSided":true,"name":"matrenk1","extras":{"babylonSeparateCullingPass":false}},{"pbrMetallicRoughness":{"baseColorTexture":{"index":21,"extensions":{"KHR_texture_transform":{"texCoord":0}}},"metallicFactor":0.0,"roughnessFactor":0.5},"doubleSided":true,"name":"matyazi3","extras":{"babylonSeparateCullingPass":false}},{"pbrMetallicRoughness":{"baseColorTexture":{"index":22,"extensions":{"KHR_texture_transform":{"texCoord":0}}},"metallicFactor":0.0,"roughnessFactor":0.5},"doubleSided":true,"name":"matyazi2","extras":{"babylonSeparateCullingPass":false}},{"pbrMetallicRoughness":{"baseColorFactor":[0.0,0.0,0.0,0.0],"metallicFactor":0.0,"roughnessFactor":0.5},"alphaMode":"BLEND","doubleSided":true,"name":"Material #0","extras":{"babylonSeparateCullingPass":false}}],"textures":[{"sampler":0,"source":0,"name":"matrenknormal.png"},{"sampler":0,"source":1,"name":"matrenkroughness0.png"},{"sampler":0,"source":2,"name":"matlogo1.png"},{"sampler":0,"source":3,"name":"matdikgorsel1.png"},{"sampler":0,"source":4,"name":"matdikgorsel2.png"},{"sampler":0,"source":5,"name":"matdikgorsel3.png"},{"sampler":0,"source":6,"name":"matvideo1.png"},{"sampler":0,"source":7,"name":"matdikgorsel4.png"},{"sampler":0,"source":8,"name":"matdikgorsel6.png"},{"sampler":0,"source":9,"name":"matgenisgorsel.png"},{"sampler":0,"source":10,"name":"matlogo2.png"},{"sampler":0,"source":11,"name":"matyazi1.png"},{"sampler":0,"source":12,"name":"matdikgorsel5.png"},{"sampler":0,"source":13,"name":"matlogo3.png"},{"sampler":0,"source":14,"name":"matdikgorsel7.png"},{"sampler":0,"source":15,"name":"matdikgorsel8.png"},{"sampler":0,"source":16,"name":"matlogo4.png"},{"sampler":0,"source":0,"name":"matrenknormal.png"},{"sampler":0,"source":1,"name":"matrenkroughness0.png"},{"sampler":0,"source":0,"name":"matrenknormal.png"},{"sampler":0,"source":1,"name":"matrenkroughness0.png"},{"sampler":0,"source":17,"name":"matyazi3.png"},{"sampler":0,"source":18,"name":"matyazi2.png"}],"images":[{"uri":"./matrenknormal.png"},{"uri":"./matrenkroughness0.png"},{"uri":"./matlogo1.png"},{"uri":"./matdikgorsel1.png"},{"uri":"./matdikgorsel2.png"},{"uri":"./matdikgorsel3.png"},{"uri":"./matvideo1.png"},{"uri":"./matdikgorsel4.png"},{"uri":"./matdikgorsel6.png"},{"uri":"./matgenisgorsel.png"},{"uri":"./matlogo2.png"},{"uri":"./matyazi1.png"},{"uri":"./matdikgorsel5.png"},{"uri":"./matlogo3.png"},{"uri":"./matdikgorsel7.png"},{"uri":"./matdikgorsel8.png"},{"uri":"./matlogo4.png"},{"uri":"./matyazi3.png"},{"uri":"./matyazi2.png"}],"samplers":[{"magFilter":9729,"minFilter":9987}]}