{"asset":{"version":"2.0","generator":"babylon.js glTF exporter for 3dsmax 2018 v20210615.1"},"extensionsUsed":["KHR_texture_transform"],"extensionsRequired":["KHR_texture_transform"],"scene":0,"scenes":[{"nodes":[0]}],"nodes":[{"children":[1,2,3,4,5,6,7,8,9,10,11,12,13,14,15,16,17,18,19],"rotation":[0.0,-0.7071068,0.0,0.7071068],"scale":[0.099999994,0.099999994,0.099999994],"name":"Group001"},{"mesh":0,"translation":[2.00336242,1.54572952,-1.21246672],"rotation":[-0.5,-0.5,0.5,-0.5],"scale":[0.5478968,0.5478968,0.5478968],"name":"moddikgorsel1"},{"mesh":1,"translation":[3.31884336,3.669139,-4.817688],"rotation":[0.5,-0.5,-0.5,0.5],"scale":[0.5117629,0.5117629,0.5117629],"name":"modlogo4"},{"mesh":2,"translation":[-1.42164183,3.618315,3.7339325],"rotation":[0.5,-0.5,-0.5,0.5],"scale":[0.6639189,0.6639189,0.6639189],"name":"modlogo1"},{"mesh":3,"translation":[0.7312508,3.70133018,3.735211],"rotation":[0.5,-0.5,-0.5,0.5],"scale":[1.61071646,1.61071646,1.61071646],"name":"modyazi1"},{"mesh":4,"translation":[-0.03906082,4.05188274,0.168697834],"rotation":[0.0,4.440892E-16,0.0,1.0],"name":"modrenk1"},{"mesh":5,"translation":[-4.91162062,2.14413381,2.97492433],"rotation":[0.49999997,-0.50000006,0.5000001,0.49999997],"scale":[2.693125,2.693125,2.693125],"name":"moddikyazi1"},{"mesh":6,"translation":[-0.09214157,1.69452667,-0.171306461],"rotation":[0.5,-0.5,-0.5,0.5],"scale":[1.357264,1.357264,1.357264],"name":"modvideo1"},{"mesh":7,"translation":[4.87810373,2.18785834,2.98187375],"rotation":[-0.5,-0.5,0.5,-0.5],"scale":[2.693125,2.693125,2.693125],"name":"moddikyazi2"},{"mesh":8,"translation":[3.34233975,1.66755128,-4.817688],"rotation":[0.7071068,-8.42937E-08,-8.429369E-08,0.7071067],"scale":[0.6207223,0.6207223,0.6207223],"name":"moddikgorsel5"},{"mesh":9,"translation":[2.00336242,1.54572952,-2.61612248],"rotation":[-0.5,-0.5,0.5,-0.5],"scale":[0.5478968,0.5478968,0.5478968],"name":"moddikgorsel2"},{"mesh":10,"translation":[2.00336242,1.54572952,-4.04809856],"rotation":[-0.5,-0.5,0.5,-0.5],"scale":[0.5478968,0.5478968,0.5478968],"name":"moddikgorsel3"},{"mesh":11,"translation":[-2.41936255,2.166173,-2.546996],"rotation":[0.7071068,-0.7071068,1.57349191E-07,-1.57349177E-07],"scale":[1.69475257,1.69475257,1.69475257],"name":"modlogo2"},{"mesh":12,"translation":[0.05631027,1.75166786,-5.23279858],"rotation":[1.15202347E-07,-0.7071068,0.7071068,1.15202347E-07],"name":"modgenisgorsel"},{"mesh":13,"translation":[-3.40701962,3.652692,-4.817688],"rotation":[0.5,-0.5,-0.5,0.5],"scale":[0.5117629,0.5117629,0.5117629],"name":"modlogo3"},{"mesh":14,"translation":[-3.4206264,1.699085,-4.817688],"rotation":[0.7071068,5.924304E-23,0.0,0.7071067],"scale":[0.631870449,0.631870449,0.631870449],"name":"moddikgorsel4"},{"mesh":15,"translation":[2.37371278,3.290158,3.65820479],"rotation":[0.0,3.97893753E-16,0.0,1.0],"scale":[1.1161,1.1161,1.1161],"name":"modahsap"},{"mesh":16,"translation":[-0.002221222,0.04999313,1.525879E-07],"rotation":[0.0,4.440892E-16,0.0,1.0],"name":"modzemin"},{"mesh":17,"translation":[4.520341,1.66755128,2.976558],"rotation":[-0.50000006,0.50000006,-0.5,-0.4999999],"scale":[0.6207223,0.6207223,0.6207223],"name":"moddikgorsel6"},{"mesh":18,"translation":[-4.562426,1.66755128,2.976558],"rotation":[0.49999997,0.4999999,-0.5000001,0.5],"scale":[0.6207223,0.6207223,0.6207223],"name":"moddikgorsel7"}],"meshes":[{"primitives":[{"attributes":{"POSITION":1,"NORMAL":2,"TEXCOORD_0":3},"indices":0,"material":0}],"name":"moddikgorsel1"},{"primitives":[{"attributes":{"POSITION":5,"NORMAL":6,"TEXCOORD_0":7},"indices":4,"material":1}],"name":"modlogo4"},{"primitives":[{"attributes":{"POSITION":9,"NORMAL":10,"TEXCOORD_0":11},"indices":8,"material":2}],"name":"modlogo1"},{"primitives":[{"attributes":{"POSITION":13,"NORMAL":14,"TEXCOORD_0":15},"indices":12,"material":3}],"name":"modyazi1"},{"primitives":[{"attributes":{"POSITION":17,"NORMAL":18,"TEXCOORD_0":19},"indices":16,"material":4}],"name":"modrenk1"},{"primitives":[{"attributes":{"POSITION":21,"NORMAL":22,"TEXCOORD_0":23},"indices":20,"material":5}],"name":"moddikyazi1"},{"primitives":[{"attributes":{"POSITION":25,"NORMAL":26,"TEXCOORD_0":27},"indices":24,"material":6}],"name":"modvideo1"},{"primitives":[{"attributes":{"POSITION":29,"NORMAL":30,"TEXCOORD_0":31},"indices":28,"material":7}],"name":"moddikyazi2"},{"primitives":[{"attributes":{"POSITION":33,"NORMAL":34,"TEXCOORD_0":35},"indices":32,"material":8}],"name":"moddikgorsel5"},{"primitives":[{"attributes":{"POSITION":37,"NORMAL":38,"TEXCOORD_0":39},"indices":36,"material":9}],"name":"moddikgorsel2"},{"primitives":[{"attributes":{"POSITION":41,"NORMAL":42,"TEXCOORD_0":43},"indices":40,"material":10}],"name":"moddikgorsel3"},{"primitives":[{"attributes":{"POSITION":45,"NORMAL":46,"TEXCOORD_0":47},"indices":44,"material":11}],"name":"modlogo2"},{"primitives":[{"attributes":{"POSITION":49,"NORMAL":50,"TEXCOORD_0":51},"indices":48,"material":12}],"name":"modgenisgorsel"},{"primitives":[{"attributes":{"POSITION":53,"NORMAL":54,"TEXCOORD_0":55},"indices":52,"material":13}],"name":"modlogo3"},{"primitives":[{"attributes":{"POSITION":57,"NORMAL":58,"TEXCOORD_0":59},"indices":56,"material":14}],"name":"moddikgorsel4"},{"primitives":[{"attributes":{"POSITION":61,"NORMAL":62,"TEXCOORD_0":63},"indices":60,"material":15}],"name":"modahsap"},{"primitives":[{"attributes":{"POSITION":65,"NORMAL":66,"TEXCOORD_0":67},"indices":64,"material":16}],"name":"modzemin"},{"primitives":[{"attributes":{"POSITION":69,"NORMAL":70,"TEXCOORD_0":71},"indices":68,"material":17}],"name":"moddikgorsel6"},{"primitives":[{"attributes":{"POSITION":73,"NORMAL":74,"TEXCOORD_0":75},"indices":72,"material":18}],"name":"moddikgorsel7"}],"accessors":[{"bufferView":0,"componentType":5123,"count":6,"type":"SCALAR","name":"accessorIndices"},{"bufferView":1,"componentType":5126,"count":4,"max":[1.05,0.0,1.485],"min":[-1.05,0.0,-1.485],"type":"VEC3","name":"accessorPositions"},{"bufferView":1,"byteOffset":48,"componentType":5126,"count":4,"type":"VEC3","name":"accessorNormals"},{"bufferView":2,"componentType":5126,"count":4,"type":"VEC2","name":"accessorUVs"},{"bufferView":0,"byteOffset":12,"componentType":5123,"count":6,"type":"SCALAR","name":"accessorIndices"},{"bufferView":1,"byteOffset":96,"componentType":5126,"count":4,"max":[1.25,0.0,1.25],"min":[-1.25,0.0,-1.25],"type":"VEC3","name":"accessorPositions"},{"bufferView":1,"byteOffset":144,"componentType":5126,"count":4,"type":"VEC3","name":"accessorNormals"},{"bufferView":2,"byteOffset":32,"componentType":5126,"count":4,"type":"VEC2","name":"accessorUVs"},{"bufferView":0,"byteOffset":24,"componentType":5123,"count":6,"type":"SCALAR","name":"accessorIndices"},{"bufferView":1,"byteOffset":192,"componentType":5126,"count":4,"max":[1.05,0.0,1.05],"min":[-1.05,0.0,-1.05],"type":"VEC3","name":"accessorPositions"},{"bufferView":1,"byteOffset":240,"componentType":5126,"count":4,"type":"VEC3","name":"accessorNormals"},{"bufferView":2,"byteOffset":64,"componentType":5126,"count":4,"type":"VEC2","name":"accessorUVs"},{"bufferView":0,"byteOffset":36,"componentType":5123,"count":6,"type":"SCALAR","name":"accessorIndices"},{"bufferView":1,"byteOffset":288,"componentType":5126,"count":4,"max":[0.25,0.0,0.75],"min":[-0.25,0.0,-0.75],"type":"VEC3","name":"accessorPositions"},{"bufferView":1,"byteOffset":336,"componentType":5126,"count":4,"type":"VEC3","name":"accessorNormals"},{"bufferView":2,"byteOffset":96,"componentType":5126,"count":4,"type":"VEC2","name":"accessorUVs"},{"bufferView":0,"byteOffset":48,"componentType":5123,"count":666,"type":"SCALAR","name":"accessorIndices"},{"bufferView":1,"byteOffset":384,"componentType":5126,"count":344,"max":[4.69382334,0.5148686,4.34351969],"min":[-4.64889765,-4.043918,-5.001203],"type":"VEC3","name":"accessorPositions"},{"bufferView":1,"byteOffset":4512,"componentType":5126,"count":344,"type":"VEC3","name":"accessorNormals"},{"bufferView":2,"byteOffset":128,"componentType":5126,"count":344,"type":"VEC2","name":"accessorUVs"},{"bufferView":0,"byteOffset":1380,"componentType":5123,"count":6,"type":"SCALAR","name":"accessorIndices"},{"bufferView":1,"byteOffset":8640,"componentType":5126,"count":4,"max":[0.25,0.0,0.75],"min":[-0.25,0.0,-0.75],"type":"VEC3","name":"accessorPositions"},{"bufferView":1,"byteOffset":8688,"componentType":5126,"count":4,"type":"VEC3","name":"accessorNormals"},{"bufferView":2,"byteOffset":2880,"componentType":5126,"count":4,"type":"VEC2","name":"accessorUVs"},{"bufferView":0,"byteOffset":1392,"componentType":5123,"count":6,"type":"SCALAR","name":"accessorIndices"},{"bufferView":1,"byteOffset":8736,"componentType":5126,"count":4,"max":[0.539999962,0.0,0.96],"min":[-0.539999962,0.0,-0.96],"type":"VEC3","name":"accessorPositions"},{"bufferView":1,"byteOffset":8784,"componentType":5126,"count":4,"type":"VEC3","name":"accessorNormals"},{"bufferView":2,"byteOffset":2912,"componentType":5126,"count":4,"type":"VEC2","name":"accessorUVs"},{"bufferView":0,"byteOffset":1404,"componentType":5123,"count":6,"type":"SCALAR","name":"accessorIndices"},{"bufferView":1,"byteOffset":8832,"componentType":5126,"count":4,"max":[0.25,0.0,0.75],"min":[-0.25,0.0,-0.75],"type":"VEC3","name":"accessorPositions"},{"bufferView":1,"byteOffset":8880,"componentType":5126,"count":4,"type":"VEC3","name":"accessorNormals"},{"bufferView":2,"byteOffset":2944,"componentType":5126,"count":4,"type":"VEC2","name":"accessorUVs"},{"bufferView":0,"byteOffset":1416,"componentType":5123,"count":6,"type":"SCALAR","name":"accessorIndices"},{"bufferView":1,"byteOffset":8928,"componentType":5126,"count":4,"max":[1.05,0.0,1.485],"min":[-1.05,0.0,-1.485],"type":"VEC3","name":"accessorPositions"},{"bufferView":1,"byteOffset":8976,"componentType":5126,"count":4,"type":"VEC3","name":"accessorNormals"},{"bufferView":2,"byteOffset":2976,"componentType":5126,"count":4,"type":"VEC2","name":"accessorUVs"},{"bufferView":0,"byteOffset":1428,"componentType":5123,"count":6,"type":"SCALAR","name":"accessorIndices"},{"bufferView":1,"byteOffset":9024,"componentType":5126,"count":4,"max":[1.05,0.0,1.485],"min":[-1.05,0.0,-1.485],"type":"VEC3","name":"accessorPositions"},{"bufferView":1,"byteOffset":9072,"componentType":5126,"count":4,"type":"VEC3","name":"accessorNormals"},{"bufferView":2,"byteOffset":3008,"componentType":5126,"count":4,"type":"VEC2","name":"accessorUVs"},{"bufferView":0,"byteOffset":1440,"componentType":5123,"count":6,"type":"SCALAR","name":"accessorIndices"},{"bufferView":1,"byteOffset":9120,"componentType":5126,"count":4,"max":[1.05,0.0,1.485],"min":[-1.05,0.0,-1.485],"type":"VEC3","name":"accessorPositions"},{"bufferView":1,"byteOffset":9168,"componentType":5126,"count":4,"type":"VEC3","name":"accessorNormals"},{"bufferView":2,"byteOffset":3040,"componentType":5126,"count":4,"type":"VEC2","name":"accessorUVs"},{"bufferView":0,"byteOffset":1452,"componentType":5123,"count":6,"type":"SCALAR","name":"accessorIndices"},{"bufferView":1,"byteOffset":9216,"componentType":5126,"count":4,"max":[1.05,0.0,1.05],"min":[-1.05,0.0,-1.05],"type":"VEC3","name":"accessorPositions"},{"bufferView":1,"byteOffset":9264,"componentType":5126,"count":4,"type":"VEC3","name":"accessorNormals"},{"bufferView":2,"byteOffset":3072,"componentType":5126,"count":4,"type":"VEC2","name":"accessorUVs"},{"bufferView":0,"byteOffset":1464,"componentType":5123,"count":6,"type":"SCALAR","name":"accessorIndices"},{"bufferView":1,"byteOffset":9312,"componentType":5126,"count":4,"max":[5.060431,-0.26150322,1.73589933],"min":[-4.9486146,-0.261503279,-2.7949996],"type":"VEC3","name":"accessorPositions"},{"bufferView":1,"byteOffset":9360,"componentType":5126,"count":4,"type":"VEC3","name":"accessorNormals"},{"bufferView":2,"byteOffset":3104,"componentType":5126,"count":4,"type":"VEC2","name":"accessorUVs"},{"bufferView":0,"byteOffset":1476,"componentType":5123,"count":6,"type":"SCALAR","name":"accessorIndices"},{"bufferView":1,"byteOffset":9408,"componentType":5126,"count":4,"max":[1.25,0.0,1.25],"min":[-1.25,0.0,-1.25],"type":"VEC3","name":"accessorPositions"},{"bufferView":1,"byteOffset":9456,"componentType":5126,"count":4,"type":"VEC3","name":"accessorNormals"},{"bufferView":2,"byteOffset":3136,"componentType":5126,"count":4,"type":"VEC2","name":"accessorUVs"},{"bufferView":0,"byteOffset":1488,"componentType":5123,"count":6,"type":"SCALAR","name":"accessorIndices"},{"bufferView":1,"byteOffset":9504,"componentType":5126,"count":4,"max":[1.05,0.0,1.485],"min":[-1.05,0.0,-1.485],"type":"VEC3","name":"accessorPositions"},{"bufferView":1,"byteOffset":9552,"componentType":5126,"count":4,"type":"VEC3","name":"accessorNormals"},{"bufferView":2,"byteOffset":3168,"componentType":5126,"count":4,"type":"VEC2","name":"accessorUVs"},{"bufferView":0,"byteOffset":1500,"componentType":5123,"count":1377,"type":"SCALAR","name":"accessorIndices"},{"bufferView":1,"byteOffset":9600,"componentType":5126,"count":706,"max":[2.34868026,1.13633311,0.9049432],"min":[-6.61108971,-2.93166685,-7.712789],"type":"VEC3","name":"accessorPositions"},{"bufferView":1,"byteOffset":18072,"componentType":5126,"count":706,"type":"VEC3","name":"accessorNormals"},{"bufferView":2,"byteOffset":3200,"componentType":5126,"count":706,"type":"VEC2","name":"accessorUVs"},{"bufferView":0,"byteOffset":4256,"componentType":5123,"count":30,"type":"SCALAR","name":"accessorIndices"},{"bufferView":1,"byteOffset":26544,"componentType":5126,"count":20,"max":[5.0,0.0,5.0],"min":[-5.0,-0.049999997,-5.0],"type":"VEC3","name":"accessorPositions"},{"bufferView":1,"byteOffset":26784,"componentType":5126,"count":20,"type":"VEC3","name":"accessorNormals"},{"bufferView":2,"byteOffset":8848,"componentType":5126,"count":20,"type":"VEC2","name":"accessorUVs"},{"bufferView":0,"byteOffset":4316,"componentType":5123,"count":6,"type":"SCALAR","name":"accessorIndices"},{"bufferView":1,"byteOffset":27024,"componentType":5126,"count":4,"max":[1.05,0.0,1.485],"min":[-1.05,0.0,-1.485],"type":"VEC3","name":"accessorPositions"},{"bufferView":1,"byteOffset":27072,"componentType":5126,"count":4,"type":"VEC3","name":"accessorNormals"},{"bufferView":2,"byteOffset":9008,"componentType":5126,"count":4,"type":"VEC2","name":"accessorUVs"},{"bufferView":0,"byteOffset":4328,"componentType":5123,"count":6,"type":"SCALAR","name":"accessorIndices"},{"bufferView":1,"byteOffset":27120,"componentType":5126,"count":4,"max":[1.05,0.0,1.485],"min":[-1.05,0.0,-1.485],"type":"VEC3","name":"accessorPositions"},{"bufferView":1,"byteOffset":27168,"componentType":5126,"count":4,"type":"VEC3","name":"accessorNormals"},{"bufferView":2,"byteOffset":9040,"componentType":5126,"count":4,"type":"VEC2","name":"accessorUVs"}],"bufferViews":[{"buffer":0,"byteLength":4340,"name":"bufferViewScalar"},{"buffer":0,"byteOffset":4340,"byteLength":27216,"byteStride":12,"name":"bufferViewFloatVec3"},{"buffer":0,"byteOffset":31556,"byteLength":9072,"byteStride":8,"name":"bufferViewFloatVec2"}],"buffers":[{"uri":"stant38.bin","byteLength":40628}],"materials":[{"pbrMetallicRoughness":{"baseColorTexture":{"index":0,"extensions":{"KHR_texture_transform":{"texCoord":0}}},"metallicFactor":0.0,"roughnessFactor":0.5},"doubleSided":true,"name":"matdikgorsel1","extras":{"babylonSeparateCullingPass":false}},{"pbrMetallicRoughness":{"baseColorTexture":{"index":1,"extensions":{"KHR_texture_transform":{"texCoord":0}}},"metallicFactor":0.0,"roughnessFactor":0.5},"doubleSided":true,"name":"matlogo4","extras":{"babylonSeparateCullingPass":false}},{"pbrMetallicRoughness":{"baseColorTexture":{"index":2,"extensions":{"KHR_texture_transform":{"texCoord":0}}},"metallicFactor":0.0,"roughnessFactor":0.5},"doubleSided":true,"name":"matlogo1","extras":{"babylonSeparateCullingPass":false}},{"pbrMetallicRoughness":{"baseColorTexture":{"index":3,"extensions":{"KHR_texture_transform":{"texCoord":0}}},"metallicFactor":0.0,"roughnessFactor":0.5},"doubleSided":true,"name":"matyazi1","extras":{"babylonSeparateCullingPass":false}},{"pbrMetallicRoughness":{"baseColorFactor":[0.654676259,0.424263865,0.277884156,1.0],"metallicFactor":0.0,"metallicRoughnessTexture":{"index":5,"extensions":{"KHR_texture_transform":{"texCoord":0}}}},"normalTexture":{"index":4,"scale":0.3,"extensions":{"KHR_texture_transform":{"texCoord":0}}},"doubleSided":true,"name":"matrenk1","extras":{"babylonSeparateCullingPass":false}},{"pbrMetallicRoughness":{"baseColorTexture":{"index":6,"extensions":{"KHR_texture_transform":{"texCoord":0}}},"metallicFactor":0.0,"roughnessFactor":0.5},"doubleSided":true,"name":"matdikyazi1","extras":{"babylonSeparateCullingPass":false}},{"pbrMetallicRoughness":{"baseColorTexture":{"index":7,"extensions":{"KHR_texture_transform":{"texCoord":0}}},"metallicFactor":0.0,"roughnessFactor":0.5},"doubleSided":true,"name":"matvideo1","extras":{"babylonSeparateCullingPass":false}},{"pbrMetallicRoughness":{"baseColorTexture":{"index":8,"extensions":{"KHR_texture_transform":{"texCoord":0}}},"metallicFactor":0.0,"roughnessFactor":0.5},"doubleSided":true,"name":"matdikyazi2","extras":{"babylonSeparateCullingPass":false}},{"pbrMetallicRoughness":{"baseColorTexture":{"index":9,"extensions":{"KHR_texture_transform":{"texCoord":0}}},"metallicFactor":0.0,"roughnessFactor":0.5},"doubleSided":true,"name":"matdikgorsel5","extras":{"babylonSeparateCullingPass":false}},{"pbrMetallicRoughness":{"baseColorTexture":{"index":10,"extensions":{"KHR_texture_transform":{"texCoord":0}}},"metallicFactor":0.0,"roughnessFactor":0.5},"doubleSided":true,"name":"matdikgorsel2","extras":{"babylonSeparateCullingPass":false}},{"pbrMetallicRoughness":{"baseColorTexture":{"index":11,"extensions":{"KHR_texture_transform":{"texCoord":0}}},"metallicFactor":0.0,"roughnessFactor":0.5},"doubleSided":true,"name":"matdikgorsel3","extras":{"babylonSeparateCullingPass":false}},{"pbrMetallicRoughness":{"baseColorTexture":{"index":12,"extensions":{"KHR_texture_transform":{"texCoord":0}}},"metallicFactor":0.0,"roughnessFactor":0.5},"doubleSided":true,"name":"matlogo2","extras":{"babylonSeparateCullingPass":false}},{"pbrMetallicRoughness":{"baseColorTexture":{"index":13,"extensions":{"KHR_texture_transform":{"texCoord":0}}},"metallicFactor":0.0,"roughnessFactor":0.5},"name":"matgenisgorsel","extras":{"babylonSeparateCullingPass":false}},{"pbrMetallicRoughness":{"baseColorTexture":{"index":14,"extensions":{"KHR_texture_transform":{"texCoord":0}}},"metallicFactor":0.0,"roughnessFactor":0.5},"doubleSided":true,"name":"matlogo3","extras":{"babylonSeparateCullingPass":false}},{"pbrMetallicRoughness":{"baseColorTexture":{"index":15,"extensions":{"KHR_texture_transform":{"texCoord":0}}},"metallicFactor":0.0,"roughnessFactor":0.5},"doubleSided":true,"name":"matdikgorsel4","extras":{"babylonSeparateCullingPass":false}},{"pbrMetallicRoughness":{"baseColorTexture":{"index":16,"extensions":{"KHR_texture_transform":{"texCoord":0}}},"metallicFactor":0.0,"metallicRoughnessTexture":{"index":17,"extensions":{"KHR_texture_transform":{"texCoord":0}}}},"doubleSided":true,"name":"matahsap","extras":{"babylonSeparateCullingPass":false}},{"pbrMetallicRoughness":{"baseColorFactor":[0.036,0.036,0.036,1.0],"metallicFactor":0.0,"metallicRoughnessTexture":{"index":19,"extensions":{"KHR_texture_transform":{"texCoord":0}}}},"normalTexture":{"index":18,"scale":0.3,"extensions":{"KHR_texture_transform":{"texCoord":0}}},"doubleSided":true,"name":"matzemin","extras":{"babylonSeparateCullingPass":false}},{"pbrMetallicRoughness":{"baseColorTexture":{"index":20,"extensions":{"KHR_texture_transform":{"texCoord":0}}},"metallicFactor":0.0,"roughnessFactor":0.5},"doubleSided":true,"name":"matdikgorsel6","extras":{"babylonSeparateCullingPass":false}},{"pbrMetallicRoughness":{"baseColorTexture":{"index":21,"extensions":{"KHR_texture_transform":{"texCoord":0}}},"metallicFactor":0.0,"roughnessFactor":0.5},"doubleSided":true,"name":"matdikgorsel7","extras":{"babylonSeparateCullingPass":false}}],"textures":[{"sampler":0,"source":0,"name":"matdikgorsel1.png"},{"sampler":0,"source":1,"name":"matlogo4.png"},{"sampler":0,"source":2,"name":"matlogo1.png"},{"sampler":0,"source":3,"name":"matyazi1.png"},{"sampler":0,"source":4,"name":"matrenknormal.png"},{"sampler":0,"source":5,"name":"matrenkroughness0.png"},{"sampler":0,"source":6,"name":"matdikyazi1.png"},{"sampler":0,"source":7,"name":"matvideo1.png"},{"sampler":0,"source":8,"name":"matdikyazi2.png"},{"sampler":0,"source":9,"name":"matdikgorsel5.png"},{"sampler":0,"source":10,"name":"matdikgorsel2.png"},{"sampler":0,"source":11,"name":"matdikgorsel3.png"},{"sampler":0,"source":12,"name":"matlogo2.png"},{"sampler":0,"source":13,"name":"matgenisgorsel.png"},{"sampler":0,"source":14,"name":"matlogo3.png"},{"sampler":0,"source":15,"name":"matdikgorsel4.png"},{"sampler":0,"source":16,"name":"matahsap.png"},{"sampler":0,"source":17,"name":"matahsaproughness0.png"},{"sampler":0,"source":18,"name":"matbejkaronormal.png"},{"sampler":0,"source":19,"name":"matzbejkaroroughness0.png"},{"sampler":0,"source":20,"name":"matdikgorsel6.png"},{"sampler":0,"source":21,"name":"matdikgorsel7.png"}],"images":[{"uri":"./matdikgorsel1.png"},{"uri":"./matlogo4.png"},{"uri":"./matlogo1.png"},{"uri":"./matyazi1.png"},{"uri":"./matrenknormal.png"},{"uri":"./matrenkroughness0.png"},{"uri":"./matdikyazi1.png"},{"uri":"./matvideo1.png"},{"uri":"./matdikyazi2.png"},{"uri":"./matdikgorsel5.png"},{"uri":"./matdikgorsel2.png"},{"uri":"./matdikgorsel3.png"},{"uri":"./matlogo2.png"},{"uri":"./matgenisgorsel.png"},{"uri":"./matlogo3.png"},{"uri":"./matdikgorsel4.png"},{"uri":"./matahsap.png"},{"uri":"./matahsaproughness0.png"},{"uri":"./matbejkaronormal.png"},{"uri":"./matzbejkaroroughness0.png"},{"uri":"./matdikgorsel6.png"},{"uri":"./matdikgorsel7.png"}],"samplers":[{"magFilter":9729,"minFilter":9987}]}