{"asset":{"version":"2.0","generator":"babylon.js glTF exporter for 3dsmax 2018 v20210615.1"},"extensionsUsed":["KHR_texture_transform"],"extensionsRequired":["KHR_texture_transform"],"scene":0,"scenes":[{"nodes":[0]}],"nodes":[{"children":[1,2,3,4,5,6,7,8,9,10,11,12,13,14,15,16,17,18,19,20,21],"rotation":[0.0,-0.7071068,0.0,0.7071067],"scale":[0.099999994,0.099999994,0.099999994],"name":"Group001"},{"mesh":0,"translation":[-4.793499,0.05000305,4.61758232],"name":"modrenk1"},{"mesh":1,"translation":[-0.0749343038,3.69160938,4.68845129],"rotation":[0.5,-0.5,-0.5,0.5],"scale":[2.11262512,2.11262512,2.11262512],"name":"modyazi1"},{"mesh":2,"translation":[-2.474651,3.70349169,4.69580841],"rotation":[0.5,-0.5,-0.5,0.5],"scale":[0.4913462,0.4913462,0.4913462],"name":"modlogo1"},{"mesh":3,"translation":[2.36258531,3.70349169,4.69580841],"rotation":[0.5,-0.5,-0.5,0.5],"scale":[0.4913462,0.4913462,0.4913462],"name":"modlogo2"},{"mesh":4,"translation":[0.0493235,2.1357193,-1.5084126],"rotation":[0.5,-0.5,-0.5,0.5],"scale":[1.2322,1.2322,1.2322],"name":"modvideo1"},{"mesh":5,"translation":[4.104763,2.101384,-3.142284],"rotation":[0.7071068,0.0,0.0,0.7071067],"scale":[0.3720568,0.3720568,0.3720568],"name":"moddikgorsel1"},{"mesh":6,"translation":[3.18265367,2.101384,-3.14228368],"rotation":[0.7071068,0.0,0.0,0.7071067],"scale":[0.3720568,0.3720568,0.3720568],"name":"moddikgorsel2"},{"mesh":7,"translation":[2.26053953,2.101384,-3.14228368],"rotation":[0.7071068,0.0,0.0,0.7071067],"scale":[0.3720568,0.3720568,0.3720568],"name":"moddikgorsel3"},{"mesh":8,"translation":[-2.35576415,2.101384,-3.14632],"rotation":[0.7071068,0.0,0.0,0.7071067],"scale":[0.3720568,0.3720568,0.3720568],"name":"moddikgorsel4"},{"mesh":9,"translation":[-3.277879,2.101384,-3.14632],"rotation":[0.7071068,0.0,0.0,0.7071067],"scale":[0.3720568,0.3720568,0.3720568],"name":"moddikgorsel5"},{"mesh":10,"translation":[-4.199993,2.101384,-3.14631987],"rotation":[0.7071068,0.0,0.0,0.7071067],"scale":[0.3720568,0.3720568,0.3720568],"name":"moddikgorsel6"},{"mesh":11,"translation":[-4.45806932,2.15736365,4.693444],"rotation":[0.7071068,-1.24618261E-15,1.24618261E-15,0.7071067],"scale":[2.01587486,2.01587486,2.01587486],"name":"moddikyazi1"},{"mesh":12,"translation":[-0.06765892,3.00607228,-5.003375],"rotation":[-0.7071068,0.0,0.0,0.7071067],"name":"modgenisgorsel"},{"mesh":13,"translation":[4.71165276,3.23652482,-2.173026],"rotation":[-0.5,-0.5,0.5,-0.5],"scale":[0.405367255,0.405367255,0.405367255],"name":"modlogo5"},{"mesh":14,"translation":[-4.858479,3.25652742,-2.1572125],"rotation":[-0.5,0.5,-0.5,-0.5],"scale":[0.405367255,0.405367255,0.405367255],"name":"modlogo4"},{"mesh":15,"translation":[0.6077854,0.597552836,0.774226069],"rotation":[0.5,-0.5,-0.5,0.5],"scale":[1.30484819,1.30484819,1.30484819],"name":"modyazi2"},{"mesh":16,"translation":[-0.950740039,0.6021225,0.774225831],"rotation":[0.5,-0.5,-0.5,0.5],"scale":[0.30527404,0.30527404,0.30527404],"name":"modlogo3"},{"mesh":17,"translation":[-4.793499,0.05000305,4.61758232],"name":"modrenk2"},{"mesh":18,"translation":[-0.0829177052,0.02500351,3.31242967],"rotation":[0.7071068,0.0,0.0,0.7071067],"name":"modzemin"},{"mesh":19,"translation":[4.96278143,3.659111,-3.9222002],"rotation":[0.0,5.73766746E-23,-0.7071068,0.7071068],"scale":[1.30484819,1.30484819,1.30484819],"name":"modyazi3"},{"mesh":20,"translation":[-5.09105158,3.659111,-3.9222],"rotation":[0.7071068,-0.7071068,5.3385083E-08,-5.3385083E-08],"scale":[1.30484819,1.30484819,1.30484819],"name":"modyazi4"}],"meshes":[{"primitives":[{"attributes":{"POSITION":1,"NORMAL":2,"TEXCOORD_0":3},"indices":0,"material":0}],"name":"modrenk1"},{"primitives":[{"attributes":{"POSITION":5,"NORMAL":6,"TEXCOORD_0":7},"indices":4,"material":1}],"name":"modyazi1"},{"primitives":[{"attributes":{"POSITION":9,"NORMAL":10,"TEXCOORD_0":11},"indices":8,"material":2}],"name":"modlogo1"},{"primitives":[{"attributes":{"POSITION":13,"NORMAL":14,"TEXCOORD_0":15},"indices":12,"material":3}],"name":"modlogo2"},{"primitives":[{"attributes":{"POSITION":17,"NORMAL":18,"TEXCOORD_0":19},"indices":16,"material":4}],"name":"modvideo1"},{"primitives":[{"attributes":{"POSITION":21,"NORMAL":22,"TEXCOORD_0":23},"indices":20,"material":5}],"name":"moddikgorsel1"},{"primitives":[{"attributes":{"POSITION":25,"NORMAL":26,"TEXCOORD_0":27},"indices":24,"material":6}],"name":"moddikgorsel2"},{"primitives":[{"attributes":{"POSITION":29,"NORMAL":30,"TEXCOORD_0":31},"indices":28,"material":7}],"name":"moddikgorsel3"},{"primitives":[{"attributes":{"POSITION":33,"NORMAL":34,"TEXCOORD_0":35},"indices":32,"material":8}],"name":"moddikgorsel4"},{"primitives":[{"attributes":{"POSITION":37,"NORMAL":38,"TEXCOORD_0":39},"indices":36,"material":9}],"name":"moddikgorsel5"},{"primitives":[{"attributes":{"POSITION":41,"NORMAL":42,"TEXCOORD_0":43},"indices":40,"material":10}],"name":"moddikgorsel6"},{"primitives":[{"attributes":{"POSITION":45,"NORMAL":46,"TEXCOORD_0":47},"indices":44,"material":11}],"name":"moddikyazi1"},{"primitives":[{"attributes":{"POSITION":49,"NORMAL":50,"TEXCOORD_0":51},"indices":48,"material":12}],"name":"modgenisgorsel"},{"primitives":[{"attributes":{"POSITION":53,"NORMAL":54,"TEXCOORD_0":55},"indices":52,"material":13}],"name":"modlogo5"},{"primitives":[{"attributes":{"POSITION":57,"NORMAL":58,"TEXCOORD_0":59},"indices":56,"material":14}],"name":"modlogo4"},{"primitives":[{"attributes":{"POSITION":61,"NORMAL":62,"TEXCOORD_0":63},"indices":60,"material":15}],"name":"modyazi2"},{"primitives":[{"attributes":{"POSITION":65,"NORMAL":66,"TEXCOORD_0":67},"indices":64,"material":16}],"name":"modlogo3"},{"primitives":[{"attributes":{"POSITION":69,"NORMAL":70,"TEXCOORD_0":71},"indices":68,"material":17}],"name":"modrenk2"},{"primitives":[{"attributes":{"POSITION":73,"NORMAL":74,"TEXCOORD_0":75},"indices":72,"material":18}],"name":"modzemin"},{"primitives":[{"attributes":{"POSITION":77,"NORMAL":78,"TEXCOORD_0":79},"indices":76,"material":19}],"name":"modyazi3"},{"primitives":[{"attributes":{"POSITION":81,"NORMAL":82,"TEXCOORD_0":83},"indices":80,"material":20}],"name":"modyazi4"}],"accessors":[{"bufferView":0,"componentType":5123,"count":1365,"type":"SCALAR","name":"accessorIndices"},{"bufferView":1,"componentType":5126,"count":769,"max":[9.65832,4.22191048,0.280829161],"min":[-0.281349033,0.0,-9.603604],"type":"VEC3","name":"accessorPositions"},{"bufferView":1,"byteOffset":9228,"componentType":5126,"count":769,"type":"VEC3","name":"accessorNormals"},{"bufferView":2,"componentType":5126,"count":769,"type":"VEC2","name":"accessorUVs"},{"bufferView":0,"byteOffset":2732,"componentType":5123,"count":6,"type":"SCALAR","name":"accessorIndices"},{"bufferView":1,"byteOffset":18456,"componentType":5126,"count":4,"max":[0.25,0.0,0.75],"min":[-0.25,0.0,-0.75],"type":"VEC3","name":"accessorPositions"},{"bufferView":1,"byteOffset":18504,"componentType":5126,"count":4,"type":"VEC3","name":"accessorNormals"},{"bufferView":2,"byteOffset":6152,"componentType":5126,"count":4,"type":"VEC2","name":"accessorUVs"},{"bufferView":0,"byteOffset":2744,"componentType":5123,"count":6,"type":"SCALAR","name":"accessorIndices"},{"bufferView":1,"byteOffset":18552,"componentType":5126,"count":4,"max":[1.05,0.0,1.05],"min":[-1.05,0.0,-1.05],"type":"VEC3","name":"accessorPositions"},{"bufferView":1,"byteOffset":18600,"componentType":5126,"count":4,"type":"VEC3","name":"accessorNormals"},{"bufferView":2,"byteOffset":6184,"componentType":5126,"count":4,"type":"VEC2","name":"accessorUVs"},{"bufferView":0,"byteOffset":2756,"componentType":5123,"count":6,"type":"SCALAR","name":"accessorIndices"},{"bufferView":1,"byteOffset":18648,"componentType":5126,"count":4,"max":[1.05,0.0,1.05],"min":[-1.05,0.0,-1.05],"type":"VEC3","name":"accessorPositions"},{"bufferView":1,"byteOffset":18696,"componentType":5126,"count":4,"type":"VEC3","name":"accessorNormals"},{"bufferView":2,"byteOffset":6216,"componentType":5126,"count":4,"type":"VEC2","name":"accessorUVs"},{"bufferView":0,"byteOffset":2768,"componentType":5123,"count":6,"type":"SCALAR","name":"accessorIndices"},{"bufferView":1,"byteOffset":18744,"componentType":5126,"count":4,"max":[0.539999962,0.0,0.96],"min":[-0.539999962,0.0,-0.96],"type":"VEC3","name":"accessorPositions"},{"bufferView":1,"byteOffset":18792,"componentType":5126,"count":4,"type":"VEC3","name":"accessorNormals"},{"bufferView":2,"byteOffset":6248,"componentType":5126,"count":4,"type":"VEC2","name":"accessorUVs"},{"bufferView":0,"byteOffset":2780,"componentType":5123,"count":6,"type":"SCALAR","name":"accessorIndices"},{"bufferView":1,"byteOffset":18840,"componentType":5126,"count":4,"max":[1.05,0.0,1.485],"min":[-1.05,0.0,-1.485],"type":"VEC3","name":"accessorPositions"},{"bufferView":1,"byteOffset":18888,"componentType":5126,"count":4,"type":"VEC3","name":"accessorNormals"},{"bufferView":2,"byteOffset":6280,"componentType":5126,"count":4,"type":"VEC2","name":"accessorUVs"},{"bufferView":0,"byteOffset":2792,"componentType":5123,"count":6,"type":"SCALAR","name":"accessorIndices"},{"bufferView":1,"byteOffset":18936,"componentType":5126,"count":4,"max":[1.05,0.0,1.485],"min":[-1.05,0.0,-1.485],"type":"VEC3","name":"accessorPositions"},{"bufferView":1,"byteOffset":18984,"componentType":5126,"count":4,"type":"VEC3","name":"accessorNormals"},{"bufferView":2,"byteOffset":6312,"componentType":5126,"count":4,"type":"VEC2","name":"accessorUVs"},{"bufferView":0,"byteOffset":2804,"componentType":5123,"count":6,"type":"SCALAR","name":"accessorIndices"},{"bufferView":1,"byteOffset":19032,"componentType":5126,"count":4,"max":[1.05,0.0,1.485],"min":[-1.05,0.0,-1.485],"type":"VEC3","name":"accessorPositions"},{"bufferView":1,"byteOffset":19080,"componentType":5126,"count":4,"type":"VEC3","name":"accessorNormals"},{"bufferView":2,"byteOffset":6344,"componentType":5126,"count":4,"type":"VEC2","name":"accessorUVs"},{"bufferView":0,"byteOffset":2816,"componentType":5123,"count":6,"type":"SCALAR","name":"accessorIndices"},{"bufferView":1,"byteOffset":19128,"componentType":5126,"count":4,"max":[1.05,0.0,1.485],"min":[-1.05,0.0,-1.485],"type":"VEC3","name":"accessorPositions"},{"bufferView":1,"byteOffset":19176,"componentType":5126,"count":4,"type":"VEC3","name":"accessorNormals"},{"bufferView":2,"byteOffset":6376,"componentType":5126,"count":4,"type":"VEC2","name":"accessorUVs"},{"bufferView":0,"byteOffset":2828,"componentType":5123,"count":6,"type":"SCALAR","name":"accessorIndices"},{"bufferView":1,"byteOffset":19224,"componentType":5126,"count":4,"max":[1.05,0.0,1.485],"min":[-1.05,0.0,-1.485],"type":"VEC3","name":"accessorPositions"},{"bufferView":1,"byteOffset":19272,"componentType":5126,"count":4,"type":"VEC3","name":"accessorNormals"},{"bufferView":2,"byteOffset":6408,"componentType":5126,"count":4,"type":"VEC2","name":"accessorUVs"},{"bufferView":0,"byteOffset":2840,"componentType":5123,"count":6,"type":"SCALAR","name":"accessorIndices"},{"bufferView":1,"byteOffset":19320,"componentType":5126,"count":4,"max":[1.05,0.0,1.485],"min":[-1.05,0.0,-1.485],"type":"VEC3","name":"accessorPositions"},{"bufferView":1,"byteOffset":19368,"componentType":5126,"count":4,"type":"VEC3","name":"accessorNormals"},{"bufferView":2,"byteOffset":6440,"componentType":5126,"count":4,"type":"VEC2","name":"accessorUVs"},{"bufferView":0,"byteOffset":2852,"componentType":5123,"count":6,"type":"SCALAR","name":"accessorIndices"},{"bufferView":1,"byteOffset":19416,"componentType":5126,"count":4,"max":[0.25,0.0,0.75],"min":[-0.25,0.0,-0.75],"type":"VEC3","name":"accessorPositions"},{"bufferView":1,"byteOffset":19464,"componentType":5126,"count":4,"type":"VEC3","name":"accessorNormals"},{"bufferView":2,"byteOffset":6472,"componentType":5126,"count":4,"type":"VEC2","name":"accessorUVs"},{"bufferView":0,"byteOffset":2864,"componentType":5123,"count":6,"type":"SCALAR","name":"accessorIndices"},{"bufferView":1,"byteOffset":19512,"componentType":5126,"count":4,"max":[5.027448,8.57239755E-08,1.0449338],"min":[-5.008256,0.0,-3.00606966],"type":"VEC3","name":"accessorPositions"},{"bufferView":1,"byteOffset":19560,"componentType":5126,"count":4,"type":"VEC3","name":"accessorNormals"},{"bufferView":2,"byteOffset":6504,"componentType":5126,"count":4,"type":"VEC2","name":"accessorUVs"},{"bufferView":0,"byteOffset":2876,"componentType":5123,"count":6,"type":"SCALAR","name":"accessorIndices"},{"bufferView":1,"byteOffset":19608,"componentType":5126,"count":4,"max":[1.05,0.0,1.05],"min":[-1.05,0.0,-1.05],"type":"VEC3","name":"accessorPositions"},{"bufferView":1,"byteOffset":19656,"componentType":5126,"count":4,"type":"VEC3","name":"accessorNormals"},{"bufferView":2,"byteOffset":6536,"componentType":5126,"count":4,"type":"VEC2","name":"accessorUVs"},{"bufferView":0,"byteOffset":2888,"componentType":5123,"count":6,"type":"SCALAR","name":"accessorIndices"},{"bufferView":1,"byteOffset":19704,"componentType":5126,"count":4,"max":[1.05,0.0,1.05],"min":[-1.05,0.0,-1.05],"type":"VEC3","name":"accessorPositions"},{"bufferView":1,"byteOffset":19752,"componentType":5126,"count":4,"type":"VEC3","name":"accessorNormals"},{"bufferView":2,"byteOffset":6568,"componentType":5126,"count":4,"type":"VEC2","name":"accessorUVs"},{"bufferView":0,"byteOffset":2900,"componentType":5123,"count":6,"type":"SCALAR","name":"accessorIndices"},{"bufferView":1,"byteOffset":19800,"componentType":5126,"count":4,"max":[0.25,0.0,0.75],"min":[-0.25,0.0,-0.75],"type":"VEC3","name":"accessorPositions"},{"bufferView":1,"byteOffset":19848,"componentType":5126,"count":4,"type":"VEC3","name":"accessorNormals"},{"bufferView":2,"byteOffset":6600,"componentType":5126,"count":4,"type":"VEC2","name":"accessorUVs"},{"bufferView":0,"byteOffset":2912,"componentType":5123,"count":6,"type":"SCALAR","name":"accessorIndices"},{"bufferView":1,"byteOffset":19896,"componentType":5126,"count":4,"max":[1.05,0.0,1.05],"min":[-1.05,0.0,-1.05],"type":"VEC3","name":"accessorPositions"},{"bufferView":1,"byteOffset":19944,"componentType":5126,"count":4,"type":"VEC3","name":"accessorNormals"},{"bufferView":2,"byteOffset":6632,"componentType":5126,"count":4,"type":"VEC2","name":"accessorUVs"},{"bufferView":0,"byteOffset":2924,"componentType":5123,"count":1983,"type":"SCALAR","name":"accessorIndices"},{"bufferView":1,"byteOffset":19992,"componentType":5126,"count":957,"max":[9.876417,4.219454,0.280829161],"min":[-0.2893341,-0.007836151,-9.605212],"type":"VEC3","name":"accessorPositions"},{"bufferView":1,"byteOffset":31476,"componentType":5126,"count":957,"type":"VEC3","name":"accessorNormals"},{"bufferView":2,"byteOffset":6664,"componentType":5126,"count":957,"type":"VEC2","name":"accessorUVs"},{"bufferView":0,"byteOffset":6892,"componentType":5123,"count":96,"type":"SCALAR","name":"accessorIndices"},{"bufferView":1,"byteOffset":42960,"componentType":5126,"count":48,"max":[5.0,1.69999993,0.0250013173],"min":[-5.0,-8.3,-0.0249999985],"type":"VEC3","name":"accessorPositions"},{"bufferView":1,"byteOffset":43536,"componentType":5126,"count":48,"type":"VEC3","name":"accessorNormals"},{"bufferView":2,"byteOffset":14320,"componentType":5126,"count":48,"type":"VEC2","name":"accessorUVs"},{"bufferView":0,"byteOffset":7084,"componentType":5123,"count":6,"type":"SCALAR","name":"accessorIndices"},{"bufferView":1,"byteOffset":44112,"componentType":5126,"count":4,"max":[0.25,0.0,0.75],"min":[-0.25,0.0,-0.75],"type":"VEC3","name":"accessorPositions"},{"bufferView":1,"byteOffset":44160,"componentType":5126,"count":4,"type":"VEC3","name":"accessorNormals"},{"bufferView":2,"byteOffset":14704,"componentType":5126,"count":4,"type":"VEC2","name":"accessorUVs"},{"bufferView":0,"byteOffset":7096,"componentType":5123,"count":6,"type":"SCALAR","name":"accessorIndices"},{"bufferView":1,"byteOffset":44208,"componentType":5126,"count":4,"max":[0.25,0.0,0.75],"min":[-0.25,0.0,-0.75],"type":"VEC3","name":"accessorPositions"},{"bufferView":1,"byteOffset":44256,"componentType":5126,"count":4,"type":"VEC3","name":"accessorNormals"},{"bufferView":2,"byteOffset":14736,"componentType":5126,"count":4,"type":"VEC2","name":"accessorUVs"}],"bufferViews":[{"buffer":0,"byteLength":7108,"name":"bufferViewScalar"},{"buffer":0,"byteOffset":7108,"byteLength":44304,"byteStride":12,"name":"bufferViewFloatVec3"},{"buffer":0,"byteOffset":51412,"byteLength":14768,"byteStride":8,"name":"bufferViewFloatVec2"}],"buffers":[{"uri":"stant20.bin","byteLength":66180}],"materials":[{"pbrMetallicRoughness":{"baseColorFactor":[0.0512395874,0.07913669,0.0512395874,1.0],"metallicFactor":0.0,"metallicRoughnessTexture":{"index":1,"extensions":{"KHR_texture_transform":{"texCoord":0}}}},"normalTexture":{"index":0,"scale":0.3,"extensions":{"KHR_texture_transform":{"texCoord":0}}},"doubleSided":true,"name":"matrenk1","extras":{"babylonSeparateCullingPass":false}},{"pbrMetallicRoughness":{"baseColorTexture":{"index":2,"extensions":{"KHR_texture_transform":{"texCoord":0}}},"metallicFactor":0.0,"roughnessFactor":0.5},"doubleSided":true,"name":"matyazi1","extras":{"babylonSeparateCullingPass":false}},{"pbrMetallicRoughness":{"baseColorTexture":{"index":3,"extensions":{"KHR_texture_transform":{"texCoord":0}}},"metallicFactor":0.0,"roughnessFactor":0.5},"doubleSided":true,"name":"matlogo1","extras":{"babylonSeparateCullingPass":false}},{"pbrMetallicRoughness":{"baseColorTexture":{"index":4,"extensions":{"KHR_texture_transform":{"texCoord":0}}},"metallicFactor":0.0,"roughnessFactor":0.5},"doubleSided":true,"name":"matlogo2","extras":{"babylonSeparateCullingPass":false}},{"pbrMetallicRoughness":{"baseColorTexture":{"index":5,"extensions":{"KHR_texture_transform":{"texCoord":0}}},"metallicFactor":0.0,"roughnessFactor":0.5},"doubleSided":true,"name":"matvideo1","extras":{"babylonSeparateCullingPass":false}},{"pbrMetallicRoughness":{"baseColorTexture":{"index":6,"extensions":{"KHR_texture_transform":{"texCoord":0}}},"metallicFactor":0.0,"roughnessFactor":0.5},"doubleSided":true,"name":"matdikgorsel1","extras":{"babylonSeparateCullingPass":false}},{"pbrMetallicRoughness":{"baseColorTexture":{"index":7,"extensions":{"KHR_texture_transform":{"texCoord":0}}},"metallicFactor":0.0,"roughnessFactor":0.5},"doubleSided":true,"name":"matdikgorsel2","extras":{"babylonSeparateCullingPass":false}},{"pbrMetallicRoughness":{"baseColorTexture":{"index":8,"extensions":{"KHR_texture_transform":{"texCoord":0}}},"metallicFactor":0.0,"roughnessFactor":0.5},"doubleSided":true,"name":"matdikgorsel3","extras":{"babylonSeparateCullingPass":false}},{"pbrMetallicRoughness":{"baseColorTexture":{"index":9,"extensions":{"KHR_texture_transform":{"texCoord":0}}},"metallicFactor":0.0,"roughnessFactor":0.5},"doubleSided":true,"name":"matdikgorsel4","extras":{"babylonSeparateCullingPass":false}},{"pbrMetallicRoughness":{"baseColorTexture":{"index":10,"extensions":{"KHR_texture_transform":{"texCoord":0}}},"metallicFactor":0.0,"roughnessFactor":0.5},"doubleSided":true,"name":"matdikgorsel5","extras":{"babylonSeparateCullingPass":false}},{"pbrMetallicRoughness":{"baseColorTexture":{"index":11,"extensions":{"KHR_texture_transform":{"texCoord":0}}},"metallicFactor":0.0,"roughnessFactor":0.5},"doubleSided":true,"name":"matdikgorsel6","extras":{"babylonSeparateCullingPass":false}},{"pbrMetallicRoughness":{"baseColorTexture":{"index":12,"extensions":{"KHR_texture_transform":{"texCoord":0}}},"metallicFactor":0.0,"roughnessFactor":0.5},"doubleSided":true,"name":"matdikyazi1","extras":{"babylonSeparateCullingPass":false}},{"pbrMetallicRoughness":{"baseColorTexture":{"index":13,"extensions":{"KHR_texture_transform":{"texCoord":0}}},"metallicFactor":0.0,"roughnessFactor":0.5},"name":"matgenisgorsel","extras":{"babylonSeparateCullingPass":false}},{"pbrMetallicRoughness":{"baseColorTexture":{"index":14,"extensions":{"KHR_texture_transform":{"texCoord":0}}},"metallicFactor":0.0,"roughnessFactor":0.5},"doubleSided":true,"name":"matlogo5","extras":{"babylonSeparateCullingPass":false}},{"pbrMetallicRoughness":{"baseColorTexture":{"index":15,"extensions":{"KHR_texture_transform":{"texCoord":0}}},"metallicFactor":0.0,"roughnessFactor":0.5},"doubleSided":true,"name":"matlogo4","extras":{"babylonSeparateCullingPass":false}},{"pbrMetallicRoughness":{"baseColorTexture":{"index":16,"extensions":{"KHR_texture_transform":{"texCoord":0}}},"metallicFactor":0.0,"roughnessFactor":0.5},"doubleSided":true,"name":"matyazi2","extras":{"babylonSeparateCullingPass":false}},{"pbrMetallicRoughness":{"baseColorTexture":{"index":17,"extensions":{"KHR_texture_transform":{"texCoord":0}}},"metallicFactor":0.0,"roughnessFactor":0.5},"doubleSided":true,"name":"matlogo3","extras":{"babylonSeparateCullingPass":false}},{"pbrMetallicRoughness":{"baseColorFactor":[0.254901975,0.0431372561,0.0431372561,1.0],"metallicFactor":0.0,"metallicRoughnessTexture":{"index":1,"extensions":{"KHR_texture_transform":{"texCoord":0}}}},"normalTexture":{"index":0,"scale":0.3,"extensions":{"KHR_texture_transform":{"texCoord":0}}},"doubleSided":true,"name":"matrenk2","extras":{"babylonSeparateCullingPass":false}},{"pbrMetallicRoughness":{"baseColorFactor":[0.509803951,0.509803951,0.509803951,1.0],"metallicFactor":0.0,"metallicRoughnessTexture":{"index":1,"extensions":{"KHR_texture_transform":{"texCoord":0}}}},"normalTexture":{"index":0,"scale":0.3,"extensions":{"KHR_texture_transform":{"texCoord":0}}},"doubleSided":true,"name":"matzemin","extras":{"babylonSeparateCullingPass":false}},{"pbrMetallicRoughness":{"baseColorTexture":{"index":22,"extensions":{"KHR_texture_transform":{"texCoord":0}}},"metallicFactor":0.0,"roughnessFactor":0.5},"doubleSided":true,"name":"matyazi3","extras":{"babylonSeparateCullingPass":false}},{"pbrMetallicRoughness":{"baseColorTexture":{"index":23,"extensions":{"KHR_texture_transform":{"texCoord":0}}},"metallicFactor":0.0,"roughnessFactor":0.5},"doubleSided":true,"name":"matyazi4","extras":{"babylonSeparateCullingPass":false}}],"textures":[{"sampler":0,"source":0,"name":"matrenknormal.png"},{"sampler":0,"source":1,"name":"matrenkroughness0.png"},{"sampler":0,"source":2,"name":"matyazi1.png"},{"sampler":0,"source":3,"name":"matlogo1.png"},{"sampler":0,"source":4,"name":"matlogo2.png"},{"sampler":0,"source":5,"name":"matvideo1.png"},{"sampler":0,"source":6,"name":"matdikgorsel1.png"},{"sampler":0,"source":7,"name":"matdikgorsel2.png"},{"sampler":0,"source":8,"name":"matdikgorsel3.png"},{"sampler":0,"source":9,"name":"matdikgorsel4.png"},{"sampler":0,"source":10,"name":"matdikgorsel5.png"},{"sampler":0,"source":11,"name":"matdikgorsel6.png"},{"sampler":0,"source":12,"name":"matdikyazi1.png"},{"sampler":0,"source":13,"name":"matgenisgorsel.png"},{"sampler":0,"source":14,"name":"matlogo5.png"},{"sampler":0,"source":15,"name":"matlogo4.png"},{"sampler":0,"source":16,"name":"matyazi2.png"},{"sampler":0,"source":17,"name":"matlogo3.png"},{"sampler":0,"source":0,"name":"matrenknormal.png"},{"sampler":0,"source":1,"name":"matrenkroughness0.png"},{"sampler":0,"source":0,"name":"matrenknormal.png"},{"sampler":0,"source":1,"name":"matrenkroughness0.png"},{"sampler":0,"source":18,"name":"matyazi3.png"},{"sampler":0,"source":19,"name":"matyazi4.png"}],"images":[{"uri":"./matrenknormal.png"},{"uri":"./matrenkroughness0.png"},{"uri":"./matyazi1.png"},{"uri":"./matlogo1.png"},{"uri":"./matlogo2.png"},{"uri":"./matvideo1.png"},{"uri":"./matdikgorsel1.png"},{"uri":"./matdikgorsel2.png"},{"uri":"./matdikgorsel3.png"},{"uri":"./matdikgorsel4.png"},{"uri":"./matdikgorsel5.png"},{"uri":"./matdikgorsel6.png"},{"uri":"./matdikyazi1.png"},{"uri":"./matgenisgorsel.png"},{"uri":"./matlogo5.png"},{"uri":"./matlogo4.png"},{"uri":"./matyazi2.png"},{"uri":"./matlogo3.png"},{"uri":"./matyazi3.png"},{"uri":"./matyazi4.png"}],"samplers":[{"magFilter":9729,"minFilter":9987}]}