{"asset":{"version":"2.0","generator":"babylon.js glTF exporter for 3dsmax 2018 v20210615.1"},"extensionsUsed":["KHR_texture_transform"],"extensionsRequired":["KHR_texture_transform"],"scene":0,"scenes":[{"nodes":[0]}],"nodes":[{"children":[1,2,3,4,5,6,7,8,9,10,11,12,13,14,15,16],"translation":[3.0517576E-08,0.0,4.43421939E-08],"scale":[0.099999994,0.099999994,0.099999994],"name":"Group001"},{"mesh":0,"translation":[2.763854,0.05000122,-0.006463509],"name":"modrenk2"},{"mesh":1,"translation":[4.95037,2.43283677,2.80025077],"rotation":[0.5,0.5,-0.49999997,0.50000006],"scale":[1.222525,1.222525,1.222525],"name":"moddikgorsel7"},{"mesh":2,"translation":[4.813131,1.25115681,-0.5489966],"rotation":[0.0,0.0,0.7071068,0.7071067],"scale":[0.570967,0.570967,0.570967],"name":"moddikgorsel4"},{"mesh":3,"translation":[4.813131,1.25115681,-2.05182433],"rotation":[0.0,0.0,0.7071068,0.7071067],"scale":[0.570967,0.570967,0.570967],"name":"moddikgorsel5"},{"mesh":4,"translation":[4.813131,1.25115681,-3.53705883],"rotation":[0.0,0.0,0.7071068,0.7071067],"scale":[0.570967,0.570967,0.570967],"name":"moddikgorsel6"},{"mesh":5,"translation":[4.813131,3.180138,-0.5489966],"rotation":[0.0,0.0,0.7071068,0.7071067],"scale":[0.570967,0.570967,0.570967],"name":"moddikgorsel3"},{"mesh":6,"translation":[4.813131,3.180138,-2.05182433],"rotation":[0.0,0.0,0.7071068,0.7071067],"scale":[0.570967,0.570967,0.570967],"name":"moddikgorsel2"},{"mesh":7,"translation":[4.813131,3.180138,-3.53705883],"rotation":[0.0,0.0,0.7071068,0.7071067],"scale":[0.570967,0.570967,0.570967],"name":"moddikgorsel1"},{"mesh":8,"translation":[5.02885866,2.26101756,-1.95387411],"rotation":[-0.7071067,-0.7071068,3.48241144E-07,3.482412E-07],"scale":[1.69262469,1.69262469,1.69262469],"name":"modlogo4"},{"mesh":9,"translation":[-3.44182944,2.272659,-4.95905924],"rotation":[-0.499999821,-0.499999642,0.5000002,0.500000358],"scale":[1.28779936,1.28779936,1.28779936],"name":"modlogo3"},{"mesh":10,"translation":[-3.043574,1.77201033,2.93896651],"rotation":[0.0,0.0,0.7071068,0.7071067],"scale":[1.85208535,1.85208535,1.85208535],"name":"modyazi1"},{"mesh":11,"translation":[3.86602783,3.38387752,5.00646257],"rotation":[-0.500000238,-0.500000358,-0.4999998,-0.499999732],"scale":[0.879403949,0.879403949,0.879403949],"name":"modlogo2"},{"mesh":12,"translation":[-5.02886,0.6269548,4.007115],"rotation":[0.0,0.0,0.7071068,0.7071067],"scale":[0.481749415,0.481749415,0.481749415],"name":"modlogo1"},{"mesh":13,"translation":[-3.11353183,2.2188735,-4.56357145],"rotation":[-0.5000002,-0.50000006,-0.499999821,-0.5],"scale":[1.23902762,1.23902762,1.23902762],"name":"modvideo1"},{"mesh":14,"translation":[-3.223998,0.08000122,-4.758522],"name":"modrenk1"},{"mesh":15,"translation":[-0.0272641778,0.05000122,-0.006463509],"name":"modahsap"}],"meshes":[{"primitives":[{"attributes":{"POSITION":1,"NORMAL":2,"TEXCOORD_0":3},"indices":0,"material":0}],"name":"modrenk2"},{"primitives":[{"attributes":{"POSITION":5,"NORMAL":6,"TEXCOORD_0":7},"indices":4,"material":1}],"name":"moddikgorsel7"},{"primitives":[{"attributes":{"POSITION":9,"NORMAL":10,"TEXCOORD_0":11},"indices":8,"material":2}],"name":"moddikgorsel4"},{"primitives":[{"attributes":{"POSITION":13,"NORMAL":14,"TEXCOORD_0":15},"indices":12,"material":3}],"name":"moddikgorsel5"},{"primitives":[{"attributes":{"POSITION":17,"NORMAL":18,"TEXCOORD_0":19},"indices":16,"material":4}],"name":"moddikgorsel6"},{"primitives":[{"attributes":{"POSITION":21,"NORMAL":22,"TEXCOORD_0":23},"indices":20,"material":5}],"name":"moddikgorsel3"},{"primitives":[{"attributes":{"POSITION":25,"NORMAL":26,"TEXCOORD_0":27},"indices":24,"material":6}],"name":"moddikgorsel2"},{"primitives":[{"attributes":{"POSITION":29,"NORMAL":30,"TEXCOORD_0":31},"indices":28,"material":7}],"name":"moddikgorsel1"},{"primitives":[{"attributes":{"POSITION":33,"NORMAL":34,"TEXCOORD_0":35},"indices":32,"material":8}],"name":"modlogo4"},{"primitives":[{"attributes":{"POSITION":37,"NORMAL":38,"TEXCOORD_0":39},"indices":36,"material":9}],"name":"modlogo3"},{"primitives":[{"attributes":{"POSITION":41,"NORMAL":42,"TEXCOORD_0":43},"indices":40,"material":10}],"name":"modyazi1"},{"primitives":[{"attributes":{"POSITION":45,"NORMAL":46,"TEXCOORD_0":47},"indices":44,"material":11}],"name":"modlogo2"},{"primitives":[{"attributes":{"POSITION":49,"NORMAL":50,"TEXCOORD_0":51},"indices":48,"material":12}],"name":"modlogo1"},{"primitives":[{"attributes":{"POSITION":53,"NORMAL":54,"TEXCOORD_0":55},"indices":52,"material":13}],"name":"modvideo1"},{"primitives":[{"attributes":{"POSITION":57,"NORMAL":58,"TEXCOORD_0":59},"indices":56,"material":14}],"name":"modrenk1"},{"primitives":[{"attributes":{"POSITION":61,"NORMAL":62,"TEXCOORD_0":63},"indices":60,"material":15}],"name":"modahsap"}],"accessors":[{"bufferView":0,"componentType":5123,"count":846,"type":"SCALAR","name":"accessorIndices"},{"bufferView":1,"componentType":5126,"count":508,"max":[2.212558,4.52999973,4.989735],"min":[-7.780642,-0.049999997,-5.0],"type":"VEC3","name":"accessorPositions"},{"bufferView":1,"byteOffset":6096,"componentType":5126,"count":508,"type":"VEC3","name":"accessorNormals"},{"bufferView":2,"componentType":5126,"count":508,"type":"VEC2","name":"accessorUVs"},{"bufferView":0,"byteOffset":1692,"componentType":5123,"count":6,"type":"SCALAR","name":"accessorIndices"},{"bufferView":1,"byteOffset":12192,"componentType":5126,"count":4,"max":[1.05,0.0,1.485],"min":[-1.05,0.0,-1.485],"type":"VEC3","name":"accessorPositions"},{"bufferView":1,"byteOffset":12240,"componentType":5126,"count":4,"type":"VEC3","name":"accessorNormals"},{"bufferView":2,"byteOffset":4064,"componentType":5126,"count":4,"type":"VEC2","name":"accessorUVs"},{"bufferView":0,"byteOffset":1704,"componentType":5123,"count":6,"type":"SCALAR","name":"accessorIndices"},{"bufferView":1,"byteOffset":12288,"componentType":5126,"count":4,"max":[1.485,0.0,1.05],"min":[-1.485,0.0,-1.05],"type":"VEC3","name":"accessorPositions"},{"bufferView":1,"byteOffset":12336,"componentType":5126,"count":4,"type":"VEC3","name":"accessorNormals"},{"bufferView":2,"byteOffset":4096,"componentType":5126,"count":4,"type":"VEC2","name":"accessorUVs"},{"bufferView":0,"byteOffset":1716,"componentType":5123,"count":6,"type":"SCALAR","name":"accessorIndices"},{"bufferView":1,"byteOffset":12384,"componentType":5126,"count":4,"max":[1.485,0.0,1.05],"min":[-1.485,0.0,-1.05],"type":"VEC3","name":"accessorPositions"},{"bufferView":1,"byteOffset":12432,"componentType":5126,"count":4,"type":"VEC3","name":"accessorNormals"},{"bufferView":2,"byteOffset":4128,"componentType":5126,"count":4,"type":"VEC2","name":"accessorUVs"},{"bufferView":0,"byteOffset":1728,"componentType":5123,"count":6,"type":"SCALAR","name":"accessorIndices"},{"bufferView":1,"byteOffset":12480,"componentType":5126,"count":4,"max":[1.485,0.0,1.05],"min":[-1.485,0.0,-1.05],"type":"VEC3","name":"accessorPositions"},{"bufferView":1,"byteOffset":12528,"componentType":5126,"count":4,"type":"VEC3","name":"accessorNormals"},{"bufferView":2,"byteOffset":4160,"componentType":5126,"count":4,"type":"VEC2","name":"accessorUVs"},{"bufferView":0,"byteOffset":1740,"componentType":5123,"count":6,"type":"SCALAR","name":"accessorIndices"},{"bufferView":1,"byteOffset":12576,"componentType":5126,"count":4,"max":[1.485,0.0,1.05],"min":[-1.485,0.0,-1.05],"type":"VEC3","name":"accessorPositions"},{"bufferView":1,"byteOffset":12624,"componentType":5126,"count":4,"type":"VEC3","name":"accessorNormals"},{"bufferView":2,"byteOffset":4192,"componentType":5126,"count":4,"type":"VEC2","name":"accessorUVs"},{"bufferView":0,"byteOffset":1752,"componentType":5123,"count":6,"type":"SCALAR","name":"accessorIndices"},{"bufferView":1,"byteOffset":12672,"componentType":5126,"count":4,"max":[1.485,0.0,1.05],"min":[-1.485,0.0,-1.05],"type":"VEC3","name":"accessorPositions"},{"bufferView":1,"byteOffset":12720,"componentType":5126,"count":4,"type":"VEC3","name":"accessorNormals"},{"bufferView":2,"byteOffset":4224,"componentType":5126,"count":4,"type":"VEC2","name":"accessorUVs"},{"bufferView":0,"byteOffset":1764,"componentType":5123,"count":6,"type":"SCALAR","name":"accessorIndices"},{"bufferView":1,"byteOffset":12768,"componentType":5126,"count":4,"max":[1.485,0.0,1.05],"min":[-1.485,0.0,-1.05],"type":"VEC3","name":"accessorPositions"},{"bufferView":1,"byteOffset":12816,"componentType":5126,"count":4,"type":"VEC3","name":"accessorNormals"},{"bufferView":2,"byteOffset":4256,"componentType":5126,"count":4,"type":"VEC2","name":"accessorUVs"},{"bufferView":0,"byteOffset":1776,"componentType":5123,"count":6,"type":"SCALAR","name":"accessorIndices"},{"bufferView":1,"byteOffset":12864,"componentType":5126,"count":4,"max":[1.05,0.0,1.05],"min":[-1.05,0.0,-1.05],"type":"VEC3","name":"accessorPositions"},{"bufferView":1,"byteOffset":12912,"componentType":5126,"count":4,"type":"VEC3","name":"accessorNormals"},{"bufferView":2,"byteOffset":4288,"componentType":5126,"count":4,"type":"VEC2","name":"accessorUVs"},{"bufferView":0,"byteOffset":1788,"componentType":5123,"count":6,"type":"SCALAR","name":"accessorIndices"},{"bufferView":1,"byteOffset":12960,"componentType":5126,"count":4,"max":[1.05,0.0,1.05],"min":[-1.05,0.0,-1.05],"type":"VEC3","name":"accessorPositions"},{"bufferView":1,"byteOffset":13008,"componentType":5126,"count":4,"type":"VEC3","name":"accessorNormals"},{"bufferView":2,"byteOffset":4320,"componentType":5126,"count":4,"type":"VEC2","name":"accessorUVs"},{"bufferView":0,"byteOffset":1800,"componentType":5123,"count":6,"type":"SCALAR","name":"accessorIndices"},{"bufferView":1,"byteOffset":13056,"componentType":5126,"count":4,"max":[0.25,0.0,0.75],"min":[-0.25,0.0,-0.75],"type":"VEC3","name":"accessorPositions"},{"bufferView":1,"byteOffset":13104,"componentType":5126,"count":4,"type":"VEC3","name":"accessorNormals"},{"bufferView":2,"byteOffset":4352,"componentType":5126,"count":4,"type":"VEC2","name":"accessorUVs"},{"bufferView":0,"byteOffset":1812,"componentType":5123,"count":6,"type":"SCALAR","name":"accessorIndices"},{"bufferView":1,"byteOffset":13152,"componentType":5126,"count":4,"max":[1.05,0.0,1.05],"min":[-1.05,0.0,-1.05],"type":"VEC3","name":"accessorPositions"},{"bufferView":1,"byteOffset":13200,"componentType":5126,"count":4,"type":"VEC3","name":"accessorNormals"},{"bufferView":2,"byteOffset":4384,"componentType":5126,"count":4,"type":"VEC2","name":"accessorUVs"},{"bufferView":0,"byteOffset":1824,"componentType":5123,"count":6,"type":"SCALAR","name":"accessorIndices"},{"bufferView":1,"byteOffset":13248,"componentType":5126,"count":4,"max":[1.05,0.0,1.05],"min":[-1.05,0.0,-1.05],"type":"VEC3","name":"accessorPositions"},{"bufferView":1,"byteOffset":13296,"componentType":5126,"count":4,"type":"VEC3","name":"accessorNormals"},{"bufferView":2,"byteOffset":4416,"componentType":5126,"count":4,"type":"VEC2","name":"accessorUVs"},{"bufferView":0,"byteOffset":1836,"componentType":5123,"count":6,"type":"SCALAR","name":"accessorIndices"},{"bufferView":1,"byteOffset":13344,"componentType":5126,"count":4,"max":[0.539999962,0.0,0.96],"min":[-0.539999962,0.0,-0.96],"type":"VEC3","name":"accessorPositions"},{"bufferView":1,"byteOffset":13392,"componentType":5126,"count":4,"type":"VEC3","name":"accessorNormals"},{"bufferView":2,"byteOffset":4448,"componentType":5126,"count":4,"type":"VEC2","name":"accessorUVs"},{"bufferView":0,"byteOffset":1848,"componentType":5123,"count":351,"type":"SCALAR","name":"accessorIndices"},{"bufferView":1,"byteOffset":13440,"componentType":5126,"count":199,"max":[8.196293,4.5,9.754273],"min":[-1.79278851,-0.0320514627,-0.19700256],"type":"VEC3","name":"accessorPositions"},{"bufferView":1,"byteOffset":15828,"componentType":5126,"count":199,"type":"VEC3","name":"accessorNormals"},{"bufferView":2,"byteOffset":4480,"componentType":5126,"count":199,"type":"VEC2","name":"accessorUVs"},{"bufferView":0,"byteOffset":2552,"componentType":5123,"count":192,"type":"SCALAR","name":"accessorIndices"},{"bufferView":1,"byteOffset":18216,"componentType":5126,"count":116,"max":[4.98987246,0.0,5.0033865],"min":[-5.0,-0.049999997,-5.0],"type":"VEC3","name":"accessorPositions"},{"bufferView":1,"byteOffset":19608,"componentType":5126,"count":116,"type":"VEC3","name":"accessorNormals"},{"bufferView":2,"byteOffset":6072,"componentType":5126,"count":116,"type":"VEC2","name":"accessorUVs"}],"bufferViews":[{"buffer":0,"byteLength":2936,"name":"bufferViewScalar"},{"buffer":0,"byteOffset":2936,"byteLength":21000,"byteStride":12,"name":"bufferViewFloatVec3"},{"buffer":0,"byteOffset":23936,"byteLength":7000,"byteStride":8,"name":"bufferViewFloatVec2"}],"buffers":[{"uri":"stant36.bin","byteLength":30936}],"materials":[{"pbrMetallicRoughness":{"baseColorFactor":[0.56078434,0.498039246,0.5686275,1.0],"metallicFactor":0.0,"metallicRoughnessTexture":{"index":1,"extensions":{"KHR_texture_transform":{"texCoord":0}}}},"normalTexture":{"index":0,"scale":0.3,"extensions":{"KHR_texture_transform":{"texCoord":0}}},"doubleSided":true,"name":"matrenk2","extras":{"babylonSeparateCullingPass":false}},{"pbrMetallicRoughness":{"baseColorTexture":{"index":2,"extensions":{"KHR_texture_transform":{"texCoord":0}}},"metallicFactor":0.0,"roughnessFactor":0.5},"name":"matdikgorsel7","extras":{"babylonSeparateCullingPass":false}},{"pbrMetallicRoughness":{"baseColorTexture":{"index":3,"extensions":{"KHR_texture_transform":{"texCoord":0}}},"metallicFactor":0.0,"roughnessFactor":0.5},"doubleSided":true,"name":"matdikgorsel4","extras":{"babylonSeparateCullingPass":false}},{"pbrMetallicRoughness":{"baseColorTexture":{"index":4,"extensions":{"KHR_texture_transform":{"texCoord":0}}},"metallicFactor":0.0,"roughnessFactor":0.5},"doubleSided":true,"name":"matdikgorsel5","extras":{"babylonSeparateCullingPass":false}},{"pbrMetallicRoughness":{"baseColorTexture":{"index":5,"extensions":{"KHR_texture_transform":{"texCoord":0}}},"metallicFactor":0.0,"roughnessFactor":0.5},"doubleSided":true,"name":"matdikgorsel6","extras":{"babylonSeparateCullingPass":false}},{"pbrMetallicRoughness":{"baseColorTexture":{"index":6,"extensions":{"KHR_texture_transform":{"texCoord":0}}},"metallicFactor":0.0,"roughnessFactor":0.5},"doubleSided":true,"name":"matdikgorsel3","extras":{"babylonSeparateCullingPass":false}},{"pbrMetallicRoughness":{"baseColorTexture":{"index":7,"extensions":{"KHR_texture_transform":{"texCoord":0}}},"metallicFactor":0.0,"roughnessFactor":0.5},"doubleSided":true,"name":"matdikgorsel2","extras":{"babylonSeparateCullingPass":false}},{"pbrMetallicRoughness":{"baseColorTexture":{"index":8,"extensions":{"KHR_texture_transform":{"texCoord":0}}},"metallicFactor":0.0,"roughnessFactor":0.5},"doubleSided":true,"name":"matdikgorsel1","extras":{"babylonSeparateCullingPass":false}},{"pbrMetallicRoughness":{"baseColorTexture":{"index":9,"extensions":{"KHR_texture_transform":{"texCoord":0}}},"metallicFactor":0.0,"roughnessFactor":0.5},"doubleSided":true,"name":"matlogo4","extras":{"babylonSeparateCullingPass":false}},{"pbrMetallicRoughness":{"baseColorTexture":{"index":10,"extensions":{"KHR_texture_transform":{"texCoord":0}}},"metallicFactor":0.0,"roughnessFactor":0.5},"doubleSided":true,"name":"matlogo3","extras":{"babylonSeparateCullingPass":false}},{"pbrMetallicRoughness":{"baseColorTexture":{"index":11,"extensions":{"KHR_texture_transform":{"texCoord":0}}},"metallicFactor":0.0,"roughnessFactor":0.5},"name":"matyazi1","extras":{"babylonSeparateCullingPass":false}},{"pbrMetallicRoughness":{"baseColorTexture":{"index":12,"extensions":{"KHR_texture_transform":{"texCoord":0}}},"metallicFactor":0.0,"roughnessFactor":0.5},"doubleSided":true,"name":"matlogo2","extras":{"babylonSeparateCullingPass":false}},{"pbrMetallicRoughness":{"baseColorTexture":{"index":13,"extensions":{"KHR_texture_transform":{"texCoord":0}}},"metallicFactor":0.0,"roughnessFactor":0.5},"doubleSided":true,"name":"matlogo1","extras":{"babylonSeparateCullingPass":false}},{"pbrMetallicRoughness":{"baseColorTexture":{"index":14,"extensions":{"KHR_texture_transform":{"texCoord":0}}},"metallicFactor":0.0,"roughnessFactor":0.5},"doubleSided":true,"name":"matvideo1","extras":{"babylonSeparateCullingPass":false}},{"pbrMetallicRoughness":{"baseColorFactor":[0.06163243,0.0403705835,0.09352518,1.0],"metallicFactor":0.0,"metallicRoughnessTexture":{"index":1,"extensions":{"KHR_texture_transform":{"texCoord":0}}}},"normalTexture":{"index":0,"scale":0.3,"extensions":{"KHR_texture_transform":{"texCoord":0}}},"doubleSided":true,"name":"matrenk1","extras":{"babylonSeparateCullingPass":false}},{"pbrMetallicRoughness":{"baseColorTexture":{"index":17,"extensions":{"KHR_texture_transform":{"texCoord":0}}},"metallicFactor":0.0,"metallicRoughnessTexture":{"index":18,"extensions":{"KHR_texture_transform":{"texCoord":0}}}},"doubleSided":true,"name":"matahsap","extras":{"babylonSeparateCullingPass":false}}],"textures":[{"sampler":0,"source":0,"name":"matrenknormal.png"},{"sampler":0,"source":1,"name":"matrenkroughness0.png"},{"sampler":0,"source":2,"name":"matdikgorsel7.png"},{"sampler":0,"source":3,"name":"matdikgorsel4.png"},{"sampler":0,"source":4,"name":"matdikgorsel5.png"},{"sampler":0,"source":5,"name":"matdikgorsel6.png"},{"sampler":0,"source":6,"name":"matdikgorsel3.png"},{"sampler":0,"source":7,"name":"matdikgorsel2.png"},{"sampler":0,"source":8,"name":"matdikgorsel1.png"},{"sampler":0,"source":9,"name":"matlogo4.png"},{"sampler":0,"source":10,"name":"matlogo3.png"},{"sampler":0,"source":11,"name":"matyazi1.png"},{"sampler":0,"source":12,"name":"matlogo2.png"},{"sampler":0,"source":13,"name":"matlogo1.png"},{"sampler":0,"source":14,"name":"matvideo1.png"},{"sampler":0,"source":0,"name":"matrenknormal.png"},{"sampler":0,"source":1,"name":"matrenkroughness0.png"},{"sampler":0,"source":15,"name":"matahsap.png"},{"sampler":0,"source":16,"name":"matahsaproughness0.png"}],"images":[{"uri":"./matrenknormal.png"},{"uri":"./matrenkroughness0.png"},{"uri":"./matdikgorsel7.png"},{"uri":"./matdikgorsel4.png"},{"uri":"./matdikgorsel5.png"},{"uri":"./matdikgorsel6.png"},{"uri":"./matdikgorsel3.png"},{"uri":"./matdikgorsel2.png"},{"uri":"./matdikgorsel1.png"},{"uri":"./matlogo4.png"},{"uri":"./matlogo3.png"},{"uri":"./matyazi1.png"},{"uri":"./matlogo2.png"},{"uri":"./matlogo1.png"},{"uri":"./matvideo1.png"},{"uri":"./matahsap.png"},{"uri":"./matahsaproughness0.png"}],"samplers":[{"magFilter":9729,"minFilter":9987}]}