{"asset":{"version":"2.0","generator":"babylon.js glTF exporter for 3dsmax 2018 v20210615.1"},"extensionsUsed":["KHR_texture_transform"],"extensionsRequired":["KHR_texture_transform"],"scene":0,"scenes":[{"nodes":[0]}],"nodes":[{"children":[1,2,3,4,5,6,7,8,9,10,11,12,13,14,15,16],"rotation":[0.0,-0.7071067,0.0,0.7071068],"scale":[0.099999994,0.099999994,0.099999994],"name":"Group001"},{"mesh":0,"translation":[-1.72234571,3.05175774E-07,-7.514026],"name":"modrenk1"},{"mesh":1,"translation":[2.42912173,1.83759713,-4.53163671],"rotation":[0.7071068,4.96092162E-15,-4.96092078E-15,0.7071067],"scale":[2.02555,2.02555,2.02555],"name":"moddikyazi1"},{"mesh":2,"translation":[-3.462371,4.62535048,-4.881921],"rotation":[0.7071067,-3.09086161E-08,0.7071068,-3.090862E-08],"scale":[1.0,1.0,0.3041757],"name":"modahsap2"},{"mesh":3,"translation":[3.09554076,2.19931722,-1.85666418],"rotation":[-0.5,-0.50000006,-0.50000006,0.49999997],"scale":[0.610295653,0.610295653,0.610295653],"name":"moddikgorsel3"},{"mesh":4,"translation":[0.0356642939,1.81445873,2.62609315],"rotation":[0.5,-0.5,-0.5,0.5],"scale":[0.8477457,0.8477457,0.8477457],"name":"modvideo1"},{"mesh":5,"translation":[0.06525695,0.611753047,-1.750255],"rotation":[0.5,-0.5,-0.5,0.5],"scale":[0.458416164,0.458416164,0.458416164],"name":"modlogo1"},{"mesh":6,"translation":[-2.95771456,2.19931722,-1.87629008],"rotation":[-0.5,-0.50000006,-0.50000006,0.49999997],"scale":[0.610295653,0.610295653,0.610295653],"name":"moddikgorsel1"},{"mesh":7,"translation":[-3.07111716,2.19931722,-1.87629008],"rotation":[-0.5,0.49999994,0.50000006,0.5],"scale":[0.610295653,0.610295653,0.610295653],"name":"moddikgorsel4"},{"mesh":8,"translation":[2.97671556,2.19931722,-1.87629008],"rotation":[-0.5,0.49999994,0.50000006,0.5],"scale":[0.610295653,0.610295653,0.610295653],"name":"moddikgorsel2"},{"mesh":9,"translation":[-0.05722092,1.81215119,2.0045228],"rotation":[-0.50000006,0.5,-0.49999994,0.5],"scale":[0.43249324,0.43249324,0.43249324],"name":"modlogo2"},{"mesh":10,"translation":[-4.105576,2.14782429,-4.751353],"rotation":[2.613133E-07,0.7071067,0.7071068,-1.99496029E-07],"scale":[0.6634372,0.6634372,0.6634372],"name":"moddikgorsel6"},{"mesh":11,"translation":[4.13652229,2.14782429,-4.75135231],"rotation":[2.613133E-07,0.7071067,0.7071068,-1.99496029E-07],"scale":[0.6634372,0.6634372,0.6634372],"name":"moddikgorsel5"},{"mesh":12,"translation":[-3.366927,2.246594,-4.906131],"rotation":[-0.50000006,0.5,-0.49999994,0.5],"scale":[1.27005339,1.27005339,1.27005339],"name":"modlogo3"},{"mesh":13,"translation":[3.48148942,2.246594,-4.906131],"rotation":[-0.50000006,0.5,-0.49999994,0.5],"scale":[1.27005339,1.27005339,1.27005339],"name":"modgorsel1"},{"mesh":14,"translation":[-2.39459133,1.83759713,-4.53163767],"rotation":[0.7071068,4.96092162E-15,-4.96092078E-15,0.7071067],"scale":[2.02555,2.02555,2.02555],"name":"moddikyazi2"},{"mesh":15,"translation":[0.173578218,3.05175774E-07,2.242742],"name":"modrenk2"}],"meshes":[{"primitives":[{"attributes":{"POSITION":1,"NORMAL":2,"TEXCOORD_0":3},"indices":0,"material":0}],"name":"modrenk1"},{"primitives":[{"attributes":{"POSITION":5,"NORMAL":6,"TEXCOORD_0":7},"indices":4,"material":1}],"name":"moddikyazi1"},{"primitives":[{"attributes":{"POSITION":9,"NORMAL":10,"TEXCOORD_0":11},"indices":8,"material":2}],"name":"modahsap2"},{"primitives":[{"attributes":{"POSITION":13,"NORMAL":14,"TEXCOORD_0":15},"indices":12,"material":3}],"name":"moddikgorsel3"},{"primitives":[{"attributes":{"POSITION":17,"NORMAL":18,"TEXCOORD_0":19},"indices":16,"material":4}],"name":"modvideo1"},{"primitives":[{"attributes":{"POSITION":21,"NORMAL":22,"TEXCOORD_0":23},"indices":20,"material":5}],"name":"modlogo1"},{"primitives":[{"attributes":{"POSITION":25,"NORMAL":26,"TEXCOORD_0":27},"indices":24,"material":6}],"name":"moddikgorsel1"},{"primitives":[{"attributes":{"POSITION":29,"NORMAL":30,"TEXCOORD_0":31},"indices":28,"material":7}],"name":"moddikgorsel4"},{"primitives":[{"attributes":{"POSITION":33,"NORMAL":34,"TEXCOORD_0":35},"indices":32,"material":8}],"name":"moddikgorsel2"},{"primitives":[{"attributes":{"POSITION":37,"NORMAL":38,"TEXCOORD_0":39},"indices":36,"material":9}],"name":"modlogo2"},{"primitives":[{"attributes":{"POSITION":41,"NORMAL":42,"TEXCOORD_0":43},"indices":40,"material":10}],"name":"moddikgorsel6"},{"primitives":[{"attributes":{"POSITION":45,"NORMAL":46,"TEXCOORD_0":47},"indices":44,"material":11}],"name":"moddikgorsel5"},{"primitives":[{"attributes":{"POSITION":49,"NORMAL":50,"TEXCOORD_0":51},"indices":48,"material":12}],"name":"modlogo3"},{"primitives":[{"attributes":{"POSITION":53,"NORMAL":54,"TEXCOORD_0":55},"indices":52,"material":13}],"name":"modgorsel1"},{"primitives":[{"attributes":{"POSITION":57,"NORMAL":58,"TEXCOORD_0":59},"indices":56,"material":14}],"name":"moddikyazi2"},{"primitives":[{"attributes":{"POSITION":61,"NORMAL":62,"TEXCOORD_0":63},"indices":60,"material":15}],"name":"modrenk2"}],"accessors":[{"bufferView":0,"componentType":5123,"count":480,"type":"SCALAR","name":"accessorIndices"},{"bufferView":1,"componentType":5126,"count":236,"max":[6.714084,4.5,12.5150948],"min":[-3.25227785,0.0,2.51509571],"type":"VEC3","name":"accessorPositions"},{"bufferView":1,"byteOffset":2832,"componentType":5126,"count":236,"type":"VEC3","name":"accessorNormals"},{"bufferView":2,"componentType":5126,"count":236,"type":"VEC2","name":"accessorUVs"},{"bufferView":0,"byteOffset":960,"componentType":5123,"count":6,"type":"SCALAR","name":"accessorIndices"},{"bufferView":1,"byteOffset":5664,"componentType":5126,"count":4,"max":[0.25,0.0,0.75],"min":[-0.25,0.0,-0.75],"type":"VEC3","name":"accessorPositions"},{"bufferView":1,"byteOffset":5712,"componentType":5126,"count":4,"type":"VEC3","name":"accessorNormals"},{"bufferView":2,"byteOffset":1888,"componentType":5126,"count":4,"type":"VEC2","name":"accessorUVs"},{"bufferView":0,"byteOffset":972,"componentType":5123,"count":1920,"type":"SCALAR","name":"accessorIndices"},{"bufferView":1,"byteOffset":5760,"componentType":5126,"count":1124,"max":[9.882991,4.62535048,27.7914124],"min":[-0.11700958,-7.19328057E-07,-5.027905],"type":"VEC3","name":"accessorPositions"},{"bufferView":1,"byteOffset":19248,"componentType":5126,"count":1124,"type":"VEC3","name":"accessorNormals"},{"bufferView":2,"byteOffset":1920,"componentType":5126,"count":1124,"type":"VEC2","name":"accessorUVs"},{"bufferView":0,"byteOffset":4812,"componentType":5123,"count":6,"type":"SCALAR","name":"accessorIndices"},{"bufferView":1,"byteOffset":32736,"componentType":5126,"count":4,"max":[1.05,0.0,1.485],"min":[-1.05,0.0,-1.485],"type":"VEC3","name":"accessorPositions"},{"bufferView":1,"byteOffset":32784,"componentType":5126,"count":4,"type":"VEC3","name":"accessorNormals"},{"bufferView":2,"byteOffset":10912,"componentType":5126,"count":4,"type":"VEC2","name":"accessorUVs"},{"bufferView":0,"byteOffset":4824,"componentType":5123,"count":6,"type":"SCALAR","name":"accessorIndices"},{"bufferView":1,"byteOffset":32832,"componentType":5126,"count":4,"max":[0.539999962,0.0,0.96],"min":[-0.539999962,0.0,-0.96],"type":"VEC3","name":"accessorPositions"},{"bufferView":1,"byteOffset":32880,"componentType":5126,"count":4,"type":"VEC3","name":"accessorNormals"},{"bufferView":2,"byteOffset":10944,"componentType":5126,"count":4,"type":"VEC2","name":"accessorUVs"},{"bufferView":0,"byteOffset":4836,"componentType":5123,"count":6,"type":"SCALAR","name":"accessorIndices"},{"bufferView":1,"byteOffset":32928,"componentType":5126,"count":4,"max":[1.05,0.0,1.05],"min":[-1.05,0.0,-1.05],"type":"VEC3","name":"accessorPositions"},{"bufferView":1,"byteOffset":32976,"componentType":5126,"count":4,"type":"VEC3","name":"accessorNormals"},{"bufferView":2,"byteOffset":10976,"componentType":5126,"count":4,"type":"VEC2","name":"accessorUVs"},{"bufferView":0,"byteOffset":4848,"componentType":5123,"count":6,"type":"SCALAR","name":"accessorIndices"},{"bufferView":1,"byteOffset":33024,"componentType":5126,"count":4,"max":[1.05,0.0,1.485],"min":[-1.05,0.0,-1.485],"type":"VEC3","name":"accessorPositions"},{"bufferView":1,"byteOffset":33072,"componentType":5126,"count":4,"type":"VEC3","name":"accessorNormals"},{"bufferView":2,"byteOffset":11008,"componentType":5126,"count":4,"type":"VEC2","name":"accessorUVs"},{"bufferView":0,"byteOffset":4860,"componentType":5123,"count":6,"type":"SCALAR","name":"accessorIndices"},{"bufferView":1,"byteOffset":33120,"componentType":5126,"count":4,"max":[1.05,0.0,1.485],"min":[-1.05,0.0,-1.485],"type":"VEC3","name":"accessorPositions"},{"bufferView":1,"byteOffset":33168,"componentType":5126,"count":4,"type":"VEC3","name":"accessorNormals"},{"bufferView":2,"byteOffset":11040,"componentType":5126,"count":4,"type":"VEC2","name":"accessorUVs"},{"bufferView":0,"byteOffset":4872,"componentType":5123,"count":6,"type":"SCALAR","name":"accessorIndices"},{"bufferView":1,"byteOffset":33216,"componentType":5126,"count":4,"max":[1.05,0.0,1.485],"min":[-1.05,0.0,-1.485],"type":"VEC3","name":"accessorPositions"},{"bufferView":1,"byteOffset":33264,"componentType":5126,"count":4,"type":"VEC3","name":"accessorNormals"},{"bufferView":2,"byteOffset":11072,"componentType":5126,"count":4,"type":"VEC2","name":"accessorUVs"},{"bufferView":0,"byteOffset":4884,"componentType":5123,"count":6,"type":"SCALAR","name":"accessorIndices"},{"bufferView":1,"byteOffset":33312,"componentType":5126,"count":4,"max":[1.05,0.0,1.05],"min":[-1.05,0.0,-1.05],"type":"VEC3","name":"accessorPositions"},{"bufferView":1,"byteOffset":33360,"componentType":5126,"count":4,"type":"VEC3","name":"accessorNormals"},{"bufferView":2,"byteOffset":11104,"componentType":5126,"count":4,"type":"VEC2","name":"accessorUVs"},{"bufferView":0,"byteOffset":4896,"componentType":5123,"count":6,"type":"SCALAR","name":"accessorIndices"},{"bufferView":1,"byteOffset":33408,"componentType":5126,"count":4,"max":[1.05,0.0,1.485],"min":[-1.05,0.0,-1.485],"type":"VEC3","name":"accessorPositions"},{"bufferView":1,"byteOffset":33456,"componentType":5126,"count":4,"type":"VEC3","name":"accessorNormals"},{"bufferView":2,"byteOffset":11136,"componentType":5126,"count":4,"type":"VEC2","name":"accessorUVs"},{"bufferView":0,"byteOffset":4908,"componentType":5123,"count":6,"type":"SCALAR","name":"accessorIndices"},{"bufferView":1,"byteOffset":33504,"componentType":5126,"count":4,"max":[1.05,0.0,1.485],"min":[-1.05,0.0,-1.485],"type":"VEC3","name":"accessorPositions"},{"bufferView":1,"byteOffset":33552,"componentType":5126,"count":4,"type":"VEC3","name":"accessorNormals"},{"bufferView":2,"byteOffset":11168,"componentType":5126,"count":4,"type":"VEC2","name":"accessorUVs"},{"bufferView":0,"byteOffset":4920,"componentType":5123,"count":6,"type":"SCALAR","name":"accessorIndices"},{"bufferView":1,"byteOffset":33600,"componentType":5126,"count":4,"max":[1.05,0.0,1.05],"min":[-1.05,0.0,-1.05],"type":"VEC3","name":"accessorPositions"},{"bufferView":1,"byteOffset":33648,"componentType":5126,"count":4,"type":"VEC3","name":"accessorNormals"},{"bufferView":2,"byteOffset":11200,"componentType":5126,"count":4,"type":"VEC2","name":"accessorUVs"},{"bufferView":0,"byteOffset":4932,"componentType":5123,"count":6,"type":"SCALAR","name":"accessorIndices"},{"bufferView":1,"byteOffset":33696,"componentType":5126,"count":4,"max":[1.05,0.0,1.05],"min":[-1.05,0.0,-1.05],"type":"VEC3","name":"accessorPositions"},{"bufferView":1,"byteOffset":33744,"componentType":5126,"count":4,"type":"VEC3","name":"accessorNormals"},{"bufferView":2,"byteOffset":11232,"componentType":5126,"count":4,"type":"VEC2","name":"accessorUVs"},{"bufferView":0,"byteOffset":4944,"componentType":5123,"count":6,"type":"SCALAR","name":"accessorIndices"},{"bufferView":1,"byteOffset":33792,"componentType":5126,"count":4,"max":[0.25,0.0,0.75],"min":[-0.25,0.0,-0.75],"type":"VEC3","name":"accessorPositions"},{"bufferView":1,"byteOffset":33840,"componentType":5126,"count":4,"type":"VEC3","name":"accessorNormals"},{"bufferView":2,"byteOffset":11264,"componentType":5126,"count":4,"type":"VEC2","name":"accessorUVs"},{"bufferView":0,"byteOffset":4956,"componentType":5123,"count":426,"type":"SCALAR","name":"accessorIndices"},{"bufferView":1,"byteOffset":33888,"componentType":5126,"count":230,"max":[2.59588122,4.036314,0.279308766],"min":[-2.874464,0.0514892563,-6.83029652],"type":"VEC3","name":"accessorPositions"},{"bufferView":1,"byteOffset":36648,"componentType":5126,"count":230,"type":"VEC3","name":"accessorNormals"},{"bufferView":2,"byteOffset":11296,"componentType":5126,"count":230,"type":"VEC2","name":"accessorUVs"}],"bufferViews":[{"buffer":0,"byteLength":5808,"name":"bufferViewScalar"},{"buffer":0,"byteOffset":5808,"byteLength":39408,"byteStride":12,"name":"bufferViewFloatVec3"},{"buffer":0,"byteOffset":45216,"byteLength":13136,"byteStride":8,"name":"bufferViewFloatVec2"}],"buffers":[{"uri":"stant29.bin","byteLength":58352}],"materials":[{"pbrMetallicRoughness":{"baseColorFactor":[0.7266187,0.546924353,0.4391077,1.0],"metallicFactor":0.0,"metallicRoughnessTexture":{"index":1,"extensions":{"KHR_texture_transform":{"texCoord":0}}}},"normalTexture":{"index":0,"scale":0.3,"extensions":{"KHR_texture_transform":{"texCoord":0}}},"doubleSided":true,"name":"matrenk1","extras":{"babylonSeparateCullingPass":false}},{"pbrMetallicRoughness":{"baseColorTexture":{"index":2,"extensions":{"KHR_texture_transform":{"texCoord":0}}},"metallicFactor":0.0,"roughnessFactor":0.5},"doubleSided":true,"name":"matdikyazi1","extras":{"babylonSeparateCullingPass":false}},{"pbrMetallicRoughness":{"baseColorTexture":{"index":4,"extensions":{"KHR_texture_transform":{"texCoord":0}}},"metallicFactor":0.0,"metallicRoughnessTexture":{"index":5,"extensions":{"KHR_texture_transform":{"texCoord":0}}}},"normalTexture":{"index":3,"scale":0.3,"extensions":{"KHR_texture_transform":{"texCoord":0}}},"doubleSided":true,"name":"matahsap2","extras":{"babylonSeparateCullingPass":false}},{"pbrMetallicRoughness":{"baseColorTexture":{"index":6,"extensions":{"KHR_texture_transform":{"texCoord":0}}},"metallicFactor":0.0,"roughnessFactor":0.5},"name":"matdikgorsel3","extras":{"babylonSeparateCullingPass":false}},{"pbrMetallicRoughness":{"baseColorTexture":{"index":7,"extensions":{"KHR_texture_transform":{"texCoord":0}}},"metallicFactor":0.0,"roughnessFactor":0.5},"doubleSided":true,"name":"matvideo1","extras":{"babylonSeparateCullingPass":false}},{"pbrMetallicRoughness":{"baseColorTexture":{"index":8,"extensions":{"KHR_texture_transform":{"texCoord":0}}},"metallicFactor":0.0,"roughnessFactor":0.5},"doubleSided":true,"name":"matlogo1","extras":{"babylonSeparateCullingPass":false}},{"pbrMetallicRoughness":{"baseColorTexture":{"index":9,"extensions":{"KHR_texture_transform":{"texCoord":0}}},"metallicFactor":0.0,"roughnessFactor":0.5},"name":"matdikgorsel1","extras":{"babylonSeparateCullingPass":false}},{"pbrMetallicRoughness":{"baseColorTexture":{"index":10,"extensions":{"KHR_texture_transform":{"texCoord":0}}},"metallicFactor":0.0,"roughnessFactor":0.5},"name":"matdikgorsel4","extras":{"babylonSeparateCullingPass":false}},{"pbrMetallicRoughness":{"baseColorTexture":{"index":11,"extensions":{"KHR_texture_transform":{"texCoord":0}}},"metallicFactor":0.0,"roughnessFactor":0.5},"name":"matdikgorsel2","extras":{"babylonSeparateCullingPass":false}},{"pbrMetallicRoughness":{"baseColorTexture":{"index":12,"extensions":{"KHR_texture_transform":{"texCoord":0}}},"metallicFactor":0.0,"roughnessFactor":0.5},"doubleSided":true,"name":"matlogo2","extras":{"babylonSeparateCullingPass":false}},{"pbrMetallicRoughness":{"baseColorTexture":{"index":13,"extensions":{"KHR_texture_transform":{"texCoord":0}}},"metallicFactor":0.0,"roughnessFactor":0.5},"doubleSided":true,"name":"matdikgorsel6","extras":{"babylonSeparateCullingPass":false}},{"pbrMetallicRoughness":{"baseColorTexture":{"index":14,"extensions":{"KHR_texture_transform":{"texCoord":0}}},"metallicFactor":0.0,"roughnessFactor":0.5},"doubleSided":true,"name":"matdikgorsel5","extras":{"babylonSeparateCullingPass":false}},{"pbrMetallicRoughness":{"baseColorTexture":{"index":15,"extensions":{"KHR_texture_transform":{"texCoord":0}}},"metallicFactor":0.0,"roughnessFactor":0.5},"doubleSided":true,"name":"matlogo3","extras":{"babylonSeparateCullingPass":false}},{"pbrMetallicRoughness":{"baseColorTexture":{"index":16,"extensions":{"KHR_texture_transform":{"texCoord":0}}},"metallicFactor":0.0,"roughnessFactor":0.5},"doubleSided":true,"name":"matgorsel1","extras":{"babylonSeparateCullingPass":false}},{"pbrMetallicRoughness":{"baseColorTexture":{"index":17,"extensions":{"KHR_texture_transform":{"texCoord":0}}},"metallicFactor":0.0,"roughnessFactor":0.5},"doubleSided":true,"name":"matdikyazi2","extras":{"babylonSeparateCullingPass":false}},{"pbrMetallicRoughness":{"baseColorFactor":[0.0431654677,0.0205734689,0.013042802,1.0],"metallicFactor":0.0,"metallicRoughnessTexture":{"index":1,"extensions":{"KHR_texture_transform":{"texCoord":0}}}},"normalTexture":{"index":0,"scale":0.3,"extensions":{"KHR_texture_transform":{"texCoord":0}}},"doubleSided":true,"name":"matrenk2","extras":{"babylonSeparateCullingPass":false}}],"textures":[{"sampler":0,"source":0,"name":"matrenknormal.png"},{"sampler":0,"source":1,"name":"matrenkroughness0.png"},{"sampler":0,"source":2,"name":"matdikyazi1.png"},{"sampler":0,"source":3,"name":"matahsap2normal.png"},{"sampler":0,"source":4,"name":"matahsap2.png"},{"sampler":0,"source":5,"name":"matahsap2roughness0.png"},{"sampler":0,"source":6,"name":"matdikgorsel3.png"},{"sampler":0,"source":7,"name":"matvideo1.png"},{"sampler":0,"source":8,"name":"matlogo1.png"},{"sampler":0,"source":9,"name":"matdikgorsel1.png"},{"sampler":0,"source":10,"name":"matdikgorsel4.png"},{"sampler":0,"source":11,"name":"matdikgorsel2.png"},{"sampler":0,"source":12,"name":"matlogo2.png"},{"sampler":0,"source":13,"name":"matdikgorsel6.png"},{"sampler":0,"source":14,"name":"matdikgorsel5.png"},{"sampler":0,"source":15,"name":"matlogo3.png"},{"sampler":0,"source":16,"name":"matgorsel1.png"},{"sampler":0,"source":17,"name":"matdikyazi2.png"},{"sampler":0,"source":0,"name":"matrenknormal.png"},{"sampler":0,"source":1,"name":"matrenkroughness0.png"}],"images":[{"uri":"./matrenknormal.png"},{"uri":"./matrenkroughness0.png"},{"uri":"./matdikyazi1.png"},{"uri":"./matahsap2normal.png"},{"uri":"./matahsap2.png"},{"uri":"./matahsap2roughness0.png"},{"uri":"./matdikgorsel3.png"},{"uri":"./matvideo1.png"},{"uri":"./matlogo1.png"},{"uri":"./matdikgorsel1.png"},{"uri":"./matdikgorsel4.png"},{"uri":"./matdikgorsel2.png"},{"uri":"./matlogo2.png"},{"uri":"./matdikgorsel6.png"},{"uri":"./matdikgorsel5.png"},{"uri":"./matlogo3.png"},{"uri":"./matgorsel1.png"},{"uri":"./matdikyazi2.png"}],"samplers":[{"magFilter":9729,"minFilter":9987}]}