{"asset":{"version":"2.0","generator":"babylon.js glTF exporter for 3dsmax 2018 v20210615.1"},"extensionsUsed":["KHR_texture_transform"],"extensionsRequired":["KHR_texture_transform"],"scene":0,"scenes":[{"nodes":[0]}],"nodes":[{"children":[1,2,3,4,5,6,7,8,9,10,11,12,13,14,15,16,17,18,19,20],"translation":[0.0,0.0,-7.62939436E-08],"name":"Group001"},{"mesh":0,"translation":[0.428486019,0.187762,-0.4497402],"rotation":[0.7071068,0.0,0.0,0.7071067],"scale":[0.0373225771,0.0373225771,0.0373225771],"name":"moddikgorsel4"},{"mesh":1,"translation":[-0.4732489,0.00400041556,0.443429619],"scale":[0.099999994,0.099999994,0.099999994],"name":"modrenk2"},{"mesh":2,"translation":[0.4696054,0.18893449,-0.213122785],"rotation":[0.5,-0.5,0.50000006,0.49999994],"scale":[0.128676429,0.128676429,0.128676429],"name":"modvideo1"},{"mesh":3,"translation":[-0.50039,0.405776352,-0.356033236],"rotation":[0.5,-0.5,0.50000006,0.49999994],"scale":[0.167532459,0.167532459,0.167532459],"name":"modyazi1"},{"mesh":4,"translation":[-0.233858183,0.236088723,0.4783497],"rotation":[0.7071068,0.0,0.0,0.7071067],"scale":[0.107739992,0.107739992,0.107739992],"name":"modlogo1"},{"mesh":5,"translation":[-0.233858183,0.236088723,0.458137572],"rotation":[4.52377179E-07,-0.7071068,0.7071068,4.523771E-07],"scale":[0.107739992,0.107739992,0.107739992],"name":"modlogo2"},{"mesh":6,"translation":[0.1406913,0.187762,-0.4497402],"rotation":[0.7071068,0.0,0.0,0.7071067],"scale":[0.0373225771,0.0373225771,0.0373225771],"name":"moddikgorsel1"},{"mesh":7,"translation":[0.2352191,0.187762,-0.4497402],"rotation":[0.7071068,0.0,0.0,0.7071067],"scale":[0.0373225771,0.0373225771,0.0373225771],"name":"moddikgorsel2"},{"mesh":8,"translation":[0.330013126,0.187762,-0.4497402],"rotation":[0.7071068,0.0,0.0,0.7071067],"scale":[0.0373225771,0.0373225771,0.0373225771],"name":"moddikgorsel3"},{"mesh":9,"translation":[-0.9935876,0.00400041556,-0.3933245],"scale":[0.099999994,0.099999994,0.099999994],"name":"modrenk1"},{"mesh":10,"translation":[-0.493183583,0.060779456,0.281015545],"rotation":[0.5,-0.5,0.50000006,0.49999994],"scale":[0.0443561748,0.0443561748,0.0443561748],"name":"modlogo3"},{"mesh":11,"translation":[-0.231044456,0.232912,-0.4991149],"rotation":[5.3385083E-08,-0.7071068,0.7071068,5.3385083E-08],"scale":[0.121112742,0.121112742,0.121112742],"name":"modlogo4"},{"mesh":12,"translation":[-0.0128293987,0.187762,-0.4497402],"rotation":[0.7071068,0.0,0.0,0.7071067],"scale":[0.0373225771,0.0373225771,0.0373225771],"name":"moddikgorsel5"},{"mesh":13,"translation":[-0.157943875,0.187762,-0.4497402],"rotation":[0.7071068,0.0,0.0,0.7071067],"scale":[0.0373225771,0.0373225771,0.0373225771],"name":"moddikgorsel6"},{"mesh":14,"translation":[-0.303843677,0.187762,-0.4497402],"rotation":[0.7071068,0.0,0.0,0.7071067],"scale":[0.0373225771,0.0373225771,0.0373225771],"name":"moddikgorsel7"},{"mesh":15,"translation":[-0.442745656,0.187762,-0.4497402],"rotation":[0.7071068,0.0,0.0,0.7071067],"scale":[0.0373225771,0.0373225771,0.0373225771],"name":"moddikgorsel8"},{"mesh":16,"translation":[0.4375244,0.004000473,0.00259549846],"scale":[0.099999994,0.099999994,0.099999994],"name":"modgenisgorsel"},{"mesh":17,"translation":[0.28734374,0.3835147,-0.5026278],"rotation":[-4.52377151E-07,-0.7071068,0.7071068,-4.52377151E-07],"scale":[0.2634606,0.2634606,0.2634606],"name":"modyazi2"},{"mesh":18,"translation":[-0.00113900425,0.00400041556,0.00259554386],"scale":[0.099999994,0.099999994,0.099999994],"name":"modzemin"},{"mesh":19,"translation":[0.285896,0.163537771,-0.500479341],"rotation":[5.3385083E-08,-0.7071068,0.7071068,5.3385083E-08],"scale":[0.144548059,0.144548059,0.144548059],"name":"modgorsel1"}],"meshes":[{"primitives":[{"attributes":{"POSITION":1,"NORMAL":2,"TEXCOORD_0":3},"indices":0,"material":0}],"name":"moddikgorsel4"},{"primitives":[{"attributes":{"POSITION":5,"NORMAL":6,"TEXCOORD_0":7},"indices":4,"material":1}],"name":"modrenk2"},{"primitives":[{"attributes":{"POSITION":9,"NORMAL":10,"TEXCOORD_0":11},"indices":8,"material":2}],"name":"modvideo1"},{"primitives":[{"attributes":{"POSITION":13,"NORMAL":14,"TEXCOORD_0":15},"indices":12,"material":3}],"name":"modyazi1"},{"primitives":[{"attributes":{"POSITION":17,"NORMAL":18,"TEXCOORD_0":19},"indices":16,"material":4}],"name":"modlogo1"},{"primitives":[{"attributes":{"POSITION":21,"NORMAL":22,"TEXCOORD_0":23},"indices":20,"material":5}],"name":"modlogo2"},{"primitives":[{"attributes":{"POSITION":25,"NORMAL":26,"TEXCOORD_0":27},"indices":24,"material":6}],"name":"moddikgorsel1"},{"primitives":[{"attributes":{"POSITION":29,"NORMAL":30,"TEXCOORD_0":31},"indices":28,"material":7}],"name":"moddikgorsel2"},{"primitives":[{"attributes":{"POSITION":33,"NORMAL":34,"TEXCOORD_0":35},"indices":32,"material":8}],"name":"moddikgorsel3"},{"primitives":[{"attributes":{"POSITION":37,"NORMAL":38,"TEXCOORD_0":39},"indices":36,"material":9}],"name":"modrenk1"},{"primitives":[{"attributes":{"POSITION":41,"NORMAL":42,"TEXCOORD_0":43},"indices":40,"material":10}],"name":"modlogo3"},{"primitives":[{"attributes":{"POSITION":45,"NORMAL":46,"TEXCOORD_0":47},"indices":44,"material":11}],"name":"modlogo4"},{"primitives":[{"attributes":{"POSITION":49,"NORMAL":50,"TEXCOORD_0":51},"indices":48,"material":12}],"name":"moddikgorsel5"},{"primitives":[{"attributes":{"POSITION":53,"NORMAL":54,"TEXCOORD_0":55},"indices":52,"material":13}],"name":"moddikgorsel6"},{"primitives":[{"attributes":{"POSITION":57,"NORMAL":58,"TEXCOORD_0":59},"indices":56,"material":14}],"name":"moddikgorsel7"},{"primitives":[{"attributes":{"POSITION":61,"NORMAL":62,"TEXCOORD_0":63},"indices":60,"material":15}],"name":"moddikgorsel8"},{"primitives":[{"attributes":{"POSITION":65,"NORMAL":66,"TEXCOORD_0":67},"indices":64,"material":16}],"name":"modgenisgorsel"},{"primitives":[{"attributes":{"POSITION":69,"NORMAL":70,"TEXCOORD_0":71},"indices":68,"material":17}],"name":"modyazi2"},{"primitives":[{"attributes":{"POSITION":73,"NORMAL":74,"TEXCOORD_0":75},"indices":72,"material":18}],"name":"modzemin"},{"primitives":[{"attributes":{"POSITION":77,"NORMAL":78,"TEXCOORD_0":79},"indices":76,"material":19}],"name":"modgorsel1"}],"accessors":[{"bufferView":0,"componentType":5123,"count":6,"type":"SCALAR","name":"accessorIndices"},{"bufferView":1,"componentType":5126,"count":4,"max":[1.05,0.0,1.485],"min":[-1.05,0.0,-1.485],"type":"VEC3","name":"accessorPositions"},{"bufferView":1,"byteOffset":48,"componentType":5126,"count":4,"type":"VEC3","name":"accessorNormals"},{"bufferView":2,"componentType":5126,"count":4,"type":"VEC2","name":"accessorUVs"},{"bufferView":0,"byteOffset":12,"componentType":5123,"count":537,"type":"SCALAR","name":"accessorIndices"},{"bufferView":1,"byteOffset":96,"componentType":5126,"count":339,"max":[9.610027,4.50101852,0.5919835],"min":[-0.2882492,-3.516674E-08,-9.408469],"type":"VEC3","name":"accessorPositions"},{"bufferView":1,"byteOffset":4164,"componentType":5126,"count":339,"type":"VEC3","name":"accessorNormals"},{"bufferView":2,"byteOffset":32,"componentType":5126,"count":339,"type":"VEC2","name":"accessorUVs"},{"bufferView":0,"byteOffset":1088,"componentType":5123,"count":6,"type":"SCALAR","name":"accessorIndices"},{"bufferView":1,"byteOffset":8232,"componentType":5126,"count":4,"max":[0.96,0.0,0.539999962],"min":[-0.96,0.0,-0.539999962],"type":"VEC3","name":"accessorPositions"},{"bufferView":1,"byteOffset":8280,"componentType":5126,"count":4,"type":"VEC3","name":"accessorNormals"},{"bufferView":2,"byteOffset":2744,"componentType":5126,"count":4,"type":"VEC2","name":"accessorUVs"},{"bufferView":0,"byteOffset":1100,"componentType":5123,"count":6,"type":"SCALAR","name":"accessorIndices"},{"bufferView":1,"byteOffset":8328,"componentType":5126,"count":4,"max":[0.75,0.0,0.25],"min":[-0.75,0.0,-0.25],"type":"VEC3","name":"accessorPositions"},{"bufferView":1,"byteOffset":8376,"componentType":5126,"count":4,"type":"VEC3","name":"accessorNormals"},{"bufferView":2,"byteOffset":2776,"componentType":5126,"count":4,"type":"VEC2","name":"accessorUVs"},{"bufferView":0,"byteOffset":1112,"componentType":5123,"count":6,"type":"SCALAR","name":"accessorIndices"},{"bufferView":1,"byteOffset":8424,"componentType":5126,"count":4,"max":[1.0,0.0,1.0],"min":[-1.0,0.0,-1.0],"type":"VEC3","name":"accessorPositions"},{"bufferView":1,"byteOffset":8472,"componentType":5126,"count":4,"type":"VEC3","name":"accessorNormals"},{"bufferView":2,"byteOffset":2808,"componentType":5126,"count":4,"type":"VEC2","name":"accessorUVs"},{"bufferView":0,"byteOffset":1124,"componentType":5123,"count":6,"type":"SCALAR","name":"accessorIndices"},{"bufferView":1,"byteOffset":8520,"componentType":5126,"count":4,"max":[1.0,0.0,1.0],"min":[-1.0,0.0,-1.0],"type":"VEC3","name":"accessorPositions"},{"bufferView":1,"byteOffset":8568,"componentType":5126,"count":4,"type":"VEC3","name":"accessorNormals"},{"bufferView":2,"byteOffset":2840,"componentType":5126,"count":4,"type":"VEC2","name":"accessorUVs"},{"bufferView":0,"byteOffset":1136,"componentType":5123,"count":6,"type":"SCALAR","name":"accessorIndices"},{"bufferView":1,"byteOffset":8616,"componentType":5126,"count":4,"max":[1.05,0.0,1.485],"min":[-1.05,0.0,-1.485],"type":"VEC3","name":"accessorPositions"},{"bufferView":1,"byteOffset":8664,"componentType":5126,"count":4,"type":"VEC3","name":"accessorNormals"},{"bufferView":2,"byteOffset":2872,"componentType":5126,"count":4,"type":"VEC2","name":"accessorUVs"},{"bufferView":0,"byteOffset":1148,"componentType":5123,"count":6,"type":"SCALAR","name":"accessorIndices"},{"bufferView":1,"byteOffset":8712,"componentType":5126,"count":4,"max":[1.05,0.0,1.485],"min":[-1.05,0.0,-1.485],"type":"VEC3","name":"accessorPositions"},{"bufferView":1,"byteOffset":8760,"componentType":5126,"count":4,"type":"VEC3","name":"accessorNormals"},{"bufferView":2,"byteOffset":2904,"componentType":5126,"count":4,"type":"VEC2","name":"accessorUVs"},{"bufferView":0,"byteOffset":1160,"componentType":5123,"count":6,"type":"SCALAR","name":"accessorIndices"},{"bufferView":1,"byteOffset":8808,"componentType":5126,"count":4,"max":[1.05,0.0,1.485],"min":[-1.05,0.0,-1.485],"type":"VEC3","name":"accessorPositions"},{"bufferView":1,"byteOffset":8856,"componentType":5126,"count":4,"type":"VEC3","name":"accessorNormals"},{"bufferView":2,"byteOffset":2936,"componentType":5126,"count":4,"type":"VEC2","name":"accessorUVs"},{"bufferView":0,"byteOffset":1172,"componentType":5123,"count":516,"type":"SCALAR","name":"accessorIndices"},{"bufferView":1,"byteOffset":8904,"componentType":5126,"count":326,"max":[14.9192724,4.5,8.959199],"min":[4.953389,-8.940696E-09,-1.04092669],"type":"VEC3","name":"accessorPositions"},{"bufferView":1,"byteOffset":12816,"componentType":5126,"count":326,"type":"VEC3","name":"accessorNormals"},{"bufferView":2,"byteOffset":2968,"componentType":5126,"count":326,"type":"VEC2","name":"accessorUVs"},{"bufferView":0,"byteOffset":2204,"componentType":5123,"count":6,"type":"SCALAR","name":"accessorIndices"},{"bufferView":1,"byteOffset":16728,"componentType":5126,"count":4,"max":[1.0,0.0,1.0],"min":[-1.0,0.0,-1.0],"type":"VEC3","name":"accessorPositions"},{"bufferView":1,"byteOffset":16776,"componentType":5126,"count":4,"type":"VEC3","name":"accessorNormals"},{"bufferView":2,"byteOffset":5576,"componentType":5126,"count":4,"type":"VEC2","name":"accessorUVs"},{"bufferView":0,"byteOffset":2216,"componentType":5123,"count":6,"type":"SCALAR","name":"accessorIndices"},{"bufferView":1,"byteOffset":16824,"componentType":5126,"count":4,"max":[1.0,0.0,1.0],"min":[-1.0,0.0,-1.0],"type":"VEC3","name":"accessorPositions"},{"bufferView":1,"byteOffset":16872,"componentType":5126,"count":4,"type":"VEC3","name":"accessorNormals"},{"bufferView":2,"byteOffset":5608,"componentType":5126,"count":4,"type":"VEC2","name":"accessorUVs"},{"bufferView":0,"byteOffset":2228,"componentType":5123,"count":6,"type":"SCALAR","name":"accessorIndices"},{"bufferView":1,"byteOffset":16920,"componentType":5126,"count":4,"max":[1.05,0.0,1.485],"min":[-1.05,0.0,-1.485],"type":"VEC3","name":"accessorPositions"},{"bufferView":1,"byteOffset":16968,"componentType":5126,"count":4,"type":"VEC3","name":"accessorNormals"},{"bufferView":2,"byteOffset":5640,"componentType":5126,"count":4,"type":"VEC2","name":"accessorUVs"},{"bufferView":0,"byteOffset":2240,"componentType":5123,"count":6,"type":"SCALAR","name":"accessorIndices"},{"bufferView":1,"byteOffset":17016,"componentType":5126,"count":4,"max":[1.05,0.0,1.485],"min":[-1.05,0.0,-1.485],"type":"VEC3","name":"accessorPositions"},{"bufferView":1,"byteOffset":17064,"componentType":5126,"count":4,"type":"VEC3","name":"accessorNormals"},{"bufferView":2,"byteOffset":5672,"componentType":5126,"count":4,"type":"VEC2","name":"accessorUVs"},{"bufferView":0,"byteOffset":2252,"componentType":5123,"count":6,"type":"SCALAR","name":"accessorIndices"},{"bufferView":1,"byteOffset":17112,"componentType":5126,"count":4,"max":[1.05,0.0,1.485],"min":[-1.05,0.0,-1.485],"type":"VEC3","name":"accessorPositions"},{"bufferView":1,"byteOffset":17160,"componentType":5126,"count":4,"type":"VEC3","name":"accessorNormals"},{"bufferView":2,"byteOffset":5704,"componentType":5126,"count":4,"type":"VEC2","name":"accessorUVs"},{"bufferView":0,"byteOffset":2264,"componentType":5123,"count":6,"type":"SCALAR","name":"accessorIndices"},{"bufferView":1,"byteOffset":17208,"componentType":5126,"count":4,"max":[1.05,0.0,1.485],"min":[-1.05,0.0,-1.485],"type":"VEC3","name":"accessorPositions"},{"bufferView":1,"byteOffset":17256,"componentType":5126,"count":4,"type":"VEC3","name":"accessorNormals"},{"bufferView":2,"byteOffset":5736,"componentType":5126,"count":4,"type":"VEC2","name":"accessorUVs"},{"bufferView":0,"byteOffset":2276,"componentType":5123,"count":6,"type":"SCALAR","name":"accessorIndices"},{"bufferView":1,"byteOffset":17304,"componentType":5126,"count":4,"max":[0.6238281,4.5,5.0],"min":[0.6238281,0.0,-5.0],"type":"VEC3","name":"accessorPositions"},{"bufferView":1,"byteOffset":17352,"componentType":5126,"count":4,"type":"VEC3","name":"accessorNormals"},{"bufferView":2,"byteOffset":5768,"componentType":5126,"count":4,"type":"VEC2","name":"accessorUVs"},{"bufferView":0,"byteOffset":2288,"componentType":5123,"count":6,"type":"SCALAR","name":"accessorIndices"},{"bufferView":1,"byteOffset":17400,"componentType":5126,"count":4,"max":[0.75,0.0,0.25],"min":[-0.75,0.0,-0.25],"type":"VEC3","name":"accessorPositions"},{"bufferView":1,"byteOffset":17448,"componentType":5126,"count":4,"type":"VEC3","name":"accessorNormals"},{"bufferView":2,"byteOffset":5800,"componentType":5126,"count":4,"type":"VEC2","name":"accessorUVs"},{"bufferView":0,"byteOffset":2300,"componentType":5123,"count":30,"type":"SCALAR","name":"accessorIndices"},{"bufferView":1,"byteOffset":17496,"componentType":5126,"count":20,"max":[5.0,0.01,5.0],"min":[-5.0,-0.04,-5.0],"type":"VEC3","name":"accessorPositions"},{"bufferView":1,"byteOffset":17736,"componentType":5126,"count":20,"type":"VEC3","name":"accessorNormals"},{"bufferView":2,"byteOffset":5832,"componentType":5126,"count":20,"type":"VEC2","name":"accessorUVs"},{"bufferView":0,"byteOffset":2360,"componentType":5123,"count":6,"type":"SCALAR","name":"accessorIndices"},{"bufferView":1,"byteOffset":17976,"componentType":5126,"count":4,"max":[1.0,0.0,1.0],"min":[-1.0,0.0,-1.0],"type":"VEC3","name":"accessorPositions"},{"bufferView":1,"byteOffset":18024,"componentType":5126,"count":4,"type":"VEC3","name":"accessorNormals"},{"bufferView":2,"byteOffset":5992,"componentType":5126,"count":4,"type":"VEC2","name":"accessorUVs"}],"bufferViews":[{"buffer":0,"byteLength":2372,"name":"bufferViewScalar"},{"buffer":0,"byteOffset":2372,"byteLength":18072,"byteStride":12,"name":"bufferViewFloatVec3"},{"buffer":0,"byteOffset":20444,"byteLength":6024,"byteStride":8,"name":"bufferViewFloatVec2"}],"buffers":[{"uri":"stant16.bin","byteLength":26468}],"materials":[{"pbrMetallicRoughness":{"baseColorTexture":{"index":0,"extensions":{"KHR_texture_transform":{"texCoord":0}}},"metallicFactor":0.0,"roughnessFactor":0.5},"doubleSided":true,"name":"matdikgorsel4","extras":{"babylonSeparateCullingPass":false}},{"pbrMetallicRoughness":{"baseColorFactor":[0.0392156877,0.0392156877,0.0392156877,1.0],"metallicFactor":0.0,"metallicRoughnessTexture":{"index":2,"extensions":{"KHR_texture_transform":{"texCoord":0}}}},"normalTexture":{"index":1,"scale":0.3,"extensions":{"KHR_texture_transform":{"texCoord":0}}},"doubleSided":true,"name":"matrenk2","extras":{"babylonSeparateCullingPass":false}},{"pbrMetallicRoughness":{"baseColorTexture":{"index":3,"extensions":{"KHR_texture_transform":{"texCoord":0}}},"metallicFactor":0.0,"roughnessFactor":0.5},"doubleSided":true,"name":"matvideo1","extras":{"babylonSeparateCullingPass":false}},{"pbrMetallicRoughness":{"baseColorTexture":{"index":4,"extensions":{"KHR_texture_transform":{"texCoord":0}}},"metallicFactor":0.0,"roughnessFactor":0.5},"doubleSided":true,"name":"matyazi1","extras":{"babylonSeparateCullingPass":false}},{"pbrMetallicRoughness":{"baseColorTexture":{"index":5,"extensions":{"KHR_texture_transform":{"texCoord":0}}},"metallicFactor":0.0,"roughnessFactor":0.5},"doubleSided":true,"name":"matlogo1","extras":{"babylonSeparateCullingPass":false}},{"pbrMetallicRoughness":{"baseColorTexture":{"index":6,"extensions":{"KHR_texture_transform":{"texCoord":0}}},"metallicFactor":0.0,"roughnessFactor":0.5},"doubleSided":true,"name":"matlogo2","extras":{"babylonSeparateCullingPass":false}},{"pbrMetallicRoughness":{"baseColorTexture":{"index":7,"extensions":{"KHR_texture_transform":{"texCoord":0}}},"metallicFactor":0.0,"roughnessFactor":0.5},"doubleSided":true,"name":"matdikgorsel1","extras":{"babylonSeparateCullingPass":false}},{"pbrMetallicRoughness":{"baseColorTexture":{"index":8,"extensions":{"KHR_texture_transform":{"texCoord":0}}},"metallicFactor":0.0,"roughnessFactor":0.5},"doubleSided":true,"name":"matdikgorsel2","extras":{"babylonSeparateCullingPass":false}},{"pbrMetallicRoughness":{"baseColorTexture":{"index":9,"extensions":{"KHR_texture_transform":{"texCoord":0}}},"metallicFactor":0.0,"roughnessFactor":0.5},"doubleSided":true,"name":"matdikgorsel3","extras":{"babylonSeparateCullingPass":false}},{"pbrMetallicRoughness":{"baseColorFactor":[0.10806895,0.2570824,0.258992821,1.0],"metallicFactor":0.0,"metallicRoughnessTexture":{"index":2,"extensions":{"KHR_texture_transform":{"texCoord":0}}}},"normalTexture":{"index":10,"scale":0.3,"extensions":{"KHR_texture_transform":{"texCoord":0}}},"doubleSided":true,"name":"matrenk1","extras":{"babylonSeparateCullingPass":false}},{"pbrMetallicRoughness":{"baseColorTexture":{"index":12,"extensions":{"KHR_texture_transform":{"texCoord":0}}},"metallicFactor":0.0,"roughnessFactor":0.5},"doubleSided":true,"name":"matlogo3","extras":{"babylonSeparateCullingPass":false}},{"pbrMetallicRoughness":{"baseColorTexture":{"index":13,"extensions":{"KHR_texture_transform":{"texCoord":0}}},"metallicFactor":0.0,"roughnessFactor":0.5},"name":"matlogo4","extras":{"babylonSeparateCullingPass":false}},{"pbrMetallicRoughness":{"baseColorTexture":{"index":14,"extensions":{"KHR_texture_transform":{"texCoord":0}}},"metallicFactor":0.0,"roughnessFactor":0.5},"name":"matdikgorsel5","extras":{"babylonSeparateCullingPass":false}},{"pbrMetallicRoughness":{"baseColorTexture":{"index":15,"extensions":{"KHR_texture_transform":{"texCoord":0}}},"metallicFactor":0.0,"roughnessFactor":0.5},"name":"matdikgorsel6","extras":{"babylonSeparateCullingPass":false}},{"pbrMetallicRoughness":{"baseColorTexture":{"index":16,"extensions":{"KHR_texture_transform":{"texCoord":0}}},"metallicFactor":0.0,"roughnessFactor":0.5},"name":"matdikgorsel7","extras":{"babylonSeparateCullingPass":false}},{"pbrMetallicRoughness":{"baseColorTexture":{"index":17,"extensions":{"KHR_texture_transform":{"texCoord":0}}},"metallicFactor":0.0,"roughnessFactor":0.5},"name":"matdikgorsel8","extras":{"babylonSeparateCullingPass":false}},{"pbrMetallicRoughness":{"baseColorTexture":{"index":18,"extensions":{"KHR_texture_transform":{"texCoord":0}}},"metallicFactor":0.0,"roughnessFactor":0.5},"name":"matgenisgorsel","extras":{"babylonSeparateCullingPass":false}},{"pbrMetallicRoughness":{"baseColorTexture":{"index":19,"extensions":{"KHR_texture_transform":{"texCoord":0}}},"metallicFactor":0.0,"roughnessFactor":0.5},"doubleSided":true,"name":"matyazi2","extras":{"babylonSeparateCullingPass":false}},{"pbrMetallicRoughness":{"baseColorFactor":[0.323741019,0.323741019,0.323741019,1.0],"metallicFactor":0.0,"metallicRoughnessTexture":{"index":2,"extensions":{"KHR_texture_transform":{"texCoord":0}}}},"normalTexture":{"index":10,"scale":0.3,"extensions":{"KHR_texture_transform":{"texCoord":0}}},"doubleSided":true,"name":"matzemin","extras":{"babylonSeparateCullingPass":false}},{"pbrMetallicRoughness":{"baseColorTexture":{"index":22,"extensions":{"KHR_texture_transform":{"texCoord":0}}},"metallicFactor":0.0,"roughnessFactor":0.5},"doubleSided":true,"name":"matgorsel1","extras":{"babylonSeparateCullingPass":false}}],"textures":[{"sampler":0,"source":0,"name":"matdikgorsel4.png"},{"sampler":0,"source":1,"name":"matrenkroughness.png"},{"sampler":0,"source":2,"name":"matrenkroughness0.png"},{"sampler":0,"source":3,"name":"matvideo1.png"},{"sampler":0,"source":4,"name":"matyazi1.png"},{"sampler":0,"source":5,"name":"matlogo1.png"},{"sampler":0,"source":6,"name":"matlogo2.png"},{"sampler":0,"source":7,"name":"matdikgorsel1.png"},{"sampler":0,"source":8,"name":"matdikgorsel2.png"},{"sampler":0,"source":9,"name":"matdikgorsel3.png"},{"sampler":0,"source":10,"name":"matrenknormal.png"},{"sampler":0,"source":2,"name":"matrenkroughness0.png"},{"sampler":0,"source":11,"name":"matlogo3.png"},{"sampler":0,"source":12,"name":"matlogo4.png"},{"sampler":0,"source":13,"name":"matdikgorsel5.png"},{"sampler":0,"source":14,"name":"matdikgorsel6.png"},{"sampler":0,"source":15,"name":"matdikgorsel7.png"},{"sampler":0,"source":16,"name":"matdikgorsel8.png"},{"sampler":0,"source":17,"name":"matgenisgorsel.png"},{"sampler":0,"source":18,"name":"matyazi2.png"},{"sampler":0,"source":10,"name":"matrenknormal.png"},{"sampler":0,"source":2,"name":"matrenkroughness0.png"},{"sampler":0,"source":19,"name":"matgorsel1.png"}],"images":[{"uri":"./matdikgorsel4.png"},{"uri":"./matrenkroughness.png"},{"uri":"./matrenkroughness0.png"},{"uri":"./matvideo1.png"},{"uri":"./matyazi1.png"},{"uri":"./matlogo1.png"},{"uri":"./matlogo2.png"},{"uri":"./matdikgorsel1.png"},{"uri":"./matdikgorsel2.png"},{"uri":"./matdikgorsel3.png"},{"uri":"./matrenknormal.png"},{"uri":"./matlogo3.png"},{"uri":"./matlogo4.png"},{"uri":"./matdikgorsel5.png"},{"uri":"./matdikgorsel6.png"},{"uri":"./matdikgorsel7.png"},{"uri":"./matdikgorsel8.png"},{"uri":"./matgenisgorsel.png"},{"uri":"./matyazi2.png"},{"uri":"./matgorsel1.png"}],"samplers":[{"magFilter":9729,"minFilter":9987}]}