{"asset":{"version":"2.0","generator":"babylon.js glTF exporter for 3dsmax 2018 v20210615.1"},"extensionsUsed":["KHR_texture_transform"],"extensionsRequired":["KHR_texture_transform"],"scene":0,"scenes":[{"nodes":[0,20]}],"nodes":[{"children":[1,2,3,4,5,6,7,8,9,10,11,12,13,14,15,16,17,18,19],"translation":[-1.00006714E-08,0.0,-4.37143249E-16],"rotation":[0.0,-0.7071068,0.0,0.7071067],"scale":[0.099999994,0.099999994,0.099999994],"name":"Group001"},{"mesh":0,"translation":[-4.1864996,1.856581,-4.338391],"rotation":[-0.7071068,-0.7071067,-1.875563E-07,-1.87556267E-07],"scale":[0.462507874,0.462507874,0.462507874],"name":"modgorsel6"},{"mesh":1,"translation":[4.07471466,2.33748674,-2.91106081],"rotation":[5.22626465E-07,5.226265E-07,0.7071067,0.7071068],"scale":[3.01383781,3.01383781,3.01383781],"name":"modlogo3"},{"mesh":2,"translation":[5.42101074E-22,0.0500039645,1.52587887E-07],"name":"modkaro1"},{"mesh":3,"translation":[-4.163054,2.40655732,2.30550146],"rotation":[-0.7071068,-0.7071067,3.25143148E-08,2.94540534E-08],"scale":[0.9907782,1.0937196,0.9907782],"name":"modvideo1"},{"mesh":4,"translation":[-4.186499,3.08414674,-1.75200176],"rotation":[-0.7071068,-0.7071067,-1.875563E-07,-1.87556267E-07],"scale":[0.462507874,0.462507874,0.462507874],"name":"modgorsel1"},{"mesh":5,"translation":[-4.186499,3.08414674,-3.04065824],"rotation":[-0.7071068,-0.7071067,-1.875563E-07,-1.87556267E-07],"scale":[0.462507874,0.462507874,0.462507874],"name":"modgorsel2"},{"mesh":6,"translation":[-4.1864996,3.08414674,-4.338391],"rotation":[-0.7071068,-0.7071067,-1.875563E-07,-1.87556267E-07],"scale":[0.462507874,0.462507874,0.462507874],"name":"modgorsel3"},{"mesh":7,"translation":[-4.186499,1.856581,-1.75200176],"rotation":[-0.7071068,-0.7071067,-1.875563E-07,-1.87556267E-07],"scale":[0.462507874,0.462507874,0.462507874],"name":"modgorsel4"},{"mesh":8,"translation":[-4.186499,1.856581,-3.04065824],"rotation":[-0.7071068,-0.7071067,-1.875563E-07,-1.87556267E-07],"scale":[0.462507874,0.462507874,0.462507874],"name":"modgorsel5"},{"mesh":9,"translation":[3.844351,0.6304373,4.17837572],"rotation":[-0.675576,-0.6755758,-0.208799452,-0.208799466],"scale":[0.367112339,0.367112249,0.367112249],"name":"modlogo4"},{"mesh":10,"translation":[4.413153,2.33748674,2.31101775],"rotation":[-0.7071068,-0.7071067,1.87556267E-07,1.87556253E-07],"scale":[2.05807,2.05807,2.05807],"name":"modlogo1"},{"mesh":11,"translation":[-4.48476744,2.33748674,2.31101775],"rotation":[3.09086175E-07,3.09086175E-07,0.7071067,0.7071068],"scale":[2.05807,2.05807,2.05807],"name":"modlogo2"},{"mesh":12,"translation":[0.4719171,2.23229146,2.82768464],"rotation":[-0.49999994,0.50000006,0.5000001,0.499999881],"scale":[2.80922532,2.80922532,2.80922532],"name":"moddikyazi1"},{"mesh":13,"translation":[1.00321352,3.590045,3.757049],"rotation":[0.411253035,0.411252975,0.5752138,0.57521385],"scale":[0.4949776,0.4949777,0.4949777],"name":"moddikgorsel1"},{"mesh":14,"translation":[1.00321352,0.872579634,3.757049],"rotation":[0.411253035,0.411252975,0.5752138,0.57521385],"scale":[0.4949776,0.4949777,0.4949777],"name":"moddikgorsel2"},{"mesh":15,"translation":[1.00321352,2.2339766,3.757049],"rotation":[0.411252946,0.411252975,0.5752139,0.57521385],"scale":[0.4949776,0.494977683,0.494977683],"name":"modgorsel7"},{"mesh":16,"translation":[1.04157221,0.07577408,3.38760424],"name":"modrenk2"},{"mesh":17,"translation":[4.18724632,0.07577286,-3.112562],"name":"modrenk1"},{"mesh":18,"translation":[4.08279276,2.33953166,2.30932426],"rotation":[-7.23539344E-08,-7.235397E-08,0.7071067,0.7071068],"scale":[0.954731941,0.954731941,0.954731941],"name":"modgorsel8"},{"mesh":19,"translation":[-0.424715757,0.05913328,0.255445033],"rotation":[0.419836283,-0.5689793,0.5689794,0.419836253],"scale":[1.34467578,1.34467578,1.34467578],"name":"modyazi1"}],"meshes":[{"primitives":[{"attributes":{"POSITION":1,"NORMAL":2,"TEXCOORD_0":3},"indices":0,"material":0}],"name":"modgorsel6"},{"primitives":[{"attributes":{"POSITION":5,"NORMAL":6,"TEXCOORD_0":7},"indices":4,"material":1}],"name":"modlogo3"},{"primitives":[{"attributes":{"POSITION":9,"NORMAL":10,"TEXCOORD_0":11},"indices":8,"material":2}],"name":"modkaro1"},{"primitives":[{"attributes":{"POSITION":13,"NORMAL":14,"TEXCOORD_0":15},"indices":12,"material":3}],"name":"modvideo1"},{"primitives":[{"attributes":{"POSITION":17,"NORMAL":18,"TEXCOORD_0":19},"indices":16,"material":4}],"name":"modgorsel1"},{"primitives":[{"attributes":{"POSITION":21,"NORMAL":22,"TEXCOORD_0":23},"indices":20,"material":5}],"name":"modgorsel2"},{"primitives":[{"attributes":{"POSITION":25,"NORMAL":26,"TEXCOORD_0":27},"indices":24,"material":6}],"name":"modgorsel3"},{"primitives":[{"attributes":{"POSITION":29,"NORMAL":30,"TEXCOORD_0":31},"indices":28,"material":7}],"name":"modgorsel4"},{"primitives":[{"attributes":{"POSITION":33,"NORMAL":34,"TEXCOORD_0":35},"indices":32,"material":8}],"name":"modgorsel5"},{"primitives":[{"attributes":{"POSITION":37,"NORMAL":38,"TEXCOORD_0":39},"indices":36,"material":9}],"name":"modlogo4"},{"primitives":[{"attributes":{"POSITION":41,"NORMAL":42,"TEXCOORD_0":43},"indices":40,"material":10}],"name":"modlogo1"},{"primitives":[{"attributes":{"POSITION":45,"NORMAL":46,"TEXCOORD_0":47},"indices":44,"material":11}],"name":"modlogo2"},{"primitives":[{"attributes":{"POSITION":49,"NORMAL":50,"TEXCOORD_0":51},"indices":48,"material":12}],"name":"moddikyazi1"},{"primitives":[{"attributes":{"POSITION":53,"NORMAL":54,"TEXCOORD_0":55},"indices":52,"material":13}],"name":"moddikgorsel1"},{"primitives":[{"attributes":{"POSITION":57,"NORMAL":58,"TEXCOORD_0":59},"indices":56,"material":14}],"name":"moddikgorsel2"},{"primitives":[{"attributes":{"POSITION":61,"NORMAL":62,"TEXCOORD_0":63},"indices":60,"material":15}],"name":"modgorsel7"},{"primitives":[{"attributes":{"POSITION":65,"NORMAL":66,"TEXCOORD_0":67},"indices":64,"material":16}],"name":"modrenk2"},{"primitives":[{"attributes":{"POSITION":69,"NORMAL":70,"TEXCOORD_0":71},"indices":68,"material":17}],"name":"modrenk1"},{"primitives":[{"attributes":{"POSITION":73,"NORMAL":74,"TEXCOORD_0":75},"indices":72,"material":18}],"name":"modgorsel8"},{"primitives":[{"attributes":{"POSITION":77,"NORMAL":78,"TEXCOORD_0":79},"indices":76,"material":19}],"name":"modyazi1"}],"accessors":[{"bufferView":0,"componentType":5123,"count":6,"type":"SCALAR","name":"accessorIndices"},{"bufferView":1,"componentType":5126,"count":4,"max":[1.05,0.0,1.05],"min":[-1.05,0.0,-1.05],"type":"VEC3","name":"accessorPositions"},{"bufferView":1,"byteOffset":48,"componentType":5126,"count":4,"type":"VEC3","name":"accessorNormals"},{"bufferView":2,"componentType":5126,"count":4,"type":"VEC2","name":"accessorUVs"},{"bufferView":0,"byteOffset":12,"componentType":5123,"count":6,"type":"SCALAR","name":"accessorIndices"},{"bufferView":1,"byteOffset":96,"componentType":5126,"count":4,"max":[0.5,0.0,0.5],"min":[-0.5,0.0,-0.5],"type":"VEC3","name":"accessorPositions"},{"bufferView":1,"byteOffset":144,"componentType":5126,"count":4,"type":"VEC3","name":"accessorNormals"},{"bufferView":2,"byteOffset":32,"componentType":5126,"count":4,"type":"VEC2","name":"accessorUVs"},{"bufferView":0,"byteOffset":24,"componentType":5123,"count":30,"type":"SCALAR","name":"accessorIndices"},{"bufferView":1,"byteOffset":192,"componentType":5126,"count":20,"max":[5.0,0.0,5.0],"min":[-5.0,-0.04999977,-5.0],"type":"VEC3","name":"accessorPositions"},{"bufferView":1,"byteOffset":432,"componentType":5126,"count":20,"type":"VEC3","name":"accessorNormals"},{"bufferView":2,"byteOffset":64,"componentType":5126,"count":20,"type":"VEC2","name":"accessorUVs"},{"bufferView":0,"byteOffset":84,"componentType":5123,"count":6,"type":"SCALAR","name":"accessorIndices"},{"bufferView":1,"byteOffset":672,"componentType":5126,"count":4,"max":[0.539999962,0.0,0.96],"min":[-0.539999962,0.0,-0.96],"type":"VEC3","name":"accessorPositions"},{"bufferView":1,"byteOffset":720,"componentType":5126,"count":4,"type":"VEC3","name":"accessorNormals"},{"bufferView":2,"byteOffset":224,"componentType":5126,"count":4,"type":"VEC2","name":"accessorUVs"},{"bufferView":0,"byteOffset":96,"componentType":5123,"count":6,"type":"SCALAR","name":"accessorIndices"},{"bufferView":1,"byteOffset":768,"componentType":5126,"count":4,"max":[1.05,0.0,1.05],"min":[-1.05,0.0,-1.05],"type":"VEC3","name":"accessorPositions"},{"bufferView":1,"byteOffset":816,"componentType":5126,"count":4,"type":"VEC3","name":"accessorNormals"},{"bufferView":2,"byteOffset":256,"componentType":5126,"count":4,"type":"VEC2","name":"accessorUVs"},{"bufferView":0,"byteOffset":108,"componentType":5123,"count":6,"type":"SCALAR","name":"accessorIndices"},{"bufferView":1,"byteOffset":864,"componentType":5126,"count":4,"max":[1.05,0.0,1.05],"min":[-1.05,0.0,-1.05],"type":"VEC3","name":"accessorPositions"},{"bufferView":1,"byteOffset":912,"componentType":5126,"count":4,"type":"VEC3","name":"accessorNormals"},{"bufferView":2,"byteOffset":288,"componentType":5126,"count":4,"type":"VEC2","name":"accessorUVs"},{"bufferView":0,"byteOffset":120,"componentType":5123,"count":6,"type":"SCALAR","name":"accessorIndices"},{"bufferView":1,"byteOffset":960,"componentType":5126,"count":4,"max":[1.05,0.0,1.05],"min":[-1.05,0.0,-1.05],"type":"VEC3","name":"accessorPositions"},{"bufferView":1,"byteOffset":1008,"componentType":5126,"count":4,"type":"VEC3","name":"accessorNormals"},{"bufferView":2,"byteOffset":320,"componentType":5126,"count":4,"type":"VEC2","name":"accessorUVs"},{"bufferView":0,"byteOffset":132,"componentType":5123,"count":6,"type":"SCALAR","name":"accessorIndices"},{"bufferView":1,"byteOffset":1056,"componentType":5126,"count":4,"max":[1.05,0.0,1.05],"min":[-1.05,0.0,-1.05],"type":"VEC3","name":"accessorPositions"},{"bufferView":1,"byteOffset":1104,"componentType":5126,"count":4,"type":"VEC3","name":"accessorNormals"},{"bufferView":2,"byteOffset":352,"componentType":5126,"count":4,"type":"VEC2","name":"accessorUVs"},{"bufferView":0,"byteOffset":144,"componentType":5123,"count":6,"type":"SCALAR","name":"accessorIndices"},{"bufferView":1,"byteOffset":1152,"componentType":5126,"count":4,"max":[1.05,0.0,1.05],"min":[-1.05,0.0,-1.05],"type":"VEC3","name":"accessorPositions"},{"bufferView":1,"byteOffset":1200,"componentType":5126,"count":4,"type":"VEC3","name":"accessorNormals"},{"bufferView":2,"byteOffset":384,"componentType":5126,"count":4,"type":"VEC2","name":"accessorUVs"},{"bufferView":0,"byteOffset":156,"componentType":5123,"count":6,"type":"SCALAR","name":"accessorIndices"},{"bufferView":1,"byteOffset":1248,"componentType":5126,"count":4,"max":[1.05,0.0,1.05],"min":[-1.05,0.0,-1.05],"type":"VEC3","name":"accessorPositions"},{"bufferView":1,"byteOffset":1296,"componentType":5126,"count":4,"type":"VEC3","name":"accessorNormals"},{"bufferView":2,"byteOffset":416,"componentType":5126,"count":4,"type":"VEC2","name":"accessorUVs"},{"bufferView":0,"byteOffset":168,"componentType":5123,"count":6,"type":"SCALAR","name":"accessorIndices"},{"bufferView":1,"byteOffset":1344,"componentType":5126,"count":4,"max":[0.5,0.0,0.5],"min":[-0.5,0.0,-0.5],"type":"VEC3","name":"accessorPositions"},{"bufferView":1,"byteOffset":1392,"componentType":5126,"count":4,"type":"VEC3","name":"accessorNormals"},{"bufferView":2,"byteOffset":448,"componentType":5126,"count":4,"type":"VEC2","name":"accessorUVs"},{"bufferView":0,"byteOffset":180,"componentType":5123,"count":6,"type":"SCALAR","name":"accessorIndices"},{"bufferView":1,"byteOffset":1440,"componentType":5126,"count":4,"max":[0.5,0.0,0.5],"min":[-0.5,0.0,-0.5],"type":"VEC3","name":"accessorPositions"},{"bufferView":1,"byteOffset":1488,"componentType":5126,"count":4,"type":"VEC3","name":"accessorNormals"},{"bufferView":2,"byteOffset":480,"componentType":5126,"count":4,"type":"VEC2","name":"accessorUVs"},{"bufferView":0,"byteOffset":192,"componentType":5123,"count":6,"type":"SCALAR","name":"accessorIndices"},{"bufferView":1,"byteOffset":1536,"componentType":5126,"count":4,"max":[0.25,0.0,0.75],"min":[-0.25,0.0,-0.75],"type":"VEC3","name":"accessorPositions"},{"bufferView":1,"byteOffset":1584,"componentType":5126,"count":4,"type":"VEC3","name":"accessorNormals"},{"bufferView":2,"byteOffset":512,"componentType":5126,"count":4,"type":"VEC2","name":"accessorUVs"},{"bufferView":0,"byteOffset":204,"componentType":5123,"count":6,"type":"SCALAR","name":"accessorIndices"},{"bufferView":1,"byteOffset":1632,"componentType":5126,"count":4,"max":[1.485,0.0,1.05],"min":[-1.485,0.0,-1.05],"type":"VEC3","name":"accessorPositions"},{"bufferView":1,"byteOffset":1680,"componentType":5126,"count":4,"type":"VEC3","name":"accessorNormals"},{"bufferView":2,"byteOffset":544,"componentType":5126,"count":4,"type":"VEC2","name":"accessorUVs"},{"bufferView":0,"byteOffset":216,"componentType":5123,"count":6,"type":"SCALAR","name":"accessorIndices"},{"bufferView":1,"byteOffset":1728,"componentType":5126,"count":4,"max":[1.485,0.0,1.05],"min":[-1.485,0.0,-1.05],"type":"VEC3","name":"accessorPositions"},{"bufferView":1,"byteOffset":1776,"componentType":5126,"count":4,"type":"VEC3","name":"accessorNormals"},{"bufferView":2,"byteOffset":576,"componentType":5126,"count":4,"type":"VEC2","name":"accessorUVs"},{"bufferView":0,"byteOffset":228,"componentType":5123,"count":6,"type":"SCALAR","name":"accessorIndices"},{"bufferView":1,"byteOffset":1824,"componentType":5126,"count":4,"max":[1.05,0.0,1.05],"min":[-1.05,0.0,-1.05],"type":"VEC3","name":"accessorPositions"},{"bufferView":1,"byteOffset":1872,"componentType":5126,"count":4,"type":"VEC3","name":"accessorNormals"},{"bufferView":2,"byteOffset":608,"componentType":5126,"count":4,"type":"VEC2","name":"accessorUVs"},{"bufferView":0,"byteOffset":240,"componentType":5123,"count":1734,"type":"SCALAR","name":"accessorIndices"},{"bufferView":1,"byteOffset":1920,"componentType":5126,"count":1132,"max":[3.74365735,4.499679,1.13035059],"min":[-5.92454,-0.0264377519,-8.333627],"type":"VEC3","name":"accessorPositions"},{"bufferView":1,"byteOffset":15504,"componentType":5126,"count":1132,"type":"VEC3","name":"accessorNormals"},{"bufferView":2,"byteOffset":640,"componentType":5126,"count":1132,"type":"VEC2","name":"accessorUVs"},{"bufferView":0,"byteOffset":3708,"componentType":5123,"count":204,"type":"SCALAR","name":"accessorIndices"},{"bufferView":1,"byteOffset":29088,"componentType":5126,"count":136,"max":[0.199999988,4.5,7.66774],"min":[-8.674182,-0.0257687178,-1.84888136],"type":"VEC3","name":"accessorPositions"},{"bufferView":1,"byteOffset":30720,"componentType":5126,"count":136,"type":"VEC3","name":"accessorNormals"},{"bufferView":2,"byteOffset":9696,"componentType":5126,"count":136,"type":"VEC2","name":"accessorUVs"},{"bufferView":0,"byteOffset":4116,"componentType":5123,"count":6,"type":"SCALAR","name":"accessorIndices"},{"bufferView":1,"byteOffset":32352,"componentType":5126,"count":4,"max":[1.05,0.0,1.05],"min":[-1.05,0.0,-1.05],"type":"VEC3","name":"accessorPositions"},{"bufferView":1,"byteOffset":32400,"componentType":5126,"count":4,"type":"VEC3","name":"accessorNormals"},{"bufferView":2,"byteOffset":10784,"componentType":5126,"count":4,"type":"VEC2","name":"accessorUVs"},{"bufferView":0,"byteOffset":4128,"componentType":5123,"count":6,"type":"SCALAR","name":"accessorIndices"},{"bufferView":1,"byteOffset":32448,"componentType":5126,"count":6,"max":[0.0749999955,0.0,0.0249999985],"min":[-0.0749999955,0.0,-0.0249999985],"type":"VEC3","name":"accessorPositions"},{"bufferView":1,"byteOffset":32520,"componentType":5126,"count":6,"type":"VEC3","name":"accessorNormals"},{"bufferView":2,"byteOffset":10816,"componentType":5126,"count":6,"type":"VEC2","name":"accessorUVs"}],"bufferViews":[{"buffer":0,"byteLength":4140,"name":"bufferViewScalar"},{"buffer":0,"byteOffset":4140,"byteLength":32592,"byteStride":12,"name":"bufferViewFloatVec3"},{"buffer":0,"byteOffset":36732,"byteLength":10864,"byteStride":8,"name":"bufferViewFloatVec2"}],"buffers":[{"uri":"stant35.bin","byteLength":47596}],"materials":[{"pbrMetallicRoughness":{"baseColorTexture":{"index":0,"extensions":{"KHR_texture_transform":{"texCoord":0}}},"metallicFactor":0.0,"roughnessFactor":0.5},"doubleSided":true,"name":"matgorsel6","extras":{"babylonSeparateCullingPass":false}},{"pbrMetallicRoughness":{"baseColorTexture":{"index":1,"extensions":{"KHR_texture_transform":{"texCoord":0}}},"metallicFactor":0.0,"roughnessFactor":0.5},"doubleSided":true,"name":"matlogo3","extras":{"babylonSeparateCullingPass":false}},{"pbrMetallicRoughness":{"baseColorTexture":{"index":3,"extensions":{"KHR_texture_transform":{"texCoord":0}}},"metallicFactor":0.0,"metallicRoughnessTexture":{"index":4,"extensions":{"KHR_texture_transform":{"texCoord":0}}}},"normalTexture":{"index":2,"scale":0.3,"extensions":{"KHR_texture_transform":{"texCoord":0}}},"doubleSided":true,"name":"matkaro1","extras":{"babylonSeparateCullingPass":false}},{"pbrMetallicRoughness":{"baseColorTexture":{"index":5,"extensions":{"KHR_texture_transform":{"texCoord":0}}},"metallicFactor":0.0,"roughnessFactor":0.5},"doubleSided":true,"name":"matvideo1","extras":{"babylonSeparateCullingPass":false}},{"pbrMetallicRoughness":{"baseColorTexture":{"index":6,"extensions":{"KHR_texture_transform":{"texCoord":0}}},"metallicFactor":0.0,"roughnessFactor":0.5},"doubleSided":true,"name":"matgorsel1","extras":{"babylonSeparateCullingPass":false}},{"pbrMetallicRoughness":{"baseColorTexture":{"index":7,"extensions":{"KHR_texture_transform":{"texCoord":0}}},"metallicFactor":0.0,"roughnessFactor":0.5},"doubleSided":true,"name":"matgorsel2","extras":{"babylonSeparateCullingPass":false}},{"pbrMetallicRoughness":{"baseColorTexture":{"index":8,"extensions":{"KHR_texture_transform":{"texCoord":0}}},"metallicFactor":0.0,"roughnessFactor":0.5},"doubleSided":true,"name":"matgorsel3","extras":{"babylonSeparateCullingPass":false}},{"pbrMetallicRoughness":{"baseColorTexture":{"index":9,"extensions":{"KHR_texture_transform":{"texCoord":0}}},"metallicFactor":0.0,"roughnessFactor":0.5},"doubleSided":true,"name":"matgorsel4","extras":{"babylonSeparateCullingPass":false}},{"pbrMetallicRoughness":{"baseColorTexture":{"index":10,"extensions":{"KHR_texture_transform":{"texCoord":0}}},"metallicFactor":0.0,"roughnessFactor":0.5},"doubleSided":true,"name":"matgorsel5","extras":{"babylonSeparateCullingPass":false}},{"pbrMetallicRoughness":{"baseColorTexture":{"index":11,"extensions":{"KHR_texture_transform":{"texCoord":0}}},"metallicFactor":0.0,"roughnessFactor":0.5},"doubleSided":true,"name":"matlogo4","extras":{"babylonSeparateCullingPass":false}},{"pbrMetallicRoughness":{"baseColorTexture":{"index":12,"extensions":{"KHR_texture_transform":{"texCoord":0}}},"metallicFactor":0.0,"roughnessFactor":0.5},"doubleSided":true,"name":"matlogo1","extras":{"babylonSeparateCullingPass":false}},{"pbrMetallicRoughness":{"baseColorTexture":{"index":13,"extensions":{"KHR_texture_transform":{"texCoord":0}}},"metallicFactor":0.0,"roughnessFactor":0.5},"doubleSided":true,"name":"matlogo2","extras":{"babylonSeparateCullingPass":false}},{"pbrMetallicRoughness":{"baseColorTexture":{"index":14,"extensions":{"KHR_texture_transform":{"texCoord":0}}},"metallicFactor":0.0,"roughnessFactor":0.5},"doubleSided":true,"name":"matdikyazi1","extras":{"babylonSeparateCullingPass":false}},{"pbrMetallicRoughness":{"baseColorTexture":{"index":15,"extensions":{"KHR_texture_transform":{"texCoord":0}}},"metallicFactor":0.0,"roughnessFactor":0.5},"doubleSided":true,"name":"matdikgorsel1","extras":{"babylonSeparateCullingPass":false}},{"pbrMetallicRoughness":{"baseColorTexture":{"index":16,"extensions":{"KHR_texture_transform":{"texCoord":0}}},"metallicFactor":0.0,"roughnessFactor":0.5},"doubleSided":true,"name":"matdikgorsel2","extras":{"babylonSeparateCullingPass":false}},{"pbrMetallicRoughness":{"baseColorTexture":{"index":17,"extensions":{"KHR_texture_transform":{"texCoord":0}}},"metallicFactor":0.0,"roughnessFactor":0.5},"doubleSided":true,"name":"matgorsel7","extras":{"babylonSeparateCullingPass":false}},{"pbrMetallicRoughness":{"baseColorFactor":[0.184313729,0.482352972,0.494117677,1.0],"metallicFactor":0.0,"metallicRoughnessTexture":{"index":19,"extensions":{"KHR_texture_transform":{"texCoord":0}}}},"normalTexture":{"index":18,"scale":0.3,"extensions":{"KHR_texture_transform":{"texCoord":0}}},"doubleSided":true,"name":"matrenk2","extras":{"babylonSeparateCullingPass":false}},{"pbrMetallicRoughness":{"baseColorFactor":[0.05755396,0.04623639,0.04057761,1.0],"metallicFactor":0.0,"metallicRoughnessTexture":{"index":19,"extensions":{"KHR_texture_transform":{"texCoord":0}}}},"normalTexture":{"index":18,"scale":0.3,"extensions":{"KHR_texture_transform":{"texCoord":0}}},"doubleSided":true,"name":"matrenk1","extras":{"babylonSeparateCullingPass":false}},{"pbrMetallicRoughness":{"baseColorTexture":{"index":22,"extensions":{"KHR_texture_transform":{"texCoord":0}}},"metallicFactor":0.0,"roughnessFactor":0.5},"doubleSided":true,"name":"matgorsel8","extras":{"babylonSeparateCullingPass":false}},{"pbrMetallicRoughness":{"baseColorTexture":{"index":23,"extensions":{"KHR_texture_transform":{"texCoord":0}}},"metallicFactor":0.0,"roughnessFactor":0.5},"doubleSided":true,"name":"matyazi1","extras":{"babylonSeparateCullingPass":false}}],"textures":[{"sampler":0,"source":0,"name":"matgorsel6.png"},{"sampler":0,"source":1,"name":"matlogo3.png"},{"sampler":0,"source":2,"name":"matkaronormal.png"},{"sampler":0,"source":3,"name":"matkaro1.png"},{"sampler":0,"source":4,"name":"matkaroroughness0.png"},{"sampler":0,"source":5,"name":"matvideo1.png"},{"sampler":0,"source":6,"name":"matgorsel1.png"},{"sampler":0,"source":7,"name":"matgorsel2.png"},{"sampler":0,"source":8,"name":"matgorsel3.png"},{"sampler":0,"source":9,"name":"matgorsel4.png"},{"sampler":0,"source":10,"name":"matgorsel5.png"},{"sampler":0,"source":11,"name":"matlogo4.png"},{"sampler":0,"source":12,"name":"matlogo1.png"},{"sampler":0,"source":13,"name":"matlogo2.png"},{"sampler":0,"source":14,"name":"matdikyazi1.png"},{"sampler":0,"source":15,"name":"matdikgorsel1.png"},{"sampler":0,"source":16,"name":"matdikgorsel2.png"},{"sampler":0,"source":17,"name":"matgorsel7.png"},{"sampler":0,"source":18,"name":"matrenknormal.png"},{"sampler":0,"source":19,"name":"matrenkroughness0.png"},{"sampler":0,"source":18,"name":"matrenknormal.png"},{"sampler":0,"source":19,"name":"matrenkroughness0.png"},{"sampler":0,"source":20,"name":"matgorsel8.png"},{"sampler":0,"source":21,"name":"matyazi1.png"}],"images":[{"uri":"./matgorsel6.png"},{"uri":"./matlogo3.png"},{"uri":"./matkaronormal.png"},{"uri":"./matkaro1.png"},{"uri":"./matkaroroughness0.png"},{"uri":"./matvideo1.png"},{"uri":"./matgorsel1.png"},{"uri":"./matgorsel2.png"},{"uri":"./matgorsel3.png"},{"uri":"./matgorsel4.png"},{"uri":"./matgorsel5.png"},{"uri":"./matlogo4.png"},{"uri":"./matlogo1.png"},{"uri":"./matlogo2.png"},{"uri":"./matdikyazi1.png"},{"uri":"./matdikgorsel1.png"},{"uri":"./matdikgorsel2.png"},{"uri":"./matgorsel7.png"},{"uri":"./matrenknormal.png"},{"uri":"./matrenkroughness0.png"},{"uri":"./matgorsel8.png"},{"uri":"./matyazi1.png"}],"samplers":[{"magFilter":9729,"minFilter":9987}]}