{"asset":{"version":"2.0","generator":"babylon.js glTF exporter for 3dsmax 2018 v20210615.1"},"extensionsUsed":["KHR_texture_transform"],"extensionsRequired":["KHR_texture_transform"],"scene":0,"scenes":[{"nodes":[0]}],"nodes":[{"children":[1,2,3,4,5,6,7,8,9,10,11,12,13,14,15,16,17,18],"translation":[-0.00305307377,0.0,0.00418386469],"name":"Group001"},{"mesh":0,"translation":[0.185784817,0.0740469545,0.443547964],"rotation":[-0.7071068,0.0,0.0,0.7071067],"scale":[0.099999994,0.099999994,0.099999994],"name":"modengel"},{"mesh":1,"translation":[0.00299934763,0.0,-0.00193294522],"scale":[0.099999994,0.099999994,0.099999994],"name":"modzemin"},{"mesh":2,"translation":[-0.472000659,0.234288782,-0.0575338155],"rotation":[0.5,-0.5,0.50000006,0.49999994],"scale":[0.099999994,0.099999994,0.099999994],"name":"modrenk1"},{"mesh":3,"translation":[-0.09732381,0.393666059,0.110694677],"scale":[0.099999994,0.099999994,0.099999994],"name":"modrenk2"},{"mesh":4,"translation":[0.2975068,0.162233427,-0.448958039],"rotation":[0.7071068,0.0,0.0,0.7071067],"scale":[0.144897416,0.144897416,0.144897416],"name":"modvideo1"},{"mesh":5,"translation":[-0.448409021,0.355510235,-0.402000338],"rotation":[0.5,-0.5,0.50000006,0.49999994],"scale":[0.127089992,0.127089992,0.127089992],"name":"modyazi1"},{"mesh":6,"translation":[0.5057224,0.195354909,-0.0199908055],"rotation":[-0.5,-0.5,0.5,-0.5],"scale":[0.117414989,0.117414989,0.117414989],"name":"moddikgorsel1"},{"mesh":7,"translation":[0.117633991,0.250086963,0.468511343],"rotation":[-5.3385083E-08,-0.7071068,0.7071068,-5.3385083E-08],"scale":[0.07455262,0.07455262,0.07455262],"name":"modgorsel1"},{"mesh":8,"translation":[-0.499898,0.0541369244,-0.4034078],"rotation":[0.5,-0.5,0.50000006,0.49999994],"scale":[0.045358222,0.045358222,0.045358222],"name":"modlogo1"},{"mesh":9,"translation":[-0.498704433,0.243303671,0.439487368],"rotation":[0.5,-0.5,0.50000006,0.49999994],"scale":[0.0558336824,0.0558336824,0.0558336824],"name":"modlogo2"},{"mesh":10,"translation":[0.08745493,0.299447924,0.481415778],"rotation":[0.7071068,0.0,0.0,0.7071067],"scale":[0.0500256978,0.0500256978,0.0500256978],"name":"modlogo3"},{"mesh":11,"translation":[0.113860868,0.210437164,0.480493844],"rotation":[0.7071068,0.0,0.0,0.7071067],"scale":[0.127089992,0.127089992,0.127089992],"name":"modyazi2"},{"mesh":12,"translation":[0.5058555,0.1474379,-0.3109026],"rotation":[-0.5,-0.5,0.5,-0.5],"scale":[0.125360176,0.125360176,0.125360176],"name":"modlogo4"},{"mesh":13,"translation":[0.5060041,0.3276944,-0.3113091],"rotation":[-0.5,-0.5,0.5,-0.5],"scale":[0.165866524,0.165866524,0.165866524],"name":"modyazi3"},{"mesh":14,"translation":[0.2972236,0.3276944,-0.504123449],"rotation":[2.83789745E-07,-0.7071068,0.7071068,2.83789717E-07],"scale":[0.165866524,0.165866524,0.165866524],"name":"modyazi4"},{"mesh":15,"translation":[0.387723446,0.150256038,-0.504104733],"rotation":[2.83789774E-07,-0.7071068,0.7071068,2.83789745E-07],"scale":[0.07428978,0.07428978,0.07428978],"name":"moddikgorsel2"},{"mesh":16,"translation":[0.2057429,0.150256038,-0.504104733],"rotation":[2.83789774E-07,-0.7071068,0.7071068,2.83789745E-07],"scale":[0.07428978,0.07428978,0.07428978],"name":"moddikgorsel3"},{"mesh":17,"translation":[0.490594238,0.160415038,-0.16015631],"rotation":[-0.5,0.5,-0.5,-0.5],"scale":[0.0374694951,0.0430126525,0.03900903],"name":"modgenisgorsel"}],"meshes":[{"primitives":[{"attributes":{"POSITION":1,"NORMAL":2,"TEXCOORD_0":3},"indices":0,"material":0}],"name":"modengel"},{"primitives":[{"attributes":{"POSITION":5,"NORMAL":6,"TEXCOORD_0":7},"indices":4,"material":1}],"name":"modzemin"},{"primitives":[{"attributes":{"POSITION":9,"NORMAL":10,"TEXCOORD_0":11},"indices":8,"material":2}],"name":"modrenk1"},{"primitives":[{"attributes":{"POSITION":13,"NORMAL":14,"TEXCOORD_0":15},"indices":12,"material":3}],"name":"modrenk2"},{"primitives":[{"attributes":{"POSITION":17,"NORMAL":18,"TEXCOORD_0":19},"indices":16,"material":4}],"name":"modvideo1"},{"primitives":[{"attributes":{"POSITION":21,"NORMAL":22,"TEXCOORD_0":23},"indices":20,"material":5}],"name":"modyazi1"},{"primitives":[{"attributes":{"POSITION":25,"NORMAL":26,"TEXCOORD_0":27},"indices":24,"material":6}],"name":"moddikgorsel1"},{"primitives":[{"attributes":{"POSITION":29,"NORMAL":30,"TEXCOORD_0":31},"indices":28,"material":7}],"name":"modgorsel1"},{"primitives":[{"attributes":{"POSITION":33,"NORMAL":34,"TEXCOORD_0":35},"indices":32,"material":8}],"name":"modlogo1"},{"primitives":[{"attributes":{"POSITION":37,"NORMAL":38,"TEXCOORD_0":39},"indices":36,"material":9}],"name":"modlogo2"},{"primitives":[{"attributes":{"POSITION":41,"NORMAL":42,"TEXCOORD_0":43},"indices":40,"material":10}],"name":"modlogo3"},{"primitives":[{"attributes":{"POSITION":45,"NORMAL":46,"TEXCOORD_0":47},"indices":44,"material":11}],"name":"modyazi2"},{"primitives":[{"attributes":{"POSITION":49,"NORMAL":50,"TEXCOORD_0":51},"indices":48,"material":12}],"name":"modlogo4"},{"primitives":[{"attributes":{"POSITION":53,"NORMAL":54,"TEXCOORD_0":55},"indices":52,"material":13}],"name":"modyazi3"},{"primitives":[{"attributes":{"POSITION":57,"NORMAL":58,"TEXCOORD_0":59},"indices":56,"material":14}],"name":"modyazi4"},{"primitives":[{"attributes":{"POSITION":61,"NORMAL":62,"TEXCOORD_0":63},"indices":60,"material":15}],"name":"moddikgorsel2"},{"primitives":[{"attributes":{"POSITION":65,"NORMAL":66,"TEXCOORD_0":67},"indices":64,"material":16}],"name":"moddikgorsel3"},{"primitives":[{"attributes":{"POSITION":69,"NORMAL":70,"TEXCOORD_0":71},"indices":68,"material":17}],"name":"modgenisgorsel"}],"accessors":[{"bufferView":0,"componentType":5123,"count":42,"type":"SCALAR","name":"accessorIndices"},{"bufferView":1,"componentType":5126,"count":30,"max":[1.66969252,0.9449539,2.47205138],"min":[-6.91789,-0.60575527,-0.758888364],"type":"VEC3","name":"accessorPositions"},{"bufferView":1,"byteOffset":360,"componentType":5126,"count":30,"type":"VEC3","name":"accessorNormals"},{"bufferView":2,"componentType":5126,"count":30,"type":"VEC2","name":"accessorUVs"},{"bufferView":0,"byteOffset":84,"componentType":5123,"count":30,"type":"SCALAR","name":"accessorIndices"},{"bufferView":1,"byteOffset":720,"componentType":5126,"count":30,"max":[5.0,0.049999997,5.0],"min":[-5.0,0.0,-5.0],"type":"VEC3","name":"accessorPositions"},{"bufferView":1,"byteOffset":1080,"componentType":5126,"count":30,"type":"VEC3","name":"accessorNormals"},{"bufferView":2,"byteOffset":240,"componentType":5126,"count":30,"type":"VEC2","name":"accessorUVs"},{"bufferView":0,"byteOffset":144,"componentType":5123,"count":780,"type":"SCALAR","name":"accessorIndices"},{"bufferView":1,"byteOffset":1440,"componentType":5126,"count":780,"max":[5.55600929,0.250000179,2.292888],"min":[-4.44399261,-9.750002,-2.15711212],"type":"VEC3","name":"accessorPositions"},{"bufferView":1,"byteOffset":10800,"componentType":5126,"count":780,"type":"VEC3","name":"accessorNormals"},{"bufferView":2,"byteOffset":480,"componentType":5126,"count":780,"type":"VEC2","name":"accessorUVs"},{"bufferView":0,"byteOffset":1704,"componentType":5123,"count":498,"type":"SCALAR","name":"accessorIndices"},{"bufferView":1,"byteOffset":20160,"componentType":5126,"count":498,"max":[6.00323153,0.56334,3.8737247],"min":[-3.99676871,-3.88666058,-6.126276],"type":"VEC3","name":"accessorPositions"},{"bufferView":1,"byteOffset":26136,"componentType":5126,"count":498,"type":"VEC3","name":"accessorNormals"},{"bufferView":2,"byteOffset":6720,"componentType":5126,"count":498,"type":"VEC2","name":"accessorUVs"},{"bufferView":0,"byteOffset":2700,"componentType":5123,"count":6,"type":"SCALAR","name":"accessorIndices"},{"bufferView":1,"byteOffset":32112,"componentType":5126,"count":6,"max":[0.96,0.0,0.539999962],"min":[-0.96,0.0,-0.539999962],"type":"VEC3","name":"accessorPositions"},{"bufferView":1,"byteOffset":32184,"componentType":5126,"count":6,"type":"VEC3","name":"accessorNormals"},{"bufferView":2,"byteOffset":10704,"componentType":5126,"count":6,"type":"VEC2","name":"accessorUVs"},{"bufferView":0,"byteOffset":2712,"componentType":5123,"count":6,"type":"SCALAR","name":"accessorIndices"},{"bufferView":1,"byteOffset":32256,"componentType":5126,"count":6,"max":[0.75,0.0,0.25],"min":[-0.75,0.0,-0.25],"type":"VEC3","name":"accessorPositions"},{"bufferView":1,"byteOffset":32328,"componentType":5126,"count":6,"type":"VEC3","name":"accessorNormals"},{"bufferView":2,"byteOffset":10752,"componentType":5126,"count":6,"type":"VEC2","name":"accessorUVs"},{"bufferView":0,"byteOffset":2724,"componentType":5123,"count":6,"type":"SCALAR","name":"accessorIndices"},{"bufferView":1,"byteOffset":32400,"componentType":5126,"count":6,"max":[1.05,0.0,1.485],"min":[-1.05,0.0,-1.485],"type":"VEC3","name":"accessorPositions"},{"bufferView":1,"byteOffset":32472,"componentType":5126,"count":6,"type":"VEC3","name":"accessorNormals"},{"bufferView":2,"byteOffset":10800,"componentType":5126,"count":6,"type":"VEC2","name":"accessorUVs"},{"bufferView":0,"byteOffset":2736,"componentType":5123,"count":6,"type":"SCALAR","name":"accessorIndices"},{"bufferView":1,"byteOffset":32544,"componentType":5126,"count":6,"max":[1.0,0.0,1.0],"min":[-1.0,0.0,-1.0],"type":"VEC3","name":"accessorPositions"},{"bufferView":1,"byteOffset":32616,"componentType":5126,"count":6,"type":"VEC3","name":"accessorNormals"},{"bufferView":2,"byteOffset":10848,"componentType":5126,"count":6,"type":"VEC2","name":"accessorUVs"},{"bufferView":0,"byteOffset":2748,"componentType":5123,"count":6,"type":"SCALAR","name":"accessorIndices"},{"bufferView":1,"byteOffset":32688,"componentType":5126,"count":6,"max":[1.0,0.0,1.0],"min":[-1.0,0.0,-1.0],"type":"VEC3","name":"accessorPositions"},{"bufferView":1,"byteOffset":32760,"componentType":5126,"count":6,"type":"VEC3","name":"accessorNormals"},{"bufferView":2,"byteOffset":10896,"componentType":5126,"count":6,"type":"VEC2","name":"accessorUVs"},{"bufferView":0,"byteOffset":2760,"componentType":5123,"count":6,"type":"SCALAR","name":"accessorIndices"},{"bufferView":1,"byteOffset":32832,"componentType":5126,"count":6,"max":[1.0,0.0,1.0],"min":[-1.0,0.0,-1.0],"type":"VEC3","name":"accessorPositions"},{"bufferView":1,"byteOffset":32904,"componentType":5126,"count":6,"type":"VEC3","name":"accessorNormals"},{"bufferView":2,"byteOffset":10944,"componentType":5126,"count":6,"type":"VEC2","name":"accessorUVs"},{"bufferView":0,"byteOffset":2772,"componentType":5123,"count":6,"type":"SCALAR","name":"accessorIndices"},{"bufferView":1,"byteOffset":32976,"componentType":5126,"count":6,"max":[1.0,0.0,1.0],"min":[-1.0,0.0,-1.0],"type":"VEC3","name":"accessorPositions"},{"bufferView":1,"byteOffset":33048,"componentType":5126,"count":6,"type":"VEC3","name":"accessorNormals"},{"bufferView":2,"byteOffset":10992,"componentType":5126,"count":6,"type":"VEC2","name":"accessorUVs"},{"bufferView":0,"byteOffset":2784,"componentType":5123,"count":6,"type":"SCALAR","name":"accessorIndices"},{"bufferView":1,"byteOffset":33120,"componentType":5126,"count":6,"max":[0.75,0.0,0.25],"min":[-0.75,0.0,-0.25],"type":"VEC3","name":"accessorPositions"},{"bufferView":1,"byteOffset":33192,"componentType":5126,"count":6,"type":"VEC3","name":"accessorNormals"},{"bufferView":2,"byteOffset":11040,"componentType":5126,"count":6,"type":"VEC2","name":"accessorUVs"},{"bufferView":0,"byteOffset":2796,"componentType":5123,"count":6,"type":"SCALAR","name":"accessorIndices"},{"bufferView":1,"byteOffset":33264,"componentType":5126,"count":6,"max":[1.0,0.0,1.0],"min":[-1.0,0.0,-1.0],"type":"VEC3","name":"accessorPositions"},{"bufferView":1,"byteOffset":33336,"componentType":5126,"count":6,"type":"VEC3","name":"accessorNormals"},{"bufferView":2,"byteOffset":11088,"componentType":5126,"count":6,"type":"VEC2","name":"accessorUVs"},{"bufferView":0,"byteOffset":2808,"componentType":5123,"count":6,"type":"SCALAR","name":"accessorIndices"},{"bufferView":1,"byteOffset":33408,"componentType":5126,"count":6,"max":[0.75,0.0,0.25],"min":[-0.75,0.0,-0.25],"type":"VEC3","name":"accessorPositions"},{"bufferView":1,"byteOffset":33480,"componentType":5126,"count":6,"type":"VEC3","name":"accessorNormals"},{"bufferView":2,"byteOffset":11136,"componentType":5126,"count":6,"type":"VEC2","name":"accessorUVs"},{"bufferView":0,"byteOffset":2820,"componentType":5123,"count":6,"type":"SCALAR","name":"accessorIndices"},{"bufferView":1,"byteOffset":33552,"componentType":5126,"count":6,"max":[0.75,0.0,0.25],"min":[-0.75,0.0,-0.25],"type":"VEC3","name":"accessorPositions"},{"bufferView":1,"byteOffset":33624,"componentType":5126,"count":6,"type":"VEC3","name":"accessorNormals"},{"bufferView":2,"byteOffset":11184,"componentType":5126,"count":6,"type":"VEC2","name":"accessorUVs"},{"bufferView":0,"byteOffset":2832,"componentType":5123,"count":6,"type":"SCALAR","name":"accessorIndices"},{"bufferView":1,"byteOffset":33696,"componentType":5126,"count":6,"max":[1.05,0.0,1.485],"min":[-1.05,0.0,-1.485],"type":"VEC3","name":"accessorPositions"},{"bufferView":1,"byteOffset":33768,"componentType":5126,"count":6,"type":"VEC3","name":"accessorNormals"},{"bufferView":2,"byteOffset":11232,"componentType":5126,"count":6,"type":"VEC2","name":"accessorUVs"},{"bufferView":0,"byteOffset":2844,"componentType":5123,"count":6,"type":"SCALAR","name":"accessorIndices"},{"bufferView":1,"byteOffset":33840,"componentType":5126,"count":6,"max":[1.05,0.0,1.485],"min":[-1.05,0.0,-1.485],"type":"VEC3","name":"accessorPositions"},{"bufferView":1,"byteOffset":33912,"componentType":5126,"count":6,"type":"VEC3","name":"accessorNormals"},{"bufferView":2,"byteOffset":11280,"componentType":5126,"count":6,"type":"VEC2","name":"accessorUVs"},{"bufferView":0,"byteOffset":2856,"componentType":5123,"count":6,"type":"SCALAR","name":"accessorIndices"},{"bufferView":1,"byteOffset":33984,"componentType":5126,"count":6,"max":[7.5242424,1.70232809E-07,3.61323881],"min":[-7.323958,-2.469449E-07,-5.422845],"type":"VEC3","name":"accessorPositions"},{"bufferView":1,"byteOffset":34056,"componentType":5126,"count":6,"type":"VEC3","name":"accessorNormals"},{"bufferView":2,"byteOffset":11328,"componentType":5126,"count":6,"type":"VEC2","name":"accessorUVs"}],"bufferViews":[{"buffer":0,"byteLength":2868,"name":"bufferViewScalar"},{"buffer":0,"byteOffset":2868,"byteLength":34128,"byteStride":12,"name":"bufferViewFloatVec3"},{"buffer":0,"byteOffset":36996,"byteLength":11376,"byteStride":8,"name":"bufferViewFloatVec2"}],"buffers":[{"uri":"stant56.bin","byteLength":48372}],"materials":[{"pbrMetallicRoughness":{"baseColorFactor":[0.0,0.0,0.0,0.0],"metallicFactor":0.0,"roughnessFactor":0.5},"alphaMode":"BLEND","doubleSided":true,"name":"matengel","extras":{"babylonSeparateCullingPass":false}},{"pbrMetallicRoughness":{"baseColorFactor":[0.323741019,0.323741019,0.323741019,1.0],"metallicFactor":0.0,"metallicRoughnessTexture":{"index":1,"extensions":{"KHR_texture_transform":{"texCoord":0}}}},"normalTexture":{"index":0,"scale":0.3,"extensions":{"KHR_texture_transform":{"texCoord":0}}},"name":"matzemin","extras":{"babylonSeparateCullingPass":false}},{"pbrMetallicRoughness":{"baseColorFactor":[0.10806895,0.2570824,0.258992821,1.0],"metallicFactor":0.0,"metallicRoughnessTexture":{"index":1,"extensions":{"KHR_texture_transform":{"texCoord":0}}}},"normalTexture":{"index":0,"scale":0.3,"extensions":{"KHR_texture_transform":{"texCoord":0}}},"name":"matrenk1","extras":{"babylonSeparateCullingPass":false}},{"pbrMetallicRoughness":{"baseColorFactor":[0.0392156877,0.0392156877,0.0392156877,1.0],"metallicFactor":0.0,"metallicRoughnessTexture":{"index":1,"extensions":{"KHR_texture_transform":{"texCoord":0}}}},"normalTexture":{"index":0,"scale":0.3,"extensions":{"KHR_texture_transform":{"texCoord":0}}},"name":"matrenk2","extras":{"babylonSeparateCullingPass":false}},{"pbrMetallicRoughness":{"baseColorTexture":{"index":6,"extensions":{"KHR_texture_transform":{"texCoord":0}}},"metallicFactor":0.0,"roughnessFactor":0.5},"name":"matvideo1","extras":{"babylonSeparateCullingPass":false}},{"pbrMetallicRoughness":{"baseColorTexture":{"index":7,"extensions":{"KHR_texture_transform":{"texCoord":0}}},"metallicFactor":0.0,"roughnessFactor":0.5},"name":"matyazi1","extras":{"babylonSeparateCullingPass":false}},{"pbrMetallicRoughness":{"baseColorTexture":{"index":8,"extensions":{"KHR_texture_transform":{"texCoord":0}}},"metallicFactor":0.0,"roughnessFactor":0.5},"name":"matdikgorsel1","extras":{"babylonSeparateCullingPass":false}},{"pbrMetallicRoughness":{"baseColorTexture":{"index":9,"extensions":{"KHR_texture_transform":{"texCoord":0}}},"metallicFactor":0.0,"roughnessFactor":0.5},"name":"matgorsel1","extras":{"babylonSeparateCullingPass":false}},{"pbrMetallicRoughness":{"baseColorTexture":{"index":10,"extensions":{"KHR_texture_transform":{"texCoord":0}}},"metallicFactor":0.0,"roughnessFactor":0.5},"name":"matlogo1","extras":{"babylonSeparateCullingPass":false}},{"pbrMetallicRoughness":{"baseColorTexture":{"index":11,"extensions":{"KHR_texture_transform":{"texCoord":0}}},"metallicFactor":0.0,"roughnessFactor":0.5},"name":"matlogo2","extras":{"babylonSeparateCullingPass":false}},{"pbrMetallicRoughness":{"baseColorTexture":{"index":12,"extensions":{"KHR_texture_transform":{"texCoord":0}}},"metallicFactor":0.0,"roughnessFactor":0.5},"name":"matlogo3","extras":{"babylonSeparateCullingPass":false}},{"pbrMetallicRoughness":{"baseColorTexture":{"index":13,"extensions":{"KHR_texture_transform":{"texCoord":0}}},"metallicFactor":0.0,"roughnessFactor":0.5},"name":"matyazi2","extras":{"babylonSeparateCullingPass":false}},{"pbrMetallicRoughness":{"baseColorTexture":{"index":14,"extensions":{"KHR_texture_transform":{"texCoord":0}}},"metallicFactor":0.0,"roughnessFactor":0.5},"name":"matlogo4","extras":{"babylonSeparateCullingPass":false}},{"pbrMetallicRoughness":{"baseColorTexture":{"index":15,"extensions":{"KHR_texture_transform":{"texCoord":0}}},"metallicFactor":0.0,"roughnessFactor":0.5},"name":"matyazi3","extras":{"babylonSeparateCullingPass":false}},{"pbrMetallicRoughness":{"baseColorTexture":{"index":16,"extensions":{"KHR_texture_transform":{"texCoord":0}}},"metallicFactor":0.0,"roughnessFactor":0.5},"name":"matyazi4","extras":{"babylonSeparateCullingPass":false}},{"pbrMetallicRoughness":{"baseColorTexture":{"index":17,"extensions":{"KHR_texture_transform":{"texCoord":0}}},"metallicFactor":0.0,"roughnessFactor":0.5},"name":"matdikgorsel2","extras":{"babylonSeparateCullingPass":false}},{"pbrMetallicRoughness":{"baseColorTexture":{"index":18,"extensions":{"KHR_texture_transform":{"texCoord":0}}},"metallicFactor":0.0,"roughnessFactor":0.5},"name":"matdikgorsel3","extras":{"babylonSeparateCullingPass":false}},{"pbrMetallicRoughness":{"baseColorTexture":{"index":19,"extensions":{"KHR_texture_transform":{"texCoord":0}}},"metallicFactor":0.0,"roughnessFactor":0.5},"name":"matgenisgorsel","extras":{"babylonSeparateCullingPass":false}}],"textures":[{"sampler":0,"source":0,"name":"matrenknormal.png"},{"sampler":0,"source":1,"name":"matrenkroughness0.png"},{"sampler":0,"source":0,"name":"matrenknormal.png"},{"sampler":0,"source":1,"name":"matrenkroughness0.png"},{"sampler":0,"source":0,"name":"matrenknormal.png"},{"sampler":0,"source":1,"name":"matrenkroughness0.png"},{"sampler":0,"source":2,"name":"matvideo1.png"},{"sampler":0,"source":3,"name":"matyazi1.png"},{"sampler":0,"source":4,"name":"matdikgorsel1.png"},{"sampler":0,"source":5,"name":"matgorsel1.png"},{"sampler":0,"source":6,"name":"matlogo1.png"},{"sampler":0,"source":7,"name":"matlogo2.png"},{"sampler":0,"source":8,"name":"matlogo3.png"},{"sampler":0,"source":9,"name":"matyazi2.png"},{"sampler":0,"source":10,"name":"matlogo4.png"},{"sampler":0,"source":11,"name":"matyazi3.png"},{"sampler":0,"source":12,"name":"matyazi4.png"},{"sampler":0,"source":13,"name":"matdikgorsel2.png"},{"sampler":0,"source":14,"name":"matdikgorsel3.png"},{"sampler":0,"source":15,"name":"matgenisgorsel.png"}],"images":[{"uri":"./matrenknormal.png"},{"uri":"./matrenkroughness0.png"},{"uri":"./matvideo1.png"},{"uri":"./matyazi1.png"},{"uri":"./matdikgorsel1.png"},{"uri":"./matgorsel1.png"},{"uri":"./matlogo1.png"},{"uri":"./matlogo2.png"},{"uri":"./matlogo3.png"},{"uri":"./matyazi2.png"},{"uri":"./matlogo4.png"},{"uri":"./matyazi3.png"},{"uri":"./matyazi4.png"},{"uri":"./matdikgorsel2.png"},{"uri":"./matdikgorsel3.png"},{"uri":"./matgenisgorsel.png"}],"samplers":[{"magFilter":9729,"minFilter":9987}]}