{"asset":{"version":"2.0","generator":"babylon.js glTF exporter for 3dsmax 2018 v20210615.1"},"extensionsUsed":["KHR_texture_transform"],"extensionsRequired":["KHR_texture_transform"],"scene":0,"scenes":[{"nodes":[0]}],"nodes":[{"children":[1,2,3,4,5,6,7,8,9,10,11,12,13,14,15,16,17,18,19,20],"translation":[0.0,0.0,0.0535363741],"rotation":[0.0,0.7071067,0.0,0.7071068],"scale":[0.099999994,0.099999994,0.099999994],"name":"Group001"},{"mesh":0,"translation":[4.89505529,2.28950262,-0.9417529],"rotation":[0.7071068,0.0,0.0,0.7071067],"name":"modgenisgorsel"},{"mesh":1,"translation":[4.4420104,2.32340622,-2.058247],"rotation":[0.7071068,-0.7071068,-3.91969962E-07,-7.727156E-08],"scale":[1.164475,1.164475,1.164475],"name":"modvideo1"},{"mesh":2,"translation":[-4.95585,3.08927083,2.95325947],"rotation":[0.7071068,-0.7071068,-3.919699E-07,-7.72715154E-08],"scale":[1.27815306,1.27815306,1.27815306],"name":"modgorsel1"},{"mesh":3,"translation":[-4.86969757,3.08927083,2.95325923],"rotation":[-1.41894915E-07,6.11136329E-07,-0.7071068,0.7071068],"scale":[1.27815306,1.27815306,1.27815306],"name":"modgorsel2"},{"mesh":4,"translation":[-5.013807,2.32446837,-2.45409441],"rotation":[-0.5000002,0.5000001,0.499999881,0.4999998],"scale":[2.99641943,2.99641943,2.99641943],"name":"moddikyazi1"},{"mesh":5,"translation":[3.64852071,2.05269361,5.01564026],"rotation":[-2.66925326E-07,0.7071067,0.7071068,-1.60155253E-07],"scale":[2.682997,2.682997,2.682997],"name":"moddikyazi2"},{"mesh":6,"translation":[4.861163,2.174478,-0.0673171952],"rotation":[0.49999997,-0.50000006,0.5,0.5000001],"scale":[0.5,0.5,0.5],"name":"moddikgorsel1"},{"mesh":7,"translation":[4.86116362,2.174478,1.31753325],"rotation":[0.49999997,-0.50000006,0.5,0.5000001],"scale":[0.5,0.5,0.5],"name":"moddikgorsel2"},{"mesh":8,"translation":[4.86116362,2.174478,2.45519686],"rotation":[0.49999997,-0.50000006,0.5,0.5000001],"scale":[0.5,0.5,0.5],"name":"moddikgorsel3"},{"mesh":9,"translation":[4.91924047,2.174478,3.91189456],"rotation":[0.499999851,-0.500000238,0.5000001,0.4999999],"scale":[0.5,0.5,0.5],"name":"moddikgorsel4"},{"mesh":10,"translation":[3.75977159,2.174478,4.517266],"rotation":[-1.60155238E-07,-0.7071068,0.7071067,-1.770196E-07],"scale":[0.5,0.5,0.5],"name":"moddikgorsel5"},{"mesh":11,"translation":[2.67104435,2.174478,4.517266],"rotation":[-1.60155238E-07,-0.7071068,0.7071067,-1.770196E-07],"scale":[0.5,0.5,0.5],"name":"moddikgorsel6"},{"mesh":12,"translation":[-2.70415163,2.31601763,-4.9050684],"rotation":[-0.499999881,0.500000238,-0.4999998,0.5000001],"scale":[2.01916862,2.01916862,2.01916862],"name":"modlogo1"},{"mesh":13,"translation":[-2.70415163,2.31601763,-4.837185],"rotation":[-0.5000001,0.499999762,0.500000238,-0.499999881],"scale":[2.01916862,2.01916862,2.01916862],"name":"modlogo2"},{"mesh":14,"translation":[-4.60220337,2.987346,-2.04148459],"rotation":[4.216048E-09,4.6502538E-07,-0.7071068,0.7071068],"scale":[0.982767165,0.982767165,0.982767165],"name":"modlogo3"},{"mesh":15,"translation":[-0.00502594,0.05000122,-0.0156397],"name":"modzemin"},{"mesh":16,"translation":[-4.879337,0.0453117378,-2.05440927],"name":"modrenk2"},{"mesh":17,"translation":[-4.879337,0.0453117378,-2.05440927],"name":"modrenk1"},{"mesh":18,"translation":[-2.78178668,2.31847239,-5.03901768],"rotation":[0.7071068,-2.51214789E-15,-2.512148E-15,0.7071067],"scale":[10.000001,10.000001,10.000001],"name":"modengel"},{"mesh":19,"translation":[4.92570829,2.32446837,-4.14785242],"rotation":[-0.5000002,0.5000001,0.499999881,0.4999998],"scale":[2.46365738,2.46365738,2.46365738],"name":"moddikyazi3"}],"meshes":[{"primitives":[{"attributes":{"POSITION":1,"NORMAL":2,"TEXCOORD_0":3},"indices":0,"material":0}],"name":"modgenisgorsel"},{"primitives":[{"attributes":{"POSITION":5,"NORMAL":6,"TEXCOORD_0":7},"indices":4,"material":1}],"name":"modvideo1"},{"primitives":[{"attributes":{"POSITION":9,"NORMAL":10,"TEXCOORD_0":11},"indices":8,"material":2}],"name":"modgorsel1"},{"primitives":[{"attributes":{"POSITION":13,"NORMAL":14,"TEXCOORD_0":15},"indices":12,"material":3}],"name":"modgorsel2"},{"primitives":[{"attributes":{"POSITION":17,"NORMAL":18,"TEXCOORD_0":19},"indices":16,"material":4}],"name":"moddikyazi1"},{"primitives":[{"attributes":{"POSITION":21,"NORMAL":22,"TEXCOORD_0":23},"indices":20,"material":5}],"name":"moddikyazi2"},{"primitives":[{"attributes":{"POSITION":25,"NORMAL":26,"TEXCOORD_0":27},"indices":24,"material":6}],"name":"moddikgorsel1"},{"primitives":[{"attributes":{"POSITION":29,"NORMAL":30,"TEXCOORD_0":31},"indices":28,"material":7}],"name":"moddikgorsel2"},{"primitives":[{"attributes":{"POSITION":33,"NORMAL":34,"TEXCOORD_0":35},"indices":32,"material":8}],"name":"moddikgorsel3"},{"primitives":[{"attributes":{"POSITION":37,"NORMAL":38,"TEXCOORD_0":39},"indices":36,"material":9}],"name":"moddikgorsel4"},{"primitives":[{"attributes":{"POSITION":41,"NORMAL":42,"TEXCOORD_0":43},"indices":40,"material":10}],"name":"moddikgorsel5"},{"primitives":[{"attributes":{"POSITION":45,"NORMAL":46,"TEXCOORD_0":47},"indices":44,"material":11}],"name":"moddikgorsel6"},{"primitives":[{"attributes":{"POSITION":49,"NORMAL":50,"TEXCOORD_0":51},"indices":48,"material":12}],"name":"modlogo1"},{"primitives":[{"attributes":{"POSITION":53,"NORMAL":54,"TEXCOORD_0":55},"indices":52,"material":13}],"name":"modlogo2"},{"primitives":[{"attributes":{"POSITION":57,"NORMAL":58,"TEXCOORD_0":59},"indices":56,"material":14}],"name":"modlogo3"},{"primitives":[{"attributes":{"POSITION":61,"NORMAL":62,"TEXCOORD_0":63},"indices":60,"material":15}],"name":"modzemin"},{"primitives":[{"attributes":{"POSITION":65,"NORMAL":66,"TEXCOORD_0":67},"indices":64,"material":16}],"name":"modrenk2"},{"primitives":[{"attributes":{"POSITION":69,"NORMAL":70,"TEXCOORD_0":71},"indices":68,"material":17}],"name":"modrenk1"},{"primitives":[{"attributes":{"POSITION":73,"NORMAL":74,"TEXCOORD_0":75},"indices":72,"material":18}],"name":"modengel"},{"primitives":[{"attributes":{"POSITION":77,"NORMAL":78,"TEXCOORD_0":79},"indices":76,"material":19}],"name":"moddikyazi3"}],"accessors":[{"bufferView":0,"componentType":5123,"count":6,"type":"SCALAR","name":"accessorIndices"},{"bufferView":1,"componentType":5126,"count":4,"max":[0.100969113,5.926113,2.23950148],"min":[0.100969113,-4.010705,-2.34525752],"type":"VEC3","name":"accessorPositions"},{"bufferView":1,"byteOffset":48,"componentType":5126,"count":4,"type":"VEC3","name":"accessorNormals"},{"bufferView":2,"componentType":5126,"count":4,"type":"VEC2","name":"accessorUVs"},{"bufferView":0,"byteOffset":12,"componentType":5123,"count":6,"type":"SCALAR","name":"accessorIndices"},{"bufferView":1,"byteOffset":96,"componentType":5126,"count":4,"max":[0.539999962,0.0,0.96],"min":[-0.539999962,0.0,-0.96],"type":"VEC3","name":"accessorPositions"},{"bufferView":1,"byteOffset":144,"componentType":5126,"count":4,"type":"VEC3","name":"accessorNormals"},{"bufferView":2,"byteOffset":32,"componentType":5126,"count":4,"type":"VEC2","name":"accessorUVs"},{"bufferView":0,"byteOffset":24,"componentType":5123,"count":6,"type":"SCALAR","name":"accessorIndices"},{"bufferView":1,"byteOffset":192,"componentType":5126,"count":4,"max":[1.05,3.2151155E-07,0.6149984],"min":[-1.05000055,0.0,-1.485],"type":"VEC3","name":"accessorPositions"},{"bufferView":1,"byteOffset":240,"componentType":5126,"count":4,"type":"VEC3","name":"accessorNormals"},{"bufferView":2,"byteOffset":64,"componentType":5126,"count":4,"type":"VEC2","name":"accessorUVs"},{"bufferView":0,"byteOffset":36,"componentType":5123,"count":6,"type":"SCALAR","name":"accessorIndices"},{"bufferView":1,"byteOffset":288,"componentType":5126,"count":4,"max":[1.05,0.0,1.485],"min":[-1.05000055,-7.5711057E-07,-0.614997864],"type":"VEC3","name":"accessorPositions"},{"bufferView":1,"byteOffset":336,"componentType":5126,"count":4,"type":"VEC3","name":"accessorNormals"},{"bufferView":2,"byteOffset":96,"componentType":5126,"count":4,"type":"VEC2","name":"accessorUVs"},{"bufferView":0,"byteOffset":48,"componentType":5123,"count":6,"type":"SCALAR","name":"accessorIndices"},{"bufferView":1,"byteOffset":384,"componentType":5126,"count":4,"max":[0.25,0.0,0.75],"min":[-0.25,0.0,-0.75],"type":"VEC3","name":"accessorPositions"},{"bufferView":1,"byteOffset":432,"componentType":5126,"count":4,"type":"VEC3","name":"accessorNormals"},{"bufferView":2,"byteOffset":128,"componentType":5126,"count":4,"type":"VEC2","name":"accessorUVs"},{"bufferView":0,"byteOffset":60,"componentType":5123,"count":6,"type":"SCALAR","name":"accessorIndices"},{"bufferView":1,"byteOffset":480,"componentType":5126,"count":4,"max":[0.25,0.0,0.75],"min":[-0.25,0.0,-0.75],"type":"VEC3","name":"accessorPositions"},{"bufferView":1,"byteOffset":528,"componentType":5126,"count":4,"type":"VEC3","name":"accessorNormals"},{"bufferView":2,"byteOffset":160,"componentType":5126,"count":4,"type":"VEC2","name":"accessorUVs"},{"bufferView":0,"byteOffset":72,"componentType":5123,"count":6,"type":"SCALAR","name":"accessorIndices"},{"bufferView":1,"byteOffset":576,"componentType":5126,"count":4,"max":[1.05,0.0,1.485],"min":[-1.05,0.0,-1.485],"type":"VEC3","name":"accessorPositions"},{"bufferView":1,"byteOffset":624,"componentType":5126,"count":4,"type":"VEC3","name":"accessorNormals"},{"bufferView":2,"byteOffset":192,"componentType":5126,"count":4,"type":"VEC2","name":"accessorUVs"},{"bufferView":0,"byteOffset":84,"componentType":5123,"count":6,"type":"SCALAR","name":"accessorIndices"},{"bufferView":1,"byteOffset":672,"componentType":5126,"count":4,"max":[1.05,0.0,1.485],"min":[-1.05,0.0,-1.485],"type":"VEC3","name":"accessorPositions"},{"bufferView":1,"byteOffset":720,"componentType":5126,"count":4,"type":"VEC3","name":"accessorNormals"},{"bufferView":2,"byteOffset":224,"componentType":5126,"count":4,"type":"VEC2","name":"accessorUVs"},{"bufferView":0,"byteOffset":96,"componentType":5123,"count":6,"type":"SCALAR","name":"accessorIndices"},{"bufferView":1,"byteOffset":768,"componentType":5126,"count":4,"max":[1.05,0.0,1.485],"min":[-1.05,0.0,-1.485],"type":"VEC3","name":"accessorPositions"},{"bufferView":1,"byteOffset":816,"componentType":5126,"count":4,"type":"VEC3","name":"accessorNormals"},{"bufferView":2,"byteOffset":256,"componentType":5126,"count":4,"type":"VEC2","name":"accessorUVs"},{"bufferView":0,"byteOffset":108,"componentType":5123,"count":6,"type":"SCALAR","name":"accessorIndices"},{"bufferView":1,"byteOffset":864,"componentType":5126,"count":4,"max":[1.05,0.0,1.485],"min":[-1.05,0.0,-1.485],"type":"VEC3","name":"accessorPositions"},{"bufferView":1,"byteOffset":912,"componentType":5126,"count":4,"type":"VEC3","name":"accessorNormals"},{"bufferView":2,"byteOffset":288,"componentType":5126,"count":4,"type":"VEC2","name":"accessorUVs"},{"bufferView":0,"byteOffset":120,"componentType":5123,"count":6,"type":"SCALAR","name":"accessorIndices"},{"bufferView":1,"byteOffset":960,"componentType":5126,"count":4,"max":[1.05,0.0,1.485],"min":[-1.05,0.0,-1.485],"type":"VEC3","name":"accessorPositions"},{"bufferView":1,"byteOffset":1008,"componentType":5126,"count":4,"type":"VEC3","name":"accessorNormals"},{"bufferView":2,"byteOffset":320,"componentType":5126,"count":4,"type":"VEC2","name":"accessorUVs"},{"bufferView":0,"byteOffset":132,"componentType":5123,"count":6,"type":"SCALAR","name":"accessorIndices"},{"bufferView":1,"byteOffset":1056,"componentType":5126,"count":4,"max":[1.05,0.0,1.485],"min":[-1.05,0.0,-1.485],"type":"VEC3","name":"accessorPositions"},{"bufferView":1,"byteOffset":1104,"componentType":5126,"count":4,"type":"VEC3","name":"accessorNormals"},{"bufferView":2,"byteOffset":352,"componentType":5126,"count":4,"type":"VEC2","name":"accessorUVs"},{"bufferView":0,"byteOffset":144,"componentType":5123,"count":6,"type":"SCALAR","name":"accessorIndices"},{"bufferView":1,"byteOffset":1152,"componentType":5126,"count":4,"max":[1.05,0.0,1.05],"min":[-1.05,0.0,-1.05],"type":"VEC3","name":"accessorPositions"},{"bufferView":1,"byteOffset":1200,"componentType":5126,"count":4,"type":"VEC3","name":"accessorNormals"},{"bufferView":2,"byteOffset":384,"componentType":5126,"count":4,"type":"VEC2","name":"accessorUVs"},{"bufferView":0,"byteOffset":156,"componentType":5123,"count":6,"type":"SCALAR","name":"accessorIndices"},{"bufferView":1,"byteOffset":1248,"componentType":5126,"count":4,"max":[1.05,0.0,1.05],"min":[-1.05,0.0,-1.05],"type":"VEC3","name":"accessorPositions"},{"bufferView":1,"byteOffset":1296,"componentType":5126,"count":4,"type":"VEC3","name":"accessorNormals"},{"bufferView":2,"byteOffset":416,"componentType":5126,"count":4,"type":"VEC2","name":"accessorUVs"},{"bufferView":0,"byteOffset":168,"componentType":5123,"count":6,"type":"SCALAR","name":"accessorIndices"},{"bufferView":1,"byteOffset":1344,"componentType":5126,"count":4,"max":[1.05,0.0,1.05],"min":[-1.05,0.0,-1.05],"type":"VEC3","name":"accessorPositions"},{"bufferView":1,"byteOffset":1392,"componentType":5126,"count":4,"type":"VEC3","name":"accessorNormals"},{"bufferView":2,"byteOffset":448,"componentType":5126,"count":4,"type":"VEC2","name":"accessorUVs"},{"bufferView":0,"byteOffset":180,"componentType":5123,"count":84,"type":"SCALAR","name":"accessorIndices"},{"bufferView":1,"byteOffset":1440,"componentType":5126,"count":52,"max":[5.0,0.100000381,5.0],"min":[-5.0,-0.0499996953,-5.0],"type":"VEC3","name":"accessorPositions"},{"bufferView":1,"byteOffset":2064,"componentType":5126,"count":52,"type":"VEC3","name":"accessorNormals"},{"bufferView":2,"byteOffset":480,"componentType":5126,"count":52,"type":"VEC2","name":"accessorUVs"},{"bufferView":0,"byteOffset":348,"componentType":5123,"count":291,"type":"SCALAR","name":"accessorIndices"},{"bufferView":1,"byteOffset":2688,"componentType":5126,"count":161,"max":[9.810581,4.541631,7.054791],"min":[-0.125250235,-0.04531021,-2.96123052],"type":"VEC3","name":"accessorPositions"},{"bufferView":1,"byteOffset":4620,"componentType":5126,"count":161,"type":"VEC3","name":"accessorNormals"},{"bufferView":2,"byteOffset":896,"componentType":5126,"count":161,"type":"VEC2","name":"accessorUVs"},{"bufferView":0,"byteOffset":932,"componentType":5123,"count":486,"type":"SCALAR","name":"accessorIndices"},{"bufferView":1,"byteOffset":6552,"componentType":5126,"count":278,"max":[9.859009,4.5894475,7.05873632],"min":[-0.110047996,-0.005037842,-2.926658],"type":"VEC3","name":"accessorPositions"},{"bufferView":1,"byteOffset":9888,"componentType":5126,"count":278,"type":"VEC3","name":"accessorNormals"},{"bufferView":2,"byteOffset":2184,"componentType":5126,"count":278,"type":"VEC2","name":"accessorUVs"},{"bufferView":0,"byteOffset":1904,"componentType":5123,"count":36,"type":"SCALAR","name":"accessorIndices"},{"bufferView":1,"byteOffset":13224,"componentType":5126,"count":24,"max":[0.222255021,0.001,0.226847053],"min":[-0.222255021,0.0,-0.226847053],"type":"VEC3","name":"accessorPositions"},{"bufferView":1,"byteOffset":13512,"componentType":5126,"count":24,"type":"VEC3","name":"accessorNormals"},{"bufferView":2,"byteOffset":4408,"componentType":5126,"count":24,"type":"VEC2","name":"accessorUVs"},{"bufferView":0,"byteOffset":1976,"componentType":5123,"count":6,"type":"SCALAR","name":"accessorIndices"},{"bufferView":1,"byteOffset":13800,"componentType":5126,"count":4,"max":[0.25,0.0,0.75],"min":[-0.25,0.0,-0.75],"type":"VEC3","name":"accessorPositions"},{"bufferView":1,"byteOffset":13848,"componentType":5126,"count":4,"type":"VEC3","name":"accessorNormals"},{"bufferView":2,"byteOffset":4600,"componentType":5126,"count":4,"type":"VEC2","name":"accessorUVs"}],"bufferViews":[{"buffer":0,"byteLength":1988,"name":"bufferViewScalar"},{"buffer":0,"byteOffset":1988,"byteLength":13896,"byteStride":12,"name":"bufferViewFloatVec3"},{"buffer":0,"byteOffset":15884,"byteLength":4632,"byteStride":8,"name":"bufferViewFloatVec2"}],"buffers":[{"uri":"stant27.bin","byteLength":20516}],"materials":[{"pbrMetallicRoughness":{"baseColorTexture":{"index":0,"extensions":{"KHR_texture_transform":{"texCoord":0}}},"metallicFactor":0.0,"roughnessFactor":0.5},"name":"matgenisgorsel","extras":{"babylonSeparateCullingPass":false}},{"pbrMetallicRoughness":{"baseColorTexture":{"index":1,"extensions":{"KHR_texture_transform":{"texCoord":0}}},"metallicFactor":0.0,"roughnessFactor":0.5},"doubleSided":true,"name":"matvideo1","extras":{"babylonSeparateCullingPass":false}},{"pbrMetallicRoughness":{"baseColorTexture":{"index":2,"extensions":{"KHR_texture_transform":{"texCoord":0}}},"metallicFactor":0.0,"roughnessFactor":0.5},"doubleSided":true,"name":"matgorsel1","extras":{"babylonSeparateCullingPass":false}},{"pbrMetallicRoughness":{"baseColorTexture":{"index":3,"extensions":{"KHR_texture_transform":{"texCoord":0}}},"metallicFactor":0.0,"roughnessFactor":0.5},"doubleSided":true,"name":"matgorsel2","extras":{"babylonSeparateCullingPass":false}},{"pbrMetallicRoughness":{"baseColorTexture":{"index":4,"extensions":{"KHR_texture_transform":{"texCoord":0}}},"metallicFactor":0.0,"roughnessFactor":0.5},"doubleSided":true,"name":"matdikyazi1","extras":{"babylonSeparateCullingPass":false}},{"pbrMetallicRoughness":{"baseColorTexture":{"index":5,"extensions":{"KHR_texture_transform":{"texCoord":0}}},"metallicFactor":0.0,"roughnessFactor":0.5},"doubleSided":true,"name":"matdikyazi2","extras":{"babylonSeparateCullingPass":false}},{"pbrMetallicRoughness":{"baseColorTexture":{"index":6,"extensions":{"KHR_texture_transform":{"texCoord":0}}},"metallicFactor":0.0,"roughnessFactor":0.5},"doubleSided":true,"name":"matdikgorsel1","extras":{"babylonSeparateCullingPass":false}},{"pbrMetallicRoughness":{"baseColorTexture":{"index":7,"extensions":{"KHR_texture_transform":{"texCoord":0}}},"metallicFactor":0.0,"roughnessFactor":0.5},"doubleSided":true,"name":"matdikgorsel2","extras":{"babylonSeparateCullingPass":false}},{"pbrMetallicRoughness":{"baseColorTexture":{"index":8,"extensions":{"KHR_texture_transform":{"texCoord":0}}},"metallicFactor":0.0,"roughnessFactor":0.5},"doubleSided":true,"name":"matdikgorsel3","extras":{"babylonSeparateCullingPass":false}},{"pbrMetallicRoughness":{"baseColorTexture":{"index":9,"extensions":{"KHR_texture_transform":{"texCoord":0}}},"metallicFactor":0.0,"roughnessFactor":0.5},"doubleSided":true,"name":"matdikgorsel4","extras":{"babylonSeparateCullingPass":false}},{"pbrMetallicRoughness":{"baseColorTexture":{"index":10,"extensions":{"KHR_texture_transform":{"texCoord":0}}},"metallicFactor":0.0,"roughnessFactor":0.5},"doubleSided":true,"name":"matdikgorsel5","extras":{"babylonSeparateCullingPass":false}},{"pbrMetallicRoughness":{"baseColorTexture":{"index":11,"extensions":{"KHR_texture_transform":{"texCoord":0}}},"metallicFactor":0.0,"roughnessFactor":0.5},"doubleSided":true,"name":"matdikgorsel6","extras":{"babylonSeparateCullingPass":false}},{"pbrMetallicRoughness":{"baseColorTexture":{"index":12,"extensions":{"KHR_texture_transform":{"texCoord":0}}},"metallicFactor":0.0,"roughnessFactor":0.5},"doubleSided":true,"name":"matlogo1","extras":{"babylonSeparateCullingPass":false}},{"pbrMetallicRoughness":{"baseColorTexture":{"index":13,"extensions":{"KHR_texture_transform":{"texCoord":0}}},"metallicFactor":0.0,"roughnessFactor":0.5},"doubleSided":true,"name":"matlogo2","extras":{"babylonSeparateCullingPass":false}},{"pbrMetallicRoughness":{"baseColorTexture":{"index":14,"extensions":{"KHR_texture_transform":{"texCoord":0}}},"metallicFactor":0.0,"roughnessFactor":0.5},"doubleSided":true,"name":"matlogo3","extras":{"babylonSeparateCullingPass":false}},{"pbrMetallicRoughness":{"baseColorFactor":[0.539568365,0.536392331,0.527923,1.0],"metallicFactor":0.0,"metallicRoughnessTexture":{"index":16,"extensions":{"KHR_texture_transform":{"texCoord":0}}}},"normalTexture":{"index":15,"scale":0.3,"extensions":{"KHR_texture_transform":{"texCoord":0}}},"doubleSided":true,"name":"matzemin","extras":{"babylonSeparateCullingPass":false}},{"pbrMetallicRoughness":{"baseColorFactor":[0.01966772,0.04599313,0.07194245,1.0],"metallicFactor":0.0,"metallicRoughnessTexture":{"index":16,"extensions":{"KHR_texture_transform":{"texCoord":0}}}},"normalTexture":{"index":15,"scale":0.3,"extensions":{"KHR_texture_transform":{"texCoord":0}}},"doubleSided":true,"name":"matrenk2","extras":{"babylonSeparateCullingPass":false}},{"pbrMetallicRoughness":{"baseColorFactor":[0.07450981,0.160784319,0.180392161,1.0],"metallicFactor":0.0,"metallicRoughnessTexture":{"index":16,"extensions":{"KHR_texture_transform":{"texCoord":0}}}},"normalTexture":{"index":15,"scale":0.3,"extensions":{"KHR_texture_transform":{"texCoord":0}}},"doubleSided":true,"name":"matrenk1","extras":{"babylonSeparateCullingPass":false}},{"pbrMetallicRoughness":{"baseColorFactor":[0.0,0.0,0.0,0.0],"metallicFactor":0.0,"roughnessFactor":0.5},"alphaMode":"BLEND","doubleSided":true,"name":"matengel","extras":{"babylonSeparateCullingPass":false}},{"pbrMetallicRoughness":{"baseColorTexture":{"index":21,"extensions":{"KHR_texture_transform":{"texCoord":0}}},"metallicFactor":0.0,"roughnessFactor":0.5},"doubleSided":true,"name":"matdikyazi3","extras":{"babylonSeparateCullingPass":false}}],"textures":[{"sampler":0,"source":0,"name":"matgenisgorsel.png"},{"sampler":0,"source":1,"name":"matvideo1.png"},{"sampler":0,"source":2,"name":"matgorsel1.png"},{"sampler":0,"source":3,"name":"matgorsel2.png"},{"sampler":0,"source":4,"name":"matdikyazi1.png"},{"sampler":0,"source":5,"name":"matdikyazi2.png"},{"sampler":0,"source":6,"name":"matdikgorsel1.png"},{"sampler":0,"source":7,"name":"matdikgorsel2.png"},{"sampler":0,"source":8,"name":"matdikgorsel3.png"},{"sampler":0,"source":9,"name":"matdikgorsel4.png"},{"sampler":0,"source":10,"name":"matdikgorsel5.png"},{"sampler":0,"source":11,"name":"matdikgorsel6.png"},{"sampler":0,"source":12,"name":"matlogo1.png"},{"sampler":0,"source":13,"name":"matlogo2.png"},{"sampler":0,"source":14,"name":"matlogo3.png"},{"sampler":0,"source":15,"name":"matrenknormal.png"},{"sampler":0,"source":16,"name":"matrenkroughness0.png"},{"sampler":0,"source":15,"name":"matrenknormal.png"},{"sampler":0,"source":16,"name":"matrenkroughness0.png"},{"sampler":0,"source":15,"name":"matrenknormal.png"},{"sampler":0,"source":16,"name":"matrenkroughness0.png"},{"sampler":0,"source":17,"name":"matdikyazi3.png"}],"images":[{"uri":"./matgenisgorsel.png"},{"uri":"./matvideo1.png"},{"uri":"./matgorsel1.png"},{"uri":"./matgorsel2.png"},{"uri":"./matdikyazi1.png"},{"uri":"./matdikyazi2.png"},{"uri":"./matdikgorsel1.png"},{"uri":"./matdikgorsel2.png"},{"uri":"./matdikgorsel3.png"},{"uri":"./matdikgorsel4.png"},{"uri":"./matdikgorsel5.png"},{"uri":"./matdikgorsel6.png"},{"uri":"./matlogo1.png"},{"uri":"./matlogo2.png"},{"uri":"./matlogo3.png"},{"uri":"./matrenknormal.png"},{"uri":"./matrenkroughness0.png"},{"uri":"./matdikyazi3.png"}],"samplers":[{"magFilter":9729,"minFilter":9987}]}