{"asset":{"version":"2.0","generator":"babylon.js glTF exporter for 3dsmax 2018 v20210615.1"},"extensionsUsed":["KHR_texture_transform"],"extensionsRequired":["KHR_texture_transform"],"scene":0,"scenes":[{"nodes":[0]}],"nodes":[{"children":[1,2,3,4,5,6,7,8,9,10,11,12,13,14,15,16,17,18,19,20,21],"name":"Group001"},{"mesh":0,"translation":[-0.371061444,0.0714270547,-0.287979722],"rotation":[0.7071068,0.0,0.0,0.7071067],"name":"modengel"},{"mesh":1,"translation":[0.000154491441,0.0,-0.00288745877],"scale":[0.099999994,0.099999994,0.099999994],"name":"modzemin"},{"mesh":2,"translation":[0.000154502879,0.217499971,0.09651577],"rotation":[0.7071068,0.0,0.0,0.7071067],"scale":[0.099999994,0.099999994,0.099999994],"name":"modrenk2"},{"mesh":3,"translation":[-0.376827627,0.20173566,-0.2882963],"rotation":[0.7071068,0.0,0.0,0.7071067],"scale":[0.12322,0.12322,0.12322],"name":"modvideo1"},{"mesh":4,"translation":[-0.285253227,0.34493652,0.200804025],"rotation":[0.7071068,0.0,0.0,0.7071067],"scale":[0.239878,0.239878,0.239878],"name":"modyazi1"},{"mesh":5,"translation":[0.486632138,0.151376322,-0.274118453],"rotation":[-0.5,-0.5,0.5,-0.5],"scale":[0.05367854,0.05367854,0.05367854],"name":"moddikgorsel1"},{"mesh":6,"translation":[0.334291756,0.225106791,0.5015685],"rotation":[0.7071068,0.0,0.0,0.7071067],"scale":[0.109675,0.109675,0.109675],"name":"modlogo1"},{"mesh":7,"translation":[-0.501629531,0.2118762,0.09827503],"rotation":[-0.7071068,0.7071068,-4.43302753E-07,4.15184218E-07],"scale":[0.211697221,0.152708292,0.2116972],"name":"moddikyazi1"},{"mesh":8,"translation":[0.501766443,0.3702487,0.09651683],"rotation":[0.50000006,0.49999994,-0.49999997,0.50000006],"scale":[0.0580260232,0.0580260232,0.0580260232],"name":"modlogo2"},{"mesh":9,"translation":[0.502027035,0.162519515,0.0969121158],"rotation":[5.524521E-08,-2.13456062E-07,-0.7071068,0.7071068],"scale":[0.18420738,0.189710945,0.18420735],"name":"moddikyazi2"},{"mesh":10,"translation":[0.486632138,0.151376322,-0.41743052],"rotation":[-0.5,-0.5,0.5,-0.5],"scale":[0.05367854,0.05367854,0.05367854],"name":"moddikgorsel2"},{"mesh":11,"translation":[0.339667439,0.151376322,-0.201325491],"rotation":[0.7071068,0.0,0.0,0.7071067],"scale":[0.0377235673,0.0377235673,0.0377235673],"name":"moddikgorsel3"},{"mesh":12,"translation":[0.433529735,0.151376322,-0.201325491],"rotation":[0.7071068,0.0,0.0,0.7071067],"scale":[0.0377235673,0.0377235673,0.0377235673],"name":"moddikgorsel4"},{"mesh":13,"translation":[-0.09482551,0.398759156,-0.5048396],"rotation":[-5.3385083E-08,-0.7071068,0.7071068,-5.3385083E-08],"scale":[0.179081082,0.179081082,0.179081082],"name":"modyazi2"},{"mesh":14,"translation":[0.385410219,0.231856212,-0.50534004],"rotation":[-5.33850759E-08,-0.7071068,0.7071068,-5.33850759E-08],"scale":[0.112299889,0.112299889,0.112299889],"name":"modlogo3"},{"mesh":15,"translation":[0.284148633,0.151376322,-0.412527561],"rotation":[0.5,-0.5,0.50000006,0.49999994],"scale":[0.054147467,0.054147467,0.054147467],"name":"moddikgorsel5"},{"mesh":16,"translation":[0.284148633,0.151376322,-0.277799934],"rotation":[0.5,-0.5,0.50000006,0.49999994],"scale":[0.054147467,0.054147467,0.054147467],"name":"moddikgorsel6"},{"mesh":17,"translation":[0.478891969,0.151376322,0.09709026],"rotation":[0.5,-0.5,0.50000006,0.49999994],"scale":[0.054147467,0.054147467,0.054147467],"name":"moddikgorsel7"},{"mesh":18,"translation":[-0.478987962,0.151376322,0.09709026],"rotation":[0.50000006,0.49999994,-0.49999997,0.50000006],"scale":[0.054147467,0.054147467,0.054147467],"name":"moddikgorsel8"},{"mesh":19,"translation":[0.333171159,0.218414888,0.475945622],"rotation":[7.313864E-08,-0.7071067,0.7071068,-8.219667E-09],"scale":[0.09258788,0.0458531119,0.09258787],"name":"moddikgorsel9"},{"mesh":20,"translation":[0.366815239,0.321812749,0.168779179],"rotation":[0.5,-0.5,0.50000006,0.49999994],"scale":[0.099999994,0.099999994,0.099999994],"name":"modrenk1"}],"meshes":[{"primitives":[{"attributes":{"POSITION":1,"NORMAL":2,"TEXCOORD_0":3},"indices":0,"material":0}],"name":"modengel"},{"primitives":[{"attributes":{"POSITION":5,"NORMAL":6,"TEXCOORD_0":7},"indices":4,"material":1}],"name":"modzemin"},{"primitives":[{"attributes":{"POSITION":9,"NORMAL":10,"TEXCOORD_0":11},"indices":8,"material":2}],"name":"modrenk2"},{"primitives":[{"attributes":{"POSITION":13,"NORMAL":14,"TEXCOORD_0":15},"indices":12,"material":3}],"name":"modvideo1"},{"primitives":[{"attributes":{"POSITION":17,"NORMAL":18,"TEXCOORD_0":19},"indices":16,"material":4}],"name":"modyazi1"},{"primitives":[{"attributes":{"POSITION":21,"NORMAL":22,"TEXCOORD_0":23},"indices":20,"material":5}],"name":"moddikgorsel1"},{"primitives":[{"attributes":{"POSITION":25,"NORMAL":26,"TEXCOORD_0":27},"indices":24,"material":6}],"name":"modlogo1"},{"primitives":[{"attributes":{"POSITION":29,"NORMAL":30,"TEXCOORD_0":31},"indices":28,"material":7}],"name":"moddikyazi1"},{"primitives":[{"attributes":{"POSITION":33,"NORMAL":34,"TEXCOORD_0":35},"indices":32,"material":8}],"name":"modlogo2"},{"primitives":[{"attributes":{"POSITION":37,"NORMAL":38,"TEXCOORD_0":39},"indices":36,"material":9}],"name":"moddikyazi2"},{"primitives":[{"attributes":{"POSITION":41,"NORMAL":42,"TEXCOORD_0":43},"indices":40,"material":10}],"name":"moddikgorsel2"},{"primitives":[{"attributes":{"POSITION":45,"NORMAL":46,"TEXCOORD_0":47},"indices":44,"material":11}],"name":"moddikgorsel3"},{"primitives":[{"attributes":{"POSITION":49,"NORMAL":50,"TEXCOORD_0":51},"indices":48,"material":12}],"name":"moddikgorsel4"},{"primitives":[{"attributes":{"POSITION":53,"NORMAL":54,"TEXCOORD_0":55},"indices":52,"material":13}],"name":"modyazi2"},{"primitives":[{"attributes":{"POSITION":57,"NORMAL":58,"TEXCOORD_0":59},"indices":56,"material":14}],"name":"modlogo3"},{"primitives":[{"attributes":{"POSITION":61,"NORMAL":62,"TEXCOORD_0":63},"indices":60,"material":15}],"name":"moddikgorsel5"},{"primitives":[{"attributes":{"POSITION":65,"NORMAL":66,"TEXCOORD_0":67},"indices":64,"material":16}],"name":"moddikgorsel6"},{"primitives":[{"attributes":{"POSITION":69,"NORMAL":70,"TEXCOORD_0":71},"indices":68,"material":17}],"name":"moddikgorsel7"},{"primitives":[{"attributes":{"POSITION":73,"NORMAL":74,"TEXCOORD_0":75},"indices":72,"material":18}],"name":"moddikgorsel8"},{"primitives":[{"attributes":{"POSITION":77,"NORMAL":78,"TEXCOORD_0":79},"indices":76,"material":19}],"name":"moddikgorsel9"},{"primitives":[{"attributes":{"POSITION":81,"NORMAL":82,"TEXCOORD_0":83},"indices":80,"material":20}],"name":"modrenk1"}],"accessors":[{"bufferView":0,"componentType":5123,"count":60,"type":"SCALAR","name":"accessorIndices"},{"bufferView":1,"componentType":5126,"count":40,"max":[0.120726824,0.7933198,0.06709136],"min":[-0.13096562,-0.0264371634,-0.2119946],"type":"VEC3","name":"accessorPositions"},{"bufferView":1,"byteOffset":480,"componentType":5126,"count":40,"type":"VEC3","name":"accessorNormals"},{"bufferView":2,"componentType":5126,"count":40,"type":"VEC2","name":"accessorUVs"},{"bufferView":0,"byteOffset":120,"componentType":5123,"count":30,"type":"SCALAR","name":"accessorIndices"},{"bufferView":1,"byteOffset":960,"componentType":5126,"count":30,"max":[5.0,0.049999997,5.0],"min":[-5.0,0.0,-5.0],"type":"VEC3","name":"accessorPositions"},{"bufferView":1,"byteOffset":1320,"componentType":5126,"count":30,"type":"VEC3","name":"accessorNormals"},{"bufferView":2,"byteOffset":320,"componentType":5126,"count":30,"type":"VEC2","name":"accessorUVs"},{"bufferView":0,"byteOffset":180,"componentType":5123,"count":606,"type":"SCALAR","name":"accessorIndices"},{"bufferView":1,"byteOffset":1680,"componentType":5126,"count":606,"max":[5.0,1.16078186,2.125001],"min":[-5.00000048,-5.99403238,-2.32499862],"type":"VEC3","name":"accessorPositions"},{"bufferView":1,"byteOffset":8952,"componentType":5126,"count":606,"type":"VEC3","name":"accessorNormals"},{"bufferView":2,"byteOffset":560,"componentType":5126,"count":606,"type":"VEC2","name":"accessorUVs"},{"bufferView":0,"byteOffset":1392,"componentType":5123,"count":6,"type":"SCALAR","name":"accessorIndices"},{"bufferView":1,"byteOffset":16224,"componentType":5126,"count":6,"max":[0.96,0.0,0.539999962],"min":[-0.96,0.0,-0.539999962],"type":"VEC3","name":"accessorPositions"},{"bufferView":1,"byteOffset":16296,"componentType":5126,"count":6,"type":"VEC3","name":"accessorNormals"},{"bufferView":2,"byteOffset":5408,"componentType":5126,"count":6,"type":"VEC2","name":"accessorUVs"},{"bufferView":0,"byteOffset":1404,"componentType":5123,"count":6,"type":"SCALAR","name":"accessorIndices"},{"bufferView":1,"byteOffset":16368,"componentType":5126,"count":6,"max":[0.75,0.0,0.25],"min":[-0.75,0.0,-0.25],"type":"VEC3","name":"accessorPositions"},{"bufferView":1,"byteOffset":16440,"componentType":5126,"count":6,"type":"VEC3","name":"accessorNormals"},{"bufferView":2,"byteOffset":5456,"componentType":5126,"count":6,"type":"VEC2","name":"accessorUVs"},{"bufferView":0,"byteOffset":1416,"componentType":5123,"count":6,"type":"SCALAR","name":"accessorIndices"},{"bufferView":1,"byteOffset":16512,"componentType":5126,"count":6,"max":[1.05,0.0,1.485],"min":[-1.05,0.0,-1.485],"type":"VEC3","name":"accessorPositions"},{"bufferView":1,"byteOffset":16584,"componentType":5126,"count":6,"type":"VEC3","name":"accessorNormals"},{"bufferView":2,"byteOffset":5504,"componentType":5126,"count":6,"type":"VEC2","name":"accessorUVs"},{"bufferView":0,"byteOffset":1428,"componentType":5123,"count":6,"type":"SCALAR","name":"accessorIndices"},{"bufferView":1,"byteOffset":16656,"componentType":5126,"count":6,"max":[1.0,0.0,1.0],"min":[-1.0,0.0,-1.0],"type":"VEC3","name":"accessorPositions"},{"bufferView":1,"byteOffset":16728,"componentType":5126,"count":6,"type":"VEC3","name":"accessorNormals"},{"bufferView":2,"byteOffset":5552,"componentType":5126,"count":6,"type":"VEC2","name":"accessorUVs"},{"bufferView":0,"byteOffset":1440,"componentType":5123,"count":6,"type":"SCALAR","name":"accessorIndices"},{"bufferView":1,"byteOffset":16800,"componentType":5126,"count":6,"max":[0.75,0.0,0.25],"min":[-0.75,0.0,-0.25],"type":"VEC3","name":"accessorPositions"},{"bufferView":1,"byteOffset":16872,"componentType":5126,"count":6,"type":"VEC3","name":"accessorNormals"},{"bufferView":2,"byteOffset":5600,"componentType":5126,"count":6,"type":"VEC2","name":"accessorUVs"},{"bufferView":0,"byteOffset":1452,"componentType":5123,"count":6,"type":"SCALAR","name":"accessorIndices"},{"bufferView":1,"byteOffset":16944,"componentType":5126,"count":6,"max":[1.0,0.0,1.0],"min":[-1.0,0.0,-1.0],"type":"VEC3","name":"accessorPositions"},{"bufferView":1,"byteOffset":17016,"componentType":5126,"count":6,"type":"VEC3","name":"accessorNormals"},{"bufferView":2,"byteOffset":5648,"componentType":5126,"count":6,"type":"VEC2","name":"accessorUVs"},{"bufferView":0,"byteOffset":1464,"componentType":5123,"count":6,"type":"SCALAR","name":"accessorIndices"},{"bufferView":1,"byteOffset":17088,"componentType":5126,"count":6,"max":[0.75,0.0,0.25],"min":[-0.75,0.0,-0.25],"type":"VEC3","name":"accessorPositions"},{"bufferView":1,"byteOffset":17160,"componentType":5126,"count":6,"type":"VEC3","name":"accessorNormals"},{"bufferView":2,"byteOffset":5696,"componentType":5126,"count":6,"type":"VEC2","name":"accessorUVs"},{"bufferView":0,"byteOffset":1476,"componentType":5123,"count":6,"type":"SCALAR","name":"accessorIndices"},{"bufferView":1,"byteOffset":17232,"componentType":5126,"count":6,"max":[1.05,0.0,1.485],"min":[-1.05,0.0,-1.485],"type":"VEC3","name":"accessorPositions"},{"bufferView":1,"byteOffset":17304,"componentType":5126,"count":6,"type":"VEC3","name":"accessorNormals"},{"bufferView":2,"byteOffset":5744,"componentType":5126,"count":6,"type":"VEC2","name":"accessorUVs"},{"bufferView":0,"byteOffset":1488,"componentType":5123,"count":6,"type":"SCALAR","name":"accessorIndices"},{"bufferView":1,"byteOffset":17376,"componentType":5126,"count":6,"max":[1.05,0.0,1.485],"min":[-1.05,0.0,-1.485],"type":"VEC3","name":"accessorPositions"},{"bufferView":1,"byteOffset":17448,"componentType":5126,"count":6,"type":"VEC3","name":"accessorNormals"},{"bufferView":2,"byteOffset":5792,"componentType":5126,"count":6,"type":"VEC2","name":"accessorUVs"},{"bufferView":0,"byteOffset":1500,"componentType":5123,"count":6,"type":"SCALAR","name":"accessorIndices"},{"bufferView":1,"byteOffset":17520,"componentType":5126,"count":6,"max":[1.05,0.0,1.485],"min":[-1.05,0.0,-1.485],"type":"VEC3","name":"accessorPositions"},{"bufferView":1,"byteOffset":17592,"componentType":5126,"count":6,"type":"VEC3","name":"accessorNormals"},{"bufferView":2,"byteOffset":5840,"componentType":5126,"count":6,"type":"VEC2","name":"accessorUVs"},{"bufferView":0,"byteOffset":1512,"componentType":5123,"count":6,"type":"SCALAR","name":"accessorIndices"},{"bufferView":1,"byteOffset":17664,"componentType":5126,"count":6,"max":[0.75,0.0,0.25],"min":[-0.75,0.0,-0.25],"type":"VEC3","name":"accessorPositions"},{"bufferView":1,"byteOffset":17736,"componentType":5126,"count":6,"type":"VEC3","name":"accessorNormals"},{"bufferView":2,"byteOffset":5888,"componentType":5126,"count":6,"type":"VEC2","name":"accessorUVs"},{"bufferView":0,"byteOffset":1524,"componentType":5123,"count":6,"type":"SCALAR","name":"accessorIndices"},{"bufferView":1,"byteOffset":17808,"componentType":5126,"count":6,"max":[1.0,0.0,1.0],"min":[-1.0,0.0,-1.0],"type":"VEC3","name":"accessorPositions"},{"bufferView":1,"byteOffset":17880,"componentType":5126,"count":6,"type":"VEC3","name":"accessorNormals"},{"bufferView":2,"byteOffset":5936,"componentType":5126,"count":6,"type":"VEC2","name":"accessorUVs"},{"bufferView":0,"byteOffset":1536,"componentType":5123,"count":6,"type":"SCALAR","name":"accessorIndices"},{"bufferView":1,"byteOffset":17952,"componentType":5126,"count":6,"max":[1.05,0.0,1.485],"min":[-1.05,0.0,-1.485],"type":"VEC3","name":"accessorPositions"},{"bufferView":1,"byteOffset":18024,"componentType":5126,"count":6,"type":"VEC3","name":"accessorNormals"},{"bufferView":2,"byteOffset":5984,"componentType":5126,"count":6,"type":"VEC2","name":"accessorUVs"},{"bufferView":0,"byteOffset":1548,"componentType":5123,"count":6,"type":"SCALAR","name":"accessorIndices"},{"bufferView":1,"byteOffset":18096,"componentType":5126,"count":6,"max":[1.05,0.0,1.485],"min":[-1.05,0.0,-1.485],"type":"VEC3","name":"accessorPositions"},{"bufferView":1,"byteOffset":18168,"componentType":5126,"count":6,"type":"VEC3","name":"accessorNormals"},{"bufferView":2,"byteOffset":6032,"componentType":5126,"count":6,"type":"VEC2","name":"accessorUVs"},{"bufferView":0,"byteOffset":1560,"componentType":5123,"count":6,"type":"SCALAR","name":"accessorIndices"},{"bufferView":1,"byteOffset":18240,"componentType":5126,"count":6,"max":[1.05,0.0,1.485],"min":[-1.05,0.0,-1.485],"type":"VEC3","name":"accessorPositions"},{"bufferView":1,"byteOffset":18312,"componentType":5126,"count":6,"type":"VEC3","name":"accessorNormals"},{"bufferView":2,"byteOffset":6080,"componentType":5126,"count":6,"type":"VEC2","name":"accessorUVs"},{"bufferView":0,"byteOffset":1572,"componentType":5123,"count":6,"type":"SCALAR","name":"accessorIndices"},{"bufferView":1,"byteOffset":18384,"componentType":5126,"count":6,"max":[1.05,0.0,1.485],"min":[-1.05,0.0,-1.485],"type":"VEC3","name":"accessorPositions"},{"bufferView":1,"byteOffset":18456,"componentType":5126,"count":6,"type":"VEC3","name":"accessorNormals"},{"bufferView":2,"byteOffset":6128,"componentType":5126,"count":6,"type":"VEC2","name":"accessorUVs"},{"bufferView":0,"byteOffset":1584,"componentType":5123,"count":6,"type":"SCALAR","name":"accessorIndices"},{"bufferView":1,"byteOffset":18528,"componentType":5126,"count":6,"max":[1.05,0.0,1.485],"min":[-1.05,0.0,-1.485],"type":"VEC3","name":"accessorPositions"},{"bufferView":1,"byteOffset":18600,"componentType":5126,"count":6,"type":"VEC3","name":"accessorNormals"},{"bufferView":2,"byteOffset":6176,"componentType":5126,"count":6,"type":"VEC2","name":"accessorUVs"},{"bufferView":0,"byteOffset":1596,"componentType":5123,"count":594,"type":"SCALAR","name":"accessorIndices"},{"bufferView":1,"byteOffset":18672,"componentType":5126,"count":594,"max":[3.28333449,8.666608,3.16812682],"min":[-6.716666,-1.33339226,-1.28187311],"type":"VEC3","name":"accessorPositions"},{"bufferView":1,"byteOffset":25800,"componentType":5126,"count":594,"type":"VEC3","name":"accessorNormals"},{"bufferView":2,"byteOffset":6224,"componentType":5126,"count":594,"type":"VEC2","name":"accessorUVs"}],"bufferViews":[{"buffer":0,"byteLength":2784,"name":"bufferViewScalar"},{"buffer":0,"byteOffset":2784,"byteLength":32928,"byteStride":12,"name":"bufferViewFloatVec3"},{"buffer":0,"byteOffset":35712,"byteLength":10976,"byteStride":8,"name":"bufferViewFloatVec2"}],"buffers":[{"uri":"stant48.bin","byteLength":46688}],"materials":[{"pbrMetallicRoughness":{"baseColorFactor":[0.0,0.0,0.0,0.0],"metallicFactor":0.0,"roughnessFactor":0.5},"alphaMode":"BLEND","doubleSided":true,"name":"matengel","extras":{"babylonSeparateCullingPass":false}},{"pbrMetallicRoughness":{"baseColorFactor":[0.07194245,0.07194245,0.07194245,1.0],"metallicFactor":0.0,"metallicRoughnessTexture":{"index":1,"extensions":{"KHR_texture_transform":{"texCoord":0}}}},"normalTexture":{"index":0,"scale":0.3,"extensions":{"KHR_texture_transform":{"texCoord":0}}},"name":"matzemin","extras":{"babylonSeparateCullingPass":false}},{"pbrMetallicRoughness":{"baseColorFactor":[0.151079133,0.0239117984,0.02899849,1.0],"metallicFactor":0.0,"metallicRoughnessTexture":{"index":1,"extensions":{"KHR_texture_transform":{"texCoord":0}}}},"normalTexture":{"index":0,"scale":0.3,"extensions":{"KHR_texture_transform":{"texCoord":0}}},"name":"matrenk2","extras":{"babylonSeparateCullingPass":false}},{"pbrMetallicRoughness":{"baseColorTexture":{"index":4,"extensions":{"KHR_texture_transform":{"texCoord":0}}},"metallicFactor":0.0,"roughnessFactor":0.5},"name":"matvideo1","extras":{"babylonSeparateCullingPass":false}},{"pbrMetallicRoughness":{"baseColorTexture":{"index":5,"extensions":{"KHR_texture_transform":{"texCoord":0}}},"metallicFactor":0.0,"roughnessFactor":0.5},"name":"matyazi1","extras":{"babylonSeparateCullingPass":false}},{"pbrMetallicRoughness":{"baseColorTexture":{"index":6,"extensions":{"KHR_texture_transform":{"texCoord":0}}},"metallicFactor":0.0,"roughnessFactor":0.5},"name":"matdikgorsel1","extras":{"babylonSeparateCullingPass":false}},{"pbrMetallicRoughness":{"baseColorTexture":{"index":7,"extensions":{"KHR_texture_transform":{"texCoord":0}}},"metallicFactor":0.0,"roughnessFactor":0.5},"name":"matlogo1","extras":{"babylonSeparateCullingPass":false}},{"pbrMetallicRoughness":{"baseColorTexture":{"index":8,"extensions":{"KHR_texture_transform":{"texCoord":0}}},"metallicFactor":0.0,"roughnessFactor":0.5},"name":"matdikyazi1","extras":{"babylonSeparateCullingPass":false}},{"pbrMetallicRoughness":{"baseColorTexture":{"index":9,"extensions":{"KHR_texture_transform":{"texCoord":0}}},"metallicFactor":0.0,"roughnessFactor":0.5},"name":"matlogo2","extras":{"babylonSeparateCullingPass":false}},{"pbrMetallicRoughness":{"baseColorTexture":{"index":10,"extensions":{"KHR_texture_transform":{"texCoord":0}}},"metallicFactor":0.0,"roughnessFactor":0.5},"name":"matdikyazi2","extras":{"babylonSeparateCullingPass":false}},{"pbrMetallicRoughness":{"baseColorTexture":{"index":11,"extensions":{"KHR_texture_transform":{"texCoord":0}}},"metallicFactor":0.0,"roughnessFactor":0.5},"name":"matdikgorsel2","extras":{"babylonSeparateCullingPass":false}},{"pbrMetallicRoughness":{"baseColorTexture":{"index":12,"extensions":{"KHR_texture_transform":{"texCoord":0}}},"metallicFactor":0.0,"roughnessFactor":0.5},"name":"matdikgorsel3","extras":{"babylonSeparateCullingPass":false}},{"pbrMetallicRoughness":{"baseColorTexture":{"index":13,"extensions":{"KHR_texture_transform":{"texCoord":0}}},"metallicFactor":0.0,"roughnessFactor":0.5},"name":"matdikgorsel4","extras":{"babylonSeparateCullingPass":false}},{"pbrMetallicRoughness":{"baseColorTexture":{"index":14,"extensions":{"KHR_texture_transform":{"texCoord":0}}},"metallicFactor":0.0,"roughnessFactor":0.5},"name":"matyazi2","extras":{"babylonSeparateCullingPass":false}},{"pbrMetallicRoughness":{"baseColorTexture":{"index":15,"extensions":{"KHR_texture_transform":{"texCoord":0}}},"metallicFactor":0.0,"roughnessFactor":0.5},"name":"matlogo3","extras":{"babylonSeparateCullingPass":false}},{"pbrMetallicRoughness":{"baseColorTexture":{"index":16,"extensions":{"KHR_texture_transform":{"texCoord":0}}},"metallicFactor":0.0,"roughnessFactor":0.5},"name":"matdikgorsel5","extras":{"babylonSeparateCullingPass":false}},{"pbrMetallicRoughness":{"baseColorTexture":{"index":17,"extensions":{"KHR_texture_transform":{"texCoord":0}}},"metallicFactor":0.0,"roughnessFactor":0.5},"name":"matdikgorsel6","extras":{"babylonSeparateCullingPass":false}},{"pbrMetallicRoughness":{"baseColorTexture":{"index":18,"extensions":{"KHR_texture_transform":{"texCoord":0}}},"metallicFactor":0.0,"roughnessFactor":0.5},"name":"matdikgorsel7","extras":{"babylonSeparateCullingPass":false}},{"pbrMetallicRoughness":{"baseColorTexture":{"index":19,"extensions":{"KHR_texture_transform":{"texCoord":0}}},"metallicFactor":0.0,"roughnessFactor":0.5},"name":"matdikgorsel8","extras":{"babylonSeparateCullingPass":false}},{"pbrMetallicRoughness":{"baseColorTexture":{"index":20,"extensions":{"KHR_texture_transform":{"texCoord":0}}},"metallicFactor":0.0,"roughnessFactor":0.5},"name":"matdikgorsel9","extras":{"babylonSeparateCullingPass":false}},{"pbrMetallicRoughness":{"baseColorFactor":[0.694117665,0.694117665,0.694117665,1.0],"metallicFactor":0.0,"metallicRoughnessTexture":{"index":1,"extensions":{"KHR_texture_transform":{"texCoord":0}}}},"normalTexture":{"index":0,"scale":0.3,"extensions":{"KHR_texture_transform":{"texCoord":0}}},"name":"matrenk1","extras":{"babylonSeparateCullingPass":false}}],"textures":[{"sampler":0,"source":0,"name":"matrenknormal.png"},{"sampler":0,"source":1,"name":"matrenkroughness0.png"},{"sampler":0,"source":0,"name":"matrenknormal.png"},{"sampler":0,"source":1,"name":"matrenkroughness0.png"},{"sampler":0,"source":2,"name":"matvideo1.png"},{"sampler":0,"source":3,"name":"matyazi1.png"},{"sampler":0,"source":4,"name":"matdikgorsel1.png"},{"sampler":0,"source":5,"name":"matlogo1.png"},{"sampler":0,"source":6,"name":"matdikyazi1.png"},{"sampler":0,"source":7,"name":"matlogo2.png"},{"sampler":0,"source":8,"name":"matdikyazi2.png"},{"sampler":0,"source":9,"name":"matdikgorsel2.png"},{"sampler":0,"source":10,"name":"matdikgorsel3.png"},{"sampler":0,"source":11,"name":"matdikgorsel4.png"},{"sampler":0,"source":12,"name":"matyazi2.png"},{"sampler":0,"source":13,"name":"matlogo3.png"},{"sampler":0,"source":14,"name":"matdikgorsel5.png"},{"sampler":0,"source":15,"name":"matdikgorsel6.png"},{"sampler":0,"source":16,"name":"matdikgorsel7.png"},{"sampler":0,"source":17,"name":"matdikgorsel8.png"},{"sampler":0,"source":18,"name":"matdikgorsel9.png"},{"sampler":0,"source":0,"name":"matrenknormal.png"},{"sampler":0,"source":1,"name":"matrenkroughness0.png"}],"images":[{"uri":"./matrenknormal.png"},{"uri":"./matrenkroughness0.png"},{"uri":"./matvideo1.png"},{"uri":"./matyazi1.png"},{"uri":"./matdikgorsel1.png"},{"uri":"./matlogo1.png"},{"uri":"./matdikyazi1.png"},{"uri":"./matlogo2.png"},{"uri":"./matdikyazi2.png"},{"uri":"./matdikgorsel2.png"},{"uri":"./matdikgorsel3.png"},{"uri":"./matdikgorsel4.png"},{"uri":"./matyazi2.png"},{"uri":"./matlogo3.png"},{"uri":"./matdikgorsel5.png"},{"uri":"./matdikgorsel6.png"},{"uri":"./matdikgorsel7.png"},{"uri":"./matdikgorsel8.png"},{"uri":"./matdikgorsel9.png"}],"samplers":[{"magFilter":9729,"minFilter":9987}]}