{"asset":{"version":"2.0","generator":"babylon.js glTF exporter for 3dsmax 2018 v20210615.1"},"extensionsUsed":["KHR_texture_transform"],"extensionsRequired":["KHR_texture_transform"],"scene":0,"scenes":[{"nodes":[0]}],"nodes":[{"children":[1,2,3,4,5,6,7,8,9,10,11,12,13,14,15,16,17,18,19],"translation":[1.80239887E-15,0.0,1.03085194E-08],"rotation":[0.0,8.74227837E-08,0.0,1.0],"scale":[0.106963739,0.106963739,0.106963739],"name":"Group001"},{"mesh":0,"translation":[0.3579622,1.08135009,1.26938474],"rotation":[0.0,3.20395167E-15,0.0,1.0],"scale":[1.1088537,1.0,0.420807749],"name":"modrenk1"},{"mesh":1,"translation":[0.33234787,1.708395,1.28808331],"rotation":[0.7071068,5.024296E-15,-5.024296E-15,0.7071067],"name":"modgorsel6"},{"mesh":2,"translation":[0.33234787,1.66961193,1.24324155],"rotation":[-0.7071068,5.024296E-15,5.024296E-15,0.7071067],"name":"modgorsel5"},{"mesh":3,"translation":[1.14440915E-07,0.0500036627,0.0],"rotation":[0.0,7.10542736E-15,0.0,1.0],"name":"modzemin"},{"mesh":4,"translation":[-4.37131071,0.6198218,-2.92905021],"rotation":[0.7071068,-0.7071068,-1.88959319E-07,1.88959319E-07],"name":"modlogo1"},{"mesh":5,"translation":[-3.20412183,0.101073921,2.108933],"scale":[1.13911116,1.0,1.24334991],"name":"modrenk2"},{"mesh":6,"translation":[0.343369752,3.243269,3.84428477],"rotation":[0.70710665,4.608092E-07,4.6080936E-07,0.7071069],"scale":[0.7089011,0.656186938,0.7089011],"name":"moddikgorsel1"},{"mesh":7,"translation":[0.165184915,1.62551689,-1.46060789],"rotation":[0.499999642,-0.499999,-0.500000358,0.500001],"scale":[1.40865707,1.40865707,1.40865707],"name":"modvideo1"},{"mesh":8,"translation":[-0.350812525,1.18936765,3.92679429],"rotation":[0.342022866,3.78072267E-15,0.0,0.939691663],"scale":[1.0,0.99999994,0.99999994],"name":"modgorsel1"},{"mesh":9,"translation":[0.116110921,1.18936765,3.92679429],"rotation":[0.342022866,3.78072267E-15,0.0,0.939691663],"scale":[1.0,0.99999994,0.99999994],"name":"modgorsel2"},{"mesh":10,"translation":[0.583034337,1.18936765,3.92679429],"rotation":[0.342022866,3.78072267E-15,0.0,0.939691663],"scale":[1.0,0.99999994,0.99999994],"name":"modgorsel3"},{"mesh":11,"translation":[1.049958,1.18936777,3.92679429],"rotation":[0.342022866,3.78072267E-15,0.0,0.939691663],"scale":[1.0,0.99999994,0.99999994],"name":"modgorsel4"},{"mesh":12,"translation":[0.3633177,1.72653329,3.72365952],"rotation":[0.5000003,-0.499999642,-0.4999997,0.500000358],"scale":[1.095325,1.095325,1.095325],"name":"modyazi1"},{"mesh":13,"translation":[3.23254085,1.6449132,-2.85759],"rotation":[-0.5000003,-0.500000358,0.4999996,-0.499999762],"scale":[1.01926935,1.01926935,1.01926935],"name":"modlogo2"},{"mesh":14,"translation":[0.347234935,3.791228,-4.208159],"rotation":[-0.5000004,0.499999762,-0.499999583,0.500000238],"scale":[1.19997323,1.19997323,1.19997323],"name":"modyazi2"},{"mesh":15,"translation":[-1.72586358,1.69019878,-2.87366652],"rotation":[0.499999642,-0.4999997,0.5000003,0.500000358],"scale":[0.98724097,0.98724097,0.98724097],"name":"modlogo3"},{"mesh":16,"translation":[0.1847635,1.64679074,-4.23108],"rotation":[-1.77019658E-07,-0.7071069,0.70710665,7.44598935E-07],"scale":[0.6746197,0.6746197,0.6746197],"name":"modgenisgorsel"},{"mesh":17,"translation":[0.332347453,2.980466,3.662562],"rotation":[-0.7071068,5.024296E-15,5.024296E-15,0.7071067],"name":"modgorsel7"},{"mesh":18,"translation":[0.332347453,1.37276435,3.662562],"rotation":[-0.7071068,5.024296E-15,5.024296E-15,0.7071067],"name":"modgorsel8"}],"meshes":[{"primitives":[{"attributes":{"POSITION":1,"NORMAL":2,"TEXCOORD_0":3},"indices":0,"material":0}],"name":"modrenk1"},{"primitives":[{"attributes":{"POSITION":5,"NORMAL":6,"TEXCOORD_0":7},"indices":4,"material":1}],"name":"modgorsel6"},{"primitives":[{"attributes":{"POSITION":9,"NORMAL":10,"TEXCOORD_0":11},"indices":8,"material":2}],"name":"modgorsel5"},{"primitives":[{"attributes":{"POSITION":13,"NORMAL":14,"TEXCOORD_0":15},"indices":12,"material":3}],"name":"modzemin"},{"primitives":[{"attributes":{"POSITION":17,"NORMAL":18,"TEXCOORD_0":19},"indices":16,"material":4}],"name":"modlogo1"},{"primitives":[{"attributes":{"POSITION":21,"NORMAL":22,"TEXCOORD_0":23},"indices":20,"material":5}],"name":"modrenk2"},{"primitives":[{"attributes":{"POSITION":25,"NORMAL":26,"TEXCOORD_0":27},"indices":24,"material":6}],"name":"moddikgorsel1"},{"primitives":[{"attributes":{"POSITION":29,"NORMAL":30,"TEXCOORD_0":31},"indices":28,"material":7}],"name":"modvideo1"},{"primitives":[{"attributes":{"POSITION":33,"NORMAL":34,"TEXCOORD_0":35},"indices":32,"material":8}],"name":"modgorsel1"},{"primitives":[{"attributes":{"POSITION":37,"NORMAL":38,"TEXCOORD_0":39},"indices":36,"material":9}],"name":"modgorsel2"},{"primitives":[{"attributes":{"POSITION":41,"NORMAL":42,"TEXCOORD_0":43},"indices":40,"material":10}],"name":"modgorsel3"},{"primitives":[{"attributes":{"POSITION":45,"NORMAL":46,"TEXCOORD_0":47},"indices":44,"material":11}],"name":"modgorsel4"},{"primitives":[{"attributes":{"POSITION":49,"NORMAL":50,"TEXCOORD_0":51},"indices":48,"material":12}],"name":"modyazi1"},{"primitives":[{"attributes":{"POSITION":53,"NORMAL":54,"TEXCOORD_0":55},"indices":52,"material":13}],"name":"modlogo2"},{"primitives":[{"attributes":{"POSITION":57,"NORMAL":58,"TEXCOORD_0":59},"indices":56,"material":14}],"name":"modyazi2"},{"primitives":[{"attributes":{"POSITION":61,"NORMAL":62,"TEXCOORD_0":63},"indices":60,"material":15}],"name":"modlogo3"},{"primitives":[{"attributes":{"POSITION":65,"NORMAL":66,"TEXCOORD_0":67},"indices":64,"material":16}],"name":"modgenisgorsel"},{"primitives":[{"attributes":{"POSITION":69,"NORMAL":70,"TEXCOORD_0":71},"indices":68,"material":17}],"name":"modgorsel7"},{"primitives":[{"attributes":{"POSITION":73,"NORMAL":74,"TEXCOORD_0":75},"indices":72,"material":18}],"name":"modgorsel8"}],"accessors":[{"bufferView":0,"componentType":5123,"count":180,"type":"SCALAR","name":"accessorIndices"},{"bufferView":1,"componentType":5126,"count":118,"max":[3.19276166,3.285861,6.06740761],"min":[-4.25747347,-1.036509,-13.04449],"type":"VEC3","name":"accessorPositions"},{"bufferView":1,"byteOffset":1416,"componentType":5126,"count":118,"type":"VEC3","name":"accessorNormals"},{"bufferView":2,"componentType":5126,"count":118,"type":"VEC2","name":"accessorUVs"},{"bufferView":0,"byteOffset":360,"componentType":5123,"count":6,"type":"SCALAR","name":"accessorIndices"},{"bufferView":1,"byteOffset":2832,"componentType":5126,"count":4,"max":[0.65,5.102157E-07,0.650000036],"min":[-0.65,3.528595E-07,-0.649999857],"type":"VEC3","name":"accessorPositions"},{"bufferView":1,"byteOffset":2880,"componentType":5126,"count":4,"type":"VEC3","name":"accessorNormals"},{"bufferView":2,"byteOffset":944,"componentType":5126,"count":4,"type":"VEC2","name":"accessorUVs"},{"bufferView":0,"byteOffset":372,"componentType":5123,"count":6,"type":"SCALAR","name":"accessorIndices"},{"bufferView":1,"byteOffset":2928,"componentType":5126,"count":4,"max":[0.650000036,1.54972071E-08,0.649999857],"min":[-0.65,-1.43051139E-07,-0.650000155],"type":"VEC3","name":"accessorPositions"},{"bufferView":1,"byteOffset":2976,"componentType":5126,"count":4,"type":"VEC3","name":"accessorNormals"},{"bufferView":2,"byteOffset":976,"componentType":5126,"count":4,"type":"VEC2","name":"accessorUVs"},{"bufferView":0,"byteOffset":384,"componentType":5123,"count":30,"type":"SCALAR","name":"accessorIndices"},{"bufferView":1,"byteOffset":3024,"componentType":5126,"count":20,"max":[4.671882,0.0,4.364442],"min":[-4.671882,-0.050000038,-4.364442],"type":"VEC3","name":"accessorPositions"},{"bufferView":1,"byteOffset":3264,"componentType":5126,"count":20,"type":"VEC3","name":"accessorNormals"},{"bufferView":2,"byteOffset":1008,"componentType":5126,"count":20,"type":"VEC2","name":"accessorUVs"},{"bufferView":0,"byteOffset":444,"componentType":5123,"count":6,"type":"SCALAR","name":"accessorIndices"},{"bufferView":1,"byteOffset":3504,"componentType":5126,"count":4,"max":[0.299999982,0.0,0.299999982],"min":[-0.299999982,0.0,-0.299999982],"type":"VEC3","name":"accessorPositions"},{"bufferView":1,"byteOffset":3552,"componentType":5126,"count":4,"type":"VEC3","name":"accessorNormals"},{"bufferView":2,"byteOffset":1168,"componentType":5126,"count":4,"type":"VEC2","name":"accessorUVs"},{"bufferView":0,"byteOffset":456,"componentType":5123,"count":1608,"type":"SCALAR","name":"accessorIndices"},{"bufferView":1,"byteOffset":3600,"componentType":5126,"count":866,"max":[6.77137566,4.308481,1.63598037],"min":[-0.9918609,-0.0450475439,-5.09539032],"type":"VEC3","name":"accessorPositions"},{"bufferView":1,"byteOffset":13992,"componentType":5126,"count":866,"type":"VEC3","name":"accessorNormals"},{"bufferView":2,"byteOffset":1200,"componentType":5126,"count":866,"type":"VEC2","name":"accessorUVs"},{"bufferView":0,"byteOffset":3672,"componentType":5123,"count":6,"type":"SCALAR","name":"accessorIndices"},{"bufferView":1,"byteOffset":24384,"componentType":5126,"count":4,"max":[1.05,0.0,1.485],"min":[-1.05,0.0,-1.485],"type":"VEC3","name":"accessorPositions"},{"bufferView":1,"byteOffset":24432,"componentType":5126,"count":4,"type":"VEC3","name":"accessorNormals"},{"bufferView":2,"byteOffset":8128,"componentType":5126,"count":4,"type":"VEC2","name":"accessorUVs"},{"bufferView":0,"byteOffset":3684,"componentType":5123,"count":6,"type":"SCALAR","name":"accessorIndices"},{"bufferView":1,"byteOffset":24480,"componentType":5126,"count":4,"max":[0.539999962,0.0,0.96],"min":[-0.539999962,0.0,-0.96],"type":"VEC3","name":"accessorPositions"},{"bufferView":1,"byteOffset":24528,"componentType":5126,"count":4,"type":"VEC3","name":"accessorNormals"},{"bufferView":2,"byteOffset":8160,"componentType":5126,"count":4,"type":"VEC2","name":"accessorUVs"},{"bufferView":0,"byteOffset":3696,"componentType":5123,"count":6,"type":"SCALAR","name":"accessorIndices"},{"bufferView":1,"byteOffset":24576,"componentType":5126,"count":4,"max":[0.199999988,0.0,0.199999988],"min":[-0.199999988,0.0,-0.199999988],"type":"VEC3","name":"accessorPositions"},{"bufferView":1,"byteOffset":24624,"componentType":5126,"count":4,"type":"VEC3","name":"accessorNormals"},{"bufferView":2,"byteOffset":8192,"componentType":5126,"count":4,"type":"VEC2","name":"accessorUVs"},{"bufferView":0,"byteOffset":3708,"componentType":5123,"count":6,"type":"SCALAR","name":"accessorIndices"},{"bufferView":1,"byteOffset":24672,"componentType":5126,"count":4,"max":[0.199999988,0.0,0.199999988],"min":[-0.199999988,0.0,-0.199999988],"type":"VEC3","name":"accessorPositions"},{"bufferView":1,"byteOffset":24720,"componentType":5126,"count":4,"type":"VEC3","name":"accessorNormals"},{"bufferView":2,"byteOffset":8224,"componentType":5126,"count":4,"type":"VEC2","name":"accessorUVs"},{"bufferView":0,"byteOffset":3720,"componentType":5123,"count":6,"type":"SCALAR","name":"accessorIndices"},{"bufferView":1,"byteOffset":24768,"componentType":5126,"count":4,"max":[0.199999988,0.0,0.199999988],"min":[-0.199999988,0.0,-0.199999988],"type":"VEC3","name":"accessorPositions"},{"bufferView":1,"byteOffset":24816,"componentType":5126,"count":4,"type":"VEC3","name":"accessorNormals"},{"bufferView":2,"byteOffset":8256,"componentType":5126,"count":4,"type":"VEC2","name":"accessorUVs"},{"bufferView":0,"byteOffset":3732,"componentType":5123,"count":6,"type":"SCALAR","name":"accessorIndices"},{"bufferView":1,"byteOffset":24864,"componentType":5126,"count":4,"max":[0.199999988,0.0,0.199999988],"min":[-0.199999988,0.0,-0.199999988],"type":"VEC3","name":"accessorPositions"},{"bufferView":1,"byteOffset":24912,"componentType":5126,"count":4,"type":"VEC3","name":"accessorNormals"},{"bufferView":2,"byteOffset":8288,"componentType":5126,"count":4,"type":"VEC2","name":"accessorUVs"},{"bufferView":0,"byteOffset":3744,"componentType":5123,"count":6,"type":"SCALAR","name":"accessorIndices"},{"bufferView":1,"byteOffset":24960,"componentType":5126,"count":4,"max":[0.25,0.0,0.75],"min":[-0.25,0.0,-0.75],"type":"VEC3","name":"accessorPositions"},{"bufferView":1,"byteOffset":25008,"componentType":5126,"count":4,"type":"VEC3","name":"accessorNormals"},{"bufferView":2,"byteOffset":8320,"componentType":5126,"count":4,"type":"VEC2","name":"accessorUVs"},{"bufferView":0,"byteOffset":3756,"componentType":5123,"count":6,"type":"SCALAR","name":"accessorIndices"},{"bufferView":1,"byteOffset":25056,"componentType":5126,"count":4,"max":[1.05,0.0,1.05],"min":[-1.05,0.0,-1.05],"type":"VEC3","name":"accessorPositions"},{"bufferView":1,"byteOffset":25104,"componentType":5126,"count":4,"type":"VEC3","name":"accessorNormals"},{"bufferView":2,"byteOffset":8352,"componentType":5126,"count":4,"type":"VEC2","name":"accessorUVs"},{"bufferView":0,"byteOffset":3768,"componentType":5123,"count":6,"type":"SCALAR","name":"accessorIndices"},{"bufferView":1,"byteOffset":25152,"componentType":5126,"count":4,"max":[0.25,0.0,0.75],"min":[-0.25,0.0,-0.75],"type":"VEC3","name":"accessorPositions"},{"bufferView":1,"byteOffset":25200,"componentType":5126,"count":4,"type":"VEC3","name":"accessorNormals"},{"bufferView":2,"byteOffset":8384,"componentType":5126,"count":4,"type":"VEC2","name":"accessorUVs"},{"bufferView":0,"byteOffset":3780,"componentType":5123,"count":6,"type":"SCALAR","name":"accessorIndices"},{"bufferView":1,"byteOffset":25248,"componentType":5126,"count":4,"max":[1.05,0.0,1.05],"min":[-1.05,0.0,-1.05],"type":"VEC3","name":"accessorPositions"},{"bufferView":1,"byteOffset":25296,"componentType":5126,"count":4,"type":"VEC3","name":"accessorNormals"},{"bufferView":2,"byteOffset":8416,"componentType":5126,"count":4,"type":"VEC2","name":"accessorUVs"},{"bufferView":0,"byteOffset":3792,"componentType":5123,"count":6,"type":"SCALAR","name":"accessorIndices"},{"bufferView":1,"byteOffset":25344,"componentType":5126,"count":4,"max":[2.66233945,7.485295E-07,2.15412474],"min":[-2.66233945,-1.16186845E-06,-2.1541245],"type":"VEC3","name":"accessorPositions"},{"bufferView":1,"byteOffset":25392,"componentType":5126,"count":4,"type":"VEC3","name":"accessorNormals"},{"bufferView":2,"byteOffset":8448,"componentType":5126,"count":4,"type":"VEC2","name":"accessorUVs"},{"bufferView":0,"byteOffset":3804,"componentType":5123,"count":6,"type":"SCALAR","name":"accessorIndices"},{"bufferView":1,"byteOffset":25440,"componentType":5126,"count":4,"max":[0.650000036,-2.43186946E-07,0.65],"min":[-0.65,-4.017353E-07,-0.65],"type":"VEC3","name":"accessorPositions"},{"bufferView":1,"byteOffset":25488,"componentType":5126,"count":4,"type":"VEC3","name":"accessorNormals"},{"bufferView":2,"byteOffset":8480,"componentType":5126,"count":4,"type":"VEC2","name":"accessorUVs"},{"bufferView":0,"byteOffset":3816,"componentType":5123,"count":6,"type":"SCALAR","name":"accessorIndices"},{"bufferView":1,"byteOffset":25536,"componentType":5126,"count":4,"max":[0.650000036,-2.43186946E-07,0.65],"min":[-0.65,-4.017353E-07,-0.65],"type":"VEC3","name":"accessorPositions"},{"bufferView":1,"byteOffset":25584,"componentType":5126,"count":4,"type":"VEC3","name":"accessorNormals"},{"bufferView":2,"byteOffset":8512,"componentType":5126,"count":4,"type":"VEC2","name":"accessorUVs"}],"bufferViews":[{"buffer":0,"byteLength":3828,"name":"bufferViewScalar"},{"buffer":0,"byteOffset":3828,"byteLength":25632,"byteStride":12,"name":"bufferViewFloatVec3"},{"buffer":0,"byteOffset":29460,"byteLength":8544,"byteStride":8,"name":"bufferViewFloatVec2"}],"buffers":[{"uri":"stant30.bin","byteLength":38004}],"materials":[{"pbrMetallicRoughness":{"baseColorFactor":[0.08627451,0.211764723,0.258823544,1.0],"metallicFactor":0.0,"metallicRoughnessTexture":{"index":1,"extensions":{"KHR_texture_transform":{"texCoord":0}}}},"normalTexture":{"index":0,"scale":0.3,"extensions":{"KHR_texture_transform":{"texCoord":0}}},"doubleSided":true,"name":"matrenk1","extras":{"babylonSeparateCullingPass":false}},{"pbrMetallicRoughness":{"baseColorTexture":{"index":2,"extensions":{"KHR_texture_transform":{"texCoord":0}}},"metallicFactor":0.0,"roughnessFactor":0.5},"doubleSided":true,"name":"matgorsel6","extras":{"babylonSeparateCullingPass":false}},{"pbrMetallicRoughness":{"baseColorTexture":{"index":3,"extensions":{"KHR_texture_transform":{"texCoord":0}}},"metallicFactor":0.0,"roughnessFactor":0.5},"doubleSided":true,"name":"matgorsel5","extras":{"babylonSeparateCullingPass":false}},{"pbrMetallicRoughness":{"baseColorFactor":[0.5294118,0.5294118,0.5294118,1.0],"metallicFactor":0.0,"metallicRoughnessTexture":{"index":1,"extensions":{"KHR_texture_transform":{"texCoord":0}}}},"normalTexture":{"index":0,"scale":0.3,"extensions":{"KHR_texture_transform":{"texCoord":0}}},"doubleSided":true,"name":"matzemin","extras":{"babylonSeparateCullingPass":false}},{"pbrMetallicRoughness":{"baseColorTexture":{"index":6,"extensions":{"KHR_texture_transform":{"texCoord":0}}},"metallicFactor":0.0,"roughnessFactor":0.5},"doubleSided":true,"name":"matlogo1","extras":{"babylonSeparateCullingPass":false}},{"pbrMetallicRoughness":{"baseColorFactor":[0.050069876,0.0503597148,0.0431137122,1.0],"metallicFactor":0.0,"metallicRoughnessTexture":{"index":1,"extensions":{"KHR_texture_transform":{"texCoord":0}}}},"normalTexture":{"index":0,"scale":0.3,"extensions":{"KHR_texture_transform":{"texCoord":0}}},"doubleSided":true,"name":"matrenk2","extras":{"babylonSeparateCullingPass":false}},{"pbrMetallicRoughness":{"baseColorTexture":{"index":9,"extensions":{"KHR_texture_transform":{"texCoord":0}}},"metallicFactor":0.0,"roughnessFactor":0.5},"doubleSided":true,"name":"matdikgorsel1","extras":{"babylonSeparateCullingPass":false}},{"pbrMetallicRoughness":{"baseColorTexture":{"index":10,"extensions":{"KHR_texture_transform":{"texCoord":0}}},"metallicFactor":0.0,"roughnessFactor":0.5},"doubleSided":true,"name":"matvideo1","extras":{"babylonSeparateCullingPass":false}},{"pbrMetallicRoughness":{"baseColorTexture":{"index":11,"extensions":{"KHR_texture_transform":{"texCoord":0}}},"metallicFactor":0.0,"roughnessFactor":0.5},"doubleSided":true,"name":"matgorsel1","extras":{"babylonSeparateCullingPass":false}},{"pbrMetallicRoughness":{"baseColorTexture":{"index":12,"extensions":{"KHR_texture_transform":{"texCoord":0}}},"metallicFactor":0.0,"roughnessFactor":0.5},"doubleSided":true,"name":"matgorsel2","extras":{"babylonSeparateCullingPass":false}},{"pbrMetallicRoughness":{"baseColorTexture":{"index":13,"extensions":{"KHR_texture_transform":{"texCoord":0}}},"metallicFactor":0.0,"roughnessFactor":0.5},"doubleSided":true,"name":"matgorsel3","extras":{"babylonSeparateCullingPass":false}},{"pbrMetallicRoughness":{"baseColorTexture":{"index":14,"extensions":{"KHR_texture_transform":{"texCoord":0}}},"metallicFactor":0.0,"roughnessFactor":0.5},"doubleSided":true,"name":"matgorsel4","extras":{"babylonSeparateCullingPass":false}},{"pbrMetallicRoughness":{"baseColorTexture":{"index":15,"extensions":{"KHR_texture_transform":{"texCoord":0}}},"metallicFactor":0.0,"roughnessFactor":0.5},"doubleSided":true,"name":"matyazi1","extras":{"babylonSeparateCullingPass":false}},{"pbrMetallicRoughness":{"baseColorTexture":{"index":16,"extensions":{"KHR_texture_transform":{"texCoord":0}}},"metallicFactor":0.0,"roughnessFactor":0.5},"doubleSided":true,"name":"matlogo2","extras":{"babylonSeparateCullingPass":false}},{"pbrMetallicRoughness":{"baseColorTexture":{"index":17,"extensions":{"KHR_texture_transform":{"texCoord":0}}},"metallicFactor":0.0,"roughnessFactor":0.5},"doubleSided":true,"name":"matyazi2","extras":{"babylonSeparateCullingPass":false}},{"pbrMetallicRoughness":{"baseColorTexture":{"index":18,"extensions":{"KHR_texture_transform":{"texCoord":0}}},"metallicFactor":0.0,"roughnessFactor":0.5},"doubleSided":true,"name":"matlogo3","extras":{"babylonSeparateCullingPass":false}},{"pbrMetallicRoughness":{"baseColorTexture":{"index":19,"extensions":{"KHR_texture_transform":{"texCoord":0}}},"metallicFactor":0.0,"roughnessFactor":0.5},"doubleSided":true,"name":"matgenisgorsel","extras":{"babylonSeparateCullingPass":false}},{"pbrMetallicRoughness":{"baseColorTexture":{"index":20,"extensions":{"KHR_texture_transform":{"texCoord":0}}},"metallicFactor":0.0,"roughnessFactor":0.5},"doubleSided":true,"name":"matgorsel7","extras":{"babylonSeparateCullingPass":false}},{"pbrMetallicRoughness":{"baseColorTexture":{"index":21,"extensions":{"KHR_texture_transform":{"texCoord":0}}},"metallicFactor":0.0,"roughnessFactor":0.5},"doubleSided":true,"name":"matgorsel8","extras":{"babylonSeparateCullingPass":false}}],"textures":[{"sampler":0,"source":0,"name":"matrenknormal.png"},{"sampler":0,"source":1,"name":"matrenkroughness0.png"},{"sampler":0,"source":2,"name":"matgorsel6.png"},{"sampler":0,"source":3,"name":"matgorsel5.png"},{"sampler":0,"source":0,"name":"matrenknormal.png"},{"sampler":0,"source":1,"name":"matrenkroughness0.png"},{"sampler":0,"source":4,"name":"matlogo1.png"},{"sampler":0,"source":0,"name":"matrenknormal.png"},{"sampler":0,"source":1,"name":"matrenkroughness0.png"},{"sampler":0,"source":5,"name":"matdikgorsel1.png"},{"sampler":0,"source":6,"name":"matvideo1.png"},{"sampler":0,"source":7,"name":"matgorsel1.png"},{"sampler":0,"source":8,"name":"matgorsel2.png"},{"sampler":0,"source":9,"name":"matgorsel3.png"},{"sampler":0,"source":10,"name":"matgorsel4.png"},{"sampler":0,"source":11,"name":"matyazi1.png"},{"sampler":0,"source":12,"name":"matlogo2.png"},{"sampler":0,"source":13,"name":"matyazi2.png"},{"sampler":0,"source":14,"name":"matlogo3.png"},{"sampler":0,"source":15,"name":"matgenisgorsel.png"},{"sampler":0,"source":16,"name":"matgorsel7.png"},{"sampler":0,"source":17,"name":"matgorsel8.png"}],"images":[{"uri":"./matrenknormal.png"},{"uri":"./matrenkroughness0.png"},{"uri":"./matgorsel6.png"},{"uri":"./matgorsel5.png"},{"uri":"./matlogo1.png"},{"uri":"./matdikgorsel1.png"},{"uri":"./matvideo1.png"},{"uri":"./matgorsel1.png"},{"uri":"./matgorsel2.png"},{"uri":"./matgorsel3.png"},{"uri":"./matgorsel4.png"},{"uri":"./matyazi1.png"},{"uri":"./matlogo2.png"},{"uri":"./matyazi2.png"},{"uri":"./matlogo3.png"},{"uri":"./matgenisgorsel.png"},{"uri":"./matgorsel7.png"},{"uri":"./matgorsel8.png"}],"samplers":[{"magFilter":9729,"minFilter":9987}]}