{"asset":{"version":"2.0","generator":"babylon.js glTF exporter for 3dsmax 2018 v20210615.1"},"extensionsUsed":["KHR_texture_transform"],"extensionsRequired":["KHR_texture_transform"],"scene":0,"scenes":[{"nodes":[0]}],"nodes":[{"children":[1,2,3,4,5,6,7,8,9,10,11,12,13,14,15,16,17,18,19,20,21],"translation":[-3.81469718E-08,0.0,0.0],"name":"Group001"},{"mesh":0,"translation":[0.499641746,0.20409973,0.4172464],"rotation":[-2.50682149E-07,2.12933188E-07,-0.7071068,0.7071067],"scale":[0.239480764,0.239480764,0.239480764],"name":"moddikyazi3"},{"mesh":1,"translation":[-0.347730666,0.216999963,0.366898477],"rotation":[-0.49999994,-0.50000006,0.5000001,-0.499999881],"scale":[0.03763001,0.03763001,0.03763001],"name":"moddikgorsel6"},{"mesh":2,"translation":[0.191700771,0.207711786,0.248364866],"rotation":[0.7071067,-0.7071068,-5.18497757E-07,5.56246732E-07],"scale":[0.2441575,0.244157553,0.244157553],"name":"moddikyazi2"},{"mesh":3,"translation":[-0.002501335,1.90734859E-08,-0.236564979],"rotation":[0.0,0.7071068,0.0,0.7071067],"scale":[0.099999994,0.099999994,0.099999994],"name":"modzemin"},{"mesh":4,"translation":[-0.441303968,0.343657881,0.4183801],"rotation":[-0.539286256,0.457351416,-0.539286256,-0.457351416],"scale":[0.07644763,0.07644763,0.07644763],"name":"modlogo1"},{"mesh":5,"translation":[-0.427843422,0.2434256,0.07948334],"rotation":[-0.539286256,0.457351476,-0.539286256,-0.457351446],"scale":[0.252904028,0.252904058,0.252904058],"name":"moddikyazi1"},{"mesh":6,"translation":[-0.333283037,0.220840141,-0.275645733],"rotation":[-0.49999994,-0.50000006,0.5000001,-0.499999881],"scale":[0.147593737,0.147593737,0.147593737],"name":"modvideo1"},{"mesh":7,"translation":[0.5030081,0.211794734,-0.276242673],"rotation":[-0.49999994,-0.50000006,0.5000001,-0.499999881],"scale":[0.15424411,0.15424411,0.15424411],"name":"modlogo2"},{"mesh":8,"translation":[0.445454121,0.226951137,-0.277573556],"rotation":[0.500000238,-0.499999762,0.4999999,0.5000001],"scale":[0.11191272,0.11191272,0.11191272],"name":"modlogo3"},{"mesh":9,"translation":[0.484204739,0.217055961,0.372561336],"rotation":[0.500000358,-0.4999996,0.499999881,0.5000001],"scale":[0.03763001,0.03763001,0.03763001],"name":"moddikgorsel3"},{"mesh":10,"translation":[0.484204739,0.217055961,0.461725444],"rotation":[0.500000358,-0.4999996,0.499999881,0.5000001],"scale":[0.03763001,0.03763001,0.03763001],"name":"moddikgorsel4"},{"mesh":11,"translation":[0.4842047,0.217055961,0.03213959],"rotation":[0.500000358,-0.4999996,0.499999881,0.5000001],"scale":[0.03763001,0.03763001,0.03763001],"name":"moddikgorsel1"},{"mesh":12,"translation":[0.484204739,0.217055961,0.121303707],"rotation":[0.500000358,-0.4999996,0.499999881,0.5000001],"scale":[0.03763001,0.03763001,0.03763001],"name":"moddikgorsel2"},{"mesh":13,"translation":[-0.3477309,0.216999963,0.115640864],"rotation":[-0.49999994,-0.50000006,0.5000001,-0.499999881],"scale":[0.03763001,0.03763001,0.03763001],"name":"moddikgorsel7"},{"mesh":14,"translation":[-0.3477309,0.216999963,0.0264767446],"rotation":[-0.49999994,-0.50000006,0.5000001,-0.499999881],"scale":[0.03763001,0.03763001,0.03763001],"name":"moddikgorsel8"},{"mesh":15,"translation":[-0.347730666,0.216999963,0.456062615],"rotation":[-0.49999994,-0.50000006,0.5000001,-0.499999881],"scale":[0.03763001,0.03763001,0.03763001],"name":"moddikgorsel5"},{"mesh":16,"translation":[0.4898926,0.005000019,0.396982729],"rotation":[0.0,0.7071068,0.0,0.7071067],"scale":[0.099999994,0.099999994,0.099999994],"name":"modrenk1"},{"mesh":17,"translation":[0.445357084,0.206251979,-0.481325358],"rotation":[-0.5,0.5,-0.5,-0.5],"scale":[0.099999994,0.099999994,0.099999994],"name":"modrenk2"},{"mesh":18,"translation":[-0.407802939,0.144222185,0.4183801],"rotation":[-0.539286256,0.457351416,-0.539286256,-0.457351416],"scale":[0.07644763,0.07644763,0.07644763],"name":"modgorsel1"},{"mesh":19,"translation":[-0.246298179,0.399975836,-0.489915758],"rotation":[-0.7071072,-3.265794E-14,6.18172464E-08,0.7071065],"scale":[0.191274583,0.191274583,0.191274583],"name":"modyazi1"},{"mesh":20,"translation":[0.4983825,0.216999963,0.07833873],"rotation":[-0.49999994,-0.50000006,0.5000001,-0.499999881],"scale":[0.0733089,0.0733089,0.0733089],"name":"moddikgorsel9"}],"meshes":[{"primitives":[{"attributes":{"POSITION":1,"NORMAL":2,"TEXCOORD_0":3},"indices":0,"material":0}],"name":"moddikyazi3"},{"primitives":[{"attributes":{"POSITION":5,"NORMAL":6,"TEXCOORD_0":7},"indices":4,"material":1}],"name":"moddikgorsel6"},{"primitives":[{"attributes":{"POSITION":9,"NORMAL":10,"TEXCOORD_0":11},"indices":8,"material":2}],"name":"moddikyazi2"},{"primitives":[{"attributes":{"POSITION":13,"NORMAL":14,"TEXCOORD_0":15},"indices":12,"material":3}],"name":"modzemin"},{"primitives":[{"attributes":{"POSITION":17,"NORMAL":18,"TEXCOORD_0":19},"indices":16,"material":4}],"name":"modlogo1"},{"primitives":[{"attributes":{"POSITION":21,"NORMAL":22,"TEXCOORD_0":23},"indices":20,"material":5}],"name":"moddikyazi1"},{"primitives":[{"attributes":{"POSITION":25,"NORMAL":26,"TEXCOORD_0":27},"indices":24,"material":6}],"name":"modvideo1"},{"primitives":[{"attributes":{"POSITION":29,"NORMAL":30,"TEXCOORD_0":31},"indices":28,"material":7}],"name":"modlogo2"},{"primitives":[{"attributes":{"POSITION":33,"NORMAL":34,"TEXCOORD_0":35},"indices":32,"material":8}],"name":"modlogo3"},{"primitives":[{"attributes":{"POSITION":37,"NORMAL":38,"TEXCOORD_0":39},"indices":36,"material":9}],"name":"moddikgorsel3"},{"primitives":[{"attributes":{"POSITION":41,"NORMAL":42,"TEXCOORD_0":43},"indices":40,"material":10}],"name":"moddikgorsel4"},{"primitives":[{"attributes":{"POSITION":45,"NORMAL":46,"TEXCOORD_0":47},"indices":44,"material":11}],"name":"moddikgorsel1"},{"primitives":[{"attributes":{"POSITION":49,"NORMAL":50,"TEXCOORD_0":51},"indices":48,"material":12}],"name":"moddikgorsel2"},{"primitives":[{"attributes":{"POSITION":53,"NORMAL":54,"TEXCOORD_0":55},"indices":52,"material":13}],"name":"moddikgorsel7"},{"primitives":[{"attributes":{"POSITION":57,"NORMAL":58,"TEXCOORD_0":59},"indices":56,"material":14}],"name":"moddikgorsel8"},{"primitives":[{"attributes":{"POSITION":61,"NORMAL":62,"TEXCOORD_0":63},"indices":60,"material":15}],"name":"moddikgorsel5"},{"primitives":[{"attributes":{"POSITION":65,"NORMAL":66,"TEXCOORD_0":67},"indices":64,"material":16}],"name":"modrenk1"},{"primitives":[{"attributes":{"POSITION":69,"NORMAL":70,"TEXCOORD_0":71},"indices":68,"material":17}],"name":"modrenk2"},{"primitives":[{"attributes":{"POSITION":73,"NORMAL":74,"TEXCOORD_0":75},"indices":72,"material":18}],"name":"modgorsel1"},{"primitives":[{"attributes":{"POSITION":77,"NORMAL":78,"TEXCOORD_0":79},"indices":76,"material":19}],"name":"modyazi1"},{"primitives":[{"attributes":{"POSITION":81,"NORMAL":82,"TEXCOORD_0":83},"indices":80,"material":20}],"name":"moddikgorsel9"}],"accessors":[{"bufferView":0,"componentType":5123,"count":6,"type":"SCALAR","name":"accessorIndices"},{"bufferView":1,"componentType":5126,"count":4,"max":[0.75,0.0,0.25],"min":[-0.75,0.0,-0.25],"type":"VEC3","name":"accessorPositions"},{"bufferView":1,"byteOffset":48,"componentType":5126,"count":4,"type":"VEC3","name":"accessorNormals"},{"bufferView":2,"componentType":5126,"count":4,"type":"VEC2","name":"accessorUVs"},{"bufferView":0,"byteOffset":12,"componentType":5123,"count":6,"type":"SCALAR","name":"accessorIndices"},{"bufferView":1,"byteOffset":96,"componentType":5126,"count":4,"max":[1.05,0.0,1.485],"min":[-1.05,0.0,-1.485],"type":"VEC3","name":"accessorPositions"},{"bufferView":1,"byteOffset":144,"componentType":5126,"count":4,"type":"VEC3","name":"accessorNormals"},{"bufferView":2,"byteOffset":32,"componentType":5126,"count":4,"type":"VEC2","name":"accessorUVs"},{"bufferView":0,"byteOffset":24,"componentType":5123,"count":6,"type":"SCALAR","name":"accessorIndices"},{"bufferView":1,"byteOffset":192,"componentType":5126,"count":4,"max":[0.75,0.0,0.25],"min":[-0.75,0.0,-0.25],"type":"VEC3","name":"accessorPositions"},{"bufferView":1,"byteOffset":240,"componentType":5126,"count":4,"type":"VEC3","name":"accessorNormals"},{"bufferView":2,"byteOffset":64,"componentType":5126,"count":4,"type":"VEC2","name":"accessorUVs"},{"bufferView":0,"byteOffset":36,"componentType":5123,"count":108,"type":"SCALAR","name":"accessorIndices"},{"bufferView":1,"byteOffset":288,"componentType":5126,"count":72,"max":[2.733274,0.049999997,5.0],"min":[-7.464574,0.0,-5.0],"type":"VEC3","name":"accessorPositions"},{"bufferView":1,"byteOffset":1152,"componentType":5126,"count":72,"type":"VEC3","name":"accessorNormals"},{"bufferView":2,"byteOffset":96,"componentType":5126,"count":72,"type":"VEC2","name":"accessorUVs"},{"bufferView":0,"byteOffset":252,"componentType":5123,"count":6,"type":"SCALAR","name":"accessorIndices"},{"bufferView":1,"byteOffset":2016,"componentType":5126,"count":4,"max":[1.05,0.0,1.05],"min":[-1.05,0.0,-1.05],"type":"VEC3","name":"accessorPositions"},{"bufferView":1,"byteOffset":2064,"componentType":5126,"count":4,"type":"VEC3","name":"accessorNormals"},{"bufferView":2,"byteOffset":672,"componentType":5126,"count":4,"type":"VEC2","name":"accessorUVs"},{"bufferView":0,"byteOffset":264,"componentType":5123,"count":6,"type":"SCALAR","name":"accessorIndices"},{"bufferView":1,"byteOffset":2112,"componentType":5126,"count":4,"max":[0.25,0.0,0.75],"min":[-0.25,0.0,-0.75],"type":"VEC3","name":"accessorPositions"},{"bufferView":1,"byteOffset":2160,"componentType":5126,"count":4,"type":"VEC3","name":"accessorNormals"},{"bufferView":2,"byteOffset":704,"componentType":5126,"count":4,"type":"VEC2","name":"accessorUVs"},{"bufferView":0,"byteOffset":276,"componentType":5123,"count":6,"type":"SCALAR","name":"accessorIndices"},{"bufferView":1,"byteOffset":2208,"componentType":5126,"count":4,"max":[0.96,0.0,0.539999962],"min":[-0.96,0.0,-0.539999962],"type":"VEC3","name":"accessorPositions"},{"bufferView":1,"byteOffset":2256,"componentType":5126,"count":4,"type":"VEC3","name":"accessorNormals"},{"bufferView":2,"byteOffset":736,"componentType":5126,"count":4,"type":"VEC2","name":"accessorUVs"},{"bufferView":0,"byteOffset":288,"componentType":5123,"count":6,"type":"SCALAR","name":"accessorIndices"},{"bufferView":1,"byteOffset":2304,"componentType":5126,"count":4,"max":[1.0,0.0,1.0],"min":[-1.0,0.0,-1.0],"type":"VEC3","name":"accessorPositions"},{"bufferView":1,"byteOffset":2352,"componentType":5126,"count":4,"type":"VEC3","name":"accessorNormals"},{"bufferView":2,"byteOffset":768,"componentType":5126,"count":4,"type":"VEC2","name":"accessorUVs"},{"bufferView":0,"byteOffset":300,"componentType":5123,"count":6,"type":"SCALAR","name":"accessorIndices"},{"bufferView":1,"byteOffset":2400,"componentType":5126,"count":4,"max":[1.0,0.0,1.0],"min":[-1.0,0.0,-1.0],"type":"VEC3","name":"accessorPositions"},{"bufferView":1,"byteOffset":2448,"componentType":5126,"count":4,"type":"VEC3","name":"accessorNormals"},{"bufferView":2,"byteOffset":800,"componentType":5126,"count":4,"type":"VEC2","name":"accessorUVs"},{"bufferView":0,"byteOffset":312,"componentType":5123,"count":6,"type":"SCALAR","name":"accessorIndices"},{"bufferView":1,"byteOffset":2496,"componentType":5126,"count":4,"max":[1.05,0.0,1.485],"min":[-1.05,0.0,-1.485],"type":"VEC3","name":"accessorPositions"},{"bufferView":1,"byteOffset":2544,"componentType":5126,"count":4,"type":"VEC3","name":"accessorNormals"},{"bufferView":2,"byteOffset":832,"componentType":5126,"count":4,"type":"VEC2","name":"accessorUVs"},{"bufferView":0,"byteOffset":324,"componentType":5123,"count":6,"type":"SCALAR","name":"accessorIndices"},{"bufferView":1,"byteOffset":2592,"componentType":5126,"count":4,"max":[1.05,0.0,1.485],"min":[-1.05,0.0,-1.485],"type":"VEC3","name":"accessorPositions"},{"bufferView":1,"byteOffset":2640,"componentType":5126,"count":4,"type":"VEC3","name":"accessorNormals"},{"bufferView":2,"byteOffset":864,"componentType":5126,"count":4,"type":"VEC2","name":"accessorUVs"},{"bufferView":0,"byteOffset":336,"componentType":5123,"count":6,"type":"SCALAR","name":"accessorIndices"},{"bufferView":1,"byteOffset":2688,"componentType":5126,"count":4,"max":[1.05,0.0,1.485],"min":[-1.05,0.0,-1.485],"type":"VEC3","name":"accessorPositions"},{"bufferView":1,"byteOffset":2736,"componentType":5126,"count":4,"type":"VEC3","name":"accessorNormals"},{"bufferView":2,"byteOffset":896,"componentType":5126,"count":4,"type":"VEC2","name":"accessorUVs"},{"bufferView":0,"byteOffset":348,"componentType":5123,"count":6,"type":"SCALAR","name":"accessorIndices"},{"bufferView":1,"byteOffset":2784,"componentType":5126,"count":4,"max":[1.05,0.0,1.485],"min":[-1.05,0.0,-1.485],"type":"VEC3","name":"accessorPositions"},{"bufferView":1,"byteOffset":2832,"componentType":5126,"count":4,"type":"VEC3","name":"accessorNormals"},{"bufferView":2,"byteOffset":928,"componentType":5126,"count":4,"type":"VEC2","name":"accessorUVs"},{"bufferView":0,"byteOffset":360,"componentType":5123,"count":6,"type":"SCALAR","name":"accessorIndices"},{"bufferView":1,"byteOffset":2880,"componentType":5126,"count":4,"max":[1.05,0.0,1.485],"min":[-1.05,0.0,-1.485],"type":"VEC3","name":"accessorPositions"},{"bufferView":1,"byteOffset":2928,"componentType":5126,"count":4,"type":"VEC3","name":"accessorNormals"},{"bufferView":2,"byteOffset":960,"componentType":5126,"count":4,"type":"VEC2","name":"accessorUVs"},{"bufferView":0,"byteOffset":372,"componentType":5123,"count":6,"type":"SCALAR","name":"accessorIndices"},{"bufferView":1,"byteOffset":2976,"componentType":5126,"count":4,"max":[1.05,0.0,1.485],"min":[-1.05,0.0,-1.485],"type":"VEC3","name":"accessorPositions"},{"bufferView":1,"byteOffset":3024,"componentType":5126,"count":4,"type":"VEC3","name":"accessorNormals"},{"bufferView":2,"byteOffset":992,"componentType":5126,"count":4,"type":"VEC2","name":"accessorUVs"},{"bufferView":0,"byteOffset":384,"componentType":5123,"count":6,"type":"SCALAR","name":"accessorIndices"},{"bufferView":1,"byteOffset":3072,"componentType":5126,"count":4,"max":[1.05,0.0,1.485],"min":[-1.05,0.0,-1.485],"type":"VEC3","name":"accessorPositions"},{"bufferView":1,"byteOffset":3120,"componentType":5126,"count":4,"type":"VEC3","name":"accessorNormals"},{"bufferView":2,"byteOffset":1024,"componentType":5126,"count":4,"type":"VEC2","name":"accessorUVs"},{"bufferView":0,"byteOffset":396,"componentType":5123,"count":225,"type":"SCALAR","name":"accessorIndices"},{"bufferView":1,"byteOffset":3168,"componentType":5126,"count":125,"max":[8.868187,4.751434,0.07800446],"min":[-1.128128,-0.0025177002,-9.523112],"type":"VEC3","name":"accessorPositions"},{"bufferView":1,"byteOffset":4668,"componentType":5126,"count":125,"type":"VEC3","name":"accessorNormals"},{"bufferView":2,"byteOffset":1056,"componentType":5126,"count":125,"type":"VEC2","name":"accessorUVs"},{"bufferView":0,"byteOffset":848,"componentType":5123,"count":1095,"type":"SCALAR","name":"accessorIndices"},{"bufferView":1,"byteOffset":6168,"componentType":5126,"count":595,"max":[8.032473,9.483654,2.06252],"min":[-0.271634817,-0.5263884,-2.73565722],"type":"VEC3","name":"accessorPositions"},{"bufferView":1,"byteOffset":13308,"componentType":5126,"count":595,"type":"VEC3","name":"accessorNormals"},{"bufferView":2,"byteOffset":2056,"componentType":5126,"count":595,"type":"VEC2","name":"accessorUVs"},{"bufferView":0,"byteOffset":3040,"componentType":5123,"count":6,"type":"SCALAR","name":"accessorIndices"},{"bufferView":1,"byteOffset":20448,"componentType":5126,"count":4,"max":[1.05,0.0,1.05],"min":[-1.05,0.0,-1.05],"type":"VEC3","name":"accessorPositions"},{"bufferView":1,"byteOffset":20496,"componentType":5126,"count":4,"type":"VEC3","name":"accessorNormals"},{"bufferView":2,"byteOffset":6816,"componentType":5126,"count":4,"type":"VEC2","name":"accessorUVs"},{"bufferView":0,"byteOffset":3052,"componentType":5123,"count":6,"type":"SCALAR","name":"accessorIndices"},{"bufferView":1,"byteOffset":20544,"componentType":5126,"count":4,"max":[0.75,0.0,0.25],"min":[-0.75,0.0,-0.25],"type":"VEC3","name":"accessorPositions"},{"bufferView":1,"byteOffset":20592,"componentType":5126,"count":4,"type":"VEC3","name":"accessorNormals"},{"bufferView":2,"byteOffset":6848,"componentType":5126,"count":4,"type":"VEC2","name":"accessorUVs"},{"bufferView":0,"byteOffset":3064,"componentType":5123,"count":6,"type":"SCALAR","name":"accessorIndices"},{"bufferView":1,"byteOffset":20640,"componentType":5126,"count":4,"max":[1.05,0.0,1.485],"min":[-1.05,0.0,-1.485],"type":"VEC3","name":"accessorPositions"},{"bufferView":1,"byteOffset":20688,"componentType":5126,"count":4,"type":"VEC3","name":"accessorNormals"},{"bufferView":2,"byteOffset":6880,"componentType":5126,"count":4,"type":"VEC2","name":"accessorUVs"}],"bufferViews":[{"buffer":0,"byteLength":3076,"name":"bufferViewScalar"},{"buffer":0,"byteOffset":3076,"byteLength":20736,"byteStride":12,"name":"bufferViewFloatVec3"},{"buffer":0,"byteOffset":23812,"byteLength":6912,"byteStride":8,"name":"bufferViewFloatVec2"}],"buffers":[{"uri":"stant13.bin","byteLength":30724}],"materials":[{"pbrMetallicRoughness":{"baseColorTexture":{"index":0,"extensions":{"KHR_texture_transform":{"texCoord":0}}},"metallicFactor":0.0,"roughnessFactor":0.5},"doubleSided":true,"name":"matdikyazi3","extras":{"babylonSeparateCullingPass":false}},{"pbrMetallicRoughness":{"baseColorTexture":{"index":1,"extensions":{"KHR_texture_transform":{"texCoord":0}}},"metallicFactor":0.0,"roughnessFactor":0.5},"doubleSided":true,"name":"matdikgorsel6","extras":{"babylonSeparateCullingPass":false}},{"pbrMetallicRoughness":{"baseColorTexture":{"index":2,"extensions":{"KHR_texture_transform":{"texCoord":0}}},"metallicFactor":0.0,"roughnessFactor":0.5},"doubleSided":true,"name":"matdikyazi2","extras":{"babylonSeparateCullingPass":false}},{"pbrMetallicRoughness":{"baseColorFactor":[0.4901961,0.4901961,0.4901961,1.0],"metallicFactor":0.0,"metallicRoughnessTexture":{"index":4,"extensions":{"KHR_texture_transform":{"texCoord":0}}}},"normalTexture":{"index":3,"scale":0.3,"extensions":{"KHR_texture_transform":{"texCoord":0}}},"doubleSided":true,"name":"matzemin","extras":{"babylonSeparateCullingPass":false}},{"pbrMetallicRoughness":{"baseColorTexture":{"index":5,"extensions":{"KHR_texture_transform":{"texCoord":0}}},"metallicFactor":0.0,"roughnessFactor":0.5},"doubleSided":true,"name":"matlogo1","extras":{"babylonSeparateCullingPass":false}},{"pbrMetallicRoughness":{"baseColorTexture":{"index":6,"extensions":{"KHR_texture_transform":{"texCoord":0}}},"metallicFactor":0.0,"roughnessFactor":0.5},"doubleSided":true,"name":"matdikyazi1","extras":{"babylonSeparateCullingPass":false}},{"pbrMetallicRoughness":{"baseColorTexture":{"index":7,"extensions":{"KHR_texture_transform":{"texCoord":0}}},"metallicFactor":0.0,"roughnessFactor":0.5},"name":"matvideo1","extras":{"babylonSeparateCullingPass":false}},{"pbrMetallicRoughness":{"baseColorTexture":{"index":8,"extensions":{"KHR_texture_transform":{"texCoord":0}}},"metallicFactor":0.0,"roughnessFactor":0.5},"name":"matlogo2","extras":{"babylonSeparateCullingPass":false}},{"pbrMetallicRoughness":{"baseColorTexture":{"index":9,"extensions":{"KHR_texture_transform":{"texCoord":0}}},"metallicFactor":0.0,"roughnessFactor":0.5},"name":"matlogo3","extras":{"babylonSeparateCullingPass":false}},{"pbrMetallicRoughness":{"baseColorTexture":{"index":10,"extensions":{"KHR_texture_transform":{"texCoord":0}}},"metallicFactor":0.0,"roughnessFactor":0.5},"doubleSided":true,"name":"matdikgorsel3","extras":{"babylonSeparateCullingPass":false}},{"pbrMetallicRoughness":{"baseColorTexture":{"index":11,"extensions":{"KHR_texture_transform":{"texCoord":0}}},"metallicFactor":0.0,"roughnessFactor":0.5},"doubleSided":true,"name":"matdikgorsel4","extras":{"babylonSeparateCullingPass":false}},{"pbrMetallicRoughness":{"baseColorTexture":{"index":12,"extensions":{"KHR_texture_transform":{"texCoord":0}}},"metallicFactor":0.0,"roughnessFactor":0.5},"doubleSided":true,"name":"matdikgorsel1","extras":{"babylonSeparateCullingPass":false}},{"pbrMetallicRoughness":{"baseColorTexture":{"index":13,"extensions":{"KHR_texture_transform":{"texCoord":0}}},"metallicFactor":0.0,"roughnessFactor":0.5},"doubleSided":true,"name":"matdikgorsel2","extras":{"babylonSeparateCullingPass":false}},{"pbrMetallicRoughness":{"baseColorTexture":{"index":14,"extensions":{"KHR_texture_transform":{"texCoord":0}}},"metallicFactor":0.0,"roughnessFactor":0.5},"doubleSided":true,"name":"matdikgorsel7","extras":{"babylonSeparateCullingPass":false}},{"pbrMetallicRoughness":{"baseColorTexture":{"index":15,"extensions":{"KHR_texture_transform":{"texCoord":0}}},"metallicFactor":0.0,"roughnessFactor":0.5},"doubleSided":true,"name":"matdikgorsel8","extras":{"babylonSeparateCullingPass":false}},{"pbrMetallicRoughness":{"baseColorTexture":{"index":16,"extensions":{"KHR_texture_transform":{"texCoord":0}}},"metallicFactor":0.0,"roughnessFactor":0.5},"doubleSided":true,"name":"matdikgorsel5","extras":{"babylonSeparateCullingPass":false}},{"pbrMetallicRoughness":{"baseColorFactor":[0.03312458,0.07194245,0.0406865,1.0],"metallicFactor":0.0,"metallicRoughnessTexture":{"index":18,"extensions":{"KHR_texture_transform":{"texCoord":0}}}},"normalTexture":{"index":17,"scale":0.3,"extensions":{"KHR_texture_transform":{"texCoord":0}}},"doubleSided":true,"name":"matrenk1","extras":{"babylonSeparateCullingPass":false}},{"pbrMetallicRoughness":{"baseColorFactor":[0.3137255,0.31764707,0.184313729,1.0],"metallicFactor":0.0,"metallicRoughnessTexture":{"index":18,"extensions":{"KHR_texture_transform":{"texCoord":0}}}},"normalTexture":{"index":17,"scale":0.3,"extensions":{"KHR_texture_transform":{"texCoord":0}}},"doubleSided":true,"name":"matrenk2","extras":{"babylonSeparateCullingPass":false}},{"pbrMetallicRoughness":{"baseColorTexture":{"index":21,"extensions":{"KHR_texture_transform":{"texCoord":0}}},"metallicFactor":0.0,"roughnessFactor":0.5},"doubleSided":true,"name":"matgorsel1","extras":{"babylonSeparateCullingPass":false}},{"pbrMetallicRoughness":{"baseColorTexture":{"index":22,"extensions":{"KHR_texture_transform":{"texCoord":0}}},"metallicFactor":0.0,"roughnessFactor":0.5},"doubleSided":true,"name":"matyazi1","extras":{"babylonSeparateCullingPass":false}},{"pbrMetallicRoughness":{"baseColorTexture":{"index":23,"extensions":{"KHR_texture_transform":{"texCoord":0}}},"metallicFactor":0.0,"roughnessFactor":0.5},"doubleSided":true,"name":"matdikgorsel9","extras":{"babylonSeparateCullingPass":false}}],"textures":[{"sampler":0,"source":0,"name":"matdikyazi3.png"},{"sampler":0,"source":1,"name":"matdikgorsel6.png"},{"sampler":0,"source":2,"name":"matdikyazi2.png"},{"sampler":0,"source":3,"name":"matkaronormal.png"},{"sampler":0,"source":4,"name":"matkaroroughness0.png"},{"sampler":0,"source":5,"name":"matlogo1.png"},{"sampler":0,"source":6,"name":"matdikyazi1.png"},{"sampler":0,"source":7,"name":"matvideo1.png"},{"sampler":0,"source":8,"name":"matlogo2.png"},{"sampler":0,"source":9,"name":"matlogo3.png"},{"sampler":0,"source":10,"name":"matdikgorsel3.png"},{"sampler":0,"source":11,"name":"matdikgorsel4.png"},{"sampler":0,"source":12,"name":"matdikgorsel1.png"},{"sampler":0,"source":13,"name":"matdikgorsel2.png"},{"sampler":0,"source":14,"name":"matdikgorsel7.png"},{"sampler":0,"source":15,"name":"matdikgorsel8.png"},{"sampler":0,"source":16,"name":"matdikgorsel5.png"},{"sampler":0,"source":17,"name":"matrenknormal.png"},{"sampler":0,"source":18,"name":"matrenkroughness0.png"},{"sampler":0,"source":17,"name":"matrenknormal.png"},{"sampler":0,"source":18,"name":"matrenkroughness0.png"},{"sampler":0,"source":19,"name":"matgorsel1.png"},{"sampler":0,"source":20,"name":"matyazi1.png"},{"sampler":0,"source":21,"name":"matdikgorsel9.png"}],"images":[{"uri":"./matdikyazi3.png"},{"uri":"./matdikgorsel6.png"},{"uri":"./matdikyazi2.png"},{"uri":"./matkaronormal.png"},{"uri":"./matkaroroughness0.png"},{"uri":"./matlogo1.png"},{"uri":"./matdikyazi1.png"},{"uri":"./matvideo1.png"},{"uri":"./matlogo2.png"},{"uri":"./matlogo3.png"},{"uri":"./matdikgorsel3.png"},{"uri":"./matdikgorsel4.png"},{"uri":"./matdikgorsel1.png"},{"uri":"./matdikgorsel2.png"},{"uri":"./matdikgorsel7.png"},{"uri":"./matdikgorsel8.png"},{"uri":"./matdikgorsel5.png"},{"uri":"./matrenknormal.png"},{"uri":"./matrenkroughness0.png"},{"uri":"./matgorsel1.png"},{"uri":"./matyazi1.png"},{"uri":"./matdikgorsel9.png"}],"samplers":[{"magFilter":9729,"minFilter":9987}]}