{"asset":{"version":"2.0","generator":"babylon.js glTF exporter for 3dsmax 2018 v20210615.1"},"extensionsUsed":["KHR_texture_transform"],"extensionsRequired":["KHR_texture_transform"],"scene":0,"scenes":[{"nodes":[0]}],"nodes":[{"children":[1,2,3,4,5,6,7,8,9,10,11,12,13,14,15,16,17,18,19,20,21],"scale":[0.099999994,0.099999994,0.099999994],"name":"Group001"},{"mesh":0,"translation":[1.40513766,3.08885,2.22208762],"rotation":[0.5,-0.5,0.50000006,0.49999994],"name":"modahsap2"},{"mesh":1,"translation":[-0.334249556,3.90318251,2.57255316],"name":"modrenk1"},{"mesh":2,"translation":[0.455601066,1.853762,-1.75722265],"rotation":[0.7071068,0.0,0.0,0.7071067],"scale":[1.299925,1.299925,1.299925],"name":"modvideo1"},{"mesh":3,"translation":[-2.10200715,2.34107137,2.424838],"rotation":[0.7071068,0.0,0.0,0.7071067],"name":"modyazi1"},{"mesh":4,"translation":[2.7861464,1.62240744,-2.85737658],"rotation":[0.7071068,0.0,0.0,0.7071067],"scale":[0.5045706,0.5045706,0.5045706],"name":"moddikgorsel1"},{"mesh":5,"translation":[-1.02599168,1.33985138,-2.54623842],"rotation":[0.49999997,-0.50000006,0.5000001,0.49999997],"scale":[0.6270209,0.6270209,0.6270209],"name":"modgorsel1"},{"mesh":6,"translation":[-2.17815161,3.33838034,2.43513918],"rotation":[0.7071068,0.0,0.0,0.7071067],"scale":[0.5085291,0.5085291,0.5085291],"name":"modlogo1"},{"mesh":7,"translation":[-4.955978,0.534823954,-1.85224676],"rotation":[0.49999997,-0.50000006,0.5000001,0.49999997],"scale":[1.512775,1.512775,1.512775],"name":"modyazi2"},{"mesh":8,"translation":[1.31616366,2.21233344,3.704221],"rotation":[0.7071068,-0.7071068,1.57349191E-07,-1.57349191E-07],"scale":[1.94815,1.94815,1.94815],"name":"moddikyazi1"},{"mesh":9,"translation":[2.8267858,2.21233344,3.704221],"rotation":[8.429371E-08,-8.42937E-08,-0.7071068,0.7071068],"scale":[1.94815,1.94815,1.94815],"name":"moddikyazi2"},{"mesh":10,"translation":[5.01192141,2.916148,-3.93932176],"rotation":[-0.5,-0.5,0.5,-0.5],"scale":[0.8184904,0.8184904,0.8184904],"name":"modlogo2"},{"mesh":11,"translation":[4.31686354,1.62240744,-2.85737658],"rotation":[0.7071068,0.0,0.0,0.7071067],"scale":[0.5045706,0.5045706,0.5045706],"name":"moddikgorsel2"},{"mesh":12,"translation":[2.70065069,2.916148,-5.01089],"rotation":[1.1520234E-07,-0.7071068,0.7071068,1.15202333E-07],"scale":[0.8184904,0.8184904,0.8184904],"name":"modgenisgorsel"},{"mesh":13,"translation":[-3.02902031,1.36640441,-5.01354265],"rotation":[1.15202361E-07,-0.7071068,0.7071068,1.15202347E-07],"scale":[1.08773267,1.08773267,1.08773267],"name":"modlogo3"},{"mesh":14,"translation":[-5.01192141,1.62240744,-4.165755],"rotation":[0.49999997,-0.50000006,0.5000001,0.49999997],"scale":[0.524097443,0.524097443,0.524097443],"name":"moddikgorsel3"},{"mesh":15,"translation":[-1.02247262,1.472778,-1.29715776],"rotation":[0.49999997,-0.50000006,0.5000001,0.49999997],"scale":[0.342072248,0.342072248,0.342072248],"name":"moddikgorsel4"},{"mesh":16,"translation":[-1.02247262,1.472778,1.76000214],"rotation":[0.49999997,-0.50000006,0.5000001,0.49999997],"scale":[0.342072248,0.342072248,0.342072248],"name":"moddikgorsel5"},{"mesh":17,"translation":[-0.981732845,1.472778,-1.29715776],"rotation":[0.50000006,0.49999994,-0.49999997,0.50000006],"scale":[0.342072248,0.342072248,0.342072248],"name":"moddikgorsel6"},{"mesh":18,"translation":[-0.981732845,1.472778,1.76000214],"rotation":[0.50000006,0.49999994,-0.49999997,0.50000006],"scale":[0.342072248,0.342072248,0.342072248],"name":"moddikgorsel7"},{"mesh":19,"translation":[-3.862439,1.33985138,-3.40154719],"rotation":[0.7071068,0.0,0.0,0.7071067],"scale":[0.8090137,0.8090137,0.8090137],"name":"modgorsel2"},{"mesh":20,"translation":[-2.0546236,1.33985138,-3.40154719],"rotation":[0.7071068,0.0,0.0,0.7071067],"scale":[0.8090137,0.8090137,0.8090137],"name":"modgorsel3"}],"meshes":[{"primitives":[{"attributes":{"POSITION":1,"NORMAL":2,"TEXCOORD_0":3},"indices":0,"material":0}],"name":"modahsap2"},{"primitives":[{"attributes":{"POSITION":5,"NORMAL":6,"TEXCOORD_0":7},"indices":4,"material":1}],"name":"modrenk1"},{"primitives":[{"attributes":{"POSITION":9,"NORMAL":10,"TEXCOORD_0":11},"indices":8,"material":2}],"name":"modvideo1"},{"primitives":[{"attributes":{"POSITION":13,"NORMAL":14,"TEXCOORD_0":15},"indices":12,"material":3}],"name":"modyazi1"},{"primitives":[{"attributes":{"POSITION":17,"NORMAL":18,"TEXCOORD_0":19},"indices":16,"material":4}],"name":"moddikgorsel1"},{"primitives":[{"attributes":{"POSITION":21,"NORMAL":22,"TEXCOORD_0":23},"indices":20,"material":5}],"name":"modgorsel1"},{"primitives":[{"attributes":{"POSITION":25,"NORMAL":26,"TEXCOORD_0":27},"indices":24,"material":6}],"name":"modlogo1"},{"primitives":[{"attributes":{"POSITION":29,"NORMAL":30,"TEXCOORD_0":31},"indices":28,"material":7}],"name":"modyazi2"},{"primitives":[{"attributes":{"POSITION":33,"NORMAL":34,"TEXCOORD_0":35},"indices":32,"material":8}],"name":"moddikyazi1"},{"primitives":[{"attributes":{"POSITION":37,"NORMAL":38,"TEXCOORD_0":39},"indices":36,"material":9}],"name":"moddikyazi2"},{"primitives":[{"attributes":{"POSITION":41,"NORMAL":42,"TEXCOORD_0":43},"indices":40,"material":10}],"name":"modlogo2"},{"primitives":[{"attributes":{"POSITION":45,"NORMAL":46,"TEXCOORD_0":47},"indices":44,"material":11}],"name":"moddikgorsel2"},{"primitives":[{"attributes":{"POSITION":49,"NORMAL":50,"TEXCOORD_0":51},"indices":48,"material":12}],"name":"modgenisgorsel"},{"primitives":[{"attributes":{"POSITION":53,"NORMAL":54,"TEXCOORD_0":55},"indices":52,"material":13}],"name":"modlogo3"},{"primitives":[{"attributes":{"POSITION":57,"NORMAL":58,"TEXCOORD_0":59},"indices":56,"material":14}],"name":"moddikgorsel3"},{"primitives":[{"attributes":{"POSITION":61,"NORMAL":62,"TEXCOORD_0":63},"indices":60,"material":15}],"name":"moddikgorsel4"},{"primitives":[{"attributes":{"POSITION":65,"NORMAL":66,"TEXCOORD_0":67},"indices":64,"material":16}],"name":"moddikgorsel5"},{"primitives":[{"attributes":{"POSITION":69,"NORMAL":70,"TEXCOORD_0":71},"indices":68,"material":17}],"name":"moddikgorsel6"},{"primitives":[{"attributes":{"POSITION":73,"NORMAL":74,"TEXCOORD_0":75},"indices":72,"material":18}],"name":"moddikgorsel7"},{"primitives":[{"attributes":{"POSITION":77,"NORMAL":78,"TEXCOORD_0":79},"indices":76,"material":19}],"name":"modgorsel2"},{"primitives":[{"attributes":{"POSITION":81,"NORMAL":82,"TEXCOORD_0":83},"indices":80,"material":20}],"name":"modgorsel3"}],"accessors":[{"bufferView":0,"componentType":5123,"count":381,"type":"SCALAR","name":"accessorIndices"},{"bufferView":1,"componentType":5126,"count":381,"max":[2.791456,6.41056,3.03885],"min":[-7.208546,-3.58944035,-1.41114986],"type":"VEC3","name":"accessorPositions"},{"bufferView":1,"byteOffset":4572,"componentType":5126,"count":381,"type":"VEC3","name":"accessorNormals"},{"bufferView":2,"componentType":5126,"count":381,"type":"VEC2","name":"accessorUVs"},{"bufferView":0,"byteOffset":764,"componentType":5123,"count":1299,"type":"SCALAR","name":"accessorIndices"},{"bufferView":1,"byteOffset":9144,"componentType":5126,"count":1299,"max":[5.328828,0.149999991,2.44098878],"min":[-4.67117262,-3.90318227,-7.559011],"type":"VEC3","name":"accessorPositions"},{"bufferView":1,"byteOffset":24732,"componentType":5126,"count":1299,"type":"VEC3","name":"accessorNormals"},{"bufferView":2,"byteOffset":3048,"componentType":5126,"count":1299,"type":"VEC2","name":"accessorUVs"},{"bufferView":0,"byteOffset":3364,"componentType":5123,"count":6,"type":"SCALAR","name":"accessorIndices"},{"bufferView":1,"byteOffset":40320,"componentType":5126,"count":6,"max":[0.96,0.0,0.539999962],"min":[-0.96,0.0,-0.539999962],"type":"VEC3","name":"accessorPositions"},{"bufferView":1,"byteOffset":40392,"componentType":5126,"count":6,"type":"VEC3","name":"accessorNormals"},{"bufferView":2,"byteOffset":13440,"componentType":5126,"count":6,"type":"VEC2","name":"accessorUVs"},{"bufferView":0,"byteOffset":3376,"componentType":5123,"count":6,"type":"SCALAR","name":"accessorIndices"},{"bufferView":1,"byteOffset":40464,"componentType":5126,"count":6,"max":[0.75,0.0,0.25],"min":[-0.75,0.0,-0.25],"type":"VEC3","name":"accessorPositions"},{"bufferView":1,"byteOffset":40536,"componentType":5126,"count":6,"type":"VEC3","name":"accessorNormals"},{"bufferView":2,"byteOffset":13488,"componentType":5126,"count":6,"type":"VEC2","name":"accessorUVs"},{"bufferView":0,"byteOffset":3388,"componentType":5123,"count":6,"type":"SCALAR","name":"accessorIndices"},{"bufferView":1,"byteOffset":40608,"componentType":5126,"count":6,"max":[1.05,0.0,1.485],"min":[-1.05,0.0,-1.485],"type":"VEC3","name":"accessorPositions"},{"bufferView":1,"byteOffset":40680,"componentType":5126,"count":6,"type":"VEC3","name":"accessorNormals"},{"bufferView":2,"byteOffset":13536,"componentType":5126,"count":6,"type":"VEC2","name":"accessorUVs"},{"bufferView":0,"byteOffset":3400,"componentType":5123,"count":6,"type":"SCALAR","name":"accessorIndices"},{"bufferView":1,"byteOffset":40752,"componentType":5126,"count":6,"max":[1.0,0.0,1.0],"min":[-1.0,0.0,-1.0],"type":"VEC3","name":"accessorPositions"},{"bufferView":1,"byteOffset":40824,"componentType":5126,"count":6,"type":"VEC3","name":"accessorNormals"},{"bufferView":2,"byteOffset":13584,"componentType":5126,"count":6,"type":"VEC2","name":"accessorUVs"},{"bufferView":0,"byteOffset":3412,"componentType":5123,"count":6,"type":"SCALAR","name":"accessorIndices"},{"bufferView":1,"byteOffset":40896,"componentType":5126,"count":6,"max":[1.0,0.0,1.0],"min":[-1.0,0.0,-1.0],"type":"VEC3","name":"accessorPositions"},{"bufferView":1,"byteOffset":40968,"componentType":5126,"count":6,"type":"VEC3","name":"accessorNormals"},{"bufferView":2,"byteOffset":13632,"componentType":5126,"count":6,"type":"VEC2","name":"accessorUVs"},{"bufferView":0,"byteOffset":3424,"componentType":5123,"count":6,"type":"SCALAR","name":"accessorIndices"},{"bufferView":1,"byteOffset":41040,"componentType":5126,"count":6,"max":[0.75,0.0,0.25],"min":[-0.75,0.0,-0.25],"type":"VEC3","name":"accessorPositions"},{"bufferView":1,"byteOffset":41112,"componentType":5126,"count":6,"type":"VEC3","name":"accessorNormals"},{"bufferView":2,"byteOffset":13680,"componentType":5126,"count":6,"type":"VEC2","name":"accessorUVs"},{"bufferView":0,"byteOffset":3436,"componentType":5123,"count":6,"type":"SCALAR","name":"accessorIndices"},{"bufferView":1,"byteOffset":41184,"componentType":5126,"count":6,"max":[0.75,0.0,0.25],"min":[-0.75,0.0,-0.25],"type":"VEC3","name":"accessorPositions"},{"bufferView":1,"byteOffset":41256,"componentType":5126,"count":6,"type":"VEC3","name":"accessorNormals"},{"bufferView":2,"byteOffset":13728,"componentType":5126,"count":6,"type":"VEC2","name":"accessorUVs"},{"bufferView":0,"byteOffset":3448,"componentType":5123,"count":6,"type":"SCALAR","name":"accessorIndices"},{"bufferView":1,"byteOffset":41328,"componentType":5126,"count":6,"max":[0.75,0.0,0.25],"min":[-0.75,0.0,-0.25],"type":"VEC3","name":"accessorPositions"},{"bufferView":1,"byteOffset":41400,"componentType":5126,"count":6,"type":"VEC3","name":"accessorNormals"},{"bufferView":2,"byteOffset":13776,"componentType":5126,"count":6,"type":"VEC2","name":"accessorUVs"},{"bufferView":0,"byteOffset":3460,"componentType":5123,"count":6,"type":"SCALAR","name":"accessorIndices"},{"bufferView":1,"byteOffset":41472,"componentType":5126,"count":6,"max":[1.0,0.0,1.0],"min":[-1.0,0.0,-1.0],"type":"VEC3","name":"accessorPositions"},{"bufferView":1,"byteOffset":41544,"componentType":5126,"count":6,"type":"VEC3","name":"accessorNormals"},{"bufferView":2,"byteOffset":13824,"componentType":5126,"count":6,"type":"VEC2","name":"accessorUVs"},{"bufferView":0,"byteOffset":3472,"componentType":5123,"count":6,"type":"SCALAR","name":"accessorIndices"},{"bufferView":1,"byteOffset":41616,"componentType":5126,"count":6,"max":[1.05,0.0,1.485],"min":[-1.05,0.0,-1.485],"type":"VEC3","name":"accessorPositions"},{"bufferView":1,"byteOffset":41688,"componentType":5126,"count":6,"type":"VEC3","name":"accessorNormals"},{"bufferView":2,"byteOffset":13872,"componentType":5126,"count":6,"type":"VEC2","name":"accessorUVs"},{"bufferView":0,"byteOffset":3484,"componentType":5123,"count":6,"type":"SCALAR","name":"accessorIndices"},{"bufferView":1,"byteOffset":41760,"componentType":5126,"count":6,"max":[4.527936,5.27131931E-07,3.5017488],"min":[-2.802633,-1.75593414E-07,-1.20592034],"type":"VEC3","name":"accessorPositions"},{"bufferView":1,"byteOffset":41832,"componentType":5126,"count":6,"type":"VEC3","name":"accessorNormals"},{"bufferView":2,"byteOffset":13920,"componentType":5126,"count":6,"type":"VEC2","name":"accessorUVs"},{"bufferView":0,"byteOffset":3496,"componentType":5123,"count":6,"type":"SCALAR","name":"accessorIndices"},{"bufferView":1,"byteOffset":41904,"componentType":5126,"count":6,"max":[1.0,0.0,1.0],"min":[-1.0,0.0,-1.0],"type":"VEC3","name":"accessorPositions"},{"bufferView":1,"byteOffset":41976,"componentType":5126,"count":6,"type":"VEC3","name":"accessorNormals"},{"bufferView":2,"byteOffset":13968,"componentType":5126,"count":6,"type":"VEC2","name":"accessorUVs"},{"bufferView":0,"byteOffset":3508,"componentType":5123,"count":6,"type":"SCALAR","name":"accessorIndices"},{"bufferView":1,"byteOffset":42048,"componentType":5126,"count":6,"max":[1.05,0.0,1.485],"min":[-1.05,0.0,-1.485],"type":"VEC3","name":"accessorPositions"},{"bufferView":1,"byteOffset":42120,"componentType":5126,"count":6,"type":"VEC3","name":"accessorNormals"},{"bufferView":2,"byteOffset":14016,"componentType":5126,"count":6,"type":"VEC2","name":"accessorUVs"},{"bufferView":0,"byteOffset":3520,"componentType":5123,"count":6,"type":"SCALAR","name":"accessorIndices"},{"bufferView":1,"byteOffset":42192,"componentType":5126,"count":6,"max":[1.05,0.0,1.485],"min":[-1.05,0.0,-1.485],"type":"VEC3","name":"accessorPositions"},{"bufferView":1,"byteOffset":42264,"componentType":5126,"count":6,"type":"VEC3","name":"accessorNormals"},{"bufferView":2,"byteOffset":14064,"componentType":5126,"count":6,"type":"VEC2","name":"accessorUVs"},{"bufferView":0,"byteOffset":3532,"componentType":5123,"count":6,"type":"SCALAR","name":"accessorIndices"},{"bufferView":1,"byteOffset":42336,"componentType":5126,"count":6,"max":[1.05,0.0,1.485],"min":[-1.05,0.0,-1.485],"type":"VEC3","name":"accessorPositions"},{"bufferView":1,"byteOffset":42408,"componentType":5126,"count":6,"type":"VEC3","name":"accessorNormals"},{"bufferView":2,"byteOffset":14112,"componentType":5126,"count":6,"type":"VEC2","name":"accessorUVs"},{"bufferView":0,"byteOffset":3544,"componentType":5123,"count":6,"type":"SCALAR","name":"accessorIndices"},{"bufferView":1,"byteOffset":42480,"componentType":5126,"count":6,"max":[1.05,0.0,1.485],"min":[-1.05,0.0,-1.485],"type":"VEC3","name":"accessorPositions"},{"bufferView":1,"byteOffset":42552,"componentType":5126,"count":6,"type":"VEC3","name":"accessorNormals"},{"bufferView":2,"byteOffset":14160,"componentType":5126,"count":6,"type":"VEC2","name":"accessorUVs"},{"bufferView":0,"byteOffset":3556,"componentType":5123,"count":6,"type":"SCALAR","name":"accessorIndices"},{"bufferView":1,"byteOffset":42624,"componentType":5126,"count":6,"max":[1.05,0.0,1.485],"min":[-1.05,0.0,-1.485],"type":"VEC3","name":"accessorPositions"},{"bufferView":1,"byteOffset":42696,"componentType":5126,"count":6,"type":"VEC3","name":"accessorNormals"},{"bufferView":2,"byteOffset":14208,"componentType":5126,"count":6,"type":"VEC2","name":"accessorUVs"},{"bufferView":0,"byteOffset":3568,"componentType":5123,"count":6,"type":"SCALAR","name":"accessorIndices"},{"bufferView":1,"byteOffset":42768,"componentType":5126,"count":6,"max":[1.0,0.0,1.0],"min":[-1.0,0.0,-1.0],"type":"VEC3","name":"accessorPositions"},{"bufferView":1,"byteOffset":42840,"componentType":5126,"count":6,"type":"VEC3","name":"accessorNormals"},{"bufferView":2,"byteOffset":14256,"componentType":5126,"count":6,"type":"VEC2","name":"accessorUVs"},{"bufferView":0,"byteOffset":3580,"componentType":5123,"count":6,"type":"SCALAR","name":"accessorIndices"},{"bufferView":1,"byteOffset":42912,"componentType":5126,"count":6,"max":[1.0,0.0,1.0],"min":[-1.0,0.0,-1.0],"type":"VEC3","name":"accessorPositions"},{"bufferView":1,"byteOffset":42984,"componentType":5126,"count":6,"type":"VEC3","name":"accessorNormals"},{"bufferView":2,"byteOffset":14304,"componentType":5126,"count":6,"type":"VEC2","name":"accessorUVs"}],"bufferViews":[{"buffer":0,"byteLength":3592,"name":"bufferViewScalar"},{"buffer":0,"byteOffset":3592,"byteLength":43056,"byteStride":12,"name":"bufferViewFloatVec3"},{"buffer":0,"byteOffset":46648,"byteLength":14352,"byteStride":8,"name":"bufferViewFloatVec2"}],"buffers":[{"uri":"stant74.bin","byteLength":61000}],"materials":[{"pbrMetallicRoughness":{"baseColorTexture":{"index":1,"extensions":{"KHR_texture_transform":{"texCoord":0}}},"metallicFactor":0.0,"metallicRoughnessTexture":{"index":2,"extensions":{"KHR_texture_transform":{"texCoord":0}}}},"normalTexture":{"index":0,"scale":0.3,"extensions":{"KHR_texture_transform":{"texCoord":0}}},"name":"matahsap2","extras":{"babylonSeparateCullingPass":false}},{"pbrMetallicRoughness":{"baseColorFactor":[0.7266187,0.6613799,0.590704441,1.0],"metallicFactor":0.0,"metallicRoughnessTexture":{"index":4,"extensions":{"KHR_texture_transform":{"texCoord":0}}}},"normalTexture":{"index":3,"scale":0.3,"extensions":{"KHR_texture_transform":{"texCoord":0}}},"name":"Material #0","extras":{"babylonSeparateCullingPass":false}},{"pbrMetallicRoughness":{"baseColorTexture":{"index":5,"extensions":{"KHR_texture_transform":{"texCoord":0}}},"metallicFactor":0.0,"roughnessFactor":0.5},"name":"matvideo1","extras":{"babylonSeparateCullingPass":false}},{"pbrMetallicRoughness":{"baseColorTexture":{"index":6,"extensions":{"KHR_texture_transform":{"texCoord":0}}},"metallicFactor":0.0,"roughnessFactor":0.5},"name":"matyazi1","extras":{"babylonSeparateCullingPass":false}},{"pbrMetallicRoughness":{"baseColorTexture":{"index":7,"extensions":{"KHR_texture_transform":{"texCoord":0}}},"metallicFactor":0.0,"roughnessFactor":0.5},"name":"matdikgorsel1","extras":{"babylonSeparateCullingPass":false}},{"pbrMetallicRoughness":{"baseColorTexture":{"index":8,"extensions":{"KHR_texture_transform":{"texCoord":0}}},"metallicFactor":0.0,"roughnessFactor":0.5},"name":"matgorsel1","extras":{"babylonSeparateCullingPass":false}},{"pbrMetallicRoughness":{"baseColorTexture":{"index":9,"extensions":{"KHR_texture_transform":{"texCoord":0}}},"metallicFactor":0.0,"roughnessFactor":0.5},"name":"matlogo1","extras":{"babylonSeparateCullingPass":false}},{"pbrMetallicRoughness":{"baseColorTexture":{"index":10,"extensions":{"KHR_texture_transform":{"texCoord":0}}},"metallicFactor":0.0,"roughnessFactor":0.5},"name":"matyazi2","extras":{"babylonSeparateCullingPass":false}},{"pbrMetallicRoughness":{"baseColorTexture":{"index":11,"extensions":{"KHR_texture_transform":{"texCoord":0}}},"metallicFactor":0.0,"roughnessFactor":0.5},"name":"matdikyazi1","extras":{"babylonSeparateCullingPass":false}},{"pbrMetallicRoughness":{"baseColorTexture":{"index":12,"extensions":{"KHR_texture_transform":{"texCoord":0}}},"metallicFactor":0.0,"roughnessFactor":0.5},"name":"matdikyazi2","extras":{"babylonSeparateCullingPass":false}},{"pbrMetallicRoughness":{"baseColorTexture":{"index":13,"extensions":{"KHR_texture_transform":{"texCoord":0}}},"metallicFactor":0.0,"roughnessFactor":0.5},"name":"matlogo2","extras":{"babylonSeparateCullingPass":false}},{"pbrMetallicRoughness":{"baseColorTexture":{"index":14,"extensions":{"KHR_texture_transform":{"texCoord":0}}},"metallicFactor":0.0,"roughnessFactor":0.5},"name":"matdikgorsel2","extras":{"babylonSeparateCullingPass":false}},{"pbrMetallicRoughness":{"baseColorTexture":{"index":15,"extensions":{"KHR_texture_transform":{"texCoord":0}}},"metallicFactor":0.0,"roughnessFactor":0.5},"name":"matgenisgorsel","extras":{"babylonSeparateCullingPass":false}},{"pbrMetallicRoughness":{"baseColorTexture":{"index":16,"extensions":{"KHR_texture_transform":{"texCoord":0}}},"metallicFactor":0.0,"roughnessFactor":0.5},"name":"matlogo3","extras":{"babylonSeparateCullingPass":false}},{"pbrMetallicRoughness":{"baseColorTexture":{"index":17,"extensions":{"KHR_texture_transform":{"texCoord":0}}},"metallicFactor":0.0,"roughnessFactor":0.5},"name":"matdikgorsel3","extras":{"babylonSeparateCullingPass":false}},{"pbrMetallicRoughness":{"baseColorTexture":{"index":18,"extensions":{"KHR_texture_transform":{"texCoord":0}}},"metallicFactor":0.0,"roughnessFactor":0.5},"name":"matdikgorsel4","extras":{"babylonSeparateCullingPass":false}},{"pbrMetallicRoughness":{"baseColorTexture":{"index":19,"extensions":{"KHR_texture_transform":{"texCoord":0}}},"metallicFactor":0.0,"roughnessFactor":0.5},"name":"matdikgorsel5","extras":{"babylonSeparateCullingPass":false}},{"pbrMetallicRoughness":{"baseColorTexture":{"index":20,"extensions":{"KHR_texture_transform":{"texCoord":0}}},"metallicFactor":0.0,"roughnessFactor":0.5},"name":"matdikgorsel6","extras":{"babylonSeparateCullingPass":false}},{"pbrMetallicRoughness":{"baseColorTexture":{"index":21,"extensions":{"KHR_texture_transform":{"texCoord":0}}},"metallicFactor":0.0,"roughnessFactor":0.5},"name":"matdikgorsel7","extras":{"babylonSeparateCullingPass":false}},{"pbrMetallicRoughness":{"baseColorTexture":{"index":22,"extensions":{"KHR_texture_transform":{"texCoord":0}}},"metallicFactor":0.0,"roughnessFactor":0.5},"name":"matgorsel2","extras":{"babylonSeparateCullingPass":false}},{"pbrMetallicRoughness":{"baseColorTexture":{"index":23,"extensions":{"KHR_texture_transform":{"texCoord":0}}},"metallicFactor":0.0,"roughnessFactor":0.5},"name":"matgorsel3","extras":{"babylonSeparateCullingPass":false}}],"textures":[{"sampler":0,"source":0,"name":"matahsap2normal.png"},{"sampler":0,"source":1,"name":"matahsap2.png"},{"sampler":0,"source":2,"name":"matahsap2roughness0.png"},{"sampler":0,"source":3,"name":"matrenknormal.png"},{"sampler":0,"source":4,"name":"matrenkroughness0.png"},{"sampler":0,"source":5,"name":"matvideo1.png"},{"sampler":0,"source":6,"name":"matyazi1.png"},{"sampler":0,"source":7,"name":"matdikgorsel1.png"},{"sampler":0,"source":8,"name":"matgorsel1.png"},{"sampler":0,"source":9,"name":"matlogo1.png"},{"sampler":0,"source":10,"name":"matyazi2.png"},{"sampler":0,"source":11,"name":"matdikyazi1.png"},{"sampler":0,"source":12,"name":"matdikyazi2.png"},{"sampler":0,"source":13,"name":"matlogo2.png"},{"sampler":0,"source":14,"name":"matdikgorsel2.png"},{"sampler":0,"source":15,"name":"matgenisgorsel.png"},{"sampler":0,"source":16,"name":"matlogo3.png"},{"sampler":0,"source":17,"name":"matdikgorsel3.png"},{"sampler":0,"source":18,"name":"matdikgorsel4.png"},{"sampler":0,"source":19,"name":"matdikgorsel5.png"},{"sampler":0,"source":20,"name":"matdikgorsel6.png"},{"sampler":0,"source":21,"name":"matdikgorsel7.png"},{"sampler":0,"source":22,"name":"matgorsel2.png"},{"sampler":0,"source":23,"name":"matgorsel3.png"}],"images":[{"uri":"./matahsap2normal.png"},{"uri":"./matahsap2.png"},{"uri":"./matahsap2roughness0.png"},{"uri":"./matrenknormal.png"},{"uri":"./matrenkroughness0.png"},{"uri":"./matvideo1.png"},{"uri":"./matyazi1.png"},{"uri":"./matdikgorsel1.png"},{"uri":"./matgorsel1.png"},{"uri":"./matlogo1.png"},{"uri":"./matyazi2.png"},{"uri":"./matdikyazi1.png"},{"uri":"./matdikyazi2.png"},{"uri":"./matlogo2.png"},{"uri":"./matdikgorsel2.png"},{"uri":"./matgenisgorsel.png"},{"uri":"./matlogo3.png"},{"uri":"./matdikgorsel3.png"},{"uri":"./matdikgorsel4.png"},{"uri":"./matdikgorsel5.png"},{"uri":"./matdikgorsel6.png"},{"uri":"./matdikgorsel7.png"},{"uri":"./matgorsel2.png"},{"uri":"./matgorsel3.png"}],"samplers":[{"magFilter":9729,"minFilter":9987}]}