{"asset":{"version":"2.0","generator":"babylon.js glTF exporter for 3dsmax 2018 v20210615.1"},"extensionsUsed":["KHR_texture_transform"],"extensionsRequired":["KHR_texture_transform"],"scene":0,"scenes":[{"nodes":[0]}],"nodes":[{"children":[1,2,3,4,5,6,7,8,9,10,11,12,13,14,15,16],"name":"Group001"},{"mesh":0,"translation":[-0.09312225,0.225000143,0.2000403],"rotation":[1.37678811E-07,-0.7071066,0.707106948,1.3767874E-07],"scale":[0.09999999,0.09999999,0.09999998],"name":"modrenk2"},{"mesh":1,"translation":[0.402932882,0.00500009535,-0.194252551],"rotation":[0.0,-0.7071068,0.0,0.7071067],"scale":[0.09999999,0.09999999,0.09999999],"name":"modrenk1"},{"mesh":2,"translation":[-0.41594848,0.216113433,0.373621285],"rotation":[0.5000008,-0.499999225,0.499999434,0.5000006],"scale":[0.06353885,0.06353885,0.06353885],"name":"moddikgorsel7"},{"mesh":3,"translation":[-0.0109324642,0.22978881,-0.182442427],"rotation":[2.83789774E-07,-0.7071068,0.7071068,2.83789745E-07],"scale":[0.06304767,0.06304767,0.06304767],"name":"moddikgorsel6"},{"mesh":4,"translation":[-0.00699234,0.22978881,0.111232787],"rotation":[0.7071068,1.9670388E-08,-1.96703915E-08,0.7071067],"scale":[0.0625565,0.0625565,0.0625565],"name":"moddikgorsel5"},{"mesh":5,"translation":[0.334370881,0.231454924,-0.2300756],"rotation":[0.5,-0.5,0.50000006,0.49999994],"scale":[0.0308813639,0.0308813639,0.0308813639],"name":"moddikgorsel4"},{"mesh":6,"translation":[0.334370881,0.231454924,-0.111707695],"rotation":[0.5,-0.5,0.50000006,0.49999994],"scale":[0.041527275,0.041527275,0.041527275],"name":"moddikgorsel3"},{"mesh":7,"translation":[0.5004779,0.09435532,-0.433638215],"rotation":[-0.4999993,-0.5000007,0.500000954,-0.499999136],"scale":[0.06353885,0.06353885,0.06353885],"name":"modgenisgorsel"},{"mesh":8,"translation":[0.334370881,0.230000153,0.200544521],"rotation":[0.5,-0.5,0.50000006,0.49999994],"scale":[0.0621301271,0.0621301271,0.0621301271],"name":"moddikgorsel1"},{"mesh":9,"translation":[0.482214957,0.217112273,-0.378445357],"rotation":[2.78676652E-07,1.21718415E-07,0.7071067,0.7071068],"scale":[0.236417443,0.236417443,0.236417443],"name":"moddikyazi2"},{"mesh":10,"translation":[0.482214957,0.217112273,0.374460816],"rotation":[2.78676652E-07,1.21718415E-07,0.7071067,0.7071068],"scale":[0.236417443,0.236417443,0.236417443],"name":"moddikyazi1"},{"mesh":11,"translation":[-0.416220069,0.224368438,-0.378019333],"rotation":[0.5,-0.5,0.50000006,0.49999994],"scale":[0.09999999,0.09999999,0.09999999],"name":"modlogo2"},{"mesh":12,"translation":[-0.380706549,0.224368438,0.376114577],"rotation":[-0.50000006,-0.49999994,0.5,-0.5],"scale":[0.09999999,0.09999999,0.09999999],"name":"modlogo1"},{"mesh":13,"translation":[-0.112705722,0.233412623,-0.0360446237],"rotation":[0.5,-0.5,0.50000006,0.49999994],"scale":[0.159412533,0.159412533,0.159412533],"name":"modvideo1"},{"mesh":14,"translation":[-0.379049361,0.216113433,-0.377461165],"rotation":[-0.4999993,-0.5000007,0.500000954,-0.499999136],"scale":[0.06353885,0.06353885,0.06353885],"name":"moddikgorsel8"},{"mesh":15,"translation":[0.334370881,0.231454924,0.0325372964],"rotation":[0.5,-0.5,0.50000006,0.49999994],"scale":[0.05076813,0.05076813,0.05076813],"name":"moddikgorsel2"}],"meshes":[{"primitives":[{"attributes":{"POSITION":1,"NORMAL":2,"TEXCOORD_0":3},"indices":0,"material":0}],"name":"modrenk2"},{"primitives":[{"attributes":{"POSITION":5,"NORMAL":6,"TEXCOORD_0":7},"indices":4,"material":1}],"name":"modrenk1"},{"primitives":[{"attributes":{"POSITION":9,"NORMAL":10,"TEXCOORD_0":11},"indices":8,"material":2}],"name":"moddikgorsel7"},{"primitives":[{"attributes":{"POSITION":13,"NORMAL":14,"TEXCOORD_0":15},"indices":12,"material":3}],"name":"moddikgorsel6"},{"primitives":[{"attributes":{"POSITION":17,"NORMAL":18,"TEXCOORD_0":19},"indices":16,"material":4}],"name":"moddikgorsel5"},{"primitives":[{"attributes":{"POSITION":21,"NORMAL":22,"TEXCOORD_0":23},"indices":20,"material":5}],"name":"moddikgorsel4"},{"primitives":[{"attributes":{"POSITION":25,"NORMAL":26,"TEXCOORD_0":27},"indices":24,"material":6}],"name":"moddikgorsel3"},{"primitives":[{"attributes":{"POSITION":29,"NORMAL":30,"TEXCOORD_0":31},"indices":28,"material":7}],"name":"modgenisgorsel"},{"primitives":[{"attributes":{"POSITION":33,"NORMAL":34,"TEXCOORD_0":35},"indices":32,"material":8}],"name":"moddikgorsel1"},{"primitives":[{"attributes":{"POSITION":37,"NORMAL":38,"TEXCOORD_0":39},"indices":36,"material":9}],"name":"moddikyazi2"},{"primitives":[{"attributes":{"POSITION":41,"NORMAL":42,"TEXCOORD_0":43},"indices":40,"material":10}],"name":"moddikyazi1"},{"primitives":[{"attributes":{"POSITION":45,"NORMAL":46,"TEXCOORD_0":47},"indices":44,"material":11}],"name":"modlogo2"},{"primitives":[{"attributes":{"POSITION":49,"NORMAL":50,"TEXCOORD_0":51},"indices":48,"material":12}],"name":"modlogo1"},{"primitives":[{"attributes":{"POSITION":53,"NORMAL":54,"TEXCOORD_0":55},"indices":52,"material":13}],"name":"modvideo1"},{"primitives":[{"attributes":{"POSITION":57,"NORMAL":58,"TEXCOORD_0":59},"indices":56,"material":14}],"name":"moddikgorsel8"},{"primitives":[{"attributes":{"POSITION":61,"NORMAL":62,"TEXCOORD_0":63},"indices":60,"material":15}],"name":"moddikgorsel2"}],"accessors":[{"bufferView":0,"componentType":5123,"count":894,"type":"SCALAR","name":"accessorIndices"},{"bufferView":1,"componentType":5126,"count":560,"max":[4.08208,7.003948,2.25000143],"min":[-5.917923,-2.97924,-2.24805331],"type":"VEC3","name":"accessorPositions"},{"bufferView":1,"byteOffset":6720,"componentType":5126,"count":560,"type":"VEC3","name":"accessorNormals"},{"bufferView":2,"componentType":5126,"count":560,"type":"VEC2","name":"accessorUVs"},{"bufferView":0,"byteOffset":1788,"componentType":5123,"count":570,"type":"SCALAR","name":"accessorIndices"},{"bufferView":1,"byteOffset":13440,"componentType":5126,"count":330,"max":[6.938983,4.45161438,9.042629],"min":[-3.061018,-0.049999997,-0.957371831],"type":"VEC3","name":"accessorPositions"},{"bufferView":1,"byteOffset":17400,"componentType":5126,"count":330,"type":"VEC3","name":"accessorNormals"},{"bufferView":2,"byteOffset":4480,"componentType":5126,"count":330,"type":"VEC2","name":"accessorUVs"},{"bufferView":0,"byteOffset":2928,"componentType":5123,"count":6,"type":"SCALAR","name":"accessorIndices"},{"bufferView":1,"byteOffset":21360,"componentType":5126,"count":4,"max":[1.05,0.0,1.485],"min":[-1.05,0.0,-1.485],"type":"VEC3","name":"accessorPositions"},{"bufferView":1,"byteOffset":21408,"componentType":5126,"count":4,"type":"VEC3","name":"accessorNormals"},{"bufferView":2,"byteOffset":7120,"componentType":5126,"count":4,"type":"VEC2","name":"accessorUVs"},{"bufferView":0,"byteOffset":2940,"componentType":5123,"count":6,"type":"SCALAR","name":"accessorIndices"},{"bufferView":1,"byteOffset":21456,"componentType":5126,"count":4,"max":[1.05,0.0,1.485],"min":[-1.05,0.0,-1.485],"type":"VEC3","name":"accessorPositions"},{"bufferView":1,"byteOffset":21504,"componentType":5126,"count":4,"type":"VEC3","name":"accessorNormals"},{"bufferView":2,"byteOffset":7152,"componentType":5126,"count":4,"type":"VEC2","name":"accessorUVs"},{"bufferView":0,"byteOffset":2952,"componentType":5123,"count":6,"type":"SCALAR","name":"accessorIndices"},{"bufferView":1,"byteOffset":21552,"componentType":5126,"count":4,"max":[1.05,0.0,1.485],"min":[-1.05,0.0,-1.485],"type":"VEC3","name":"accessorPositions"},{"bufferView":1,"byteOffset":21600,"componentType":5126,"count":4,"type":"VEC3","name":"accessorNormals"},{"bufferView":2,"byteOffset":7184,"componentType":5126,"count":4,"type":"VEC2","name":"accessorUVs"},{"bufferView":0,"byteOffset":2964,"componentType":5123,"count":6,"type":"SCALAR","name":"accessorIndices"},{"bufferView":1,"byteOffset":21648,"componentType":5126,"count":4,"max":[1.05,0.0,1.485],"min":[-1.05,0.0,-1.485],"type":"VEC3","name":"accessorPositions"},{"bufferView":1,"byteOffset":21696,"componentType":5126,"count":4,"type":"VEC3","name":"accessorNormals"},{"bufferView":2,"byteOffset":7216,"componentType":5126,"count":4,"type":"VEC2","name":"accessorUVs"},{"bufferView":0,"byteOffset":2976,"componentType":5123,"count":6,"type":"SCALAR","name":"accessorIndices"},{"bufferView":1,"byteOffset":21744,"componentType":5126,"count":4,"max":[1.05,0.0,1.485],"min":[-1.05,0.0,-1.485],"type":"VEC3","name":"accessorPositions"},{"bufferView":1,"byteOffset":21792,"componentType":5126,"count":4,"type":"VEC3","name":"accessorNormals"},{"bufferView":2,"byteOffset":7248,"componentType":5126,"count":4,"type":"VEC2","name":"accessorUVs"},{"bufferView":0,"byteOffset":2988,"componentType":5123,"count":6,"type":"SCALAR","name":"accessorIndices"},{"bufferView":1,"byteOffset":21840,"componentType":5126,"count":4,"max":[1.05000007,0.0,1.485],"min":[-14.6995506,-1.37228415E-06,-5.58010864],"type":"VEC3","name":"accessorPositions"},{"bufferView":1,"byteOffset":21888,"componentType":5126,"count":4,"type":"VEC3","name":"accessorNormals"},{"bufferView":2,"byteOffset":7280,"componentType":5126,"count":4,"type":"VEC2","name":"accessorUVs"},{"bufferView":0,"byteOffset":3000,"componentType":5123,"count":6,"type":"SCALAR","name":"accessorIndices"},{"bufferView":1,"byteOffset":21936,"componentType":5126,"count":4,"max":[1.05,0.0,1.485],"min":[-1.05,0.0,-1.485],"type":"VEC3","name":"accessorPositions"},{"bufferView":1,"byteOffset":21984,"componentType":5126,"count":4,"type":"VEC3","name":"accessorNormals"},{"bufferView":2,"byteOffset":7312,"componentType":5126,"count":4,"type":"VEC2","name":"accessorUVs"},{"bufferView":0,"byteOffset":3012,"componentType":5123,"count":6,"type":"SCALAR","name":"accessorIndices"},{"bufferView":1,"byteOffset":22032,"componentType":5126,"count":4,"max":[0.75,0.0,0.25],"min":[-0.75,0.0,-0.25],"type":"VEC3","name":"accessorPositions"},{"bufferView":1,"byteOffset":22080,"componentType":5126,"count":4,"type":"VEC3","name":"accessorNormals"},{"bufferView":2,"byteOffset":7344,"componentType":5126,"count":4,"type":"VEC2","name":"accessorUVs"},{"bufferView":0,"byteOffset":3024,"componentType":5123,"count":6,"type":"SCALAR","name":"accessorIndices"},{"bufferView":1,"byteOffset":22128,"componentType":5126,"count":4,"max":[0.75,0.0,0.25],"min":[-0.75,0.0,-0.25],"type":"VEC3","name":"accessorPositions"},{"bufferView":1,"byteOffset":22176,"componentType":5126,"count":4,"type":"VEC3","name":"accessorNormals"},{"bufferView":2,"byteOffset":7376,"componentType":5126,"count":4,"type":"VEC2","name":"accessorUVs"},{"bufferView":0,"byteOffset":3036,"componentType":5123,"count":6,"type":"SCALAR","name":"accessorIndices"},{"bufferView":1,"byteOffset":22224,"componentType":5126,"count":4,"max":[1.0,0.0,1.0],"min":[-1.0,0.0,-1.0],"type":"VEC3","name":"accessorPositions"},{"bufferView":1,"byteOffset":22272,"componentType":5126,"count":4,"type":"VEC3","name":"accessorNormals"},{"bufferView":2,"byteOffset":7408,"componentType":5126,"count":4,"type":"VEC2","name":"accessorUVs"},{"bufferView":0,"byteOffset":3048,"componentType":5123,"count":6,"type":"SCALAR","name":"accessorIndices"},{"bufferView":1,"byteOffset":22320,"componentType":5126,"count":4,"max":[1.0,0.0,1.0],"min":[-1.0,0.0,-1.0],"type":"VEC3","name":"accessorPositions"},{"bufferView":1,"byteOffset":22368,"componentType":5126,"count":4,"type":"VEC3","name":"accessorNormals"},{"bufferView":2,"byteOffset":7440,"componentType":5126,"count":4,"type":"VEC2","name":"accessorUVs"},{"bufferView":0,"byteOffset":3060,"componentType":5123,"count":6,"type":"SCALAR","name":"accessorIndices"},{"bufferView":1,"byteOffset":22416,"componentType":5126,"count":4,"max":[0.96,0.0,0.539999962],"min":[-0.96,0.0,-0.539999962],"type":"VEC3","name":"accessorPositions"},{"bufferView":1,"byteOffset":22464,"componentType":5126,"count":4,"type":"VEC3","name":"accessorNormals"},{"bufferView":2,"byteOffset":7472,"componentType":5126,"count":4,"type":"VEC2","name":"accessorUVs"},{"bufferView":0,"byteOffset":3072,"componentType":5123,"count":6,"type":"SCALAR","name":"accessorIndices"},{"bufferView":1,"byteOffset":22512,"componentType":5126,"count":4,"max":[1.05,0.0,1.485],"min":[-1.05,0.0,-1.485],"type":"VEC3","name":"accessorPositions"},{"bufferView":1,"byteOffset":22560,"componentType":5126,"count":4,"type":"VEC3","name":"accessorNormals"},{"bufferView":2,"byteOffset":7504,"componentType":5126,"count":4,"type":"VEC2","name":"accessorUVs"},{"bufferView":0,"byteOffset":3084,"componentType":5123,"count":6,"type":"SCALAR","name":"accessorIndices"},{"bufferView":1,"byteOffset":22608,"componentType":5126,"count":4,"max":[1.05,0.0,1.485],"min":[-1.05,0.0,-1.485],"type":"VEC3","name":"accessorPositions"},{"bufferView":1,"byteOffset":22656,"componentType":5126,"count":4,"type":"VEC3","name":"accessorNormals"},{"bufferView":2,"byteOffset":7536,"componentType":5126,"count":4,"type":"VEC2","name":"accessorUVs"}],"bufferViews":[{"buffer":0,"byteLength":3096,"name":"bufferViewScalar"},{"buffer":0,"byteOffset":3096,"byteLength":22704,"byteStride":12,"name":"bufferViewFloatVec3"},{"buffer":0,"byteOffset":25800,"byteLength":7568,"byteStride":8,"name":"bufferViewFloatVec2"}],"buffers":[{"uri":"stant4.bin","byteLength":33368}],"materials":[{"pbrMetallicRoughness":{"baseColorFactor":[0.09352518,0.0894073844,0.05921018,1.0],"metallicFactor":0.0,"metallicRoughnessTexture":{"index":1,"extensions":{"KHR_texture_transform":{"texCoord":0}}}},"normalTexture":{"index":0,"scale":0.3,"extensions":{"KHR_texture_transform":{"texCoord":0}}},"doubleSided":true,"name":"matrenk2","extras":{"babylonSeparateCullingPass":false}},{"pbrMetallicRoughness":{"baseColorFactor":[0.5755396,0.507965446,0.293980658,1.0],"metallicFactor":0.0,"metallicRoughnessTexture":{"index":1,"extensions":{"KHR_texture_transform":{"texCoord":0}}}},"normalTexture":{"index":0,"scale":0.3,"extensions":{"KHR_texture_transform":{"texCoord":0}}},"doubleSided":true,"name":"matrenk1","extras":{"babylonSeparateCullingPass":false}},{"pbrMetallicRoughness":{"baseColorTexture":{"index":4,"extensions":{"KHR_texture_transform":{"texCoord":0}}},"metallicFactor":0.0,"roughnessFactor":0.5},"doubleSided":true,"name":"matdikgorsel7","extras":{"babylonSeparateCullingPass":false}},{"pbrMetallicRoughness":{"baseColorTexture":{"index":5,"extensions":{"KHR_texture_transform":{"texCoord":0}}},"metallicFactor":0.0,"roughnessFactor":0.5},"doubleSided":true,"name":"matdikgorsel6","extras":{"babylonSeparateCullingPass":false}},{"pbrMetallicRoughness":{"baseColorTexture":{"index":6,"extensions":{"KHR_texture_transform":{"texCoord":0}}},"metallicFactor":0.0,"roughnessFactor":0.5},"doubleSided":true,"name":"matdikgorsel5","extras":{"babylonSeparateCullingPass":false}},{"pbrMetallicRoughness":{"baseColorTexture":{"index":7,"extensions":{"KHR_texture_transform":{"texCoord":0}}},"metallicFactor":0.0,"roughnessFactor":0.5},"doubleSided":true,"name":"matdikgorsel4","extras":{"babylonSeparateCullingPass":false}},{"pbrMetallicRoughness":{"baseColorTexture":{"index":8,"extensions":{"KHR_texture_transform":{"texCoord":0}}},"metallicFactor":0.0,"roughnessFactor":0.5},"doubleSided":true,"name":"matdikgorsel3","extras":{"babylonSeparateCullingPass":false}},{"pbrMetallicRoughness":{"baseColorTexture":{"index":9,"extensions":{"KHR_texture_transform":{"texCoord":0}}},"metallicFactor":0.0,"roughnessFactor":0.5},"name":"matgenisgorsel","extras":{"babylonSeparateCullingPass":false}},{"pbrMetallicRoughness":{"baseColorTexture":{"index":10,"extensions":{"KHR_texture_transform":{"texCoord":0}}},"metallicFactor":0.0,"roughnessFactor":0.5},"doubleSided":true,"name":"matdikgorsel1","extras":{"babylonSeparateCullingPass":false}},{"pbrMetallicRoughness":{"baseColorTexture":{"index":11,"extensions":{"KHR_texture_transform":{"texCoord":0}}},"metallicFactor":0.0,"roughnessFactor":0.5},"doubleSided":true,"name":"matdikyazi2","extras":{"babylonSeparateCullingPass":false}},{"pbrMetallicRoughness":{"baseColorTexture":{"index":12,"extensions":{"KHR_texture_transform":{"texCoord":0}}},"metallicFactor":0.0,"roughnessFactor":0.5},"doubleSided":true,"name":"matdikyazi1","extras":{"babylonSeparateCullingPass":false}},{"pbrMetallicRoughness":{"baseColorTexture":{"index":13,"extensions":{"KHR_texture_transform":{"texCoord":0}}},"metallicFactor":0.0,"roughnessFactor":0.5},"doubleSided":true,"name":"matlogo2","extras":{"babylonSeparateCullingPass":false}},{"pbrMetallicRoughness":{"baseColorTexture":{"index":14,"extensions":{"KHR_texture_transform":{"texCoord":0}}},"metallicFactor":0.0,"roughnessFactor":0.5},"doubleSided":true,"name":"matlogo1","extras":{"babylonSeparateCullingPass":false}},{"pbrMetallicRoughness":{"baseColorTexture":{"index":15,"extensions":{"KHR_texture_transform":{"texCoord":0}}},"metallicFactor":0.0,"roughnessFactor":0.5},"name":"matvideo1","extras":{"babylonSeparateCullingPass":false}},{"pbrMetallicRoughness":{"baseColorTexture":{"index":16,"extensions":{"KHR_texture_transform":{"texCoord":0}}},"metallicFactor":0.0,"roughnessFactor":0.5},"doubleSided":true,"name":"matdikgorsel8","extras":{"babylonSeparateCullingPass":false}},{"pbrMetallicRoughness":{"baseColorTexture":{"index":17,"extensions":{"KHR_texture_transform":{"texCoord":0}}},"metallicFactor":0.0,"roughnessFactor":0.5},"doubleSided":true,"name":"matdikgorsel2","extras":{"babylonSeparateCullingPass":false}}],"textures":[{"sampler":0,"source":0,"name":"matrenknormal.png"},{"sampler":0,"source":1,"name":"matrenkroughness0.png"},{"sampler":0,"source":0,"name":"matrenknormal.png"},{"sampler":0,"source":1,"name":"matrenkroughness0.png"},{"sampler":0,"source":2,"name":"matdikgorsel7.png"},{"sampler":0,"source":3,"name":"matdikgorsel6.png"},{"sampler":0,"source":4,"name":"matdikgorsel5.png"},{"sampler":0,"source":5,"name":"matdikgorsel4.png"},{"sampler":0,"source":6,"name":"matdikgorsel3.png"},{"sampler":0,"source":7,"name":"matgenisgorsel.png"},{"sampler":0,"source":8,"name":"matdikgorsel1.png"},{"sampler":0,"source":9,"name":"matdikyazi2.png"},{"sampler":0,"source":10,"name":"matdikyazi1.png"},{"sampler":0,"source":11,"name":"matlogo2.png"},{"sampler":0,"source":12,"name":"matlogo1.png"},{"sampler":0,"source":13,"name":"matvideo1.png"},{"sampler":0,"source":14,"name":"matgorsel8.png"},{"sampler":0,"source":15,"name":"matdikgorsel2.png"}],"images":[{"uri":"./matrenknormal.png"},{"uri":"./matrenkroughness0.png"},{"uri":"./matdikgorsel7.png"},{"uri":"./matdikgorsel6.png"},{"uri":"./matdikgorsel5.png"},{"uri":"./matdikgorsel4.png"},{"uri":"./matdikgorsel3.png"},{"uri":"./matgenisgorsel.png"},{"uri":"./matdikgorsel1.png"},{"uri":"./matdikyazi2.png"},{"uri":"./matdikyazi1.png"},{"uri":"./matlogo2.png"},{"uri":"./matlogo1.png"},{"uri":"./matvideo1.png"},{"uri":"./matgorsel8.png"},{"uri":"./matdikgorsel2.png"}],"samplers":[{"magFilter":9729,"minFilter":9987}]}