{"asset":{"version":"2.0","generator":"babylon.js glTF exporter for 3dsmax 2018 v20210615.1"},"extensionsUsed":["KHR_texture_transform"],"extensionsRequired":["KHR_texture_transform"],"scene":0,"scenes":[{"nodes":[0]}],"nodes":[{"children":[1,2,3,4,5,6,7,8,9,10,11,12,13,14,15,16,17,18],"translation":[0.000255184161,0.0,-3.81469718E-08],"name":"Group001"},{"mesh":0,"translation":[-0.0664437339,0.240001559,-0.487582624],"rotation":[-5.3385083E-08,-0.7071067,0.7071068,-5.33850759E-08],"name":"modgorsel2"},{"mesh":1,"translation":[-0.0664437339,0.240001559,-0.453785628],"rotation":[0.7071068,-1.06770145E-07,1.06770166E-07,0.7071067],"name":"modgorsel1"},{"mesh":2,"translation":[-0.00100948685,4.959106E-07,0.000151699933],"rotation":[0.0,-1.0,0.0,-7.54978942E-08],"scale":[0.099999994,0.099999994,0.099999994],"name":"modahsap"},{"mesh":3,"translation":[-0.2814249,0.464731127,0.409567565],"rotation":[-0.7071068,-0.7071068,5.76011665E-08,-1.64371329E-07],"scale":[0.099999994,0.099999994,0.099999994],"name":"modrenk1"},{"mesh":4,"translation":[-0.484962225,0.02885891,0.3771243],"rotation":[-5.762486E-06,-0.461748719,1.12460475E-05,0.8870108],"scale":[0.099999994,0.099999994,0.099999994],"name":"modrenk2"},{"mesh":5,"translation":[0.5010094,0.238684535,-0.0212295726],"rotation":[-0.7071068,-0.7071068,-4.9168996E-08,-5.760116E-08],"scale":[0.099999994,0.099999994,0.099999994],"name":"modgenisgorsel"},{"mesh":6,"translation":[-0.178800866,0.300307,0.327585131],"rotation":[-0.5,0.49999994,0.5,0.50000006],"scale":[0.198807865,0.198807865,0.198807865],"name":"moddikyazi1"},{"mesh":7,"translation":[0.297395259,0.254730523,0.236352727],"rotation":[1.3065663E-07,1.22224478E-07,0.7071068,0.7071068],"scale":[0.177399978,0.177399978,0.177399978],"name":"modvideo1"},{"mesh":8,"translation":[-0.167522937,0.300307,0.324964583],"rotation":[-0.50000006,-0.5,-0.50000006,0.49999997],"scale":[0.198807865,0.198807865,0.198807865],"name":"moddikyazi2"},{"mesh":9,"translation":[0.360053331,0.224443808,-0.480185539],"rotation":[-0.5,-0.5,0.5,0.5],"scale":[0.117267922,0.117267922,0.117267922],"name":"modlogo1"},{"mesh":10,"translation":[0.474476218,0.227168724,-0.393071026],"rotation":[-0.5000001,0.49999997,0.499999881,0.50000006],"scale":[0.0499999933,0.049999997,0.0499999933],"name":"moddikgorsel3"},{"mesh":11,"translation":[0.474476218,0.227168724,-0.273490816],"rotation":[-0.5000001,0.49999997,0.499999881,0.50000006],"scale":[0.0499999933,0.049999997,0.0499999933],"name":"moddikgorsel4"},{"mesh":12,"translation":[0.474476218,0.227168724,-0.154736564],"rotation":[-0.5000001,0.49999997,0.499999881,0.50000006],"scale":[0.0499999933,0.049999997,0.0499999933],"name":"moddikgorsel5"},{"mesh":13,"translation":[0.474476218,0.227168724,-0.0371419042],"rotation":[-0.5000001,0.49999997,0.499999881,0.50000006],"scale":[0.0499999933,0.049999997,0.0499999933],"name":"moddikgorsel6"},{"mesh":14,"translation":[0.41291678,0.226154938,-0.4552655],"rotation":[1.15202319E-07,-0.7071068,-0.7071068,8.432162E-09],"scale":[0.0499999933,0.049999997,0.0499999933],"name":"moddikgorsel2"},{"mesh":15,"translation":[0.297597349,0.226154938,-0.4552655],"rotation":[1.15202319E-07,-0.7071068,-0.7071068,8.432162E-09],"scale":[0.0499999933,0.049999997,0.0499999933],"name":"moddikgorsel1"},{"mesh":16,"translation":[0.40126884,0.259792328,0.457819819],"rotation":[-0.5000001,-0.50000006,-0.49999994,-0.49999994],"scale":[0.07868439,0.07868439,0.07868439],"name":"modlogo2"},{"mesh":17,"translation":[-0.500966251,0.072681956,0.324644774],"rotation":[1.54543116E-08,2.38864768E-08,0.7071068,0.7071068],"scale":[0.05263798,0.05263798,0.05263798],"name":"modlogo3"}],"meshes":[{"primitives":[{"attributes":{"POSITION":1,"NORMAL":2,"TEXCOORD_0":3},"indices":0,"material":0}],"name":"modgorsel2"},{"primitives":[{"attributes":{"POSITION":5,"NORMAL":6,"TEXCOORD_0":7},"indices":4,"material":1}],"name":"modgorsel1"},{"primitives":[{"attributes":{"POSITION":9,"NORMAL":10,"TEXCOORD_0":11},"indices":8,"material":2}],"name":"modahsap"},{"primitives":[{"attributes":{"POSITION":13,"NORMAL":14,"TEXCOORD_0":15},"indices":12,"material":3}],"name":"modrenk1"},{"primitives":[{"attributes":{"POSITION":17,"NORMAL":18,"TEXCOORD_0":19},"indices":16,"material":4}],"name":"modrenk2"},{"primitives":[{"attributes":{"POSITION":21,"NORMAL":22,"TEXCOORD_0":23},"indices":20,"material":5}],"name":"modgenisgorsel"},{"primitives":[{"attributes":{"POSITION":25,"NORMAL":26,"TEXCOORD_0":27},"indices":24,"material":6}],"name":"moddikyazi1"},{"primitives":[{"attributes":{"POSITION":29,"NORMAL":30,"TEXCOORD_0":31},"indices":28,"material":7}],"name":"modvideo1"},{"primitives":[{"attributes":{"POSITION":33,"NORMAL":34,"TEXCOORD_0":35},"indices":32,"material":8}],"name":"moddikyazi2"},{"primitives":[{"attributes":{"POSITION":37,"NORMAL":38,"TEXCOORD_0":39},"indices":36,"material":9}],"name":"modlogo1"},{"primitives":[{"attributes":{"POSITION":41,"NORMAL":42,"TEXCOORD_0":43},"indices":40,"material":10}],"name":"moddikgorsel3"},{"primitives":[{"attributes":{"POSITION":45,"NORMAL":46,"TEXCOORD_0":47},"indices":44,"material":11}],"name":"moddikgorsel4"},{"primitives":[{"attributes":{"POSITION":49,"NORMAL":50,"TEXCOORD_0":51},"indices":48,"material":12}],"name":"moddikgorsel5"},{"primitives":[{"attributes":{"POSITION":53,"NORMAL":54,"TEXCOORD_0":55},"indices":52,"material":13}],"name":"moddikgorsel6"},{"primitives":[{"attributes":{"POSITION":57,"NORMAL":58,"TEXCOORD_0":59},"indices":56,"material":14}],"name":"moddikgorsel2"},{"primitives":[{"attributes":{"POSITION":61,"NORMAL":62,"TEXCOORD_0":63},"indices":60,"material":15}],"name":"moddikgorsel1"},{"primitives":[{"attributes":{"POSITION":65,"NORMAL":66,"TEXCOORD_0":67},"indices":64,"material":16}],"name":"modlogo2"},{"primitives":[{"attributes":{"POSITION":69,"NORMAL":70,"TEXCOORD_0":71},"indices":68,"material":17}],"name":"modlogo3"}],"accessors":[{"bufferView":0,"componentType":5123,"count":6,"type":"SCALAR","name":"accessorIndices"},{"bufferView":1,"componentType":5126,"count":4,"max":[0.063857004,0.0,0.06385703],"min":[-0.063857004,0.0,-0.06385703],"type":"VEC3","name":"accessorPositions"},{"bufferView":1,"byteOffset":48,"componentType":5126,"count":4,"type":"VEC3","name":"accessorNormals"},{"bufferView":2,"componentType":5126,"count":4,"type":"VEC2","name":"accessorUVs"},{"bufferView":0,"byteOffset":12,"componentType":5123,"count":6,"type":"SCALAR","name":"accessorIndices"},{"bufferView":1,"byteOffset":96,"componentType":5126,"count":4,"max":[0.063857004,0.0,0.06385703],"min":[-0.063857004,0.0,-0.06385703],"type":"VEC3","name":"accessorPositions"},{"bufferView":1,"byteOffset":144,"componentType":5126,"count":4,"type":"VEC3","name":"accessorNormals"},{"bufferView":2,"byteOffset":32,"componentType":5126,"count":4,"type":"VEC2","name":"accessorUVs"},{"bufferView":0,"byteOffset":24,"componentType":5123,"count":30,"type":"SCALAR","name":"accessorIndices"},{"bufferView":1,"byteOffset":192,"componentType":5126,"count":20,"max":[5.0,0.049999997,5.0],"min":[-5.0,0.0,-5.0],"type":"VEC3","name":"accessorPositions"},{"bufferView":1,"byteOffset":432,"componentType":5126,"count":20,"type":"VEC3","name":"accessorNormals"},{"bufferView":2,"byteOffset":64,"componentType":5126,"count":20,"type":"VEC2","name":"accessorUVs"},{"bufferView":0,"byteOffset":84,"componentType":5123,"count":585,"type":"SCALAR","name":"accessorIndices"},{"bufferView":1,"byteOffset":672,"componentType":5126,"count":328,"max":[0.1000003,7.804427,9.097194],"min":[-4.64730835,-2.185575,-0.901141346],"type":"VEC3","name":"accessorPositions"},{"bufferView":1,"byteOffset":4608,"componentType":5126,"count":328,"type":"VEC3","name":"accessorNormals"},{"bufferView":2,"byteOffset":224,"componentType":5126,"count":328,"type":"VEC2","name":"accessorUVs"},{"bufferView":0,"byteOffset":1256,"componentType":5123,"count":510,"type":"SCALAR","name":"accessorIndices"},{"bufferView":1,"byteOffset":8544,"componentType":5126,"count":340,"max":[5.098044,4.38319635,0.553738534],"min":[-5.318386,-0.238654763,-13.0901775],"type":"VEC3","name":"accessorPositions"},{"bufferView":1,"byteOffset":12624,"componentType":5126,"count":340,"type":"VEC3","name":"accessorNormals"},{"bufferView":2,"byteOffset":2848,"componentType":5126,"count":340,"type":"VEC2","name":"accessorUVs"},{"bufferView":0,"byteOffset":2276,"componentType":5123,"count":6,"type":"SCALAR","name":"accessorIndices"},{"bufferView":1,"byteOffset":16704,"componentType":5126,"count":4,"max":[2.360296,1.14696377E-10,4.787658],"min":[-2.35067773,0.0,-4.75372839],"type":"VEC3","name":"accessorPositions"},{"bufferView":1,"byteOffset":16752,"componentType":5126,"count":4,"type":"VEC3","name":"accessorNormals"},{"bufferView":2,"byteOffset":5568,"componentType":5126,"count":4,"type":"VEC2","name":"accessorUVs"},{"bufferView":0,"byteOffset":2288,"componentType":5123,"count":6,"type":"SCALAR","name":"accessorIndices"},{"bufferView":1,"byteOffset":16800,"componentType":5126,"count":4,"max":[0.25,0.0,0.75],"min":[-0.25,0.0,-0.75],"type":"VEC3","name":"accessorPositions"},{"bufferView":1,"byteOffset":16848,"componentType":5126,"count":4,"type":"VEC3","name":"accessorNormals"},{"bufferView":2,"byteOffset":5600,"componentType":5126,"count":4,"type":"VEC2","name":"accessorUVs"},{"bufferView":0,"byteOffset":2300,"componentType":5123,"count":6,"type":"SCALAR","name":"accessorIndices"},{"bufferView":1,"byteOffset":16896,"componentType":5126,"count":4,"max":[0.539999962,0.0,0.96],"min":[-0.539999962,0.0,-0.96],"type":"VEC3","name":"accessorPositions"},{"bufferView":1,"byteOffset":16944,"componentType":5126,"count":4,"type":"VEC3","name":"accessorNormals"},{"bufferView":2,"byteOffset":5632,"componentType":5126,"count":4,"type":"VEC2","name":"accessorUVs"},{"bufferView":0,"byteOffset":2312,"componentType":5123,"count":6,"type":"SCALAR","name":"accessorIndices"},{"bufferView":1,"byteOffset":16992,"componentType":5126,"count":4,"max":[0.25,0.0,0.75],"min":[-0.25,0.0,-0.75],"type":"VEC3","name":"accessorPositions"},{"bufferView":1,"byteOffset":17040,"componentType":5126,"count":4,"type":"VEC3","name":"accessorNormals"},{"bufferView":2,"byteOffset":5664,"componentType":5126,"count":4,"type":"VEC2","name":"accessorUVs"},{"bufferView":0,"byteOffset":2324,"componentType":5123,"count":6,"type":"SCALAR","name":"accessorIndices"},{"bufferView":1,"byteOffset":17088,"componentType":5126,"count":4,"max":[1.05,0.0,1.05],"min":[-1.05,0.0,-1.05],"type":"VEC3","name":"accessorPositions"},{"bufferView":1,"byteOffset":17136,"componentType":5126,"count":4,"type":"VEC3","name":"accessorNormals"},{"bufferView":2,"byteOffset":5696,"componentType":5126,"count":4,"type":"VEC2","name":"accessorUVs"},{"bufferView":0,"byteOffset":2336,"componentType":5123,"count":6,"type":"SCALAR","name":"accessorIndices"},{"bufferView":1,"byteOffset":17184,"componentType":5126,"count":4,"max":[1.05,0.0,1.485],"min":[-1.05,0.0,-1.485],"type":"VEC3","name":"accessorPositions"},{"bufferView":1,"byteOffset":17232,"componentType":5126,"count":4,"type":"VEC3","name":"accessorNormals"},{"bufferView":2,"byteOffset":5728,"componentType":5126,"count":4,"type":"VEC2","name":"accessorUVs"},{"bufferView":0,"byteOffset":2348,"componentType":5123,"count":6,"type":"SCALAR","name":"accessorIndices"},{"bufferView":1,"byteOffset":17280,"componentType":5126,"count":4,"max":[1.05,0.0,1.485],"min":[-1.05,0.0,-1.485],"type":"VEC3","name":"accessorPositions"},{"bufferView":1,"byteOffset":17328,"componentType":5126,"count":4,"type":"VEC3","name":"accessorNormals"},{"bufferView":2,"byteOffset":5760,"componentType":5126,"count":4,"type":"VEC2","name":"accessorUVs"},{"bufferView":0,"byteOffset":2360,"componentType":5123,"count":6,"type":"SCALAR","name":"accessorIndices"},{"bufferView":1,"byteOffset":17376,"componentType":5126,"count":4,"max":[1.05,0.0,1.485],"min":[-1.05,0.0,-1.485],"type":"VEC3","name":"accessorPositions"},{"bufferView":1,"byteOffset":17424,"componentType":5126,"count":4,"type":"VEC3","name":"accessorNormals"},{"bufferView":2,"byteOffset":5792,"componentType":5126,"count":4,"type":"VEC2","name":"accessorUVs"},{"bufferView":0,"byteOffset":2372,"componentType":5123,"count":6,"type":"SCALAR","name":"accessorIndices"},{"bufferView":1,"byteOffset":17472,"componentType":5126,"count":4,"max":[1.05,0.0,1.485],"min":[-1.05,0.0,-1.485],"type":"VEC3","name":"accessorPositions"},{"bufferView":1,"byteOffset":17520,"componentType":5126,"count":4,"type":"VEC3","name":"accessorNormals"},{"bufferView":2,"byteOffset":5824,"componentType":5126,"count":4,"type":"VEC2","name":"accessorUVs"},{"bufferView":0,"byteOffset":2384,"componentType":5123,"count":6,"type":"SCALAR","name":"accessorIndices"},{"bufferView":1,"byteOffset":17568,"componentType":5126,"count":4,"max":[1.05,0.0,1.485],"min":[-1.05,0.0,-1.485],"type":"VEC3","name":"accessorPositions"},{"bufferView":1,"byteOffset":17616,"componentType":5126,"count":4,"type":"VEC3","name":"accessorNormals"},{"bufferView":2,"byteOffset":5856,"componentType":5126,"count":4,"type":"VEC2","name":"accessorUVs"},{"bufferView":0,"byteOffset":2396,"componentType":5123,"count":6,"type":"SCALAR","name":"accessorIndices"},{"bufferView":1,"byteOffset":17664,"componentType":5126,"count":4,"max":[1.05,0.0,1.485],"min":[-1.05,0.0,-1.485],"type":"VEC3","name":"accessorPositions"},{"bufferView":1,"byteOffset":17712,"componentType":5126,"count":4,"type":"VEC3","name":"accessorNormals"},{"bufferView":2,"byteOffset":5888,"componentType":5126,"count":4,"type":"VEC2","name":"accessorUVs"},{"bufferView":0,"byteOffset":2408,"componentType":5123,"count":6,"type":"SCALAR","name":"accessorIndices"},{"bufferView":1,"byteOffset":17760,"componentType":5126,"count":4,"max":[1.05,0.0,1.05],"min":[-1.05,0.0,-1.05],"type":"VEC3","name":"accessorPositions"},{"bufferView":1,"byteOffset":17808,"componentType":5126,"count":4,"type":"VEC3","name":"accessorNormals"},{"bufferView":2,"byteOffset":5920,"componentType":5126,"count":4,"type":"VEC2","name":"accessorUVs"},{"bufferView":0,"byteOffset":2420,"componentType":5123,"count":6,"type":"SCALAR","name":"accessorIndices"},{"bufferView":1,"byteOffset":17856,"componentType":5126,"count":4,"max":[1.05,0.0,1.05],"min":[-1.05,0.0,-1.05],"type":"VEC3","name":"accessorPositions"},{"bufferView":1,"byteOffset":17904,"componentType":5126,"count":4,"type":"VEC3","name":"accessorNormals"},{"bufferView":2,"byteOffset":5952,"componentType":5126,"count":4,"type":"VEC2","name":"accessorUVs"}],"bufferViews":[{"buffer":0,"byteLength":2432,"name":"bufferViewScalar"},{"buffer":0,"byteOffset":2432,"byteLength":17952,"byteStride":12,"name":"bufferViewFloatVec3"},{"buffer":0,"byteOffset":20384,"byteLength":5984,"byteStride":8,"name":"bufferViewFloatVec2"}],"buffers":[{"uri":"stant26.bin","byteLength":26368}],"materials":[{"pbrMetallicRoughness":{"baseColorTexture":{"index":0,"extensions":{"KHR_texture_transform":{"texCoord":0}}},"metallicFactor":0.0,"roughnessFactor":0.5},"doubleSided":true,"name":"matgorsel2","extras":{"babylonSeparateCullingPass":false}},{"pbrMetallicRoughness":{"baseColorTexture":{"index":1,"extensions":{"KHR_texture_transform":{"texCoord":0}}},"metallicFactor":0.0,"roughnessFactor":0.5},"doubleSided":true,"name":"matgorsel1","extras":{"babylonSeparateCullingPass":false}},{"pbrMetallicRoughness":{"baseColorTexture":{"index":2,"extensions":{"KHR_texture_transform":{"texCoord":0}}},"metallicFactor":0.0,"metallicRoughnessTexture":{"index":3,"extensions":{"KHR_texture_transform":{"texCoord":0}}}},"doubleSided":true,"name":"matahsap","extras":{"babylonSeparateCullingPass":false}},{"pbrMetallicRoughness":{"baseColorFactor":[0.00351948547,0.0282318518,0.02877698,1.0],"metallicFactor":0.0,"metallicRoughnessTexture":{"index":5,"extensions":{"KHR_texture_transform":{"texCoord":0}}}},"normalTexture":{"index":4,"scale":0.3,"extensions":{"KHR_texture_transform":{"texCoord":0}}},"doubleSided":true,"name":"matrenk1","extras":{"babylonSeparateCullingPass":false}},{"pbrMetallicRoughness":{"baseColorFactor":[0.1137255,0.200000018,0.180392161,1.0],"metallicFactor":0.0,"metallicRoughnessTexture":{"index":5,"extensions":{"KHR_texture_transform":{"texCoord":0}}}},"normalTexture":{"index":4,"scale":0.3,"extensions":{"KHR_texture_transform":{"texCoord":0}}},"doubleSided":true,"name":"matrenk2","extras":{"babylonSeparateCullingPass":false}},{"pbrMetallicRoughness":{"baseColorTexture":{"index":8,"extensions":{"KHR_texture_transform":{"texCoord":0}}},"metallicFactor":0.0,"roughnessFactor":0.5},"name":"matgenisgorsel","extras":{"babylonSeparateCullingPass":false}},{"pbrMetallicRoughness":{"baseColorTexture":{"index":9,"extensions":{"KHR_texture_transform":{"texCoord":0}}},"metallicFactor":0.0,"roughnessFactor":0.5},"doubleSided":true,"name":"matdikyazi1","extras":{"babylonSeparateCullingPass":false}},{"pbrMetallicRoughness":{"baseColorTexture":{"index":10,"extensions":{"KHR_texture_transform":{"texCoord":0}}},"metallicFactor":0.0,"roughnessFactor":0.5},"doubleSided":true,"name":"matvideo1","extras":{"babylonSeparateCullingPass":false}},{"pbrMetallicRoughness":{"baseColorTexture":{"index":11,"extensions":{"KHR_texture_transform":{"texCoord":0}}},"metallicFactor":0.0,"roughnessFactor":0.5},"doubleSided":true,"name":"matdikyazi2","extras":{"babylonSeparateCullingPass":false}},{"pbrMetallicRoughness":{"baseColorTexture":{"index":12,"extensions":{"KHR_texture_transform":{"texCoord":0}}},"metallicFactor":0.0,"roughnessFactor":0.5},"doubleSided":true,"name":"matlogo1","extras":{"babylonSeparateCullingPass":false}},{"pbrMetallicRoughness":{"baseColorTexture":{"index":13,"extensions":{"KHR_texture_transform":{"texCoord":0}}},"metallicFactor":0.0,"roughnessFactor":0.5},"doubleSided":true,"name":"matdikgorsel3","extras":{"babylonSeparateCullingPass":false}},{"pbrMetallicRoughness":{"baseColorTexture":{"index":14,"extensions":{"KHR_texture_transform":{"texCoord":0}}},"metallicFactor":0.0,"roughnessFactor":0.5},"doubleSided":true,"name":"matdikgorsel4","extras":{"babylonSeparateCullingPass":false}},{"pbrMetallicRoughness":{"baseColorTexture":{"index":15,"extensions":{"KHR_texture_transform":{"texCoord":0}}},"metallicFactor":0.0,"roughnessFactor":0.5},"doubleSided":true,"name":"matdikgorsel5","extras":{"babylonSeparateCullingPass":false}},{"pbrMetallicRoughness":{"baseColorTexture":{"index":16,"extensions":{"KHR_texture_transform":{"texCoord":0}}},"metallicFactor":0.0,"roughnessFactor":0.5},"doubleSided":true,"name":"matdikgorsel6","extras":{"babylonSeparateCullingPass":false}},{"pbrMetallicRoughness":{"baseColorTexture":{"index":17,"extensions":{"KHR_texture_transform":{"texCoord":0}}},"metallicFactor":0.0,"roughnessFactor":0.5},"doubleSided":true,"name":"matdikgorsel2","extras":{"babylonSeparateCullingPass":false}},{"pbrMetallicRoughness":{"baseColorTexture":{"index":18,"extensions":{"KHR_texture_transform":{"texCoord":0}}},"metallicFactor":0.0,"roughnessFactor":0.5},"doubleSided":true,"name":"matdikgorsel1","extras":{"babylonSeparateCullingPass":false}},{"pbrMetallicRoughness":{"baseColorTexture":{"index":19,"extensions":{"KHR_texture_transform":{"texCoord":0}}},"metallicFactor":0.0,"roughnessFactor":0.5},"doubleSided":true,"name":"matlogo2","extras":{"babylonSeparateCullingPass":false}},{"pbrMetallicRoughness":{"baseColorTexture":{"index":20,"extensions":{"KHR_texture_transform":{"texCoord":0}}},"metallicFactor":0.0,"roughnessFactor":0.5},"doubleSided":true,"name":"matlogo3","extras":{"babylonSeparateCullingPass":false}}],"textures":[{"sampler":0,"source":0,"name":"matgorsel2.png"},{"sampler":0,"source":1,"name":"matgorsel1.png"},{"sampler":0,"source":2,"name":"matahsap.png"},{"sampler":0,"source":3,"name":"matahsaproughness0.png"},{"sampler":0,"source":4,"name":"matrenknormal.png"},{"sampler":0,"source":5,"name":"matrenkroughness0.png"},{"sampler":0,"source":4,"name":"matrenknormal.png"},{"sampler":0,"source":5,"name":"matrenkroughness0.png"},{"sampler":0,"source":6,"name":"matgenisgorsel.png"},{"sampler":0,"source":7,"name":"matdikyazi1.png"},{"sampler":0,"source":8,"name":"matvideo1.png"},{"sampler":0,"source":9,"name":"matdikyazi2.png"},{"sampler":0,"source":10,"name":"matlogo1.png"},{"sampler":0,"source":11,"name":"matdikgorsel3.png"},{"sampler":0,"source":12,"name":"matdikgorsel4.png"},{"sampler":0,"source":13,"name":"matdikgorsel5.png"},{"sampler":0,"source":14,"name":"matdikgorsel6.png"},{"sampler":0,"source":15,"name":"matdikgorsel2.png"},{"sampler":0,"source":16,"name":"matdikgorsel1.png"},{"sampler":0,"source":17,"name":"matlogo2.png"},{"sampler":0,"source":18,"name":"matlogo3.png"}],"images":[{"uri":"./matgorsel2.png"},{"uri":"./matgorsel1.png"},{"uri":"./matahsap.png"},{"uri":"./matahsaproughness0.png"},{"uri":"./matrenknormal.png"},{"uri":"./matrenkroughness0.png"},{"uri":"./matgenisgorsel.png"},{"uri":"./matdikyazi1.png"},{"uri":"./matvideo1.png"},{"uri":"./matdikyazi2.png"},{"uri":"./matlogo1.png"},{"uri":"./matdikgorsel3.png"},{"uri":"./matdikgorsel4.png"},{"uri":"./matdikgorsel5.png"},{"uri":"./matdikgorsel6.png"},{"uri":"./matdikgorsel2.png"},{"uri":"./matdikgorsel1.png"},{"uri":"./matlogo2.png"},{"uri":"./matlogo3.png"}],"samplers":[{"magFilter":9729,"minFilter":9987}]}