{"asset":{"version":"2.0","generator":"babylon.js glTF exporter for 3dsmax 2018 v20210615.1"},"extensionsUsed":["KHR_texture_transform"],"extensionsRequired":["KHR_texture_transform"],"scene":0,"scenes":[{"nodes":[0]}],"nodes":[{"children":[1,2,3,4,5,6,7,8,9,10,11,12,13,14,15,16,17,18,19,20,21],"translation":[0.0,0.0,-2.09808348E-07],"name":"Group001"},{"mesh":0,"translation":[0.414411,0.207647353,0.50467813],"rotation":[0.4999989,-0.499999136,-0.500000954,0.500001],"scale":[0.2112625,0.2112625,0.2112625],"name":"moddikyazi3"},{"mesh":1,"translation":[0.2717909,0.220222428,0.433415145],"rotation":[0.6352801,-0.310515,0.310515255,0.6352795],"scale":[0.0351404324,0.0351404324,0.0351404361],"name":"moddikgorsel9"},{"mesh":2,"translation":[0.167678326,0.220222428,0.298159659],"rotation":[0.6352801,-0.310515,0.310515255,0.6352795],"scale":[0.0351404324,0.0351404324,0.0351404361],"name":"moddikgorsel7"},{"mesh":3,"translation":[-0.49692443,0.07035494,0.171585083],"rotation":[0.5000006,-0.499999374,0.499999642,0.500000358],"scale":[0.0467727557,0.0467727557,0.0467727557],"name":"modlogo3"},{"mesh":4,"translation":[0.221970662,0.212772176,0.194287986],"rotation":[0.213772818,-0.6740185,0.6740189,0.213772684],"scale":[0.06272044,0.06272044,0.06272044],"name":"moddikgorsel6"},{"mesh":5,"translation":[0.224349648,0.220222428,-0.188211635],"rotation":[0.206225023,-0.6763659,0.6763666,0.206224754],"scale":[0.0778286755,0.0778286755,0.0778286755],"name":"moddikgorsel5"},{"mesh":6,"translation":[0.305945873,0.220222428,-0.331111431],"rotation":[0.6352801,-0.310515,0.310515255,0.6352795],"scale":[0.0351404324,0.0351404324,0.0351404361],"name":"moddikgorsel4"},{"mesh":7,"translation":[0.255839676,0.220222428,-0.39642182],"rotation":[0.6352801,-0.310515,0.310515255,0.6352795],"scale":[0.0351404324,0.0351404324,0.0351404361],"name":"moddikgorsel3"},{"mesh":8,"translation":[0.204597622,0.220222428,-0.461494446],"rotation":[0.6352801,-0.310515,0.310515255,0.6352795],"scale":[0.0351404324,0.0351404324,0.0351404361],"name":"moddikgorsel2"},{"mesh":9,"translation":[0.5038245,0.157767057,-0.3965772],"rotation":[-0.5,-0.5,0.50000006,-0.49999994],"scale":[0.099999994,0.099999994,0.099999994],"name":"modgenisgorsel"},{"mesh":10,"translation":[0.234037429,0.00926698651,-0.0253762715],"rotation":[0.0,0.7071068,0.0,0.7071067],"scale":[0.099999994,0.099999994,0.099999994],"name":"modrenk2"},{"mesh":11,"translation":[-0.386329949,0.200647086,-0.493327081],"rotation":[-1.80107645E-06,-0.7071068,0.7071068,-1.80107645E-06],"scale":[0.08074562,0.08074562,0.08074562],"name":"moddikgorsel1"},{"mesh":12,"translation":[-0.388588816,0.2035545,0.491403431],"rotation":[0.7071068,6.181724E-08,-6.18172464E-08,0.7071067],"scale":[0.08587561,0.08587561,0.08587561],"name":"modlogo2"},{"mesh":13,"translation":[0.341007382,0.204966992,-0.5046775],"rotation":[1.88537058E-06,-0.7071068,0.7071068,1.88536978E-06],"scale":[0.14154233,0.14154233,0.14154233],"name":"modlogo1"},{"mesh":14,"translation":[-0.49075973,0.193704337,0.426486731],"rotation":[3.851362E-07,5.420945E-07,0.7071067,0.7071068],"scale":[0.19481498,0.19481498,0.19481498],"name":"moddikyazi2"},{"mesh":15,"translation":[-0.492779136,0.193704337,-0.431949228],"rotation":[3.851362E-07,5.420945E-07,0.7071067,0.7071068],"scale":[0.19481498,0.19481498,0.19481498],"name":"moddikyazi1"},{"mesh":16,"translation":[0.21959056,0.220222428,0.3657122],"rotation":[0.6352801,-0.310515,0.310515255,0.6352795],"scale":[0.0351404324,0.0351404324,0.0351404361],"name":"moddikgorsel8"},{"mesh":17,"translation":[0.00194091792,0.0006434631,0.7927481],"rotation":[0.0,0.7071068,0.0,0.7071067],"scale":[0.099999994,0.099999994,0.099999994],"name":"modzemin"},{"mesh":18,"translation":[0.198302969,0.218565777,0.010412721],"rotation":[0.6434689,-0.293169171,0.2931694,0.6434682],"scale":[0.09365708,0.09365708,0.09365708],"name":"modvideo1"},{"mesh":19,"translation":[0.176512748,0.202554733,0.298832268],"rotation":[0.634376049,-0.312357455,0.312357515,0.6343759],"scale":[0.1,0.1,0.099999994],"name":"modrenk1"},{"mesh":20,"translation":[-0.49692443,0.07035494,0.04175096],"rotation":[0.5000006,-0.499999374,0.499999642,0.500000358],"scale":[0.0467727557,0.0467727557,0.0467727557],"name":"modgorsel1"}],"meshes":[{"primitives":[{"attributes":{"POSITION":1,"NORMAL":2,"TEXCOORD_0":3},"indices":0,"material":0}],"name":"moddikyazi3"},{"primitives":[{"attributes":{"POSITION":5,"NORMAL":6,"TEXCOORD_0":7},"indices":4,"material":1}],"name":"moddikgorsel9"},{"primitives":[{"attributes":{"POSITION":9,"NORMAL":10,"TEXCOORD_0":11},"indices":8,"material":2}],"name":"moddikgorsel7"},{"primitives":[{"attributes":{"POSITION":13,"NORMAL":14,"TEXCOORD_0":15},"indices":12,"material":3}],"name":"modlogo3"},{"primitives":[{"attributes":{"POSITION":17,"NORMAL":18,"TEXCOORD_0":19},"indices":16,"material":4}],"name":"moddikgorsel6"},{"primitives":[{"attributes":{"POSITION":21,"NORMAL":22,"TEXCOORD_0":23},"indices":20,"material":5}],"name":"moddikgorsel5"},{"primitives":[{"attributes":{"POSITION":25,"NORMAL":26,"TEXCOORD_0":27},"indices":24,"material":6}],"name":"moddikgorsel4"},{"primitives":[{"attributes":{"POSITION":29,"NORMAL":30,"TEXCOORD_0":31},"indices":28,"material":7}],"name":"moddikgorsel3"},{"primitives":[{"attributes":{"POSITION":33,"NORMAL":34,"TEXCOORD_0":35},"indices":32,"material":8}],"name":"moddikgorsel2"},{"primitives":[{"attributes":{"POSITION":37,"NORMAL":38,"TEXCOORD_0":39},"indices":36,"material":9}],"name":"modgenisgorsel"},{"primitives":[{"attributes":{"POSITION":41,"NORMAL":42,"TEXCOORD_0":43},"indices":40,"material":10}],"name":"modrenk2"},{"primitives":[{"attributes":{"POSITION":45,"NORMAL":46,"TEXCOORD_0":47},"indices":44,"material":11}],"name":"moddikgorsel1"},{"primitives":[{"attributes":{"POSITION":49,"NORMAL":50,"TEXCOORD_0":51},"indices":48,"material":12}],"name":"modlogo2"},{"primitives":[{"attributes":{"POSITION":53,"NORMAL":54,"TEXCOORD_0":55},"indices":52,"material":13}],"name":"modlogo1"},{"primitives":[{"attributes":{"POSITION":57,"NORMAL":58,"TEXCOORD_0":59},"indices":56,"material":14}],"name":"moddikyazi2"},{"primitives":[{"attributes":{"POSITION":61,"NORMAL":62,"TEXCOORD_0":63},"indices":60,"material":15}],"name":"moddikyazi1"},{"primitives":[{"attributes":{"POSITION":65,"NORMAL":66,"TEXCOORD_0":67},"indices":64,"material":16}],"name":"moddikgorsel8"},{"primitives":[{"attributes":{"POSITION":69,"NORMAL":70,"TEXCOORD_0":71},"indices":68,"material":17}],"name":"modzemin"},{"primitives":[{"attributes":{"POSITION":73,"NORMAL":74,"TEXCOORD_0":75},"indices":72,"material":18}],"name":"modvideo1"},{"primitives":[{"attributes":{"POSITION":77,"NORMAL":78,"TEXCOORD_0":79},"indices":76,"material":19}],"name":"modrenk1"},{"primitives":[{"attributes":{"POSITION":81,"NORMAL":82,"TEXCOORD_0":83},"indices":80,"material":20}],"name":"modgorsel1"}],"accessors":[{"bufferView":0,"componentType":5123,"count":6,"type":"SCALAR","name":"accessorIndices"},{"bufferView":1,"componentType":5126,"count":4,"max":[0.75,0.0,0.25],"min":[-0.75,0.0,-0.25],"type":"VEC3","name":"accessorPositions"},{"bufferView":1,"byteOffset":48,"componentType":5126,"count":4,"type":"VEC3","name":"accessorNormals"},{"bufferView":2,"componentType":5126,"count":4,"type":"VEC2","name":"accessorUVs"},{"bufferView":0,"byteOffset":12,"componentType":5123,"count":6,"type":"SCALAR","name":"accessorIndices"},{"bufferView":1,"byteOffset":96,"componentType":5126,"count":4,"max":[1.05,0.0,1.485],"min":[-1.05,0.0,-1.485],"type":"VEC3","name":"accessorPositions"},{"bufferView":1,"byteOffset":144,"componentType":5126,"count":4,"type":"VEC3","name":"accessorNormals"},{"bufferView":2,"byteOffset":32,"componentType":5126,"count":4,"type":"VEC2","name":"accessorUVs"},{"bufferView":0,"byteOffset":24,"componentType":5123,"count":6,"type":"SCALAR","name":"accessorIndices"},{"bufferView":1,"byteOffset":192,"componentType":5126,"count":4,"max":[1.05,0.0,1.485],"min":[-1.05,0.0,-1.485],"type":"VEC3","name":"accessorPositions"},{"bufferView":1,"byteOffset":240,"componentType":5126,"count":4,"type":"VEC3","name":"accessorNormals"},{"bufferView":2,"byteOffset":64,"componentType":5126,"count":4,"type":"VEC2","name":"accessorUVs"},{"bufferView":0,"byteOffset":36,"componentType":5123,"count":6,"type":"SCALAR","name":"accessorIndices"},{"bufferView":1,"byteOffset":288,"componentType":5126,"count":4,"max":[1.0,0.0,1.0],"min":[-1.0,0.0,-1.0],"type":"VEC3","name":"accessorPositions"},{"bufferView":1,"byteOffset":336,"componentType":5126,"count":4,"type":"VEC3","name":"accessorNormals"},{"bufferView":2,"byteOffset":96,"componentType":5126,"count":4,"type":"VEC2","name":"accessorUVs"},{"bufferView":0,"byteOffset":48,"componentType":5123,"count":6,"type":"SCALAR","name":"accessorIndices"},{"bufferView":1,"byteOffset":384,"componentType":5126,"count":4,"max":[1.05,0.0,1.485],"min":[-1.05,0.0,-1.485],"type":"VEC3","name":"accessorPositions"},{"bufferView":1,"byteOffset":432,"componentType":5126,"count":4,"type":"VEC3","name":"accessorNormals"},{"bufferView":2,"byteOffset":128,"componentType":5126,"count":4,"type":"VEC2","name":"accessorUVs"},{"bufferView":0,"byteOffset":60,"componentType":5123,"count":6,"type":"SCALAR","name":"accessorIndices"},{"bufferView":1,"byteOffset":480,"componentType":5126,"count":4,"max":[1.05,0.0,1.485],"min":[-1.05,0.0,-1.485],"type":"VEC3","name":"accessorPositions"},{"bufferView":1,"byteOffset":528,"componentType":5126,"count":4,"type":"VEC3","name":"accessorNormals"},{"bufferView":2,"byteOffset":160,"componentType":5126,"count":4,"type":"VEC2","name":"accessorUVs"},{"bufferView":0,"byteOffset":72,"componentType":5123,"count":6,"type":"SCALAR","name":"accessorIndices"},{"bufferView":1,"byteOffset":576,"componentType":5126,"count":4,"max":[1.05,0.0,1.485],"min":[-1.05,0.0,-1.485],"type":"VEC3","name":"accessorPositions"},{"bufferView":1,"byteOffset":624,"componentType":5126,"count":4,"type":"VEC3","name":"accessorNormals"},{"bufferView":2,"byteOffset":192,"componentType":5126,"count":4,"type":"VEC2","name":"accessorUVs"},{"bufferView":0,"byteOffset":84,"componentType":5123,"count":6,"type":"SCALAR","name":"accessorIndices"},{"bufferView":1,"byteOffset":672,"componentType":5126,"count":4,"max":[1.05,0.0,1.485],"min":[-1.05,0.0,-1.485],"type":"VEC3","name":"accessorPositions"},{"bufferView":1,"byteOffset":720,"componentType":5126,"count":4,"type":"VEC3","name":"accessorNormals"},{"bufferView":2,"byteOffset":224,"componentType":5126,"count":4,"type":"VEC2","name":"accessorUVs"},{"bufferView":0,"byteOffset":96,"componentType":5123,"count":6,"type":"SCALAR","name":"accessorIndices"},{"bufferView":1,"byteOffset":768,"componentType":5126,"count":4,"max":[1.05,0.0,1.485],"min":[-1.05,0.0,-1.485],"type":"VEC3","name":"accessorPositions"},{"bufferView":1,"byteOffset":816,"componentType":5126,"count":4,"type":"VEC3","name":"accessorNormals"},{"bufferView":2,"byteOffset":256,"componentType":5126,"count":4,"type":"VEC2","name":"accessorUVs"},{"bufferView":0,"byteOffset":108,"componentType":5123,"count":6,"type":"SCALAR","name":"accessorIndices"},{"bufferView":1,"byteOffset":864,"componentType":5126,"count":4,"max":[1.05,3.80448428E-09,1.57203639],"min":[-8.933147,-4.46309443E-08,-2.506037],"type":"VEC3","name":"accessorPositions"},{"bufferView":1,"byteOffset":912,"componentType":5126,"count":4,"type":"VEC3","name":"accessorNormals"},{"bufferView":2,"byteOffset":288,"componentType":5126,"count":4,"type":"VEC2","name":"accessorUVs"},{"bufferView":0,"byteOffset":120,"componentType":5123,"count":204,"type":"SCALAR","name":"accessorIndices"},{"bufferView":1,"byteOffset":960,"componentType":5126,"count":140,"max":[4.758951,4.0,2.65538716],"min":[-5.24019957,-0.07337387,-7.378621],"type":"VEC3","name":"accessorPositions"},{"bufferView":1,"byteOffset":2640,"componentType":5126,"count":140,"type":"VEC3","name":"accessorNormals"},{"bufferView":2,"byteOffset":320,"componentType":5126,"count":140,"type":"VEC2","name":"accessorUVs"},{"bufferView":0,"byteOffset":528,"componentType":5123,"count":6,"type":"SCALAR","name":"accessorIndices"},{"bufferView":1,"byteOffset":4320,"componentType":5126,"count":4,"max":[1.05,0.0,1.485],"min":[-1.05,0.0,-1.485],"type":"VEC3","name":"accessorPositions"},{"bufferView":1,"byteOffset":4368,"componentType":5126,"count":4,"type":"VEC3","name":"accessorNormals"},{"bufferView":2,"byteOffset":1440,"componentType":5126,"count":4,"type":"VEC2","name":"accessorUVs"},{"bufferView":0,"byteOffset":540,"componentType":5123,"count":6,"type":"SCALAR","name":"accessorIndices"},{"bufferView":1,"byteOffset":4416,"componentType":5126,"count":4,"max":[1.0,0.0,1.0],"min":[-1.0,0.0,-1.0],"type":"VEC3","name":"accessorPositions"},{"bufferView":1,"byteOffset":4464,"componentType":5126,"count":4,"type":"VEC3","name":"accessorNormals"},{"bufferView":2,"byteOffset":1472,"componentType":5126,"count":4,"type":"VEC2","name":"accessorUVs"},{"bufferView":0,"byteOffset":552,"componentType":5123,"count":6,"type":"SCALAR","name":"accessorIndices"},{"bufferView":1,"byteOffset":4512,"componentType":5126,"count":4,"max":[1.0,0.0,1.0],"min":[-1.0,0.0,-1.0],"type":"VEC3","name":"accessorPositions"},{"bufferView":1,"byteOffset":4560,"componentType":5126,"count":4,"type":"VEC3","name":"accessorNormals"},{"bufferView":2,"byteOffset":1504,"componentType":5126,"count":4,"type":"VEC2","name":"accessorUVs"},{"bufferView":0,"byteOffset":564,"componentType":5123,"count":6,"type":"SCALAR","name":"accessorIndices"},{"bufferView":1,"byteOffset":4608,"componentType":5126,"count":4,"max":[0.75,0.0,0.25],"min":[-0.75,0.0,-0.25],"type":"VEC3","name":"accessorPositions"},{"bufferView":1,"byteOffset":4656,"componentType":5126,"count":4,"type":"VEC3","name":"accessorNormals"},{"bufferView":2,"byteOffset":1536,"componentType":5126,"count":4,"type":"VEC2","name":"accessorUVs"},{"bufferView":0,"byteOffset":576,"componentType":5123,"count":6,"type":"SCALAR","name":"accessorIndices"},{"bufferView":1,"byteOffset":4704,"componentType":5126,"count":4,"max":[0.75,0.0,0.25],"min":[-0.75,0.0,-0.25],"type":"VEC3","name":"accessorPositions"},{"bufferView":1,"byteOffset":4752,"componentType":5126,"count":4,"type":"VEC3","name":"accessorNormals"},{"bufferView":2,"byteOffset":1568,"componentType":5126,"count":4,"type":"VEC2","name":"accessorUVs"},{"bufferView":0,"byteOffset":588,"componentType":5123,"count":6,"type":"SCALAR","name":"accessorIndices"},{"bufferView":1,"byteOffset":4800,"componentType":5126,"count":4,"max":[1.05,0.0,1.485],"min":[-1.05,0.0,-1.485],"type":"VEC3","name":"accessorPositions"},{"bufferView":1,"byteOffset":4848,"componentType":5126,"count":4,"type":"VEC3","name":"accessorNormals"},{"bufferView":2,"byteOffset":1600,"componentType":5126,"count":4,"type":"VEC2","name":"accessorUVs"},{"bufferView":0,"byteOffset":600,"componentType":5123,"count":69,"type":"SCALAR","name":"accessorIndices"},{"bufferView":1,"byteOffset":4896,"componentType":5126,"count":43,"max":[12.941782,0.05000015,5.0047574],"min":[2.916348,-0.000376563054,-5.01944828],"type":"VEC3","name":"accessorPositions"},{"bufferView":1,"byteOffset":5412,"componentType":5126,"count":43,"type":"VEC3","name":"accessorNormals"},{"bufferView":2,"byteOffset":1632,"componentType":5126,"count":43,"type":"VEC2","name":"accessorUVs"},{"bufferView":0,"byteOffset":740,"componentType":5123,"count":6,"type":"SCALAR","name":"accessorIndices"},{"bufferView":1,"byteOffset":5928,"componentType":5126,"count":4,"max":[0.96,0.0,0.539999962],"min":[-0.96,0.0,-0.539999962],"type":"VEC3","name":"accessorPositions"},{"bufferView":1,"byteOffset":5976,"componentType":5126,"count":4,"type":"VEC3","name":"accessorNormals"},{"bufferView":2,"byteOffset":1976,"componentType":5126,"count":4,"type":"VEC2","name":"accessorUVs"},{"bufferView":0,"byteOffset":752,"componentType":5123,"count":426,"type":"SCALAR","name":"accessorIndices"},{"bufferView":1,"byteOffset":6024,"componentType":5126,"count":270,"max":[3.57253718,6.555227,2.02554679],"min":[-10.4524384,-7.455002,-2.03338671],"type":"VEC3","name":"accessorPositions"},{"bufferView":1,"byteOffset":9264,"componentType":5126,"count":270,"type":"VEC3","name":"accessorNormals"},{"bufferView":2,"byteOffset":2008,"componentType":5126,"count":270,"type":"VEC2","name":"accessorUVs"},{"bufferView":0,"byteOffset":1604,"componentType":5123,"count":6,"type":"SCALAR","name":"accessorIndices"},{"bufferView":1,"byteOffset":12504,"componentType":5126,"count":4,"max":[1.0,0.0,1.0],"min":[-1.0,0.0,-1.0],"type":"VEC3","name":"accessorPositions"},{"bufferView":1,"byteOffset":12552,"componentType":5126,"count":4,"type":"VEC3","name":"accessorNormals"},{"bufferView":2,"byteOffset":4168,"componentType":5126,"count":4,"type":"VEC2","name":"accessorUVs"}],"bufferViews":[{"buffer":0,"byteLength":1616,"name":"bufferViewScalar"},{"buffer":0,"byteOffset":1616,"byteLength":12600,"byteStride":12,"name":"bufferViewFloatVec3"},{"buffer":0,"byteOffset":14216,"byteLength":4200,"byteStride":8,"name":"bufferViewFloatVec2"}],"buffers":[{"uri":"stant12.bin","byteLength":18416}],"materials":[{"pbrMetallicRoughness":{"baseColorTexture":{"index":0,"extensions":{"KHR_texture_transform":{"texCoord":0}}},"metallicFactor":0.0,"roughnessFactor":0.5},"doubleSided":true,"name":"matdikyazi3","extras":{"babylonSeparateCullingPass":false}},{"pbrMetallicRoughness":{"baseColorTexture":{"index":1,"extensions":{"KHR_texture_transform":{"texCoord":0}}},"metallicFactor":0.0,"roughnessFactor":0.5},"doubleSided":true,"name":"matdikgorsel9","extras":{"babylonSeparateCullingPass":false}},{"pbrMetallicRoughness":{"baseColorTexture":{"index":2,"extensions":{"KHR_texture_transform":{"texCoord":0}}},"metallicFactor":0.0,"roughnessFactor":0.5},"doubleSided":true,"name":"matdikgorsel7","extras":{"babylonSeparateCullingPass":false}},{"pbrMetallicRoughness":{"baseColorTexture":{"index":3,"extensions":{"KHR_texture_transform":{"texCoord":0}}},"metallicFactor":0.0,"roughnessFactor":0.5},"doubleSided":true,"name":"matlogo3","extras":{"babylonSeparateCullingPass":false}},{"pbrMetallicRoughness":{"baseColorTexture":{"index":4,"extensions":{"KHR_texture_transform":{"texCoord":0}}},"metallicFactor":0.0,"roughnessFactor":0.5},"doubleSided":true,"name":"matdikgorsel6","extras":{"babylonSeparateCullingPass":false}},{"pbrMetallicRoughness":{"baseColorTexture":{"index":5,"extensions":{"KHR_texture_transform":{"texCoord":0}}},"metallicFactor":0.0,"roughnessFactor":0.5},"doubleSided":true,"name":"matdikgorsel5","extras":{"babylonSeparateCullingPass":false}},{"pbrMetallicRoughness":{"baseColorTexture":{"index":6,"extensions":{"KHR_texture_transform":{"texCoord":0}}},"metallicFactor":0.0,"roughnessFactor":0.5},"doubleSided":true,"name":"matdikgorsel4","extras":{"babylonSeparateCullingPass":false}},{"pbrMetallicRoughness":{"baseColorTexture":{"index":7,"extensions":{"KHR_texture_transform":{"texCoord":0}}},"metallicFactor":0.0,"roughnessFactor":0.5},"doubleSided":true,"name":"matdikgorsel3","extras":{"babylonSeparateCullingPass":false}},{"pbrMetallicRoughness":{"baseColorTexture":{"index":8,"extensions":{"KHR_texture_transform":{"texCoord":0}}},"metallicFactor":0.0,"roughnessFactor":0.5},"doubleSided":true,"name":"matdikgorsel2","extras":{"babylonSeparateCullingPass":false}},{"pbrMetallicRoughness":{"baseColorTexture":{"index":9,"extensions":{"KHR_texture_transform":{"texCoord":0}}},"metallicFactor":0.0,"roughnessFactor":0.5},"name":"matgenisgorsel","extras":{"babylonSeparateCullingPass":false}},{"pbrMetallicRoughness":{"baseColorFactor":[0.0134568606,0.0775114745,0.09352518,1.0],"metallicFactor":0.0,"metallicRoughnessTexture":{"index":11,"extensions":{"KHR_texture_transform":{"texCoord":0}}}},"normalTexture":{"index":10,"scale":0.3,"extensions":{"KHR_texture_transform":{"texCoord":0}}},"doubleSided":true,"name":"matrenk2","extras":{"babylonSeparateCullingPass":false}},{"pbrMetallicRoughness":{"baseColorTexture":{"index":12,"extensions":{"KHR_texture_transform":{"texCoord":0}}},"metallicFactor":0.0,"roughnessFactor":0.5},"doubleSided":true,"name":"matdikgorsel1","extras":{"babylonSeparateCullingPass":false}},{"pbrMetallicRoughness":{"baseColorTexture":{"index":13,"extensions":{"KHR_texture_transform":{"texCoord":0}}},"metallicFactor":0.0,"roughnessFactor":0.5},"doubleSided":true,"name":"matlogo2","extras":{"babylonSeparateCullingPass":false}},{"pbrMetallicRoughness":{"baseColorTexture":{"index":14,"extensions":{"KHR_texture_transform":{"texCoord":0}}},"metallicFactor":0.0,"roughnessFactor":0.5},"doubleSided":true,"name":"matlogo1","extras":{"babylonSeparateCullingPass":false}},{"pbrMetallicRoughness":{"baseColorTexture":{"index":15,"extensions":{"KHR_texture_transform":{"texCoord":0}}},"metallicFactor":0.0,"roughnessFactor":0.5},"doubleSided":true,"name":"matdikyazi2","extras":{"babylonSeparateCullingPass":false}},{"pbrMetallicRoughness":{"baseColorTexture":{"index":16,"extensions":{"KHR_texture_transform":{"texCoord":0}}},"metallicFactor":0.0,"roughnessFactor":0.5},"doubleSided":true,"name":"matdikyazi1","extras":{"babylonSeparateCullingPass":false}},{"pbrMetallicRoughness":{"baseColorTexture":{"index":17,"extensions":{"KHR_texture_transform":{"texCoord":0}}},"metallicFactor":0.0,"roughnessFactor":0.5},"doubleSided":true,"name":"matdikgorsel8","extras":{"babylonSeparateCullingPass":false}},{"pbrMetallicRoughness":{"baseColorFactor":[0.0980392247,0.0980392247,0.0980392247,1.0],"metallicFactor":0.0,"metallicRoughnessTexture":{"index":11,"extensions":{"KHR_texture_transform":{"texCoord":0}}}},"normalTexture":{"index":10,"scale":0.3,"extensions":{"KHR_texture_transform":{"texCoord":0}}},"doubleSided":true,"name":"matzemin","extras":{"babylonSeparateCullingPass":false}},{"pbrMetallicRoughness":{"baseColorTexture":{"index":20,"extensions":{"KHR_texture_transform":{"texCoord":0}}},"metallicFactor":0.0,"roughnessFactor":0.5},"doubleSided":true,"name":"matvideo1","extras":{"babylonSeparateCullingPass":false}},{"pbrMetallicRoughness":{"baseColorFactor":[0.549019635,0.549019635,0.549019635,1.0],"metallicFactor":0.0,"metallicRoughnessTexture":{"index":11,"extensions":{"KHR_texture_transform":{"texCoord":0}}}},"normalTexture":{"index":10,"scale":0.3,"extensions":{"KHR_texture_transform":{"texCoord":0}}},"doubleSided":true,"name":"matrenk1","extras":{"babylonSeparateCullingPass":false}},{"pbrMetallicRoughness":{"baseColorTexture":{"index":23,"extensions":{"KHR_texture_transform":{"texCoord":0}}},"metallicFactor":0.0,"roughnessFactor":0.5},"doubleSided":true,"name":"matgorsel1","extras":{"babylonSeparateCullingPass":false}}],"textures":[{"sampler":0,"source":0,"name":"matdikyazi3.png"},{"sampler":0,"source":1,"name":"matdikgorsel9.png"},{"sampler":0,"source":2,"name":"matdikgorsel7.png"},{"sampler":0,"source":3,"name":"matlogo3.png"},{"sampler":0,"source":4,"name":"matdikgorsel6.png"},{"sampler":0,"source":5,"name":"matdikgorsel5.png"},{"sampler":0,"source":6,"name":"matdikgorsel4.png"},{"sampler":0,"source":7,"name":"matdikgorsel3.png"},{"sampler":0,"source":8,"name":"matdikgorsel2.png"},{"sampler":0,"source":9,"name":"matgenisgorsel.png"},{"sampler":0,"source":10,"name":"matrenknormal.png"},{"sampler":0,"source":11,"name":"matrenkroughness0.png"},{"sampler":0,"source":12,"name":"matdikgorsel1.png"},{"sampler":0,"source":13,"name":"matlogo2.png"},{"sampler":0,"source":14,"name":"matlogo1.png"},{"sampler":0,"source":15,"name":"matdikyazi2.png"},{"sampler":0,"source":16,"name":"matdikyazi1.png"},{"sampler":0,"source":17,"name":"matdikgorsel8.png"},{"sampler":0,"source":10,"name":"matrenknormal.png"},{"sampler":0,"source":11,"name":"matrenkroughness0.png"},{"sampler":0,"source":18,"name":"matvideo1.png"},{"sampler":0,"source":10,"name":"matrenknormal.png"},{"sampler":0,"source":11,"name":"matrenkroughness0.png"},{"sampler":0,"source":19,"name":"matgorsel1.png"}],"images":[{"uri":"./matdikyazi3.png"},{"uri":"./matdikgorsel9.png"},{"uri":"./matdikgorsel7.png"},{"uri":"./matlogo3.png"},{"uri":"./matdikgorsel6.png"},{"uri":"./matdikgorsel5.png"},{"uri":"./matdikgorsel4.png"},{"uri":"./matdikgorsel3.png"},{"uri":"./matdikgorsel2.png"},{"uri":"./matgenisgorsel.png"},{"uri":"./matrenknormal.png"},{"uri":"./matrenkroughness0.png"},{"uri":"./matdikgorsel1.png"},{"uri":"./matlogo2.png"},{"uri":"./matlogo1.png"},{"uri":"./matdikyazi2.png"},{"uri":"./matdikyazi1.png"},{"uri":"./matdikgorsel8.png"},{"uri":"./matvideo1.png"},{"uri":"./matgorsel1.png"}],"samplers":[{"magFilter":9729,"minFilter":9987}]}