{"asset":{"version":"2.0","generator":"babylon.js glTF exporter for 3dsmax 2018 v20210615.1"},"extensionsUsed":["KHR_texture_transform"],"extensionsRequired":["KHR_texture_transform"],"scene":0,"scenes":[{"nodes":[0]}],"nodes":[{"children":[1,2,3,4,5,6,7,8,9,10,11,12,13,14,15,16,17,18,19,20,21],"translation":[1.90734859E-08,0.0,-5.72204577E-08],"name":"Group001"},{"mesh":0,"translation":[-0.170596749,0.3912808,0.3333454],"rotation":[0.0,-0.7071068,0.0,0.7071067],"scale":[0.099999994,0.099999994,0.099999994],"name":"modrenk2"},{"mesh":1,"translation":[-0.500983357,0.356181026,-0.357879639],"rotation":[0.50000006,-0.49999994,0.5000001,0.499999881],"scale":[0.253082633,0.253082633,0.253082633],"name":"modlogo1"},{"mesh":2,"translation":[0.276996672,0.153579667,-0.4476583],"rotation":[-0.7071068,0.7071067,-3.38090871E-08,7.15580342E-08],"scale":[0.166926786,0.166926771,0.166926771],"name":"moddikyazi2"},{"mesh":3,"translation":[0.15168108,0.154574528,0.37683022],"rotation":[-3.6808342E-07,-0.7071067,0.7071068,-3.680834E-07],"scale":[0.053094767,0.053094767,0.053094767],"name":"moddikgorsel3"},{"mesh":4,"translation":[-0.045802515,0.154574528,0.37683022],"rotation":[-3.6808342E-07,-0.7071067,0.7071068,-3.680834E-07],"scale":[0.053094767,0.053094767,0.053094767],"name":"moddikgorsel2"},{"mesh":5,"translation":[-0.239583567,0.154574528,0.37683022],"rotation":[-3.6808342E-07,-0.7071067,0.7071068,-3.680834E-07],"scale":[0.053094767,0.053094767,0.053094767],"name":"moddikgorsel1"},{"mesh":6,"translation":[-0.195248634,0.359217525,-0.5008966],"rotation":[-3.6808342E-07,-0.7071067,0.7071068,-3.680834E-07],"scale":[0.06652918,0.06652918,0.06652918],"name":"modlogo4"},{"mesh":7,"translation":[0.382699281,0.171153352,-0.5020061],"rotation":[-3.6808342E-07,-0.7071067,0.7071068,-3.680834E-07],"scale":[0.0892294049,0.0892294049,0.0892294049],"name":"modlogo2"},{"mesh":8,"translation":[-0.0433097258,0.165985391,0.455178],"rotation":[0.498434871,-8.853982E-16,-1.539972E-15,0.866927147],"scale":[0.0514794663,0.05147947,0.05147947],"name":"moddikgorsel4"},{"mesh":9,"translation":[-0.235343263,0.1680837,0.4543126],"rotation":[0.498432249,0.0,0.0,0.8669287],"scale":[0.0514794663,0.0514794625,0.0514794625],"name":"moddikgorsel5"},{"mesh":10,"translation":[0.322217315,0.144751772,0.298857421],"rotation":[0.50000006,-0.49999994,0.5000001,0.499999881],"scale":[0.0571994074,0.0571994074,0.0571994074],"name":"moddikgorsel6"},{"mesh":11,"translation":[0.322217315,0.14468497,-0.293251365],"rotation":[0.50000006,-0.49999994,0.5000001,0.499999881],"scale":[0.0571994074,0.0571994074,0.0571994074],"name":"moddikgorsel7"},{"mesh":12,"translation":[0.474319667,0.161451057,0.00277368538],"rotation":[0.50000006,-0.49999994,0.5000001,0.499999881],"scale":[0.125154987,0.125154987,0.125154987],"name":"modvideo1"},{"mesh":13,"translation":[0.3887593,0.232503444,0.502006233],"rotation":[-0.5000003,-0.5000003,-0.499999583,-0.499999821],"scale":[0.274181664,0.274181664,0.274181664],"name":"moddikyazi1"},{"mesh":14,"translation":[-0.440251827,0.198156178,0.439103752],"rotation":[0.4923151,-7.33606376E-09,-1.29702178E-08,0.870417058],"scale":[0.0535129681,0.053512983,0.053512983],"name":"modlogo3"},{"mesh":15,"translation":[0.5031783,0.100000106,0.400914073],"rotation":[-0.4999997,-0.5000003,0.5000003,-0.4999997],"scale":[0.099999994,0.099999994,0.099999994],"name":"modgenisgorsel"},{"mesh":16,"translation":[0.3023769,1.14440915E-07,0.00091407774],"rotation":[0.0,-0.7071068,0.0,0.7071067],"scale":[0.099999994,0.099999994,0.099999994],"name":"modzemin"},{"mesh":17,"translation":[-0.4405967,0.252446979,0.2063231],"rotation":[0.50000006,-0.49999994,0.5000001,0.499999881],"scale":[0.099999994,0.099999994,0.099999994],"name":"modrenk1"},{"mesh":18,"translation":[0.154315159,0.1680837,0.4543126],"rotation":[0.498432249,0.0,0.0,0.8669287],"scale":[0.0514794663,0.0514794625,0.0514794625],"name":"moddikgorsel8"},{"mesh":19,"translation":[-0.5016011,0.317497075,-0.21629101],"rotation":[-0.499999851,0.5000002,0.5,0.5],"scale":[0.0868087262,0.08680871,0.08680871],"name":"modyazi1"},{"mesh":20,"translation":[-0.344022959,0.317497075,-0.499484],"rotation":[-0.70710665,0.0,0.0,0.7071069],"scale":[0.0868087262,0.08680871,0.08680871],"name":"modyazi2"}],"meshes":[{"primitives":[{"attributes":{"POSITION":1,"NORMAL":2,"TEXCOORD_0":3},"indices":0,"material":0}],"name":"modrenk2"},{"primitives":[{"attributes":{"POSITION":5,"NORMAL":6,"TEXCOORD_0":7},"indices":4,"material":1}],"name":"modlogo1"},{"primitives":[{"attributes":{"POSITION":9,"NORMAL":10,"TEXCOORD_0":11},"indices":8,"material":2}],"name":"moddikyazi2"},{"primitives":[{"attributes":{"POSITION":13,"NORMAL":14,"TEXCOORD_0":15},"indices":12,"material":3}],"name":"moddikgorsel3"},{"primitives":[{"attributes":{"POSITION":17,"NORMAL":18,"TEXCOORD_0":19},"indices":16,"material":4}],"name":"moddikgorsel2"},{"primitives":[{"attributes":{"POSITION":21,"NORMAL":22,"TEXCOORD_0":23},"indices":20,"material":5}],"name":"moddikgorsel1"},{"primitives":[{"attributes":{"POSITION":25,"NORMAL":26,"TEXCOORD_0":27},"indices":24,"material":6}],"name":"modlogo4"},{"primitives":[{"attributes":{"POSITION":29,"NORMAL":30,"TEXCOORD_0":31},"indices":28,"material":7}],"name":"modlogo2"},{"primitives":[{"attributes":{"POSITION":33,"NORMAL":34,"TEXCOORD_0":35},"indices":32,"material":8}],"name":"moddikgorsel4"},{"primitives":[{"attributes":{"POSITION":37,"NORMAL":38,"TEXCOORD_0":39},"indices":36,"material":9}],"name":"moddikgorsel5"},{"primitives":[{"attributes":{"POSITION":41,"NORMAL":42,"TEXCOORD_0":43},"indices":40,"material":10}],"name":"moddikgorsel6"},{"primitives":[{"attributes":{"POSITION":45,"NORMAL":46,"TEXCOORD_0":47},"indices":44,"material":11}],"name":"moddikgorsel7"},{"primitives":[{"attributes":{"POSITION":49,"NORMAL":50,"TEXCOORD_0":51},"indices":48,"material":12}],"name":"modvideo1"},{"primitives":[{"attributes":{"POSITION":53,"NORMAL":54,"TEXCOORD_0":55},"indices":52,"material":13}],"name":"moddikyazi1"},{"primitives":[{"attributes":{"POSITION":57,"NORMAL":58,"TEXCOORD_0":59},"indices":56,"material":14}],"name":"modlogo3"},{"primitives":[{"attributes":{"POSITION":61,"NORMAL":62,"TEXCOORD_0":63},"indices":60,"material":15}],"name":"modgenisgorsel"},{"primitives":[{"attributes":{"POSITION":65,"NORMAL":66,"TEXCOORD_0":67},"indices":64,"material":16}],"name":"modzemin"},{"primitives":[{"attributes":{"POSITION":69,"NORMAL":70,"TEXCOORD_0":71},"indices":68,"material":17}],"name":"modrenk1"},{"primitives":[{"attributes":{"POSITION":73,"NORMAL":74,"TEXCOORD_0":75},"indices":72,"material":18}],"name":"moddikgorsel8"},{"primitives":[{"attributes":{"POSITION":77,"NORMAL":78,"TEXCOORD_0":79},"indices":76,"material":19}],"name":"modyazi1"},{"primitives":[{"attributes":{"POSITION":81,"NORMAL":82,"TEXCOORD_0":83},"indices":80,"material":20}],"name":"modyazi2"}],"accessors":[{"bufferView":0,"componentType":5123,"count":3624,"type":"SCALAR","name":"accessorIndices"},{"bufferView":1,"componentType":5126,"count":1468,"max":[1.30832863,0.217776239,3.32581973],"min":[-8.324311,-3.91280651,-6.597534],"type":"VEC3","name":"accessorPositions"},{"bufferView":1,"byteOffset":17616,"componentType":5126,"count":1468,"type":"VEC3","name":"accessorNormals"},{"bufferView":2,"componentType":5126,"count":1468,"type":"VEC2","name":"accessorUVs"},{"bufferView":0,"byteOffset":7248,"componentType":5123,"count":6,"type":"SCALAR","name":"accessorIndices"},{"bufferView":1,"byteOffset":35232,"componentType":5126,"count":4,"max":[0.25,0.0,0.25],"min":[-0.25,0.0,-0.25],"type":"VEC3","name":"accessorPositions"},{"bufferView":1,"byteOffset":35280,"componentType":5126,"count":4,"type":"VEC3","name":"accessorNormals"},{"bufferView":2,"byteOffset":11744,"componentType":5126,"count":4,"type":"VEC2","name":"accessorUVs"},{"bufferView":0,"byteOffset":7260,"componentType":5123,"count":6,"type":"SCALAR","name":"accessorIndices"},{"bufferView":1,"byteOffset":35328,"componentType":5126,"count":4,"max":[0.75,0.0,0.25],"min":[-0.75,0.0,-0.25],"type":"VEC3","name":"accessorPositions"},{"bufferView":1,"byteOffset":35376,"componentType":5126,"count":4,"type":"VEC3","name":"accessorNormals"},{"bufferView":2,"byteOffset":11776,"componentType":5126,"count":4,"type":"VEC2","name":"accessorUVs"},{"bufferView":0,"byteOffset":7272,"componentType":5123,"count":6,"type":"SCALAR","name":"accessorIndices"},{"bufferView":1,"byteOffset":35424,"componentType":5126,"count":4,"max":[1.05,0.0,1.485],"min":[-1.05,0.0,-1.485],"type":"VEC3","name":"accessorPositions"},{"bufferView":1,"byteOffset":35472,"componentType":5126,"count":4,"type":"VEC3","name":"accessorNormals"},{"bufferView":2,"byteOffset":11808,"componentType":5126,"count":4,"type":"VEC2","name":"accessorUVs"},{"bufferView":0,"byteOffset":7284,"componentType":5123,"count":6,"type":"SCALAR","name":"accessorIndices"},{"bufferView":1,"byteOffset":35520,"componentType":5126,"count":4,"max":[1.05,0.0,1.485],"min":[-1.05,0.0,-1.485],"type":"VEC3","name":"accessorPositions"},{"bufferView":1,"byteOffset":35568,"componentType":5126,"count":4,"type":"VEC3","name":"accessorNormals"},{"bufferView":2,"byteOffset":11840,"componentType":5126,"count":4,"type":"VEC2","name":"accessorUVs"},{"bufferView":0,"byteOffset":7296,"componentType":5123,"count":6,"type":"SCALAR","name":"accessorIndices"},{"bufferView":1,"byteOffset":35616,"componentType":5126,"count":4,"max":[1.05,0.0,1.485],"min":[-1.05,0.0,-1.485],"type":"VEC3","name":"accessorPositions"},{"bufferView":1,"byteOffset":35664,"componentType":5126,"count":4,"type":"VEC3","name":"accessorNormals"},{"bufferView":2,"byteOffset":11872,"componentType":5126,"count":4,"type":"VEC2","name":"accessorUVs"},{"bufferView":0,"byteOffset":7308,"componentType":5123,"count":6,"type":"SCALAR","name":"accessorIndices"},{"bufferView":1,"byteOffset":35712,"componentType":5126,"count":4,"max":[1.0,0.0,1.0],"min":[-1.0,0.0,-1.0],"type":"VEC3","name":"accessorPositions"},{"bufferView":1,"byteOffset":35760,"componentType":5126,"count":4,"type":"VEC3","name":"accessorNormals"},{"bufferView":2,"byteOffset":11904,"componentType":5126,"count":4,"type":"VEC2","name":"accessorUVs"},{"bufferView":0,"byteOffset":7320,"componentType":5123,"count":6,"type":"SCALAR","name":"accessorIndices"},{"bufferView":1,"byteOffset":35808,"componentType":5126,"count":4,"max":[1.0,0.0,1.0],"min":[-1.0,0.0,-1.0],"type":"VEC3","name":"accessorPositions"},{"bufferView":1,"byteOffset":35856,"componentType":5126,"count":4,"type":"VEC3","name":"accessorNormals"},{"bufferView":2,"byteOffset":11936,"componentType":5126,"count":4,"type":"VEC2","name":"accessorUVs"},{"bufferView":0,"byteOffset":7332,"componentType":5123,"count":6,"type":"SCALAR","name":"accessorIndices"},{"bufferView":1,"byteOffset":35904,"componentType":5126,"count":4,"max":[1.05,0.0,1.485],"min":[-1.05,0.0,-1.485],"type":"VEC3","name":"accessorPositions"},{"bufferView":1,"byteOffset":35952,"componentType":5126,"count":4,"type":"VEC3","name":"accessorNormals"},{"bufferView":2,"byteOffset":11968,"componentType":5126,"count":4,"type":"VEC2","name":"accessorUVs"},{"bufferView":0,"byteOffset":7344,"componentType":5123,"count":6,"type":"SCALAR","name":"accessorIndices"},{"bufferView":1,"byteOffset":36000,"componentType":5126,"count":4,"max":[1.05,0.0,1.485],"min":[-1.05,0.0,-1.485],"type":"VEC3","name":"accessorPositions"},{"bufferView":1,"byteOffset":36048,"componentType":5126,"count":4,"type":"VEC3","name":"accessorNormals"},{"bufferView":2,"byteOffset":12000,"componentType":5126,"count":4,"type":"VEC2","name":"accessorUVs"},{"bufferView":0,"byteOffset":7356,"componentType":5123,"count":6,"type":"SCALAR","name":"accessorIndices"},{"bufferView":1,"byteOffset":36096,"componentType":5126,"count":4,"max":[1.05,0.0,1.485],"min":[-1.05,0.0,-1.485],"type":"VEC3","name":"accessorPositions"},{"bufferView":1,"byteOffset":36144,"componentType":5126,"count":4,"type":"VEC3","name":"accessorNormals"},{"bufferView":2,"byteOffset":12032,"componentType":5126,"count":4,"type":"VEC2","name":"accessorUVs"},{"bufferView":0,"byteOffset":7368,"componentType":5123,"count":6,"type":"SCALAR","name":"accessorIndices"},{"bufferView":1,"byteOffset":36192,"componentType":5126,"count":4,"max":[1.05,0.0,1.485],"min":[-1.05,0.0,-1.485],"type":"VEC3","name":"accessorPositions"},{"bufferView":1,"byteOffset":36240,"componentType":5126,"count":4,"type":"VEC3","name":"accessorNormals"},{"bufferView":2,"byteOffset":12064,"componentType":5126,"count":4,"type":"VEC2","name":"accessorUVs"},{"bufferView":0,"byteOffset":7380,"componentType":5123,"count":6,"type":"SCALAR","name":"accessorIndices"},{"bufferView":1,"byteOffset":36288,"componentType":5126,"count":4,"max":[0.9599999,0.0,0.539999962],"min":[-0.9599999,0.0,-0.539999962],"type":"VEC3","name":"accessorPositions"},{"bufferView":1,"byteOffset":36336,"componentType":5126,"count":4,"type":"VEC3","name":"accessorNormals"},{"bufferView":2,"byteOffset":12096,"componentType":5126,"count":4,"type":"VEC2","name":"accessorUVs"},{"bufferView":0,"byteOffset":7392,"componentType":5123,"count":6,"type":"SCALAR","name":"accessorIndices"},{"bufferView":1,"byteOffset":36384,"componentType":5126,"count":4,"max":[0.75,0.0,0.25],"min":[-0.75,0.0,-0.25],"type":"VEC3","name":"accessorPositions"},{"bufferView":1,"byteOffset":36432,"componentType":5126,"count":4,"type":"VEC3","name":"accessorNormals"},{"bufferView":2,"byteOffset":12128,"componentType":5126,"count":4,"type":"VEC2","name":"accessorUVs"},{"bufferView":0,"byteOffset":7404,"componentType":5123,"count":6,"type":"SCALAR","name":"accessorIndices"},{"bufferView":1,"byteOffset":36480,"componentType":5126,"count":4,"max":[1.0,0.0,1.0],"min":[-1.0,0.0,-1.0],"type":"VEC3","name":"accessorPositions"},{"bufferView":1,"byteOffset":36528,"componentType":5126,"count":4,"type":"VEC3","name":"accessorNormals"},{"bufferView":2,"byteOffset":12160,"componentType":5126,"count":4,"type":"VEC2","name":"accessorUVs"},{"bufferView":0,"byteOffset":7416,"componentType":5123,"count":6,"type":"SCALAR","name":"accessorIndices"},{"bufferView":1,"byteOffset":36576,"componentType":5126,"count":4,"max":[9.00832,4.85413648E-06,1.0],"min":[-1.0,0.0,-3.50000238],"type":"VEC3","name":"accessorPositions"},{"bufferView":1,"byteOffset":36624,"componentType":5126,"count":4,"type":"VEC3","name":"accessorNormals"},{"bufferView":2,"byteOffset":12192,"componentType":5126,"count":4,"type":"VEC2","name":"accessorUVs"},{"bufferView":0,"byteOffset":7428,"componentType":5123,"count":153,"type":"SCALAR","name":"accessorIndices"},{"bufferView":1,"byteOffset":36672,"componentType":5126,"count":84,"max":[4.99999952,0.0500000753,8.02973652],"min":[-4.99999952,-3.0279157E-08,-2.0072608],"type":"VEC3","name":"accessorPositions"},{"bufferView":1,"byteOffset":37680,"componentType":5126,"count":84,"type":"VEC3","name":"accessorNormals"},{"bufferView":2,"byteOffset":12224,"componentType":5126,"count":84,"type":"VEC2","name":"accessorUVs"},{"bufferView":0,"byteOffset":7736,"componentType":5123,"count":2490,"type":"SCALAR","name":"accessorIndices"},{"bufferView":1,"byteOffset":38688,"componentType":5126,"count":981,"max":[2.93758726,0.6258203,2.474493],"min":[-7.056268,-9.407569,-1.97553122],"type":"VEC3","name":"accessorPositions"},{"bufferView":1,"byteOffset":50460,"componentType":5126,"count":981,"type":"VEC3","name":"accessorNormals"},{"bufferView":2,"byteOffset":12896,"componentType":5126,"count":981,"type":"VEC2","name":"accessorUVs"},{"bufferView":0,"byteOffset":12716,"componentType":5123,"count":6,"type":"SCALAR","name":"accessorIndices"},{"bufferView":1,"byteOffset":62232,"componentType":5126,"count":4,"max":[1.05,0.0,1.485],"min":[-1.05,0.0,-1.485],"type":"VEC3","name":"accessorPositions"},{"bufferView":1,"byteOffset":62280,"componentType":5126,"count":4,"type":"VEC3","name":"accessorNormals"},{"bufferView":2,"byteOffset":20744,"componentType":5126,"count":4,"type":"VEC2","name":"accessorUVs"},{"bufferView":0,"byteOffset":12728,"componentType":5123,"count":6,"type":"SCALAR","name":"accessorIndices"},{"bufferView":1,"byteOffset":62328,"componentType":5126,"count":4,"max":[0.75,0.0,0.25],"min":[-0.75,0.0,-0.25],"type":"VEC3","name":"accessorPositions"},{"bufferView":1,"byteOffset":62376,"componentType":5126,"count":4,"type":"VEC3","name":"accessorNormals"},{"bufferView":2,"byteOffset":20776,"componentType":5126,"count":4,"type":"VEC2","name":"accessorUVs"},{"bufferView":0,"byteOffset":12740,"componentType":5123,"count":6,"type":"SCALAR","name":"accessorIndices"},{"bufferView":1,"byteOffset":62424,"componentType":5126,"count":4,"max":[0.75,0.0,0.25],"min":[-0.75,0.0,-0.25],"type":"VEC3","name":"accessorPositions"},{"bufferView":1,"byteOffset":62472,"componentType":5126,"count":4,"type":"VEC3","name":"accessorNormals"},{"bufferView":2,"byteOffset":20808,"componentType":5126,"count":4,"type":"VEC2","name":"accessorUVs"}],"bufferViews":[{"buffer":0,"byteLength":12752,"name":"bufferViewScalar"},{"buffer":0,"byteOffset":12752,"byteLength":62520,"byteStride":12,"name":"bufferViewFloatVec3"},{"buffer":0,"byteOffset":75272,"byteLength":20840,"byteStride":8,"name":"bufferViewFloatVec2"}],"buffers":[{"uri":"stant5.bin","byteLength":96112}],"materials":[{"pbrMetallicRoughness":{"baseColorFactor":[0.1962826,0.35707733,0.3637771,1.0],"metallicFactor":0.0,"metallicRoughnessTexture":{"index":1,"extensions":{"KHR_texture_transform":{"texCoord":0}}}},"normalTexture":{"index":0,"scale":0.3,"extensions":{"KHR_texture_transform":{"texCoord":0}}},"doubleSided":true,"name":"matrenk2","extras":{"babylonSeparateCullingPass":false}},{"pbrMetallicRoughness":{"baseColorTexture":{"index":2,"extensions":{"KHR_texture_transform":{"texCoord":0}}},"metallicFactor":0.0,"roughnessFactor":0.5},"doubleSided":true,"name":"matlogo1","extras":{"babylonSeparateCullingPass":false}},{"pbrMetallicRoughness":{"baseColorTexture":{"index":3,"extensions":{"KHR_texture_transform":{"texCoord":0}}},"metallicFactor":0.0,"roughnessFactor":0.5},"doubleSided":true,"name":"matdikyazi2","extras":{"babylonSeparateCullingPass":false}},{"pbrMetallicRoughness":{"baseColorTexture":{"index":4,"extensions":{"KHR_texture_transform":{"texCoord":0}}},"metallicFactor":0.0,"roughnessFactor":0.5},"doubleSided":true,"name":"matdikgorsel3","extras":{"babylonSeparateCullingPass":false}},{"pbrMetallicRoughness":{"baseColorTexture":{"index":5,"extensions":{"KHR_texture_transform":{"texCoord":0}}},"metallicFactor":0.0,"roughnessFactor":0.5},"doubleSided":true,"name":"matdikgorsel2","extras":{"babylonSeparateCullingPass":false}},{"pbrMetallicRoughness":{"baseColorTexture":{"index":6,"extensions":{"KHR_texture_transform":{"texCoord":0}}},"metallicFactor":0.0,"roughnessFactor":0.5},"doubleSided":true,"name":"matdikgorsel1","extras":{"babylonSeparateCullingPass":false}},{"pbrMetallicRoughness":{"baseColorTexture":{"index":7,"extensions":{"KHR_texture_transform":{"texCoord":0}}},"metallicFactor":0.0,"roughnessFactor":0.5},"doubleSided":true,"name":"matlogo4","extras":{"babylonSeparateCullingPass":false}},{"pbrMetallicRoughness":{"baseColorTexture":{"index":8,"extensions":{"KHR_texture_transform":{"texCoord":0}}},"metallicFactor":0.0,"roughnessFactor":0.5},"doubleSided":true,"name":"matlogo2","extras":{"babylonSeparateCullingPass":false}},{"pbrMetallicRoughness":{"baseColorTexture":{"index":9,"extensions":{"KHR_texture_transform":{"texCoord":0}}},"metallicFactor":0.0,"roughnessFactor":0.5},"doubleSided":true,"name":"matdikgorsel4","extras":{"babylonSeparateCullingPass":false}},{"pbrMetallicRoughness":{"baseColorTexture":{"index":10,"extensions":{"KHR_texture_transform":{"texCoord":0}}},"metallicFactor":0.0,"roughnessFactor":0.5},"doubleSided":true,"name":"matdikgorsel5","extras":{"babylonSeparateCullingPass":false}},{"pbrMetallicRoughness":{"baseColorTexture":{"index":11,"extensions":{"KHR_texture_transform":{"texCoord":0}}},"metallicFactor":0.0,"roughnessFactor":0.5},"doubleSided":true,"name":"matdikgorsel6","extras":{"babylonSeparateCullingPass":false}},{"pbrMetallicRoughness":{"baseColorTexture":{"index":12,"extensions":{"KHR_texture_transform":{"texCoord":0}}},"metallicFactor":0.0,"roughnessFactor":0.5},"doubleSided":true,"name":"matdikgorsel7","extras":{"babylonSeparateCullingPass":false}},{"pbrMetallicRoughness":{"baseColorTexture":{"index":13,"extensions":{"KHR_texture_transform":{"texCoord":0}}},"metallicFactor":0.0,"roughnessFactor":0.5},"doubleSided":true,"name":"matvideo1","extras":{"babylonSeparateCullingPass":false}},{"pbrMetallicRoughness":{"baseColorTexture":{"index":14,"extensions":{"KHR_texture_transform":{"texCoord":0}}},"metallicFactor":0.0,"roughnessFactor":0.5},"doubleSided":true,"name":"matdikyazi1","extras":{"babylonSeparateCullingPass":false}},{"pbrMetallicRoughness":{"baseColorTexture":{"index":15,"extensions":{"KHR_texture_transform":{"texCoord":0}}},"metallicFactor":0.0,"roughnessFactor":0.5},"doubleSided":true,"name":"matlogo3","extras":{"babylonSeparateCullingPass":false}},{"pbrMetallicRoughness":{"baseColorTexture":{"index":16,"extensions":{"KHR_texture_transform":{"texCoord":0}}},"metallicFactor":0.0,"roughnessFactor":0.5},"name":"matgenisgorsel","extras":{"babylonSeparateCullingPass":false}},{"pbrMetallicRoughness":{"baseColorFactor":[0.7803922,0.7803922,0.7803922,1.0],"metallicFactor":0.0,"metallicRoughnessTexture":{"index":1,"extensions":{"KHR_texture_transform":{"texCoord":0}}}},"normalTexture":{"index":0,"scale":0.3,"extensions":{"KHR_texture_transform":{"texCoord":0}}},"doubleSided":true,"name":"matzemin","extras":{"babylonSeparateCullingPass":false}},{"pbrMetallicRoughness":{"baseColorFactor":[0.007038971,0.05755396,0.05652304,1.0],"metallicFactor":0.0,"metallicRoughnessTexture":{"index":1,"extensions":{"KHR_texture_transform":{"texCoord":0}}}},"normalTexture":{"index":0,"scale":0.3,"extensions":{"KHR_texture_transform":{"texCoord":0}}},"doubleSided":true,"name":"matrenk1","extras":{"babylonSeparateCullingPass":false}},{"pbrMetallicRoughness":{"baseColorTexture":{"index":21,"extensions":{"KHR_texture_transform":{"texCoord":0}}},"metallicFactor":0.0,"roughnessFactor":0.5},"doubleSided":true,"name":"matdikgorsel8","extras":{"babylonSeparateCullingPass":false}},{"pbrMetallicRoughness":{"baseColorTexture":{"index":22,"extensions":{"KHR_texture_transform":{"texCoord":0}}},"metallicFactor":0.0,"roughnessFactor":0.5},"doubleSided":true,"name":"matyazi1","extras":{"babylonSeparateCullingPass":false}},{"pbrMetallicRoughness":{"baseColorTexture":{"index":23,"extensions":{"KHR_texture_transform":{"texCoord":0}}},"metallicFactor":0.0,"roughnessFactor":0.5},"doubleSided":true,"name":"matyazi2","extras":{"babylonSeparateCullingPass":false}}],"textures":[{"sampler":0,"source":0,"name":"matrenknormal.png"},{"sampler":0,"source":1,"name":"matrenkroughness0.png"},{"sampler":0,"source":2,"name":"matlogo1.png"},{"sampler":0,"source":3,"name":"matdikyazi2.png"},{"sampler":0,"source":4,"name":"matdikgorsel3.png"},{"sampler":0,"source":5,"name":"matdikgorsel2.png"},{"sampler":0,"source":6,"name":"matdikgorsel1.png"},{"sampler":0,"source":7,"name":"matlogo4.png"},{"sampler":0,"source":8,"name":"matlogo2.png"},{"sampler":0,"source":9,"name":"matdikgorsel4.png"},{"sampler":0,"source":10,"name":"matdikgorsel5.png"},{"sampler":0,"source":11,"name":"matdikgorsel6.png"},{"sampler":0,"source":12,"name":"matdikgorsel7.png"},{"sampler":0,"source":13,"name":"matvideo1.png"},{"sampler":0,"source":14,"name":"matdikyazi1.png"},{"sampler":0,"source":15,"name":"matlogo3.png"},{"sampler":0,"source":16,"name":"matgenisgorsel.png"},{"sampler":0,"source":0,"name":"matrenknormal.png"},{"sampler":0,"source":1,"name":"matrenkroughness0.png"},{"sampler":0,"source":0,"name":"matrenknormal.png"},{"sampler":0,"source":1,"name":"matrenkroughness0.png"},{"sampler":0,"source":17,"name":"matdikgorsel8.png"},{"sampler":0,"source":18,"name":"matyazi1.png"},{"sampler":0,"source":19,"name":"matyazi2.png"}],"images":[{"uri":"./matrenknormal.png"},{"uri":"./matrenkroughness0.png"},{"uri":"./matlogo1.png"},{"uri":"./matdikyazi2.png"},{"uri":"./matdikgorsel3.png"},{"uri":"./matdikgorsel2.png"},{"uri":"./matdikgorsel1.png"},{"uri":"./matlogo4.png"},{"uri":"./matlogo2.png"},{"uri":"./matdikgorsel4.png"},{"uri":"./matdikgorsel5.png"},{"uri":"./matdikgorsel6.png"},{"uri":"./matdikgorsel7.png"},{"uri":"./matvideo1.png"},{"uri":"./matdikyazi1.png"},{"uri":"./matlogo3.png"},{"uri":"./matgenisgorsel.png"},{"uri":"./matdikgorsel8.png"},{"uri":"./matyazi1.png"},{"uri":"./matyazi2.png"}],"samplers":[{"magFilter":9729,"minFilter":9987}]}