{"asset":{"version":"2.0","generator":"babylon.js glTF exporter for 3dsmax 2018 v20210615.1"},"extensionsUsed":["KHR_texture_transform"],"extensionsRequired":["KHR_texture_transform"],"scene":0,"scenes":[{"nodes":[0]}],"nodes":[{"children":[1,2,3,4,5,6,7,8,9,10,11,12,13,14,15,16,17,18],"translation":[1.90734859E-08,0.0,-3.81469718E-08],"name":"Group001"},{"mesh":0,"translation":[-0.287368357,0.06239376,-0.4057096],"rotation":[0.499999762,-0.500000238,0.50000006,0.49999994],"name":"modlogo1"},{"mesh":1,"translation":[0.329100341,0.230387688,0.499618262],"rotation":[0.7071068,0.0,0.0,0.7071067],"scale":[0.120653875,0.120653875,0.120653875],"name":"modlogo2"},{"mesh":2,"translation":[0.468233019,0.2199789,0.347365141],"rotation":[0.50000006,-0.49999994,0.5000001,0.499999881],"scale":[0.08384367,0.08384367,0.08384367],"name":"moddikgorsel5"},{"mesh":3,"translation":[0.468232721,0.2199789,0.122390248],"rotation":[0.50000006,-0.49999994,0.5000001,0.499999881],"scale":[0.08384367,0.08384367,0.08384367],"name":"moddikgorsel4"},{"mesh":4,"translation":[0.468232721,0.2199789,-0.105328865],"rotation":[0.50000006,-0.49999994,0.5000001,0.499999881],"scale":[0.08384367,0.08384367,0.08384367],"name":"moddikgorsel3"},{"mesh":5,"translation":[0.468233019,0.2199789,-0.333527178],"rotation":[0.50000006,-0.49999994,0.5000001,0.499999881],"scale":[0.08384367,0.08384367,0.08384367],"name":"moddikgorsel2"},{"mesh":6,"translation":[0.4749597,0.223197132,0.324576765],"rotation":[-0.499999821,-0.5000002,0.5000002,-0.499999821],"scale":[0.12999247,0.12999247,0.12999247],"name":"modgenisgorsel"},{"mesh":7,"translation":[0.496653825,0.413819253,-0.00260898587],"rotation":[-0.499999821,-0.5000002,0.5000002,-0.499999821],"scale":[0.16796048,0.16796048,0.16796048],"name":"modyazi1"},{"mesh":8,"translation":[-0.1599901,0.23542431,0.461205781],"rotation":[-0.50000006,-0.50000006,0.499999881,0.50000006],"scale":[0.133246914,0.1332469,0.1332469],"name":"modvideo1"},{"mesh":9,"translation":[0.282649964,0.2199789,-0.46595332],"rotation":[0.7071068,0.0,0.0,0.7071067],"scale":[0.08384367,0.08384367,0.08384367],"name":"moddikgorsel1"},{"mesh":10,"translation":[0.307592124,0.2199789,0.462675184],"rotation":[-5.3385083E-08,-0.7071068,0.7071068,-5.3385083E-08],"scale":[0.08384367,0.08384367,0.08384367],"name":"moddikgorsel6"},{"mesh":11,"translation":[0.255033076,0.117007479,-0.4692498],"rotation":[0.7071065,1.46390232E-06,0.7071072,-1.463901E-06],"scale":[0.09999999,-0.09999999,0.09999999],"name":"modrenk1"},{"mesh":12,"translation":[-0.317379177,0.292385221,0.123447075],"rotation":[0.500000358,0.4999996,-0.499999881,0.5000001],"scale":[0.09999999,0.09999999,0.09999999],"name":"modrenk2"},{"mesh":13,"translation":[-0.458569944,3.81469718E-08,1.24494463E-07],"rotation":[0.0,-0.7071068,0.0,0.7071067],"scale":[0.09999999,0.09999999,0.09999999],"name":"modzemin"},{"mesh":14,"translation":[0.3210388,0.2241949,-0.481348217],"rotation":[-5.3385083E-08,-0.7071068,0.7071068,-5.3385083E-08],"scale":[0.120653875,0.120653875,0.120653875],"name":"modlogo3"},{"mesh":15,"translation":[-0.255712,0.005,-0.182800785],"rotation":[0.0,0.7071068,0.0,0.7071068],"name":"modengel"},{"mesh":16,"translation":[-0.284581423,0.0595348924,-0.234198064],"rotation":[0.500000238,-0.499999732,0.499999762,0.500000238],"scale":[0.160782218,0.160782218,0.160782218],"name":"modyazi2"},{"mesh":17,"translation":[-0.170406982,0.0640428141,-0.49356],"rotation":[4.52377179E-07,-0.7071068,0.7071068,4.523771E-07],"scale":[0.16796048,0.16796048,0.16796048],"name":"modyazi3"}],"meshes":[{"primitives":[{"attributes":{"POSITION":1,"NORMAL":2,"TEXCOORD_0":3},"indices":0,"material":0}],"name":"modlogo1"},{"primitives":[{"attributes":{"POSITION":5,"NORMAL":6,"TEXCOORD_0":7},"indices":4,"material":1}],"name":"modlogo2"},{"primitives":[{"attributes":{"POSITION":9,"NORMAL":10,"TEXCOORD_0":11},"indices":8,"material":2}],"name":"moddikgorsel5"},{"primitives":[{"attributes":{"POSITION":13,"NORMAL":14,"TEXCOORD_0":15},"indices":12,"material":3}],"name":"moddikgorsel4"},{"primitives":[{"attributes":{"POSITION":17,"NORMAL":18,"TEXCOORD_0":19},"indices":16,"material":4}],"name":"moddikgorsel3"},{"primitives":[{"attributes":{"POSITION":21,"NORMAL":22,"TEXCOORD_0":23},"indices":20,"material":5}],"name":"moddikgorsel2"},{"primitives":[{"attributes":{"POSITION":25,"NORMAL":26,"TEXCOORD_0":27},"indices":24,"material":6}],"name":"modgenisgorsel"},{"primitives":[{"attributes":{"POSITION":29,"NORMAL":30,"TEXCOORD_0":31},"indices":28,"material":7}],"name":"modyazi1"},{"primitives":[{"attributes":{"POSITION":33,"NORMAL":34,"TEXCOORD_0":35},"indices":32,"material":8}],"name":"modvideo1"},{"primitives":[{"attributes":{"POSITION":37,"NORMAL":38,"TEXCOORD_0":39},"indices":36,"material":9}],"name":"moddikgorsel1"},{"primitives":[{"attributes":{"POSITION":41,"NORMAL":42,"TEXCOORD_0":43},"indices":40,"material":10}],"name":"moddikgorsel6"},{"primitives":[{"attributes":{"POSITION":45,"NORMAL":46,"TEXCOORD_0":47},"indices":44,"material":11}],"name":"modrenk1"},{"primitives":[{"attributes":{"POSITION":49,"NORMAL":50,"TEXCOORD_0":51},"indices":48,"material":12}],"name":"modrenk2"},{"primitives":[{"attributes":{"POSITION":53,"NORMAL":54,"TEXCOORD_0":55},"indices":52,"material":13}],"name":"modzemin"},{"primitives":[{"attributes":{"POSITION":57,"NORMAL":58,"TEXCOORD_0":59},"indices":56,"material":14}],"name":"modlogo3"},{"primitives":[{"attributes":{"POSITION":61,"NORMAL":62,"TEXCOORD_0":63},"indices":60,"material":15}],"name":"modengel"},{"primitives":[{"attributes":{"POSITION":65,"NORMAL":66,"TEXCOORD_0":67},"indices":64,"material":16}],"name":"modyazi2"},{"primitives":[{"attributes":{"POSITION":69,"NORMAL":70,"TEXCOORD_0":71},"indices":68,"material":17}],"name":"modyazi3"}],"accessors":[{"bufferView":0,"componentType":5123,"count":6,"type":"SCALAR","name":"accessorIndices"},{"bufferView":1,"componentType":5126,"count":4,"max":[0.0449999981,0.0,0.0449999981],"min":[-0.0449999981,0.0,-0.0449999981],"type":"VEC3","name":"accessorPositions"},{"bufferView":1,"byteOffset":48,"componentType":5126,"count":4,"type":"VEC3","name":"accessorNormals"},{"bufferView":2,"componentType":5126,"count":4,"type":"VEC2","name":"accessorUVs"},{"bufferView":0,"byteOffset":12,"componentType":5123,"count":6,"type":"SCALAR","name":"accessorIndices"},{"bufferView":1,"byteOffset":96,"componentType":5126,"count":4,"max":[1.0,0.0,1.0],"min":[-1.0,0.0,-1.0],"type":"VEC3","name":"accessorPositions"},{"bufferView":1,"byteOffset":144,"componentType":5126,"count":4,"type":"VEC3","name":"accessorNormals"},{"bufferView":2,"byteOffset":32,"componentType":5126,"count":4,"type":"VEC2","name":"accessorUVs"},{"bufferView":0,"byteOffset":24,"componentType":5123,"count":6,"type":"SCALAR","name":"accessorIndices"},{"bufferView":1,"byteOffset":192,"componentType":5126,"count":4,"max":[1.05,0.0,1.485],"min":[-1.05,0.0,-1.485],"type":"VEC3","name":"accessorPositions"},{"bufferView":1,"byteOffset":240,"componentType":5126,"count":4,"type":"VEC3","name":"accessorNormals"},{"bufferView":2,"byteOffset":64,"componentType":5126,"count":4,"type":"VEC2","name":"accessorUVs"},{"bufferView":0,"byteOffset":36,"componentType":5123,"count":6,"type":"SCALAR","name":"accessorIndices"},{"bufferView":1,"byteOffset":288,"componentType":5126,"count":4,"max":[1.05,0.0,1.485],"min":[-1.05,0.0,-1.485],"type":"VEC3","name":"accessorPositions"},{"bufferView":1,"byteOffset":336,"componentType":5126,"count":4,"type":"VEC3","name":"accessorNormals"},{"bufferView":2,"byteOffset":96,"componentType":5126,"count":4,"type":"VEC2","name":"accessorUVs"},{"bufferView":0,"byteOffset":48,"componentType":5123,"count":6,"type":"SCALAR","name":"accessorIndices"},{"bufferView":1,"byteOffset":384,"componentType":5126,"count":4,"max":[1.05,0.0,1.485],"min":[-1.05,0.0,-1.485],"type":"VEC3","name":"accessorPositions"},{"bufferView":1,"byteOffset":432,"componentType":5126,"count":4,"type":"VEC3","name":"accessorNormals"},{"bufferView":2,"byteOffset":128,"componentType":5126,"count":4,"type":"VEC2","name":"accessorUVs"},{"bufferView":0,"byteOffset":60,"componentType":5123,"count":6,"type":"SCALAR","name":"accessorIndices"},{"bufferView":1,"byteOffset":480,"componentType":5126,"count":4,"max":[1.05,0.0,1.485],"min":[-1.05,0.0,-1.485],"type":"VEC3","name":"accessorPositions"},{"bufferView":1,"byteOffset":528,"componentType":5126,"count":4,"type":"VEC3","name":"accessorNormals"},{"bufferView":2,"byteOffset":160,"componentType":5126,"count":4,"type":"VEC2","name":"accessorUVs"},{"bufferView":0,"byteOffset":72,"componentType":5123,"count":6,"type":"SCALAR","name":"accessorIndices"},{"bufferView":1,"byteOffset":576,"componentType":5126,"count":4,"max":[6.114286,3.88492E-06,1.076536],"min":[-1.09726167,-7.047283E-08,-1.12102032],"type":"VEC3","name":"accessorPositions"},{"bufferView":1,"byteOffset":624,"componentType":5126,"count":4,"type":"VEC3","name":"accessorNormals"},{"bufferView":2,"byteOffset":192,"componentType":5126,"count":4,"type":"VEC2","name":"accessorUVs"},{"bufferView":0,"byteOffset":84,"componentType":5123,"count":6,"type":"SCALAR","name":"accessorIndices"},{"bufferView":1,"byteOffset":672,"componentType":5126,"count":4,"max":[0.75,0.0,0.25],"min":[-0.75,0.0,-0.25],"type":"VEC3","name":"accessorPositions"},{"bufferView":1,"byteOffset":720,"componentType":5126,"count":4,"type":"VEC3","name":"accessorNormals"},{"bufferView":2,"byteOffset":224,"componentType":5126,"count":4,"type":"VEC2","name":"accessorUVs"},{"bufferView":0,"byteOffset":96,"componentType":5123,"count":6,"type":"SCALAR","name":"accessorIndices"},{"bufferView":1,"byteOffset":768,"componentType":5126,"count":4,"max":[0.539999962,0.0,0.96],"min":[-0.539999962,0.0,-0.96],"type":"VEC3","name":"accessorPositions"},{"bufferView":1,"byteOffset":816,"componentType":5126,"count":4,"type":"VEC3","name":"accessorNormals"},{"bufferView":2,"byteOffset":256,"componentType":5126,"count":4,"type":"VEC2","name":"accessorUVs"},{"bufferView":0,"byteOffset":108,"componentType":5123,"count":6,"type":"SCALAR","name":"accessorIndices"},{"bufferView":1,"byteOffset":864,"componentType":5126,"count":4,"max":[1.05,0.0,1.485],"min":[-1.05,0.0,-1.485],"type":"VEC3","name":"accessorPositions"},{"bufferView":1,"byteOffset":912,"componentType":5126,"count":4,"type":"VEC3","name":"accessorNormals"},{"bufferView":2,"byteOffset":288,"componentType":5126,"count":4,"type":"VEC2","name":"accessorUVs"},{"bufferView":0,"byteOffset":120,"componentType":5123,"count":6,"type":"SCALAR","name":"accessorIndices"},{"bufferView":1,"byteOffset":960,"componentType":5126,"count":4,"max":[1.05,0.0,1.485],"min":[-1.05,0.0,-1.485],"type":"VEC3","name":"accessorPositions"},{"bufferView":1,"byteOffset":1008,"componentType":5126,"count":4,"type":"VEC3","name":"accessorNormals"},{"bufferView":2,"byteOffset":320,"componentType":5126,"count":4,"type":"VEC2","name":"accessorUVs"},{"bufferView":0,"byteOffset":132,"componentType":5123,"count":582,"type":"SCALAR","name":"accessorIndices"},{"bufferView":1,"byteOffset":1056,"componentType":5126,"count":330,"max":[9.692502,3.4299264,2.183782],"min":[-0.307501227,-1.17007327,-7.530394],"type":"VEC3","name":"accessorPositions"},{"bufferView":1,"byteOffset":5016,"componentType":5126,"count":330,"type":"VEC3","name":"accessorNormals"},{"bufferView":2,"byteOffset":352,"componentType":5126,"count":330,"type":"VEC2","name":"accessorUVs"},{"bufferView":0,"byteOffset":1296,"componentType":5123,"count":405,"type":"SCALAR","name":"accessorIndices"},{"bufferView":1,"byteOffset":8976,"componentType":5126,"count":215,"max":[6.17710638,8.138488,2.8960948],"min":[-3.73711848,-1.82063591,-1.67614615],"type":"VEC3","name":"accessorPositions"},{"bufferView":1,"byteOffset":11556,"componentType":5126,"count":215,"type":"VEC3","name":"accessorNormals"},{"bufferView":2,"byteOffset":2992,"componentType":5126,"count":215,"type":"VEC2","name":"accessorUVs"},{"bufferView":0,"byteOffset":2108,"componentType":5123,"count":60,"type":"SCALAR","name":"accessorIndices"},{"bufferView":1,"byteOffset":14136,"componentType":5126,"count":40,"max":[5.0,0.050000038,-0.9925107],"min":[-5.0,0.0,-9.580122],"type":"VEC3","name":"accessorPositions"},{"bufferView":1,"byteOffset":14616,"componentType":5126,"count":40,"type":"VEC3","name":"accessorNormals"},{"bufferView":2,"byteOffset":4712,"componentType":5126,"count":40,"type":"VEC2","name":"accessorUVs"},{"bufferView":0,"byteOffset":2228,"componentType":5123,"count":6,"type":"SCALAR","name":"accessorIndices"},{"bufferView":1,"byteOffset":15096,"componentType":5126,"count":4,"max":[1.0,0.0,1.0],"min":[-1.0,0.0,-1.0],"type":"VEC3","name":"accessorPositions"},{"bufferView":1,"byteOffset":15144,"componentType":5126,"count":4,"type":"VEC3","name":"accessorNormals"},{"bufferView":2,"byteOffset":5032,"componentType":5126,"count":4,"type":"VEC2","name":"accessorUVs"},{"bufferView":0,"byteOffset":2240,"componentType":5123,"count":60,"type":"SCALAR","name":"accessorIndices"},{"bufferView":1,"byteOffset":15192,"componentType":5126,"count":40,"max":[0.315392673,0.320708066,0.449159026],"min":[-0.6679839,-0.004462509,-0.105068646],"type":"VEC3","name":"accessorPositions"},{"bufferView":1,"byteOffset":15672,"componentType":5126,"count":40,"type":"VEC3","name":"accessorNormals"},{"bufferView":2,"byteOffset":5064,"componentType":5126,"count":40,"type":"VEC2","name":"accessorUVs"},{"bufferView":0,"byteOffset":2360,"componentType":5123,"count":6,"type":"SCALAR","name":"accessorIndices"},{"bufferView":1,"byteOffset":16152,"componentType":5126,"count":4,"max":[0.75,0.0,0.25],"min":[-0.75,0.0,-0.25],"type":"VEC3","name":"accessorPositions"},{"bufferView":1,"byteOffset":16200,"componentType":5126,"count":4,"type":"VEC3","name":"accessorNormals"},{"bufferView":2,"byteOffset":5384,"componentType":5126,"count":4,"type":"VEC2","name":"accessorUVs"},{"bufferView":0,"byteOffset":2372,"componentType":5123,"count":6,"type":"SCALAR","name":"accessorIndices"},{"bufferView":1,"byteOffset":16248,"componentType":5126,"count":4,"max":[0.75,0.0,0.25],"min":[-0.75,0.0,-0.25],"type":"VEC3","name":"accessorPositions"},{"bufferView":1,"byteOffset":16296,"componentType":5126,"count":4,"type":"VEC3","name":"accessorNormals"},{"bufferView":2,"byteOffset":5416,"componentType":5126,"count":4,"type":"VEC2","name":"accessorUVs"}],"bufferViews":[{"buffer":0,"byteLength":2384,"name":"bufferViewScalar"},{"buffer":0,"byteOffset":2384,"byteLength":16344,"byteStride":12,"name":"bufferViewFloatVec3"},{"buffer":0,"byteOffset":18728,"byteLength":5448,"byteStride":8,"name":"bufferViewFloatVec2"}],"buffers":[{"uri":"stant3.bin","byteLength":24176}],"materials":[{"pbrMetallicRoughness":{"baseColorTexture":{"index":0,"extensions":{"KHR_texture_transform":{"texCoord":0}}},"metallicFactor":0.0,"roughnessFactor":0.5},"doubleSided":true,"name":"matlogo1","extras":{"babylonSeparateCullingPass":false}},{"pbrMetallicRoughness":{"baseColorTexture":{"index":1,"extensions":{"KHR_texture_transform":{"texCoord":0}}},"metallicFactor":0.0,"roughnessFactor":0.5},"doubleSided":true,"name":"matlogo2","extras":{"babylonSeparateCullingPass":false}},{"pbrMetallicRoughness":{"baseColorTexture":{"index":2,"extensions":{"KHR_texture_transform":{"texCoord":0}}},"metallicFactor":0.0,"roughnessFactor":0.5},"doubleSided":true,"name":"matdikgorsel5","extras":{"babylonSeparateCullingPass":false}},{"pbrMetallicRoughness":{"baseColorTexture":{"index":3,"extensions":{"KHR_texture_transform":{"texCoord":0}}},"metallicFactor":0.0,"roughnessFactor":0.5},"doubleSided":true,"name":"matdikgorsel4","extras":{"babylonSeparateCullingPass":false}},{"pbrMetallicRoughness":{"baseColorTexture":{"index":4,"extensions":{"KHR_texture_transform":{"texCoord":0}}},"metallicFactor":0.0,"roughnessFactor":0.5},"doubleSided":true,"name":"matdikgorsel3","extras":{"babylonSeparateCullingPass":false}},{"pbrMetallicRoughness":{"baseColorTexture":{"index":5,"extensions":{"KHR_texture_transform":{"texCoord":0}}},"metallicFactor":0.0,"roughnessFactor":0.5},"doubleSided":true,"name":"matdikgorsel2","extras":{"babylonSeparateCullingPass":false}},{"pbrMetallicRoughness":{"baseColorTexture":{"index":6,"extensions":{"KHR_texture_transform":{"texCoord":0}}},"metallicFactor":0.0,"roughnessFactor":0.5},"name":"matgenisgorsel","extras":{"babylonSeparateCullingPass":false}},{"pbrMetallicRoughness":{"baseColorTexture":{"index":7,"extensions":{"KHR_texture_transform":{"texCoord":0}}},"metallicFactor":0.0,"roughnessFactor":0.5},"doubleSided":true,"name":"matyazi1","extras":{"babylonSeparateCullingPass":false}},{"pbrMetallicRoughness":{"baseColorTexture":{"index":8,"extensions":{"KHR_texture_transform":{"texCoord":0}}},"metallicFactor":0.0,"roughnessFactor":0.5},"name":"matvideo1","extras":{"babylonSeparateCullingPass":false}},{"pbrMetallicRoughness":{"baseColorTexture":{"index":9,"extensions":{"KHR_texture_transform":{"texCoord":0}}},"metallicFactor":0.0,"roughnessFactor":0.5},"doubleSided":true,"name":"matdikgorsel1","extras":{"babylonSeparateCullingPass":false}},{"pbrMetallicRoughness":{"baseColorTexture":{"index":10,"extensions":{"KHR_texture_transform":{"texCoord":0}}},"metallicFactor":0.0,"roughnessFactor":0.5},"doubleSided":true,"name":"matdikgorsel6","extras":{"babylonSeparateCullingPass":false}},{"pbrMetallicRoughness":{"baseColorFactor":[0.676259,0.6104272,0.463453978,1.0],"metallicFactor":0.0,"metallicRoughnessTexture":{"index":12,"extensions":{"KHR_texture_transform":{"texCoord":0}}}},"normalTexture":{"index":11,"scale":0.3,"extensions":{"KHR_texture_transform":{"texCoord":0}}},"doubleSided":true,"name":"matrenk1","extras":{"babylonSeparateCullingPass":false}},{"pbrMetallicRoughness":{"baseColorFactor":[0.08235294,0.0509803966,0.06666667,1.0],"metallicFactor":0.0,"metallicRoughnessTexture":{"index":12,"extensions":{"KHR_texture_transform":{"texCoord":0}}}},"normalTexture":{"index":11,"scale":0.3,"extensions":{"KHR_texture_transform":{"texCoord":0}}},"doubleSided":true,"name":"matrenk2","extras":{"babylonSeparateCullingPass":false}},{"pbrMetallicRoughness":{"baseColorFactor":[0.151079133,0.143871263,0.141297027,1.0],"metallicFactor":0.0,"metallicRoughnessTexture":{"index":12,"extensions":{"KHR_texture_transform":{"texCoord":0}}}},"normalTexture":{"index":11,"scale":0.3,"extensions":{"KHR_texture_transform":{"texCoord":0}}},"doubleSided":true,"name":"matzemin","extras":{"babylonSeparateCullingPass":false}},{"pbrMetallicRoughness":{"baseColorTexture":{"index":17,"extensions":{"KHR_texture_transform":{"texCoord":0}}},"metallicFactor":0.0,"roughnessFactor":0.5},"doubleSided":true,"name":"matlogo3","extras":{"babylonSeparateCullingPass":false}},{"pbrMetallicRoughness":{"baseColorFactor":[0.0,0.0,0.0,0.0],"metallicFactor":0.0,"roughnessFactor":0.5},"alphaMode":"BLEND","doubleSided":true,"name":"matengel","extras":{"babylonSeparateCullingPass":false}},{"pbrMetallicRoughness":{"baseColorTexture":{"index":18,"extensions":{"KHR_texture_transform":{"texCoord":0}}},"metallicFactor":0.0,"roughnessFactor":0.5},"doubleSided":true,"name":"matyazi2","extras":{"babylonSeparateCullingPass":false}},{"pbrMetallicRoughness":{"baseColorTexture":{"index":19,"extensions":{"KHR_texture_transform":{"texCoord":0}}},"metallicFactor":0.0,"roughnessFactor":0.5},"doubleSided":true,"name":"matyazi3","extras":{"babylonSeparateCullingPass":false}}],"textures":[{"sampler":0,"source":0,"name":"matgorsel1.png"},{"sampler":0,"source":1,"name":"matlogo2.png"},{"sampler":0,"source":2,"name":"matdikgorsel5.png"},{"sampler":0,"source":3,"name":"matdikgorsel4.png"},{"sampler":0,"source":4,"name":"matdikgorsel3.png"},{"sampler":0,"source":5,"name":"matdikgorsel2.png"},{"sampler":0,"source":6,"name":"matgenisgorsel.png"},{"sampler":0,"source":7,"name":"matyazi1.png"},{"sampler":0,"source":8,"name":"matvideo1.png"},{"sampler":0,"source":9,"name":"matdikgorsel1.png"},{"sampler":0,"source":10,"name":"matdikgorsel6.png"},{"sampler":0,"source":11,"name":"matrenknormal.png"},{"sampler":0,"source":12,"name":"matrenkroughness0.png"},{"sampler":0,"source":11,"name":"matrenknormal.png"},{"sampler":0,"source":12,"name":"matrenkroughness0.png"},{"sampler":0,"source":11,"name":"matrenknormal.png"},{"sampler":0,"source":12,"name":"matrenkroughness0.png"},{"sampler":0,"source":13,"name":"matlogo3.png"},{"sampler":0,"source":14,"name":"matyazi2.png"},{"sampler":0,"source":15,"name":"matyazi3.png"}],"images":[{"uri":"./matgorsel1.png"},{"uri":"./matlogo2.png"},{"uri":"./matdikgorsel5.png"},{"uri":"./matdikgorsel4.png"},{"uri":"./matdikgorsel3.png"},{"uri":"./matdikgorsel2.png"},{"uri":"./matgenisgorsel.png"},{"uri":"./matyazi1.png"},{"uri":"./matvideo1.png"},{"uri":"./matdikgorsel1.png"},{"uri":"./matdikgorsel6.png"},{"uri":"./matrenknormal.png"},{"uri":"./matrenkroughness0.png"},{"uri":"./matlogo3.png"},{"uri":"./matyazi2.png"},{"uri":"./matyazi3.png"}],"samplers":[{"magFilter":9729,"minFilter":9987}]}