{"asset":{"version":"2.0","generator":"babylon.js glTF exporter for 3dsmax 2018 v20210615.1"},"extensionsUsed":["KHR_texture_transform"],"extensionsRequired":["KHR_texture_transform"],"scene":0,"scenes":[{"nodes":[0]}],"nodes":[{"children":[1,2,3,4,5,6,7,8,9,10,11,12,13,14,15,16,17,18,19,20,21],"translation":[-3.81469718E-08,0.0,-2.479553E-07],"name":"Group001"},{"mesh":0,"translation":[-0.07790974,0.21370104,0.188583],"rotation":[-0.7071068,0.7071067,-2.506821E-07,2.12933159E-07],"scale":[0.06245891,0.0624589175,0.0624589175],"name":"modlogo2"},{"mesh":1,"translation":[0.439778,0.2965634,0.111211486],"rotation":[-0.7071068,0.7071067,-2.506821E-07,2.12933159E-07],"scale":[0.1892944,0.189294428,0.189294428],"name":"modyazi2"},{"mesh":2,"translation":[0.4381808,0.29743728,-0.147936761],"rotation":[-0.7071068,0.7071067,-2.506821E-07,2.12933159E-07],"scale":[0.07196578,0.0719657838,0.0719657838],"name":"modlogo3"},{"mesh":3,"translation":[-0.347620815,0.0565226525,0.0081566805],"rotation":[-0.7071068,0.7071067,-2.506821E-07,2.12933159E-07],"scale":[0.144331783,0.1443318,0.1443318],"name":"modyazi1"},{"mesh":4,"translation":[-0.0608086,0.189356,0.189918533],"rotation":[-0.499999821,-0.5000002,0.5000002,-0.499999821],"scale":[0.0401836522,0.0401836522,0.0401836522],"name":"moddikgorsel1"},{"mesh":5,"translation":[-0.0608085319,0.189356,0.00435800524],"rotation":[-0.499999821,-0.5000002,0.5000002,-0.499999821],"scale":[0.0401836522,0.0401836522,0.0401836522],"name":"moddikgorsel2"},{"mesh":6,"translation":[-0.0608084463,0.189356,-0.1793646],"rotation":[-0.499999821,-0.5000002,0.5000002,-0.499999821],"scale":[0.0401836522,0.0401836522,0.0401836522],"name":"moddikgorsel3"},{"mesh":7,"translation":[-0.07790974,0.214209363,-0.180883572],"rotation":[-0.7071068,0.7071067,-2.506821E-07,2.12933159E-07],"scale":[0.06245891,0.0624589175,0.0624589175],"name":"modlogo1"},{"mesh":8,"translation":[-0.0771420747,0.17293331,0.00375741953],"rotation":[-0.7071068,0.7071067,-2.506821E-07,2.12933159E-07],"scale":[0.0919925,0.0919925049,0.0919925049],"name":"modvideo1"},{"mesh":9,"translation":[0.437647969,0.108331792,-0.1943607],"rotation":[-0.5000001,0.49999997,-0.50000006,-0.49999997],"scale":[0.0481606647,0.0481606647,0.0481606647],"name":"moddikgorsel4"},{"mesh":10,"translation":[0.437648028,0.108331792,-0.05998083],"rotation":[-0.5000001,0.49999997,-0.50000006,-0.49999997],"scale":[0.0481606647,0.0481606647,0.0481606647],"name":"moddikgorsel5"},{"mesh":11,"translation":[0.437648028,0.108331792,0.07439905],"rotation":[-0.5000001,0.49999997,-0.50000006,-0.49999997],"scale":[0.0481606647,0.0481606647,0.0481606647],"name":"moddikgorsel6"},{"mesh":12,"translation":[0.437647969,0.108331792,0.208778933],"rotation":[-0.5000001,0.49999997,-0.50000006,-0.49999997],"scale":[0.0481606647,0.0481606647,0.0481606647],"name":"moddikgorsel7"},{"mesh":13,"translation":[0.0002488187,-1.52587887E-07,0.00027402892],"rotation":[0.0,-0.7071068,0.0,0.7071067],"scale":[0.099999994,0.099999994,0.099999994],"name":"modzemin"},{"mesh":14,"translation":[-0.445788383,0.290978879,-0.00031378385],"rotation":[0.0,-0.7071068,0.0,0.7071067],"scale":[0.099999994,0.0619999953,0.099999994],"name":"modrenk2"},{"mesh":15,"translation":[0.179316819,0.2580569,-0.587057948],"rotation":[-3.6808342E-07,-0.7071067,0.7071068,-3.680834E-07],"scale":[0.099999994,0.099999994,0.0619999953],"name":"modrenk1"},{"mesh":16,"translation":[0.476477355,0.05646801,0.006719297],"rotation":[0.0,-0.7071068,0.0,0.7071067],"scale":[0.099999994,0.0619999953,0.099999994],"name":"modgenisgorsel"},{"mesh":17,"translation":[-0.413339257,0.3713555,0.0006515026],"rotation":[-0.859540761,0.511064,0.0007255126,-0.00167065335],"scale":[0.2828337,0.251524717,0.294392139],"name":"modyazi3"},{"mesh":18,"translation":[-0.411804,0.3710917,-0.338506848],"rotation":[-0.8595402,0.5110681,-2.051117E-07,3.44967248E-07],"scale":[0.06775854,0.06775854,0.06775854],"name":"modgorsel1"},{"mesh":19,"translation":[-0.40487352,0.372654557,0.3366593],"rotation":[-0.8595402,0.5110681,-2.051117E-07,3.44967248E-07],"scale":[0.06775854,0.06775854,0.06775854],"name":"modgorsel2"},{"mesh":20,"translation":[0.024308661,0.0249999985,-0.476473749],"name":"modengel"}],"meshes":[{"primitives":[{"attributes":{"POSITION":1,"NORMAL":2,"TEXCOORD_0":3},"indices":0,"material":0}],"name":"modlogo2"},{"primitives":[{"attributes":{"POSITION":5,"NORMAL":6,"TEXCOORD_0":7},"indices":4,"material":1}],"name":"modyazi2"},{"primitives":[{"attributes":{"POSITION":9,"NORMAL":10,"TEXCOORD_0":11},"indices":8,"material":2}],"name":"modlogo3"},{"primitives":[{"attributes":{"POSITION":13,"NORMAL":14,"TEXCOORD_0":15},"indices":12,"material":3}],"name":"modyazi1"},{"primitives":[{"attributes":{"POSITION":17,"NORMAL":18,"TEXCOORD_0":19},"indices":16,"material":4}],"name":"moddikgorsel1"},{"primitives":[{"attributes":{"POSITION":21,"NORMAL":22,"TEXCOORD_0":23},"indices":20,"material":5}],"name":"moddikgorsel2"},{"primitives":[{"attributes":{"POSITION":25,"NORMAL":26,"TEXCOORD_0":27},"indices":24,"material":6}],"name":"moddikgorsel3"},{"primitives":[{"attributes":{"POSITION":29,"NORMAL":30,"TEXCOORD_0":31},"indices":28,"material":7}],"name":"modlogo1"},{"primitives":[{"attributes":{"POSITION":33,"NORMAL":34,"TEXCOORD_0":35},"indices":32,"material":8}],"name":"modvideo1"},{"primitives":[{"attributes":{"POSITION":37,"NORMAL":38,"TEXCOORD_0":39},"indices":36,"material":9}],"name":"moddikgorsel4"},{"primitives":[{"attributes":{"POSITION":41,"NORMAL":42,"TEXCOORD_0":43},"indices":40,"material":10}],"name":"moddikgorsel5"},{"primitives":[{"attributes":{"POSITION":45,"NORMAL":46,"TEXCOORD_0":47},"indices":44,"material":11}],"name":"moddikgorsel6"},{"primitives":[{"attributes":{"POSITION":49,"NORMAL":50,"TEXCOORD_0":51},"indices":48,"material":12}],"name":"moddikgorsel7"},{"primitives":[{"attributes":{"POSITION":53,"NORMAL":54,"TEXCOORD_0":55},"indices":52,"material":13}],"name":"modzemin"},{"primitives":[{"attributes":{"POSITION":57,"NORMAL":58,"TEXCOORD_0":59},"indices":56,"material":14}],"name":"modrenk2"},{"primitives":[{"attributes":{"POSITION":61,"NORMAL":62,"TEXCOORD_0":63},"indices":60,"material":15}],"name":"modrenk1"},{"primitives":[{"attributes":{"POSITION":65,"NORMAL":66,"TEXCOORD_0":67},"indices":64,"material":16}],"name":"modgenisgorsel"},{"primitives":[{"attributes":{"POSITION":69,"NORMAL":70,"TEXCOORD_0":71},"indices":68,"material":17}],"name":"modyazi3"},{"primitives":[{"attributes":{"POSITION":73,"NORMAL":74,"TEXCOORD_0":75},"indices":72,"material":18}],"name":"modgorsel1"},{"primitives":[{"attributes":{"POSITION":77,"NORMAL":78,"TEXCOORD_0":79},"indices":76,"material":19}],"name":"modgorsel2"},{"primitives":[{"attributes":{"POSITION":81,"NORMAL":82,"TEXCOORD_0":83},"indices":80,"material":20}],"name":"modengel"}],"accessors":[{"bufferView":0,"componentType":5123,"count":6,"type":"SCALAR","name":"accessorIndices"},{"bufferView":1,"componentType":5126,"count":4,"max":[1.05,0.0,1.05],"min":[-1.05,0.0,-1.05],"type":"VEC3","name":"accessorPositions"},{"bufferView":1,"byteOffset":48,"componentType":5126,"count":4,"type":"VEC3","name":"accessorNormals"},{"bufferView":2,"componentType":5126,"count":4,"type":"VEC2","name":"accessorUVs"},{"bufferView":0,"byteOffset":12,"componentType":5123,"count":6,"type":"SCALAR","name":"accessorIndices"},{"bufferView":1,"byteOffset":96,"componentType":5126,"count":4,"max":[0.25,0.0,0.75],"min":[-0.25,0.0,-0.75],"type":"VEC3","name":"accessorPositions"},{"bufferView":1,"byteOffset":144,"componentType":5126,"count":4,"type":"VEC3","name":"accessorNormals"},{"bufferView":2,"byteOffset":32,"componentType":5126,"count":4,"type":"VEC2","name":"accessorUVs"},{"bufferView":0,"byteOffset":24,"componentType":5123,"count":6,"type":"SCALAR","name":"accessorIndices"},{"bufferView":1,"byteOffset":192,"componentType":5126,"count":4,"max":[1.05,0.0,1.05],"min":[-1.05,0.0,-1.05],"type":"VEC3","name":"accessorPositions"},{"bufferView":1,"byteOffset":240,"componentType":5126,"count":4,"type":"VEC3","name":"accessorNormals"},{"bufferView":2,"byteOffset":64,"componentType":5126,"count":4,"type":"VEC2","name":"accessorUVs"},{"bufferView":0,"byteOffset":36,"componentType":5123,"count":6,"type":"SCALAR","name":"accessorIndices"},{"bufferView":1,"byteOffset":288,"componentType":5126,"count":4,"max":[0.25,0.0,0.75],"min":[-0.25,0.0,-0.75],"type":"VEC3","name":"accessorPositions"},{"bufferView":1,"byteOffset":336,"componentType":5126,"count":4,"type":"VEC3","name":"accessorNormals"},{"bufferView":2,"byteOffset":96,"componentType":5126,"count":4,"type":"VEC2","name":"accessorUVs"},{"bufferView":0,"byteOffset":48,"componentType":5123,"count":6,"type":"SCALAR","name":"accessorIndices"},{"bufferView":1,"byteOffset":384,"componentType":5126,"count":4,"max":[1.05,0.0,1.485],"min":[-1.05,0.0,-1.485],"type":"VEC3","name":"accessorPositions"},{"bufferView":1,"byteOffset":432,"componentType":5126,"count":4,"type":"VEC3","name":"accessorNormals"},{"bufferView":2,"byteOffset":128,"componentType":5126,"count":4,"type":"VEC2","name":"accessorUVs"},{"bufferView":0,"byteOffset":60,"componentType":5123,"count":6,"type":"SCALAR","name":"accessorIndices"},{"bufferView":1,"byteOffset":480,"componentType":5126,"count":4,"max":[1.05,0.0,1.485],"min":[-1.05,0.0,-1.485],"type":"VEC3","name":"accessorPositions"},{"bufferView":1,"byteOffset":528,"componentType":5126,"count":4,"type":"VEC3","name":"accessorNormals"},{"bufferView":2,"byteOffset":160,"componentType":5126,"count":4,"type":"VEC2","name":"accessorUVs"},{"bufferView":0,"byteOffset":72,"componentType":5123,"count":6,"type":"SCALAR","name":"accessorIndices"},{"bufferView":1,"byteOffset":576,"componentType":5126,"count":4,"max":[1.05,0.0,1.485],"min":[-1.05,0.0,-1.485],"type":"VEC3","name":"accessorPositions"},{"bufferView":1,"byteOffset":624,"componentType":5126,"count":4,"type":"VEC3","name":"accessorNormals"},{"bufferView":2,"byteOffset":192,"componentType":5126,"count":4,"type":"VEC2","name":"accessorUVs"},{"bufferView":0,"byteOffset":84,"componentType":5123,"count":6,"type":"SCALAR","name":"accessorIndices"},{"bufferView":1,"byteOffset":672,"componentType":5126,"count":4,"max":[1.05,0.0,1.05],"min":[-1.05,0.0,-1.05],"type":"VEC3","name":"accessorPositions"},{"bufferView":1,"byteOffset":720,"componentType":5126,"count":4,"type":"VEC3","name":"accessorNormals"},{"bufferView":2,"byteOffset":224,"componentType":5126,"count":4,"type":"VEC2","name":"accessorUVs"},{"bufferView":0,"byteOffset":96,"componentType":5123,"count":6,"type":"SCALAR","name":"accessorIndices"},{"bufferView":1,"byteOffset":768,"componentType":5126,"count":4,"max":[0.539999962,0.0,0.96],"min":[-0.539999962,0.0,-0.96],"type":"VEC3","name":"accessorPositions"},{"bufferView":1,"byteOffset":816,"componentType":5126,"count":4,"type":"VEC3","name":"accessorNormals"},{"bufferView":2,"byteOffset":256,"componentType":5126,"count":4,"type":"VEC2","name":"accessorUVs"},{"bufferView":0,"byteOffset":108,"componentType":5123,"count":6,"type":"SCALAR","name":"accessorIndices"},{"bufferView":1,"byteOffset":864,"componentType":5126,"count":4,"max":[1.05,0.0,1.485],"min":[-1.05,0.0,-1.485],"type":"VEC3","name":"accessorPositions"},{"bufferView":1,"byteOffset":912,"componentType":5126,"count":4,"type":"VEC3","name":"accessorNormals"},{"bufferView":2,"byteOffset":288,"componentType":5126,"count":4,"type":"VEC2","name":"accessorUVs"},{"bufferView":0,"byteOffset":120,"componentType":5123,"count":6,"type":"SCALAR","name":"accessorIndices"},{"bufferView":1,"byteOffset":960,"componentType":5126,"count":4,"max":[1.05,0.0,1.485],"min":[-1.05,0.0,-1.485],"type":"VEC3","name":"accessorPositions"},{"bufferView":1,"byteOffset":1008,"componentType":5126,"count":4,"type":"VEC3","name":"accessorNormals"},{"bufferView":2,"byteOffset":320,"componentType":5126,"count":4,"type":"VEC2","name":"accessorUVs"},{"bufferView":0,"byteOffset":132,"componentType":5123,"count":6,"type":"SCALAR","name":"accessorIndices"},{"bufferView":1,"byteOffset":1056,"componentType":5126,"count":4,"max":[1.05,0.0,1.485],"min":[-1.05,0.0,-1.485],"type":"VEC3","name":"accessorPositions"},{"bufferView":1,"byteOffset":1104,"componentType":5126,"count":4,"type":"VEC3","name":"accessorNormals"},{"bufferView":2,"byteOffset":352,"componentType":5126,"count":4,"type":"VEC2","name":"accessorUVs"},{"bufferView":0,"byteOffset":144,"componentType":5123,"count":6,"type":"SCALAR","name":"accessorIndices"},{"bufferView":1,"byteOffset":1152,"componentType":5126,"count":4,"max":[1.05,0.0,1.485],"min":[-1.05,0.0,-1.485],"type":"VEC3","name":"accessorPositions"},{"bufferView":1,"byteOffset":1200,"componentType":5126,"count":4,"type":"VEC3","name":"accessorNormals"},{"bufferView":2,"byteOffset":384,"componentType":5126,"count":4,"type":"VEC2","name":"accessorUVs"},{"bufferView":0,"byteOffset":156,"componentType":5123,"count":30,"type":"SCALAR","name":"accessorIndices"},{"bufferView":1,"byteOffset":1248,"componentType":5126,"count":20,"max":[5.0,0.049999997,5.0],"min":[-5.0,0.0,-5.0],"type":"VEC3","name":"accessorPositions"},{"bufferView":1,"byteOffset":1488,"componentType":5126,"count":20,"type":"VEC3","name":"accessorNormals"},{"bufferView":2,"byteOffset":416,"componentType":5126,"count":20,"type":"VEC2","name":"accessorUVs"},{"bufferView":0,"byteOffset":216,"componentType":5123,"count":1158,"type":"SCALAR","name":"accessorIndices"},{"bufferView":1,"byteOffset":1728,"componentType":5126,"count":740,"max":[4.82782269,2.573962,0.04432369],"min":[-4.804405,-4.740256,-9.015596],"type":"VEC3","name":"accessorPositions"},{"bufferView":1,"byteOffset":10608,"componentType":5126,"count":740,"type":"VEC3","name":"accessorNormals"},{"bufferView":2,"byteOffset":576,"componentType":5126,"count":740,"type":"VEC2","name":"accessorUVs"},{"bufferView":0,"byteOffset":2532,"componentType":5123,"count":441,"type":"SCALAR","name":"accessorIndices"},{"bufferView":1,"byteOffset":19488,"componentType":5126,"count":241,"max":[6.795646,-0.8597766,4.081567],"min":[-3.1805017,-10.8733711,-3.1809485],"type":"VEC3","name":"accessorPositions"},{"bufferView":1,"byteOffset":22380,"componentType":5126,"count":241,"type":"VEC3","name":"accessorNormals"},{"bufferView":2,"byteOffset":6496,"componentType":5126,"count":241,"type":"VEC2","name":"accessorUVs"},{"bufferView":0,"byteOffset":3416,"componentType":5123,"count":6,"type":"SCALAR","name":"accessorIndices"},{"bufferView":1,"byteOffset":25272,"componentType":5126,"count":4,"max":[4.943617,5.941367,-0.232385248],"min":[-5.05591536,-0.8301321,-0.232385248],"type":"VEC3","name":"accessorPositions"},{"bufferView":1,"byteOffset":25320,"componentType":5126,"count":4,"type":"VEC3","name":"accessorNormals"},{"bufferView":2,"byteOffset":8424,"componentType":5126,"count":4,"type":"VEC2","name":"accessorUVs"},{"bufferView":0,"byteOffset":3428,"componentType":5123,"count":6,"type":"SCALAR","name":"accessorIndices"},{"bufferView":1,"byteOffset":25368,"componentType":5126,"count":4,"max":[0.25,0.0,0.75],"min":[-0.25,0.0,-0.75],"type":"VEC3","name":"accessorPositions"},{"bufferView":1,"byteOffset":25416,"componentType":5126,"count":4,"type":"VEC3","name":"accessorNormals"},{"bufferView":2,"byteOffset":8456,"componentType":5126,"count":4,"type":"VEC2","name":"accessorUVs"},{"bufferView":0,"byteOffset":3440,"componentType":5123,"count":6,"type":"SCALAR","name":"accessorIndices"},{"bufferView":1,"byteOffset":25464,"componentType":5126,"count":4,"max":[1.05,0.0,1.05],"min":[-1.05,0.0,-1.05],"type":"VEC3","name":"accessorPositions"},{"bufferView":1,"byteOffset":25512,"componentType":5126,"count":4,"type":"VEC3","name":"accessorNormals"},{"bufferView":2,"byteOffset":8488,"componentType":5126,"count":4,"type":"VEC2","name":"accessorUVs"},{"bufferView":0,"byteOffset":3452,"componentType":5123,"count":6,"type":"SCALAR","name":"accessorIndices"},{"bufferView":1,"byteOffset":25560,"componentType":5126,"count":4,"max":[1.05,0.0,1.05],"min":[-1.05,0.0,-1.05],"type":"VEC3","name":"accessorPositions"},{"bufferView":1,"byteOffset":25608,"componentType":5126,"count":4,"type":"VEC3","name":"accessorNormals"},{"bufferView":2,"byteOffset":8520,"componentType":5126,"count":4,"type":"VEC2","name":"accessorUVs"},{"bufferView":0,"byteOffset":3464,"componentType":5123,"count":72,"type":"SCALAR","name":"accessorIndices"},{"bufferView":1,"byteOffset":25656,"componentType":5126,"count":48,"max":[0.43584314,0.247464925,0.9763437],"min":[-0.298196465,0.0,-0.0245392658],"type":"VEC3","name":"accessorPositions"},{"bufferView":1,"byteOffset":26232,"componentType":5126,"count":48,"type":"VEC3","name":"accessorNormals"},{"bufferView":2,"byteOffset":8552,"componentType":5126,"count":48,"type":"VEC2","name":"accessorUVs"}],"bufferViews":[{"buffer":0,"byteLength":3608,"name":"bufferViewScalar"},{"buffer":0,"byteOffset":3608,"byteLength":26808,"byteStride":12,"name":"bufferViewFloatVec3"},{"buffer":0,"byteOffset":30416,"byteLength":8936,"byteStride":8,"name":"bufferViewFloatVec2"}],"buffers":[{"uri":"stant19.bin","byteLength":39352}],"materials":[{"pbrMetallicRoughness":{"baseColorTexture":{"index":0,"extensions":{"KHR_texture_transform":{"texCoord":0}}},"metallicFactor":0.0,"roughnessFactor":0.5},"doubleSided":true,"name":"matlogo2","extras":{"babylonSeparateCullingPass":false}},{"pbrMetallicRoughness":{"baseColorTexture":{"index":1,"extensions":{"KHR_texture_transform":{"texCoord":0}}},"metallicFactor":0.0,"roughnessFactor":0.5},"doubleSided":true,"name":"matyazi2","extras":{"babylonSeparateCullingPass":false}},{"pbrMetallicRoughness":{"baseColorTexture":{"index":2,"extensions":{"KHR_texture_transform":{"texCoord":0}}},"metallicFactor":0.0,"roughnessFactor":0.5},"doubleSided":true,"name":"matlogo3","extras":{"babylonSeparateCullingPass":false}},{"pbrMetallicRoughness":{"baseColorTexture":{"index":3,"extensions":{"KHR_texture_transform":{"texCoord":0}}},"metallicFactor":0.0,"roughnessFactor":0.5},"doubleSided":true,"name":"matyazi1","extras":{"babylonSeparateCullingPass":false}},{"pbrMetallicRoughness":{"baseColorTexture":{"index":4,"extensions":{"KHR_texture_transform":{"texCoord":0}}},"metallicFactor":0.0,"roughnessFactor":0.5},"doubleSided":true,"name":"matdikgorsel1","extras":{"babylonSeparateCullingPass":false}},{"pbrMetallicRoughness":{"baseColorTexture":{"index":5,"extensions":{"KHR_texture_transform":{"texCoord":0}}},"metallicFactor":0.0,"roughnessFactor":0.5},"doubleSided":true,"name":"matdikgorsel2","extras":{"babylonSeparateCullingPass":false}},{"pbrMetallicRoughness":{"baseColorTexture":{"index":6,"extensions":{"KHR_texture_transform":{"texCoord":0}}},"metallicFactor":0.0,"roughnessFactor":0.5},"doubleSided":true,"name":"matdikgorsel3","extras":{"babylonSeparateCullingPass":false}},{"pbrMetallicRoughness":{"baseColorTexture":{"index":7,"extensions":{"KHR_texture_transform":{"texCoord":0}}},"metallicFactor":0.0,"roughnessFactor":0.5},"doubleSided":true,"name":"matlogo1","extras":{"babylonSeparateCullingPass":false}},{"pbrMetallicRoughness":{"baseColorTexture":{"index":8,"extensions":{"KHR_texture_transform":{"texCoord":0}}},"metallicFactor":0.0,"roughnessFactor":0.5},"name":"matvideo1","extras":{"babylonSeparateCullingPass":false}},{"pbrMetallicRoughness":{"baseColorTexture":{"index":9,"extensions":{"KHR_texture_transform":{"texCoord":0}}},"metallicFactor":0.0,"roughnessFactor":0.5},"doubleSided":true,"name":"matdikgorsel4","extras":{"babylonSeparateCullingPass":false}},{"pbrMetallicRoughness":{"baseColorTexture":{"index":10,"extensions":{"KHR_texture_transform":{"texCoord":0}}},"metallicFactor":0.0,"roughnessFactor":0.5},"doubleSided":true,"name":"matdikgorsel5","extras":{"babylonSeparateCullingPass":false}},{"pbrMetallicRoughness":{"baseColorTexture":{"index":11,"extensions":{"KHR_texture_transform":{"texCoord":0}}},"metallicFactor":0.0,"roughnessFactor":0.5},"doubleSided":true,"name":"matdikgorsel6","extras":{"babylonSeparateCullingPass":false}},{"pbrMetallicRoughness":{"baseColorTexture":{"index":12,"extensions":{"KHR_texture_transform":{"texCoord":0}}},"metallicFactor":0.0,"roughnessFactor":0.5},"doubleSided":true,"name":"matdikgorsel7","extras":{"babylonSeparateCullingPass":false}},{"pbrMetallicRoughness":{"baseColorFactor":[0.8494633,0.8561151,0.689819336,1.0],"metallicFactor":0.0,"metallicRoughnessTexture":{"index":14,"extensions":{"KHR_texture_transform":{"texCoord":0}}}},"normalTexture":{"index":13,"scale":0.3,"extensions":{"KHR_texture_transform":{"texCoord":0}}},"doubleSided":true,"name":"matzemin","extras":{"babylonSeparateCullingPass":false}},{"pbrMetallicRoughness":{"baseColorFactor":[0.07194245,0.05793665,0.0476165824,1.0],"metallicFactor":0.0,"metallicRoughnessTexture":{"index":14,"extensions":{"KHR_texture_transform":{"texCoord":0}}}},"normalTexture":{"index":13,"scale":0.3,"extensions":{"KHR_texture_transform":{"texCoord":0}}},"doubleSided":true,"name":"matrenk2","extras":{"babylonSeparateCullingPass":false}},{"pbrMetallicRoughness":{"baseColorFactor":[0.157284185,0.237410083,0.164262116,1.0],"metallicFactor":0.0,"metallicRoughnessTexture":{"index":14,"extensions":{"KHR_texture_transform":{"texCoord":0}}}},"normalTexture":{"index":13,"scale":0.3,"extensions":{"KHR_texture_transform":{"texCoord":0}}},"doubleSided":true,"name":"matrenk1","extras":{"babylonSeparateCullingPass":false}},{"pbrMetallicRoughness":{"baseColorTexture":{"index":19,"extensions":{"KHR_texture_transform":{"texCoord":0}}},"metallicFactor":0.0,"roughnessFactor":0.5},"name":"matgenisgorsel","extras":{"babylonSeparateCullingPass":false}},{"pbrMetallicRoughness":{"baseColorTexture":{"index":20,"extensions":{"KHR_texture_transform":{"texCoord":0}}},"metallicFactor":0.0,"roughnessFactor":0.5},"doubleSided":true,"name":"matyazi3","extras":{"babylonSeparateCullingPass":false}},{"pbrMetallicRoughness":{"baseColorTexture":{"index":21,"extensions":{"KHR_texture_transform":{"texCoord":0}}},"metallicFactor":0.0,"roughnessFactor":0.5},"doubleSided":true,"name":"matgorsel1","extras":{"babylonSeparateCullingPass":false}},{"pbrMetallicRoughness":{"baseColorTexture":{"index":22,"extensions":{"KHR_texture_transform":{"texCoord":0}}},"metallicFactor":0.0,"roughnessFactor":0.5},"doubleSided":true,"name":"matgorsel2","extras":{"babylonSeparateCullingPass":false}},{"pbrMetallicRoughness":{"baseColorFactor":[0.0,0.0,0.0,0.0],"metallicFactor":0.0,"roughnessFactor":0.5},"alphaMode":"BLEND","doubleSided":true,"name":"matengel","extras":{"babylonSeparateCullingPass":false}}],"textures":[{"sampler":0,"source":0,"name":"matlogo2.png"},{"sampler":0,"source":1,"name":"matyazi2.png"},{"sampler":0,"source":2,"name":"matlogo3.png"},{"sampler":0,"source":3,"name":"matyazi1.png"},{"sampler":0,"source":4,"name":"matdikgorsel1.png"},{"sampler":0,"source":5,"name":"matdikgorsel2.png"},{"sampler":0,"source":6,"name":"matdikgorsel3.png"},{"sampler":0,"source":7,"name":"matlogo1.png"},{"sampler":0,"source":8,"name":"matvideo1.png"},{"sampler":0,"source":9,"name":"matdikgorsel4.png"},{"sampler":0,"source":10,"name":"matdikgorsel5.png"},{"sampler":0,"source":11,"name":"matdikgorsel6.png"},{"sampler":0,"source":12,"name":"matdikgorsel7.png"},{"sampler":0,"source":13,"name":"matrenknormal.png"},{"sampler":0,"source":14,"name":"matrenkroughness0.png"},{"sampler":0,"source":13,"name":"matrenknormal.png"},{"sampler":0,"source":14,"name":"matrenkroughness0.png"},{"sampler":0,"source":13,"name":"matrenknormal.png"},{"sampler":0,"source":14,"name":"matrenkroughness0.png"},{"sampler":0,"source":15,"name":"matgenisgorsel.png"},{"sampler":0,"source":16,"name":"matyazi3.png"},{"sampler":0,"source":17,"name":"matgorsel1.png"},{"sampler":0,"source":18,"name":"matgorsel2.png"}],"images":[{"uri":"./matlogo2.png"},{"uri":"./matyazi2.png"},{"uri":"./matlogo3.png"},{"uri":"./matyazi1.png"},{"uri":"./matdikgorsel1.png"},{"uri":"./matdikgorsel2.png"},{"uri":"./matdikgorsel3.png"},{"uri":"./matlogo1.png"},{"uri":"./matvideo1.png"},{"uri":"./matdikgorsel4.png"},{"uri":"./matdikgorsel5.png"},{"uri":"./matdikgorsel6.png"},{"uri":"./matdikgorsel7.png"},{"uri":"./matrenknormal.png"},{"uri":"./matrenkroughness0.png"},{"uri":"./matgenisgorsel.png"},{"uri":"./matyazi3.png"},{"uri":"./matgorsel1.png"},{"uri":"./matgorsel2.png"}],"samplers":[{"magFilter":9729,"minFilter":9987}]}