{"asset":{"version":"2.0","generator":"babylon.js glTF exporter for 3dsmax 2018 v20210615.1"},"extensionsUsed":["KHR_texture_transform"],"extensionsRequired":["KHR_texture_transform"],"scene":0,"scenes":[{"nodes":[0]}],"nodes":[{"children":[1,2,3,4,5,6,7,8,9,10,11,12,13,14,15,16,17,18,19,20],"scale":[0.099999994,0.099999994,0.099999994],"name":"Group001"},{"mesh":0,"translation":[0.00609710673,0.0,0.0008496475],"name":"modzemin"},{"mesh":1,"translation":[1.595154,3.771237,2.11480927],"name":"modrenk2"},{"mesh":2,"translation":[-4.84390354,3.016667,0.769440949],"rotation":[0.5,-0.5,0.50000006,0.49999994],"name":"modrenk1"},{"mesh":3,"translation":[-1.45471466,1.6713,0.1937799],"rotation":[0.7071068,0.0,0.0,0.7071067],"scale":[1.087075,1.087075,1.087075],"name":"modvideo1"},{"mesh":4,"translation":[3.50260448,3.9564693,5.01064157],"rotation":[0.7071068,0.0,0.0,0.7071067],"scale":[1.861075,1.861075,1.861075],"name":"modyazi1"},{"mesh":5,"translation":[5.018231,1.55829775,-2.53374815],"rotation":[-0.5,-0.5,0.5,-0.5],"scale":[0.6250587,0.6250587,0.6250587],"name":"moddikgorsel1"},{"mesh":6,"translation":[-0.2615844,3.784978,5.01117468],"rotation":[0.7071068,0.0,0.0,0.7071067],"scale":[0.631618738,0.631618738,0.631618738],"name":"modlogo1"},{"mesh":7,"translation":[5.027217,0.559288,4.252309],"rotation":[-0.5,-0.5,0.5,-0.5],"scale":[0.446050584,0.446050584,0.446050584],"name":"modlogo2"},{"mesh":8,"translation":[5.02289534,3.9564693,3.52699637],"rotation":[-0.5,-0.5,0.5,-0.5],"scale":[1.861075,1.861075,1.861075],"name":"modyazi2"},{"mesh":9,"translation":[5.018231,1.55829775,-4.21562958],"rotation":[-0.5,-0.5,0.5,-0.5],"scale":[0.6250587,0.6250587,0.6250587],"name":"moddikgorsel2"},{"mesh":10,"translation":[2.38763642,1.55829775,-1.5620364],"rotation":[0.7071068,0.0,0.0,0.7071067],"scale":[0.6250587,0.6250587,0.6250587],"name":"moddikgorsel3"},{"mesh":11,"translation":[4.06951761,1.55829775,-1.5620364],"rotation":[0.7071068,0.0,0.0,0.7071067],"scale":[0.6250587,0.6250587,0.6250587],"name":"moddikgorsel4"},{"mesh":12,"translation":[3.50604129,1.55411279,-5.01117373],"rotation":[1.1520234E-07,-0.7071068,0.7071068,1.15202333E-07],"scale":[1.48500013,1.48500013,1.48500013],"name":"modlogo3"},{"mesh":13,"translation":[-2.13087177,1.55411279,-5.01117373],"rotation":[1.1520234E-07,-0.7071068,0.7071068,1.15202333E-07],"scale":[1.48500013,1.48500013,1.48500013],"name":"modgensigorsel"},{"mesh":14,"translation":[-5.015179,3.10953,2.60273671],"rotation":[0.49999997,-0.50000006,0.5000001,0.49999997],"scale":[1.861075,1.861075,1.861075],"name":"modyazi3"},{"mesh":15,"translation":[-5.027217,0.4993799,3.96478558],"rotation":[-0.5,0.5,-0.5,-0.5],"scale":[0.370727926,0.370727926,0.370727926],"name":"modlogo4"},{"mesh":16,"translation":[-5.010217,1.55829775,-3.868938],"rotation":[0.49999997,-0.50000006,0.5000001,0.49999997],"scale":[0.891146064,0.891146064,0.891146064],"name":"moddikgorsel5"},{"mesh":17,"translation":[-3.83026171,1.55829775,-2.702564],"rotation":[0.7071068,0.0,0.0,0.7071067],"scale":[0.6250587,0.6250587,0.6250587],"name":"moddikgorsel6"},{"mesh":18,"translation":[-1.95508194,1.55829775,-2.702564],"rotation":[0.7071068,0.0,0.0,0.7071067],"scale":[0.6250587,0.6250587,0.6250587],"name":"moddikgorsel7"},{"mesh":19,"translation":[-0.07990188,1.55829775,-2.702564],"rotation":[0.7071068,0.0,0.0,0.7071067],"scale":[0.6250587,0.6250587,0.6250587],"name":"moddikgorsel8"}],"meshes":[{"primitives":[{"attributes":{"POSITION":1,"NORMAL":2,"TEXCOORD_0":3},"indices":0,"material":0}],"name":"modzemin"},{"primitives":[{"attributes":{"POSITION":5,"NORMAL":6,"TEXCOORD_0":7},"indices":4,"material":1}],"name":"modrenk2"},{"primitives":[{"attributes":{"POSITION":9,"NORMAL":10,"TEXCOORD_0":11},"indices":8,"material":2}],"name":"modrenk1"},{"primitives":[{"attributes":{"POSITION":13,"NORMAL":14,"TEXCOORD_0":15},"indices":12,"material":3}],"name":"modvideo1"},{"primitives":[{"attributes":{"POSITION":17,"NORMAL":18,"TEXCOORD_0":19},"indices":16,"material":4}],"name":"modyazi1"},{"primitives":[{"attributes":{"POSITION":21,"NORMAL":22,"TEXCOORD_0":23},"indices":20,"material":5}],"name":"moddikgorsel1"},{"primitives":[{"attributes":{"POSITION":25,"NORMAL":26,"TEXCOORD_0":27},"indices":24,"material":6}],"name":"modlogo1"},{"primitives":[{"attributes":{"POSITION":29,"NORMAL":30,"TEXCOORD_0":31},"indices":28,"material":7}],"name":"modlogo2"},{"primitives":[{"attributes":{"POSITION":33,"NORMAL":34,"TEXCOORD_0":35},"indices":32,"material":8}],"name":"modyazi2"},{"primitives":[{"attributes":{"POSITION":37,"NORMAL":38,"TEXCOORD_0":39},"indices":36,"material":9}],"name":"moddikgorsel2"},{"primitives":[{"attributes":{"POSITION":41,"NORMAL":42,"TEXCOORD_0":43},"indices":40,"material":10}],"name":"moddikgorsel3"},{"primitives":[{"attributes":{"POSITION":45,"NORMAL":46,"TEXCOORD_0":47},"indices":44,"material":11}],"name":"moddikgorsel4"},{"primitives":[{"attributes":{"POSITION":49,"NORMAL":50,"TEXCOORD_0":51},"indices":48,"material":12}],"name":"modlogo3"},{"primitives":[{"attributes":{"POSITION":53,"NORMAL":54,"TEXCOORD_0":55},"indices":52,"material":13}],"name":"modgensigorsel"},{"primitives":[{"attributes":{"POSITION":57,"NORMAL":58,"TEXCOORD_0":59},"indices":56,"material":14}],"name":"modyazi3"},{"primitives":[{"attributes":{"POSITION":61,"NORMAL":62,"TEXCOORD_0":63},"indices":60,"material":15}],"name":"modlogo4"},{"primitives":[{"attributes":{"POSITION":65,"NORMAL":66,"TEXCOORD_0":67},"indices":64,"material":16}],"name":"moddikgorsel5"},{"primitives":[{"attributes":{"POSITION":69,"NORMAL":70,"TEXCOORD_0":71},"indices":68,"material":17}],"name":"moddikgorsel6"},{"primitives":[{"attributes":{"POSITION":73,"NORMAL":74,"TEXCOORD_0":75},"indices":72,"material":18}],"name":"moddikgorsel7"},{"primitives":[{"attributes":{"POSITION":77,"NORMAL":78,"TEXCOORD_0":79},"indices":76,"material":19}],"name":"moddikgorsel8"}],"accessors":[{"bufferView":0,"componentType":5123,"count":72,"type":"SCALAR","name":"accessorIndices"},{"bufferView":1,"componentType":5126,"count":72,"max":[5.0,0.049999997,5.0],"min":[-5.0,0.0,-5.0],"type":"VEC3","name":"accessorPositions"},{"bufferView":1,"byteOffset":864,"componentType":5126,"count":72,"type":"VEC3","name":"accessorNormals"},{"bufferView":2,"componentType":5126,"count":72,"type":"VEC2","name":"accessorUVs"},{"bufferView":0,"byteOffset":144,"componentType":5123,"count":210,"type":"SCALAR","name":"accessorIndices"},{"bufferView":1,"byteOffset":1728,"componentType":5126,"count":210,"max":[3.41094327,0.7287636,2.88604069],"min":[-6.589057,-3.72123647,-7.11395836],"type":"VEC3","name":"accessorPositions"},{"bufferView":1,"byteOffset":4248,"componentType":5126,"count":210,"type":"VEC3","name":"accessorNormals"},{"bufferView":2,"byteOffset":576,"componentType":5126,"count":210,"type":"VEC2","name":"accessorUVs"},{"bufferView":0,"byteOffset":564,"componentType":5123,"count":156,"type":"SCALAR","name":"accessorIndices"},{"bufferView":1,"byteOffset":6768,"componentType":5126,"count":156,"max":[4.23140669,0.150000155,2.96666741],"min":[-5.76859236,-9.850001,-0.6024243],"type":"VEC3","name":"accessorPositions"},{"bufferView":1,"byteOffset":8640,"componentType":5126,"count":156,"type":"VEC3","name":"accessorNormals"},{"bufferView":2,"byteOffset":2256,"componentType":5126,"count":156,"type":"VEC2","name":"accessorUVs"},{"bufferView":0,"byteOffset":876,"componentType":5123,"count":6,"type":"SCALAR","name":"accessorIndices"},{"bufferView":1,"byteOffset":10512,"componentType":5126,"count":6,"max":[0.96,0.0,0.539999962],"min":[-0.96,0.0,-0.539999962],"type":"VEC3","name":"accessorPositions"},{"bufferView":1,"byteOffset":10584,"componentType":5126,"count":6,"type":"VEC3","name":"accessorNormals"},{"bufferView":2,"byteOffset":3504,"componentType":5126,"count":6,"type":"VEC2","name":"accessorUVs"},{"bufferView":0,"byteOffset":888,"componentType":5123,"count":6,"type":"SCALAR","name":"accessorIndices"},{"bufferView":1,"byteOffset":10656,"componentType":5126,"count":6,"max":[0.75,0.0,0.25],"min":[-0.75,0.0,-0.25],"type":"VEC3","name":"accessorPositions"},{"bufferView":1,"byteOffset":10728,"componentType":5126,"count":6,"type":"VEC3","name":"accessorNormals"},{"bufferView":2,"byteOffset":3552,"componentType":5126,"count":6,"type":"VEC2","name":"accessorUVs"},{"bufferView":0,"byteOffset":900,"componentType":5123,"count":6,"type":"SCALAR","name":"accessorIndices"},{"bufferView":1,"byteOffset":10800,"componentType":5126,"count":6,"max":[1.05,0.0,1.485],"min":[-1.05,0.0,-1.485],"type":"VEC3","name":"accessorPositions"},{"bufferView":1,"byteOffset":10872,"componentType":5126,"count":6,"type":"VEC3","name":"accessorNormals"},{"bufferView":2,"byteOffset":3600,"componentType":5126,"count":6,"type":"VEC2","name":"accessorUVs"},{"bufferView":0,"byteOffset":912,"componentType":5123,"count":6,"type":"SCALAR","name":"accessorIndices"},{"bufferView":1,"byteOffset":10944,"componentType":5126,"count":6,"max":[1.0,0.0,1.0],"min":[-1.0,0.0,-1.0],"type":"VEC3","name":"accessorPositions"},{"bufferView":1,"byteOffset":11016,"componentType":5126,"count":6,"type":"VEC3","name":"accessorNormals"},{"bufferView":2,"byteOffset":3648,"componentType":5126,"count":6,"type":"VEC2","name":"accessorUVs"},{"bufferView":0,"byteOffset":924,"componentType":5123,"count":6,"type":"SCALAR","name":"accessorIndices"},{"bufferView":1,"byteOffset":11088,"componentType":5126,"count":6,"max":[1.0,0.0,1.0],"min":[-1.0,0.0,-1.0],"type":"VEC3","name":"accessorPositions"},{"bufferView":1,"byteOffset":11160,"componentType":5126,"count":6,"type":"VEC3","name":"accessorNormals"},{"bufferView":2,"byteOffset":3696,"componentType":5126,"count":6,"type":"VEC2","name":"accessorUVs"},{"bufferView":0,"byteOffset":936,"componentType":5123,"count":6,"type":"SCALAR","name":"accessorIndices"},{"bufferView":1,"byteOffset":11232,"componentType":5126,"count":6,"max":[0.75,0.0,0.25],"min":[-0.75,0.0,-0.25],"type":"VEC3","name":"accessorPositions"},{"bufferView":1,"byteOffset":11304,"componentType":5126,"count":6,"type":"VEC3","name":"accessorNormals"},{"bufferView":2,"byteOffset":3744,"componentType":5126,"count":6,"type":"VEC2","name":"accessorUVs"},{"bufferView":0,"byteOffset":948,"componentType":5123,"count":6,"type":"SCALAR","name":"accessorIndices"},{"bufferView":1,"byteOffset":11376,"componentType":5126,"count":6,"max":[1.05,0.0,1.485],"min":[-1.05,0.0,-1.485],"type":"VEC3","name":"accessorPositions"},{"bufferView":1,"byteOffset":11448,"componentType":5126,"count":6,"type":"VEC3","name":"accessorNormals"},{"bufferView":2,"byteOffset":3792,"componentType":5126,"count":6,"type":"VEC2","name":"accessorUVs"},{"bufferView":0,"byteOffset":960,"componentType":5123,"count":6,"type":"SCALAR","name":"accessorIndices"},{"bufferView":1,"byteOffset":11520,"componentType":5126,"count":6,"max":[1.05,0.0,1.485],"min":[-1.05,0.0,-1.485],"type":"VEC3","name":"accessorPositions"},{"bufferView":1,"byteOffset":11592,"componentType":5126,"count":6,"type":"VEC3","name":"accessorNormals"},{"bufferView":2,"byteOffset":3840,"componentType":5126,"count":6,"type":"VEC2","name":"accessorUVs"},{"bufferView":0,"byteOffset":972,"componentType":5123,"count":6,"type":"SCALAR","name":"accessorIndices"},{"bufferView":1,"byteOffset":11664,"componentType":5126,"count":6,"max":[1.05,0.0,1.485],"min":[-1.05,0.0,-1.485],"type":"VEC3","name":"accessorPositions"},{"bufferView":1,"byteOffset":11736,"componentType":5126,"count":6,"type":"VEC3","name":"accessorNormals"},{"bufferView":2,"byteOffset":3888,"componentType":5126,"count":6,"type":"VEC2","name":"accessorUVs"},{"bufferView":0,"byteOffset":984,"componentType":5123,"count":6,"type":"SCALAR","name":"accessorIndices"},{"bufferView":1,"byteOffset":11808,"componentType":5126,"count":6,"max":[1.0,0.0,1.0],"min":[-1.0,0.0,-1.0],"type":"VEC3","name":"accessorPositions"},{"bufferView":1,"byteOffset":11880,"componentType":5126,"count":6,"type":"VEC3","name":"accessorNormals"},{"bufferView":2,"byteOffset":3936,"componentType":5126,"count":6,"type":"VEC2","name":"accessorUVs"},{"bufferView":0,"byteOffset":996,"componentType":5123,"count":6,"type":"SCALAR","name":"accessorIndices"},{"bufferView":1,"byteOffset":11952,"componentType":5126,"count":6,"max":[1.92796719,8.225065E-08,1.01287067],"min":[-2.35232115,-1.18599118E-07,-1.00429428],"type":"VEC3","name":"accessorPositions"},{"bufferView":1,"byteOffset":12024,"componentType":5126,"count":6,"type":"VEC3","name":"accessorNormals"},{"bufferView":2,"byteOffset":3984,"componentType":5126,"count":6,"type":"VEC2","name":"accessorUVs"},{"bufferView":0,"byteOffset":1008,"componentType":5123,"count":6,"type":"SCALAR","name":"accessorIndices"},{"bufferView":1,"byteOffset":12096,"componentType":5126,"count":6,"max":[0.75,0.0,0.25],"min":[-0.75,0.0,-0.25],"type":"VEC3","name":"accessorPositions"},{"bufferView":1,"byteOffset":12168,"componentType":5126,"count":6,"type":"VEC3","name":"accessorNormals"},{"bufferView":2,"byteOffset":4032,"componentType":5126,"count":6,"type":"VEC2","name":"accessorUVs"},{"bufferView":0,"byteOffset":1020,"componentType":5123,"count":6,"type":"SCALAR","name":"accessorIndices"},{"bufferView":1,"byteOffset":12240,"componentType":5126,"count":6,"max":[1.0,0.0,1.0],"min":[-1.0,0.0,-1.0],"type":"VEC3","name":"accessorPositions"},{"bufferView":1,"byteOffset":12312,"componentType":5126,"count":6,"type":"VEC3","name":"accessorNormals"},{"bufferView":2,"byteOffset":4080,"componentType":5126,"count":6,"type":"VEC2","name":"accessorUVs"},{"bufferView":0,"byteOffset":1032,"componentType":5123,"count":6,"type":"SCALAR","name":"accessorIndices"},{"bufferView":1,"byteOffset":12384,"componentType":5126,"count":6,"max":[1.05,0.0,1.485],"min":[-1.05,0.0,-1.485],"type":"VEC3","name":"accessorPositions"},{"bufferView":1,"byteOffset":12456,"componentType":5126,"count":6,"type":"VEC3","name":"accessorNormals"},{"bufferView":2,"byteOffset":4128,"componentType":5126,"count":6,"type":"VEC2","name":"accessorUVs"},{"bufferView":0,"byteOffset":1044,"componentType":5123,"count":6,"type":"SCALAR","name":"accessorIndices"},{"bufferView":1,"byteOffset":12528,"componentType":5126,"count":6,"max":[1.05,0.0,1.485],"min":[-1.05,0.0,-1.485],"type":"VEC3","name":"accessorPositions"},{"bufferView":1,"byteOffset":12600,"componentType":5126,"count":6,"type":"VEC3","name":"accessorNormals"},{"bufferView":2,"byteOffset":4176,"componentType":5126,"count":6,"type":"VEC2","name":"accessorUVs"},{"bufferView":0,"byteOffset":1056,"componentType":5123,"count":6,"type":"SCALAR","name":"accessorIndices"},{"bufferView":1,"byteOffset":12672,"componentType":5126,"count":6,"max":[1.05,0.0,1.485],"min":[-1.05,0.0,-1.485],"type":"VEC3","name":"accessorPositions"},{"bufferView":1,"byteOffset":12744,"componentType":5126,"count":6,"type":"VEC3","name":"accessorNormals"},{"bufferView":2,"byteOffset":4224,"componentType":5126,"count":6,"type":"VEC2","name":"accessorUVs"},{"bufferView":0,"byteOffset":1068,"componentType":5123,"count":6,"type":"SCALAR","name":"accessorIndices"},{"bufferView":1,"byteOffset":12816,"componentType":5126,"count":6,"max":[1.05,0.0,1.485],"min":[-1.05,0.0,-1.485],"type":"VEC3","name":"accessorPositions"},{"bufferView":1,"byteOffset":12888,"componentType":5126,"count":6,"type":"VEC3","name":"accessorNormals"},{"bufferView":2,"byteOffset":4272,"componentType":5126,"count":6,"type":"VEC2","name":"accessorUVs"}],"bufferViews":[{"buffer":0,"byteLength":1080,"name":"bufferViewScalar"},{"buffer":0,"byteOffset":1080,"byteLength":12960,"byteStride":12,"name":"bufferViewFloatVec3"},{"buffer":0,"byteOffset":14040,"byteLength":4320,"byteStride":8,"name":"bufferViewFloatVec2"}],"buffers":[{"uri":"stant53.bin","byteLength":18360}],"materials":[{"pbrMetallicRoughness":{"baseColorFactor":[0.4901961,0.4901961,0.4901961,1.0],"metallicFactor":0.0,"metallicRoughnessTexture":{"index":1,"extensions":{"KHR_texture_transform":{"texCoord":0}}}},"normalTexture":{"index":0,"scale":0.3,"extensions":{"KHR_texture_transform":{"texCoord":0}}},"name":"matzemin","extras":{"babylonSeparateCullingPass":false}},{"pbrMetallicRoughness":{"baseColorFactor":[0.03312458,0.07194245,0.0406865,1.0],"metallicFactor":0.0,"metallicRoughnessTexture":{"index":3,"extensions":{"KHR_texture_transform":{"texCoord":0}}}},"normalTexture":{"index":2,"scale":0.3,"extensions":{"KHR_texture_transform":{"texCoord":0}}},"name":"matrenk2","extras":{"babylonSeparateCullingPass":false}},{"pbrMetallicRoughness":{"baseColorFactor":[0.3137255,0.31764707,0.184313729,1.0],"metallicFactor":0.0,"metallicRoughnessTexture":{"index":3,"extensions":{"KHR_texture_transform":{"texCoord":0}}}},"normalTexture":{"index":2,"scale":0.3,"extensions":{"KHR_texture_transform":{"texCoord":0}}},"name":"matrenk1","extras":{"babylonSeparateCullingPass":false}},{"pbrMetallicRoughness":{"baseColorTexture":{"index":6,"extensions":{"KHR_texture_transform":{"texCoord":0}}},"metallicFactor":0.0,"roughnessFactor":0.5},"name":"matvideo1","extras":{"babylonSeparateCullingPass":false}},{"pbrMetallicRoughness":{"baseColorTexture":{"index":7,"extensions":{"KHR_texture_transform":{"texCoord":0}}},"metallicFactor":0.0,"roughnessFactor":0.5},"name":"matyazi1","extras":{"babylonSeparateCullingPass":false}},{"pbrMetallicRoughness":{"baseColorTexture":{"index":8,"extensions":{"KHR_texture_transform":{"texCoord":0}}},"metallicFactor":0.0,"roughnessFactor":0.5},"name":"matdikgorsel1","extras":{"babylonSeparateCullingPass":false}},{"pbrMetallicRoughness":{"baseColorTexture":{"index":9,"extensions":{"KHR_texture_transform":{"texCoord":0}}},"metallicFactor":0.0,"roughnessFactor":0.5},"name":"matlogo1","extras":{"babylonSeparateCullingPass":false}},{"pbrMetallicRoughness":{"baseColorTexture":{"index":10,"extensions":{"KHR_texture_transform":{"texCoord":0}}},"metallicFactor":0.0,"roughnessFactor":0.5},"name":"matlogo2","extras":{"babylonSeparateCullingPass":false}},{"pbrMetallicRoughness":{"baseColorTexture":{"index":11,"extensions":{"KHR_texture_transform":{"texCoord":0}}},"metallicFactor":0.0,"roughnessFactor":0.5},"name":"matyazi2","extras":{"babylonSeparateCullingPass":false}},{"pbrMetallicRoughness":{"baseColorTexture":{"index":12,"extensions":{"KHR_texture_transform":{"texCoord":0}}},"metallicFactor":0.0,"roughnessFactor":0.5},"name":"matdikgorsel2","extras":{"babylonSeparateCullingPass":false}},{"pbrMetallicRoughness":{"baseColorTexture":{"index":13,"extensions":{"KHR_texture_transform":{"texCoord":0}}},"metallicFactor":0.0,"roughnessFactor":0.5},"name":"matdikgorsel3","extras":{"babylonSeparateCullingPass":false}},{"pbrMetallicRoughness":{"baseColorTexture":{"index":14,"extensions":{"KHR_texture_transform":{"texCoord":0}}},"metallicFactor":0.0,"roughnessFactor":0.5},"name":"matdikgorsel4","extras":{"babylonSeparateCullingPass":false}},{"pbrMetallicRoughness":{"baseColorTexture":{"index":15,"extensions":{"KHR_texture_transform":{"texCoord":0}}},"metallicFactor":0.0,"roughnessFactor":0.5},"name":"matlogo3","extras":{"babylonSeparateCullingPass":false}},{"pbrMetallicRoughness":{"baseColorTexture":{"index":16,"extensions":{"KHR_texture_transform":{"texCoord":0}}},"metallicFactor":0.0,"roughnessFactor":0.5},"name":"matgenisgorsel","extras":{"babylonSeparateCullingPass":false}},{"pbrMetallicRoughness":{"baseColorTexture":{"index":17,"extensions":{"KHR_texture_transform":{"texCoord":0}}},"metallicFactor":0.0,"roughnessFactor":0.5},"name":"matyazi3","extras":{"babylonSeparateCullingPass":false}},{"pbrMetallicRoughness":{"baseColorTexture":{"index":18,"extensions":{"KHR_texture_transform":{"texCoord":0}}},"metallicFactor":0.0,"roughnessFactor":0.5},"name":"matlogo4","extras":{"babylonSeparateCullingPass":false}},{"pbrMetallicRoughness":{"baseColorTexture":{"index":19,"extensions":{"KHR_texture_transform":{"texCoord":0}}},"metallicFactor":0.0,"roughnessFactor":0.5},"name":"matdikgorsel5","extras":{"babylonSeparateCullingPass":false}},{"pbrMetallicRoughness":{"baseColorTexture":{"index":20,"extensions":{"KHR_texture_transform":{"texCoord":0}}},"metallicFactor":0.0,"roughnessFactor":0.5},"name":"matdikgorsel6","extras":{"babylonSeparateCullingPass":false}},{"pbrMetallicRoughness":{"baseColorTexture":{"index":21,"extensions":{"KHR_texture_transform":{"texCoord":0}}},"metallicFactor":0.0,"roughnessFactor":0.5},"name":"matdikgorsel7","extras":{"babylonSeparateCullingPass":false}},{"pbrMetallicRoughness":{"baseColorTexture":{"index":22,"extensions":{"KHR_texture_transform":{"texCoord":0}}},"metallicFactor":0.0,"roughnessFactor":0.5},"name":"matdikgorsel8","extras":{"babylonSeparateCullingPass":false}}],"textures":[{"sampler":0,"source":0,"name":"matkaronormal.png"},{"sampler":0,"source":1,"name":"matkaroroughness0.png"},{"sampler":0,"source":2,"name":"matrenknormal.png"},{"sampler":0,"source":3,"name":"matrenkroughness0.png"},{"sampler":0,"source":2,"name":"matrenknormal.png"},{"sampler":0,"source":3,"name":"matrenkroughness0.png"},{"sampler":0,"source":4,"name":"matvideo1.png"},{"sampler":0,"source":5,"name":"matyazi1.png"},{"sampler":0,"source":6,"name":"matdikgorsel1.png"},{"sampler":0,"source":7,"name":"matlogo1.png"},{"sampler":0,"source":8,"name":"matlogo2.png"},{"sampler":0,"source":9,"name":"matyazi2.png"},{"sampler":0,"source":10,"name":"matdikgorsel2.png"},{"sampler":0,"source":11,"name":"matdikgorsel3.png"},{"sampler":0,"source":12,"name":"matdikgorsel4.png"},{"sampler":0,"source":13,"name":"matlogo3.png"},{"sampler":0,"source":14,"name":"matgenisgorsel.png"},{"sampler":0,"source":15,"name":"matyazi3.png"},{"sampler":0,"source":16,"name":"matlogo4.png"},{"sampler":0,"source":17,"name":"matdikgorsel5.png"},{"sampler":0,"source":18,"name":"matdikgorsel6.png"},{"sampler":0,"source":19,"name":"matdikgorsel7.png"},{"sampler":0,"source":20,"name":"matdikgorsel8.png"}],"images":[{"uri":"./matkaronormal.png"},{"uri":"./matkaroroughness0.png"},{"uri":"./matrenknormal.png"},{"uri":"./matrenkroughness0.png"},{"uri":"./matvideo1.png"},{"uri":"./matyazi1.png"},{"uri":"./matdikgorsel1.png"},{"uri":"./matlogo1.png"},{"uri":"./matlogo2.png"},{"uri":"./matyazi2.png"},{"uri":"./matdikgorsel2.png"},{"uri":"./matdikgorsel3.png"},{"uri":"./matdikgorsel4.png"},{"uri":"./matlogo3.png"},{"uri":"./matgenisgorsel.png"},{"uri":"./matyazi3.png"},{"uri":"./matlogo4.png"},{"uri":"./matdikgorsel5.png"},{"uri":"./matdikgorsel6.png"},{"uri":"./matdikgorsel7.png"},{"uri":"./matdikgorsel8.png"}],"samplers":[{"magFilter":9729,"minFilter":9987}]}